<svg xmlns="http://www.w3.org/2000/svg" xmlns:xlink="http://www.w3.org/1999/xlink" width="294" height="342"><defs><linearGradient id="a" x1="7.541%" x2="276.807%" y1="27.213%" y2="179.504%"><stop offset="0%" stop-color="#76E1FF"/><stop offset="100%" stop-color="#637BFF" stop-opacity="0"/></linearGradient><linearGradient id="b" x1="50%" x2="50%" y1="0%" y2="97.483%"><stop offset="0%" stop-color="#21C8F6"/><stop offset="100%" stop-color="#637BFF"/></linearGradient><linearGradient id="e" x1="98.741%" x2="1.259%" y1="48.741%" y2="48.741%"><stop offset="0%" stop-color="#21C8F6"/><stop offset="100%" stop-color="#637BFF"/></linearGradient><linearGradient id="f" x1="38.152%" x2="41.989%" y1="78.776%" y2="102.32%"><stop offset="0%" stop-color="#55739C"/><stop offset="100%" stop-color="#4179D5"/></linearGradient><linearGradient id="g" x1="1.259%" x2="98.741%" y1="48.741%" y2="48.741%"><stop offset="0%" stop-color="#21C8F6"/><stop offset="100%" stop-color="#637BFF"/></linearGradient><linearGradient id="h" x1="13.01%" x2="50%" y1="-5.194%" y2="125.474%"><stop offset="0%" stop-color="#57DBFF"/><stop offset="100%" stop-color="#637BFF" stop-opacity="0"/></linearGradient><linearGradient id="k" x1="154.902%" x2="24.379%" y1="138.188%" y2="14.184%"><stop offset="0%" stop-color="#76E1FF"/><stop offset="100%" stop-color="#637BFF" stop-opacity="0"/></linearGradient><linearGradient id="l" x1="13.96%" x2="105.629%" y1=".616%" y2="98.781%"><stop offset="0%" stop-color="#587CB9"/><stop offset="100%" stop-color="#2E4469" stop-opacity="0"/></linearGradient><linearGradient id="p" x1="98.741%" x2="1.259%" y1="48.741%" y2="48.741%"><stop offset="0%" stop-color="#21C8F6"/><stop offset="100%" stop-color="#637BFF"/></linearGradient><linearGradient id="u" x1="16.192%" x2="84.563%" y1="0%" y2="94.065%"><stop offset="0%" stop-color="#57DBFF"/><stop offset="100%" stop-color="#637BFF" stop-opacity="0"/></linearGradient><linearGradient id="v" x1="98.741%" x2="1.259%" y1="48.741%" y2="48.741%"><stop offset="0%" stop-color="#21C8F6"/><stop offset="100%" stop-color="#637BFF"/></linearGradient><linearGradient id="w" x1="98.741%" x2="1.259%" y1="48.741%" y2="48.741%"><stop offset="0%" stop-color="#21C8F6"/><stop offset="100%" stop-color="#637BFF"/></linearGradient><linearGradient id="x" x1="30.414%" x2="50%" y1="31.624%" y2="68.376%"><stop offset="0%" stop-color="#5B79A2"/><stop offset="100%" stop-color="#2E4469"/></linearGradient><linearGradient id="A" x1="98.741%" x2="1.259%" y1="48.741%" y2="48.741%"><stop offset="0%" stop-color="#21C8F6"/><stop offset="100%" stop-color="#637BFF"/></linearGradient><linearGradient id="B" x1="34.594%" x2="60.398%" y1="40.953%" y2="55.694%"><stop offset="0%" stop-color="#5B79A2"/><stop offset="100%" stop-color="#2E4469"/></linearGradient><linearGradient id="C" x1="0%" x2="100%" y1="50%" y2="50%"><stop offset="0%" stop-color="#6F90BC"/><stop offset="100%" stop-color="#2E4469"/></linearGradient><linearGradient id="D" x1="13.01%" x2="50%" y1="44.97%" y2="56.878%"><stop offset="0%" stop-color="#57DBFF"/><stop offset="100%" stop-color="#637BFF" stop-opacity="0"/></linearGradient><linearGradient id="G" x1="75.874%" x2="92.229%" y1="34.347%" y2="96.254%"><stop offset="0%" stop-color="#5B79A2"/><stop offset="100%" stop-color="#2E4469"/></linearGradient><linearGradient id="M" x1="71.928%" x2="16.833%" y1="0%" y2="100%"><stop offset="0%" stop-color="#476698"/><stop offset="100%" stop-color="#253652"/></linearGradient><linearGradient id="N" x1="50%" x2="50%" y1="149.484%" y2="0%"><stop offset="0%" stop-color="#5B79A2"/><stop offset="100%" stop-color="#2E4469"/></linearGradient><filter id="c" width="719.2%" height="273.4%" x="-309.6%" y="-74.5%" filterUnits="objectBoundingBox"><feOffset dy="5" in="SourceAlpha" result="shadowOffsetOuter1"/><feGaussianBlur in="shadowOffsetOuter1" result="shadowBlurOuter1" stdDeviation="11"/><feColorMatrix in="shadowBlurOuter1" values="0 0 0 0 0.0115609217 0 0 0 0 0.467910214 0 0 0 0 1 0 0 0 1 0"/></filter><filter id="n" width="167.3%" height="751.8%" x="-33.7%" y="-221.6%" filterUnits="objectBoundingBox"><feOffset dy="8" in="SourceAlpha" result="shadowOffsetOuter1"/><feGaussianBlur in="shadowOffsetOuter1" result="shadowBlurOuter1" stdDeviation="7"/><feColorMatrix in="shadowBlurOuter1" values="0 0 0 0 0.0115609217 0 0 0 0 0.467910214 0 0 0 0 1 0 0 0 1 0"/></filter><filter id="r" width="167.3%" height="751.8%" x="-33.7%" y="-221.6%" filterUnits="objectBoundingBox"><feOffset dy="8" in="SourceAlpha" result="shadowOffsetOuter1"/><feGaussianBlur in="shadowOffsetOuter1" result="shadowBlurOuter1" stdDeviation="7"/><feColorMatrix in="shadowBlurOuter1" values="0 0 0 0 0.0115609217 0 0 0 0 0.467910214 0 0 0 0 1 0 0 0 1 0"/></filter><filter id="y" width="156.9%" height="1220.2%" x="-28.5%" y="-481.2%" filterUnits="objectBoundingBox"><feOffset dy="5" in="SourceAlpha" result="shadowOffsetOuter1"/><feGaussianBlur in="shadowOffsetOuter1" result="shadowBlurOuter1" stdDeviation="11"/><feColorMatrix in="shadowBlurOuter1" values="0 0 0 0 0.0115609217 0 0 0 0 0.467910214 0 0 0 0 1 0 0 0 1 0"/></filter><filter id="F" width="100%" height="100%" x="0%" y="0%" filterUnits="objectBoundingBox"><feGaussianBlur in="SourceGraphic"/></filter><filter id="I" width="132.3%" height="240%" x="-16.2%" y="-70%" filterUnits="objectBoundingBox"><feGaussianBlur in="SourceGraphic" stdDeviation="4.777"/></filter><filter id="J" width="144.4%" height="144.4%" x="-22.2%" y="-22.2%" filterUnits="objectBoundingBox"><feGaussianBlur in="SourceGraphic" stdDeviation="6.825"/></filter><filter id="K" width="180%" height="180%" x="-40%" y="-40%" filterUnits="objectBoundingBox"><feGaussianBlur in="SourceGraphic" stdDeviation="6.825"/></filter><radialGradient id="q" cx="0%" cy="100%" r="379.12%" fx="0%" fy="100%" gradientTransform="matrix(.08726 -.64586 .07382 .76346 -.074 .237)"><stop offset="0%" stop-color="#08C4FB" stop-opacity=".984"/><stop offset="100%" stop-color="#637BFF" stop-opacity="0"/></radialGradient><radialGradient id="t" cx="0%" cy="100%" r="334.32%" fx="0%" fy="100%" gradientTransform="scale(.14534 1) rotate(-47.088 0 1)"><stop offset="0%" stop-color="#08C4FB" stop-opacity=".984"/><stop offset="100%" stop-color="#637BFF" stop-opacity="0"/></radialGradient><radialGradient id="E" cx="52.436%" cy="42.955%" r="91.927%" fx="52.436%" fy="42.955%" gradientTransform="matrix(-.39286 0 0 -.21136 .73 .52)"><stop offset="0%" stop-color="#172743"/><stop offset="100%" stop-opacity="0"/></radialGradient><radialGradient id="H" cx="52.436%" cy="42.955%" r="156.494%" fx="52.436%" fy="42.955%" gradientTransform="matrix(-.23077 0 0 -.21136 .645 .52)"><stop offset="0%" stop-color="#172743"/><stop offset="100%" stop-opacity="0"/></radialGradient><radialGradient id="L" cx="50%" cy="50%" r="68.353%" fx="50%" fy="50%"><stop offset="0%" stop-color="#21C8F6"/><stop offset="100%" stop-color="#4BDEFF"/></radialGradient><path id="i" d="M15.651 0H98.53c8.644 0 15.65 7.007 15.65 15.651v66.47c0 6.45-3.956 12.24-9.965 14.583-9.872 3.849-24.926 5.773-45.163 5.773-21.456 0-37.8-2.163-49.028-6.49A15.65 15.65 0 010 81.383V15.65C0 7.007 7.007 0 15.651 0z"/><path id="j" d="M15.651 0H98.53c8.644 0 15.65 7.007 15.65 15.651v66.47c0 6.45-3.956 12.24-9.965 14.583-9.872 3.849-24.926 5.773-45.163 5.773-21.456 0-37.8-2.163-49.028-6.49A15.65 15.65 0 010 81.383V15.65C0 7.007 7.007 0 15.651 0z"/><path id="o" d="M58.71 45.898h66.607a3.835 3.835 0 110 7.671H58.711a3.835 3.835 0 110-7.671z"/><path id="s" d="M59.716 67.854h66.606a3.836 3.836 0 010 7.672H59.716a3.836 3.836 0 010-7.672z"/><path id="z" d="M68.226 130.786h118.356a3.17 3.17 0 110 6.338H68.226a3.17 3.17 0 110-6.338z"/><rect id="d" width="11.466" height="40.95" x="133.207" y="19.471" rx="5.733"/></defs><g style="mix-blend-mode:luminosity" fill="none" fill-rule="evenodd" opacity=".497"><g transform="rotate(73 46.39 244.27)"><path stroke="url(#a)" stroke-width="6.825" d="M149.954 156.285L89.822 9.993 8.527 53.996"/><circle cx="90.295" cy="10.033" r="10.033" fill="url(#b)"/><path fill="#FFF" fill-opacity=".2" d="M89.817 0a9.541 9.541 0 017.645 3.823 9.555 9.555 0 00-15.289 7.643c0 2.151.711 4.137 1.911 5.734A9.555 9.555 0 0189.817 0z"/></g><g transform="scale(-1 1) rotate(-32 151.462 711.78)"><use fill="#000" filter="url(#c)" xlink:href="#d"/><use fill="url(#e)" xlink:href="#d"/></g><g transform="scale(-1 1) rotate(-31 -6.798 541.455)"><path fill="url(#f)" d="M55.252 0h73.707c18.522 0 33.538 15.015 33.538 33.538v77.59c0 22.227-18.019 40.245-40.246 40.245H61.959c-22.227 0-40.245-18.018-40.245-40.245v-77.59C21.714 15.015 36.729 0 55.252 0z"/><ellipse cx="51.019" cy="12.95" fill="url(#g)" rx="4.434" ry="4.505"/><path fill="#1B283E" d="M24.477 94.119c0 22.227 18.019 40.246 40.246 40.246h54.918c22.227 0 40.246-18.019 40.246-40.246v18.191c0 22.227-18.019 40.246-40.246 40.246H64.723c-22.227 0-40.246-18.019-40.246-40.246z" opacity=".499"/><path stroke="url(#h)" stroke-width="1.706" d="M164.178 48.734c.042.834.046 1.67.01 2.504l-2.665 62.78c-.915 21.543-18.647 38.538-40.21 38.538H63.186c-21.617 0-39.374-17.079-40.215-38.68l-2.264-58.153a26.701 26.701 0 013.77-14.797v53.193c0 22.227 18.019 40.246 40.246 40.246h54.918c22.227 0 40.246-18.019 40.246-40.246h0V35.483a26.706 26.706 0 014.29 13.251z"/><g transform="translate(35.531 22.523)"><use fill="#1B283E" xlink:href="#i"/><mask id="m" fill="#fff"><use xlink:href="#j"/></mask><path stroke="url(#k)" stroke-width="2.389" d="M103.781 95.591c-9.777 3.812-24.69 5.692-44.73 5.692-21.264 0-37.467-2.121-48.598-6.41a14.434 14.434 0 01-6.721-5.31 14.433 14.433 0 01-2.538-8.18V15.65c0-3.992 1.618-7.606 4.235-10.222a14.407 14.407 0 0110.222-4.235H98.53c3.992 0 7.606 1.618 10.222 4.235a14.41 14.41 0 014.234 10.222v66.47a14.447 14.447 0 01-9.205 13.47z"/><ellipse cx="32.144" cy="19.144" fill="url(#l)" mask="url(#m)" rx="63.18" ry="64.189"/></g><use fill="#000" filter="url(#n)" xlink:href="#o"/><use fill="url(#p)" xlink:href="#o"/><path fill="url(#q)" d="M59.716 57.194h59.44a3.836 3.836 0 110 7.671h-59.44a3.836 3.836 0 010-7.671z"/><use fill="#000" filter="url(#r)" xlink:href="#s"/><use fill="url(#p)" xlink:href="#s"/><path fill="url(#t)" d="M59.716 78.515h45.108a3.836 3.836 0 010 7.671H59.716a3.835 3.835 0 110-7.671z"/><path d="M107.182 15.991h-3.562c-.976 0-1.766-.805-1.766-1.801 0-.996.79-1.802 1.766-1.802h3.562c.975 0 1.766.806 1.766 1.802 0 .995-.79 1.801-1.766 1.801zm6.651-4.955h-3.563c-.975 0-1.765-.806-1.765-1.801 0-.996.79-1.802 1.765-1.802h3.563c.975 0 1.765.806 1.765 1.802 0 .995-.79 1.801-1.765 1.801zm18.174 4.955h-19.508a1.79 1.79 0 01-1.778-1.801 1.79 1.79 0 011.778-1.802h19.5c.982 0 1.777.806 1.777 1.802 0 .995-.795 1.801-1.777 1.801h.008zm6.572-4.955h-19.36c-1.02 0-1.847-.806-1.847-1.801 0-.996.827-1.802 1.848-1.802h19.36c1.02 0 1.847.806 1.847 1.802 0 .995-.827 1.801-1.848 1.801z" fill="#243552"/><path stroke="url(#u)" stroke-width="3.413" d="M55.252 0h73.86c18.523 0 33.538 15.015 33.538 33.538v76.708c0 22.227-18.019 40.245-40.246 40.245H61.96c-22.227 0-40.245-18.018-40.245-40.245V33.538C21.714 15.015 36.729 0 55.252 0z"/><g style="mix-blend-mode:luminosity"><g transform="rotate(-4 413.69 11.364)"><ellipse cx="44.633" cy="34.07" fill="url(#v)" opacity=".398" rx="32.731" ry="32.589"/><ellipse cx="129.436" cy="34.07" fill="url(#v)" opacity=".398" rx="32.731" ry="32.589"/><path fill="#1B283E" stroke="#1B283E" stroke-width="2.317" d="M128.733 64.884c-16.727 0-30.286-13.464-30.286-30.074 0-16.608 13.56-30.073 30.286-30.073s30.285 13.465 30.285 30.073c0 16.61-13.56 30.074-30.285 30.074zm-84.568 0c-16.726 0-30.284-13.464-30.284-30.074 0-16.608 13.558-30.073 30.284-30.073 16.727 0 30.285 13.465 30.285 30.073 0 16.61-13.558 30.074-30.285 30.074zm116.575-48.52c-2.529-2.898-7.333-6.653-10.209-8.8a34.727 34.727 0 00-2.285-1.672l-.05-.037v.004A35.05 35.05 0 00128.734 0a35.07 35.07 0 00-24.831 10.24c-3.073 2.851-5.722 5.973-8.461 9.032-3.47 3.876-5.522 1.974-8.992 1.974-3.47 0-5.523 1.902-8.992-1.974-2.738-3.06-5.388-6.18-8.461-9.032C62.648 3.915 53.762 0 44.059 0c-7.203 0-14.324 2.16-19.571 5.86v-.005l.055.037c-.789.525-1.496 1.086-2.236 1.672-2.876 2.147-7.804 5.902-10.334 8.8C8.215 20.672 0 20.959 0 20.959v8.9s4.916-.287 6.506 1.58c.94 1.1 1.953 6.403 3.606 11.951.505 1.977 1.222 3.883 2.05 5.708.775 1.815 1.68 3.496 2.714 4.876l.01-.01a35.093 35.093 0 0029.275 15.658 35.072 35.072 0 0031.937-20.455l.027-.034.082-.134c2.516-4.241 5.05-15.857 6.194-17.704 1.157-1.867 4.048-2.01 4.048-2.01s2.891.143 4.047 2.01c1.145 1.847 3.678 13.463 6.195 17.704l.081.134.026.034a35.069 35.069 0 0031.935 20.455 35.077 35.077 0 0029.268-15.658l.002.01c1.035-1.38 1.921-3.06 2.695-4.875a34.406 34.406 0 002.015-5.709c1.653-5.548 2.582-10.851 3.52-11.952 1.59-1.866 6.349-1.578 6.349-1.578v-8.9s-8.083-.288-11.842-4.594h0z"/></g><path fill="url(#w)" d="M43.048 4.973L18.254 52.216l19.662 12.432 25.06-53.045zm84.632 0l-24.795 47.243 19.662 12.432 25.06-53.045z" opacity=".309" transform="rotate(-4 413.69 11.364)"/></g></g><g transform="scale(-1 1) rotate(-21 435.47 737.303)"><path fill="#1B283E" d="M31.908 56.189l190.252-3.321c11.515-.201 21.013 8.97 21.214 20.486.019 1.1-.049 2.198-.203 3.287l-13.426 94.845c-2.873 20.297-20.07 35.497-40.567 35.855L70.26 209.416c-20.496.358-38.214-14.232-41.794-34.417L11.74 80.68c-2.012-11.34 5.55-22.163 16.89-24.174a20.841 20.841 0 013.278-.317z"/><path fill="url(#x)" d="M26.5 44.573h203.29c11.517 0 20.853 9.336 20.853 20.853 0 1.213-.105 2.424-.316 3.619l-15.56 88.302c-3.513 19.934-20.832 34.469-41.074 34.469H62.596c-20.242 0-37.56-14.535-41.074-34.47l-15.56-88.3C3.964 57.703 11.538 46.888 22.88 44.889a20.914 20.914 0 013.62-.316z" transform="rotate(-1 128.143 118.194)"/><path fill="url(#x)" d="M26.5 44.573h203.29c11.517 0 20.853 9.336 20.853 20.853 0 1.213-.105 2.424-.316 3.619l-15.56 88.302c-3.513 19.934-20.832 34.469-41.074 34.469H62.596c-20.242 0-37.56-14.535-41.074-34.47l-15.56-88.3C3.964 57.703 11.538 46.888 22.88 44.889a20.914 20.914 0 013.62-.316z" transform="rotate(-1 128.143 118.194)"/><path fill="#1B283E" d="M67.977 120.217l118.338-2.066a3.17 3.17 0 01.111 6.338l-60.11 1.05-58.228 1.015a3.168 3.168 0 11-.111-6.337z"/><g transform="rotate(-1 127.404 133.955)"><use fill="#000" filter="url(#y)" xlink:href="#z"/><use fill="url(#A)" xlink:href="#z"/></g><path fill="#1B283E" d="M70.041 143.392l118.338-2.066a3.169 3.169 0 11.111 6.337l-60.11 1.05-58.228 1.016a3.17 3.17 0 01-.111-6.337zm.203 11.601l118.338-2.065a3.17 3.17 0 01.11 6.337l-60.11 1.05-58.227 1.016a3.17 3.17 0 01-.111-6.338z"/><path fill="url(#B)" d="M60.474 46.214h136.5c11.517 0 20.853 9.337 20.853 20.853 0 2.136-.328 4.258-.972 6.294l-2.028 6.407c-5.488 17.337-21.577 29.12-39.762 29.12H82.383c-18.185 0-34.274-11.783-39.762-29.12l-2.028-6.407c-3.476-10.98 2.608-22.699 13.588-26.175a20.86 20.86 0 016.293-.972z" transform="rotate(-1 128.722 77.55)"/><path fill="url(#C)" d="M27.498 46.222H229.05c11.517 0 20.853 9.336 20.853 20.853 0 2.856-.586 5.68-1.723 8.3l-3.65 8.412a41.705 41.705 0 01-38.26 25.109H50.278a41.708 41.708 0 01-38.262-25.109l-3.65-8.412c-4.583-10.566.266-22.847 10.832-27.43a20.845 20.845 0 018.3-1.723z" transform="rotate(-1 128.272 77.559)"/><path stroke="url(#D)" stroke-width="1.706" d="M27.498 46.222H229.05c11.517 0 20.853 9.336 20.853 20.853 0 2.856-.586 5.68-1.723 8.3l-3.65 8.412a41.705 41.705 0 01-38.26 25.109H50.278a41.708 41.708 0 01-38.262-25.109l-3.65-8.412c-4.583-10.566.266-22.847 10.832-27.43a20.845 20.845 0 018.3-1.723z" transform="rotate(-1 128.272 77.559)"/><path fill="#1B283E" d="M249.042 64.966a20.861 20.861 0 01-1.578 8.328l-3.502 8.475a41.707 41.707 0 01-37.818 25.772l-155.967 2.722a41.708 41.708 0 01-38.694-24.436l-3.795-8.348a20.77 20.77 0 01-.92-14.856 18.006 18.006 0 001.818 12.051l2.01 3.737a41.707 41.707 0 0037.458 21.942l159.867-2.79a41.708 41.708 0 0036.668-23.236l1.879-3.805a18.073 18.073 0 001.865-8.32 18.081 18.081 0 00-.47-3.81 20.855 20.855 0 011.179 6.574z" opacity=".504"/><path fill="#1B283E" d="M100.76 54.987l56.661-.99a20.857 20.857 0 0113.806 4.908l9.41 7.934a7.554 7.554 0 01-4.738 13.329l-92.692 1.618a7.555 7.555 0 01-5.2-13.156l9.128-8.257a20.853 20.853 0 0113.626-5.386z"/><ellipse cx="159.3" cy="67.421" fill="url(#E)" filter="url(#F)" opacity=".899" rx="47.775" ry="18.769" transform="rotate(-1 159.3 67.42)"/><g transform="rotate(-1 151.429 -4656.65)"><path fill="url(#G)" d="M30.304 3.433h35.214c8.957 0 16.22 7.262 16.22 16.22v39.581c0 5.12-4.15 9.269-9.269 9.269H23.352c-5.118 0-9.268-4.15-9.268-9.269V19.653c0-8.958 7.262-16.22 16.22-16.22z"/><circle cx="46.651" cy="37.36" r="23.887" fill="#1B283E"/><ellipse cx="44.6" cy="10.512" fill="url(#H)" filter="url(#I)" opacity=".65" rx="44.362" ry="10.238"/></g></g><g transform="scale(-1 1) rotate(-21 373.72 518.481)"><circle fill="#92BAE9" opacity=".136" style="mix-blend-mode:overlay" cx="46.069" cy="46.069" r="46.069" filter="url(#J)"/><circle cx="46.069" cy="46.069" r="25.594" fill="#328AF1" filter="url(#K)" opacity=".842"/><circle cx="46.615" cy="47.122" r="13.65" fill="url(#L)" transform="scale(1 -1) rotate(4 1396.018 0)"/><g style="mix-blend-mode:soft-light" fill="#FFF"><path d="M52.456 42.937l-2.169 2.17a1.24 1.24 0 001.755 1.755l2.17-2.17a1.24 1.24 0 00-1.754-1.755zm-4.804 4.804l-4.735 4.735a1.24 1.24 0 001.755 1.755l4.735-4.735a1.24 1.24 0 00-1.754-1.754z"/><path d="M53.68 42.621l-13.368-3.757a1.186 1.186 0 00-1.461.821l-.008.028a1.245 1.245 0 00.87 1.506l13.368 3.758a1.187 1.187 0 001.461-.822l.007-.028a1.246 1.246 0 00-.87-1.506z"/><path d="M44.949 53.108L41.192 39.74a1.247 1.247 0 00-1.506-.87 1.186 1.186 0 00-.857 1.442l.008.027 3.758 13.369c.182.65.85 1.036 1.506.87a1.185 1.185 0 00.855-1.442l-.007-.028zm.267-6.146l4.97 4.97a1.206 1.206 0 001.706-1.706l-4.97-4.97a1.206 1.206 0 00-1.706 1.706zm7.28 7.28l.817.817a1.206 1.206 0 001.704-1.706l-.816-.816a1.206 1.206 0 00-1.705 1.706z"/></g><path fill="#FFF" fill-opacity=".547" d="M36.006 48.27a11.36 11.36 0 005.474 8.574 11.332 11.332 0 01-2.974-6.55c-.656-6.247 3.876-11.844 10.124-12.5a11.322 11.322 0 017.024 1.547 11.358 11.358 0 00-9.524-3.573c-6.248.657-10.78 6.254-10.124 12.502z" style="mix-blend-mode:lighten" opacity=".58"/></g><path stroke="url(#M)" stroke-width="6.143" d="M51.188 8.873C30.59 10.197 27.366 34.206 20.133 45.046 8.567 62.378-10.56 56.97 7.662 74.553" transform="rotate(-24 336.624 13.673)"/><g transform="rotate(66 -48.747 117.297)"><rect width="9.75" height="10.238" x="3.656" y="3.413" fill="#1B283E" rx="4.875"/><rect width="17.063" height="6.825" fill="url(#N)" rx="3.413"/></g></g></svg>