<svg width="45" height="44" fill="none" xmlns="http://www.w3.org/2000/svg"><rect opacity=".4" width="35.121" height="33.234" rx="9.136" transform="matrix(.92975 -.36819 -.36854 -.92961 12.248 43.826)" fill="url(#l9vwslo5za)"/><rect opacity=".4" width="34.806" height="32.936" rx="9.136" transform="matrix(.27026 -.96279 -.96289 -.2699 33.604 43.113)" fill="url(#d2itl0umib)"/><rect width="33.722" height="31.91" rx="9.136" transform="matrix(1 0 -.00037 -1 5.596 37.868)" fill="url(#0elowhc33c)"/><rect width="33.722" height="31.91" rx="9.136" transform="matrix(1 0 -.00037 -1 5.596 37.868)" fill="url(#7o227aco9d)"/><path opacity=".3" fill-rule="evenodd" clip-rule="evenodd" d="M11.452 37.33a9.144 9.144 0 01-5.863-8.53l-.005-13.705a9.132 9.132 0 019.133-9.136H30.17a9.12 9.12 0 017.005 3.268 28.284 28.284 0 00-1.487-.039c-13.825 0-25.032 10.071-25.032 22.495 0 1.95.276 3.843.796 5.647z" fill="url(#c4gcurhzqe)"/><g filter="url(#vkn75yldnf)"><path fill-rule="evenodd" clip-rule="evenodd" d="M29.748 22.55l-11.65 6.826h-.001a.743.743 0 01-.752 0 .766.766 0 01-.376-.66V15.062c0-.272.144-.524.376-.66a.743.743 0 01.752 0l11.65 6.826a.767.767 0 010 1.321z" fill="url(#olj0tk2k0g)"/></g><defs><linearGradient id="l9vwslo5za" x1="10.908" y1="-47.878" x2="10.908" y2="33.234" gradientUnits="userSpaceOnUse"><stop stop-color="#6F90BC"/><stop offset="1" stop-color="#2E4469"/></linearGradient><linearGradient id="d2itl0umib" x1="10.81" y1="-47.448" x2="10.81" y2="32.936" gradientUnits="userSpaceOnUse"><stop stop-color="#6F90BC"/><stop offset="1" stop-color="#2E4469"/></linearGradient><linearGradient id="0elowhc33c" x1="10.473" y1="-45.971" x2="10.473" y2="31.91" gradientUnits="userSpaceOnUse"><stop stop-color="#6F90BC"/><stop offset="1" stop-color="#2E4469"/></linearGradient><linearGradient id="7o227aco9d" x1="14.687" y1="11.849" x2="-9.953" y2="45.972" gradientUnits="userSpaceOnUse"><stop stop-color="#3CD6FC" stop-opacity="0"/><stop offset="1" stop-color="#3BD6FC"/></linearGradient><linearGradient id="c4gcurhzqe" x1="18.656" y1="23.874" x2="-3.381" y2="-6.526" gradientUnits="userSpaceOnUse"><stop stop-color="#3CD6FC" stop-opacity="0"/><stop offset="1" stop-color="#3BD6FC"/></linearGradient><radialGradient id="olj0tk2k0g" cx="0" cy="0" r="1" gradientUnits="userSpaceOnUse" gradientTransform="matrix(8.99717 0 0 10.3814 23.546 21.89)"><stop stop-color="#21C8F6"/><stop offset="1" stop-color="#4BDEFF"/></radialGradient><filter id="vkn75yldnf" x="7.969" y="5.301" width="31.154" height="33.177" filterUnits="userSpaceOnUse" color-interpolation-filters="sRGB"><feFlood flood-opacity="0" result="BackgroundImageFix"/><feColorMatrix in="SourceAlpha" values="0 0 0 0 0 0 0 0 0 0 0 0 0 0 0 0 0 0 127 0" result="hardAlpha"/><feOffset/><feGaussianBlur stdDeviation="4.5"/><feColorMatrix values="0 0 0 0 0.137255 0 0 0 0 0.788235 0 0 0 0 0.968627 0 0 0 1 0"/><feBlend in2="BackgroundImageFix" result="effect1_dropShadow_201_21013"/><feBlend in="SourceGraphic" in2="effect1_dropShadow_201_21013" result="shape"/></filter></defs></svg>