<svg width="140" height="89" fill="none" xmlns="http://www.w3.org/2000/svg"><g opacity=".1" fill-rule="evenodd" clip-rule="evenodd"><path opacity=".384" d="M77.715 33.672l.428.153c11.921 4.254 11.921 4.75 11.921 5.949v9.343c0 1.199 0 1.649-11.915 6.268l-.4.156-1.671 3.97.198.421c5.34 11.232 4.987 11.584 4.136 12.434h-.001l-6.777 6.624c-.282.28-.773.461-1.187.461-1.022 0-4.965-1.44-11.716-4.296l-.39-.16-4.104 1.659-.163.424c-4.356 11.646-4.853 11.646-6.052 11.646h-9.548c-1.17 0-1.652 0-6.35-11.614l-.16-.412-4.12-1.666-.4.187c-9.99 4.517-11.139 4.517-11.517 4.517-.417 0-.907-.194-1.19-.466l-6.749-6.6-.001-.001c-.862-.857-1.18-1.173 3.884-12.66l.18-.405-1.675-3.975-.426-.15C.03 51.209.03 50.71.03 49.51v-9.35c0-1.196 0-1.644 11.896-6.24l.41-.157 1.675-3.987-.196-.417C8.483 18.113 8.84 17.76 9.697 16.913l6.765-6.61c.278-.273.765-.46 1.182-.46 1.029 0 4.974 1.444 11.73 4.291l.392.163 4.098-1.67.163-.423C38.38.565 38.91.565 40.074.565h9.546c1.168 0 1.649 0 6.343 11.619l.165.41 4.119 1.657.4-.18c9.983-4.519 11.134-4.519 11.515-4.519.418 0 .903.193 1.18.467l6.759 6.59v.001c.84.833 1.188 1.178-3.878 12.662l-.181.41 1.673 3.99zM29.576 44.647c0 8.356 6.94 15.16 15.47 15.16 8.528 0 15.467-6.805 15.467-15.16 0-8.356-6.94-15.152-15.466-15.152-8.53 0-15.47 6.794-15.47 15.152z" fill="url(#psrhxgerna)" style="mix-blend-mode:luminosity"/><path opacity=".384" d="M132.315 24.48l.254.09c7.076 2.526 7.076 2.82 7.076 3.532v5.545c0 .711 0 .978-7.072 3.72l-.237.092-.992 2.356.118.25c3.169 6.666 2.959 6.875 2.454 7.38h-.001l-4.021 3.931a1.077 1.077 0 01-.705.274c-.606 0-2.947-.855-6.953-2.55l-.232-.095-2.436.985-.096.251c-2.586 6.912-2.881 6.912-3.592 6.912h-5.667c-.694 0-.98 0-3.768-6.893l-.095-.244-2.446-.99-.237.112c-5.929 2.68-6.61 2.68-6.835 2.68-.248 0-.538-.115-.706-.276l-4.006-3.917c-.512-.509-.7-.697 2.305-7.514l.107-.24-.995-2.36-.253-.089c-7.074-2.534-7.074-2.83-7.074-3.542v-5.548c0-.71 0-.976 7.06-3.704l.244-.093.994-2.366-.116-.248c-3.165-6.675-2.954-6.885-2.444-7.387l4.015-3.923c.164-.162.453-.273.701-.273.61 0 2.952.857 6.962 2.547l.232.096 2.432-.99.097-.252c2.584-6.907 2.898-6.907 3.589-6.907h5.665c.693 0 .979 0 3.765 6.895l.098.243 2.444.984.238-.107c5.924-2.681 6.608-2.681 6.834-2.681.248 0 .536.114.7.277l4.011 3.91.001.001c.498.494.705.699-2.302 7.515l-.107.243.992 2.368zm-28.57 6.514c0 4.96 4.119 8.997 9.182 8.997 5.061 0 9.179-4.039 9.179-8.997 0-4.96-4.118-8.993-9.179-8.993-5.063 0-9.182 4.033-9.182 8.992z" fill="url(#2nbwrwat5b)" style="mix-blend-mode:luminosity"/></g><defs><radialGradient id="psrhxgerna" cx="0" cy="0" r="1" gradientUnits="userSpaceOnUse" gradientTransform="matrix(0 89.7554 -91.6651 0 45.047 44.645)"><stop stop-color="#fff"/><stop offset="1" stop-color="#C42E6C"/></radialGradient><radialGradient id="2nbwrwat5b" cx="0" cy="0" r="1" gradientUnits="userSpaceOnUse" gradientTransform="matrix(0 53.269 -54.4024 0 112.927 30.992)"><stop stop-color="#fff"/><stop offset="1" stop-color="#C42E6C"/></radialGradient></defs></svg>