<svg width="135" height="116" fill="none" xmlns="http://www.w3.org/2000/svg"><ellipse opacity=".8" cx="63.5" cy="110.5" rx="63.5" ry="5.5" fill="url(#er31oev18a)"/><g style="mix-blend-mode:luminosity"><path d="M50.16 4.042l49.05 5.86c12.063 1.48 20.668 12.42 19.265 24.492l-6.111 51.142c-1.762 14.453-14.862 24.725-29.328 23.067l-40.411-4.828c-14.453-1.762-24.79-14.905-23.06-29.398l6.094-51.001c1.445-12.095 12.402-20.74 24.5-19.334z" fill="url(#n8a8khnmpb)"/><ellipse cx="46.566" cy="12.234" rx="2.912" ry="2.947" transform="rotate(6.813 46.566 12.234)" fill="#243552"/><path opacity=".2" d="M21.282 62.675C19.55 77.167 29.888 90.31 44.38 92.042l40.063 4.786c14.462 1.693 27.531-8.618 29.328-23.067l-1.399 11.705c-1.762 14.454-14.862 24.725-29.327 23.068l-40.064-4.787c-14.453-1.762-24.725-14.862-23.067-29.328l1.368-11.744z" fill="#1B283E"/><path d="M45.747 18.497l54.764 6.543a10.177 10.177 0 018.958 11.388l-5.212 43.616a10.173 10.173 0 01-7.647 8.698c-6.814 1.73-16.892 1.797-30.27.2-14.214-1.7-24.777-4.375-31.9-8.052a10.175 10.175 0 01-5.168-10.264l5.165-43.234a10.175 10.175 0 0111.38-8.887l-.035-.004-.035-.004z" fill="#1B283E"/><mask id="a" style="mask-type:alpha" maskUnits="userSpaceOnUse" x="29" y="18" width="81" height="73"><path fill-rule="evenodd" clip-rule="evenodd" d="M45.747 18.497l54.764 6.543a10.177 10.177 0 018.958 11.388l-5.212 43.616a10.173 10.173 0 01-7.647 8.698c-6.814 1.73-16.892 1.797-30.27.2-14.214-1.7-24.777-4.375-31.9-8.052a10.175 10.175 0 01-5.168-10.264l5.165-43.234a10.175 10.175 0 0111.38-8.887l-.035-.004-.035-.004z" fill="#fff"/></mask><g opacity=".7" mask="url(#a)"><path d="M83.627 80.293c-1.534.221-3.239-.246-4.386-1.29-.494-.463-.534-1.24-.146-1.76.388-.518 1.205-.529 1.689-.136.658.617 1.545.846 2.487.71.872-.125 1.693-.6 2.151-1.377.268-.609 1.066-.759 1.584-.37.519.387.734 1.14.356 1.728-.876 1.336-2.17 2.234-3.844 2.475l.034-.005.07-.01.005.035z" fill="#000"/><path d="M83.627 80.293c-1.534.221-3.239-.246-4.386-1.29-.494-.463-.534-1.24-.146-1.76.388-.518 1.205-.529 1.689-.136.658.617 1.545.846 2.487.71.872-.125 1.693-.6 2.151-1.377.268-.609 1.066-.759 1.584-.37.519.387.734 1.14.356 1.728-.876 1.336-2.17 2.234-3.844 2.475l.034-.005.07-.01.005.035z" fill="url(#qm456h87ld)"/></g><path clip-rule="evenodd" d="M100.52 25.854c2.578.308 4.752 1.628 6.294 3.508a9.118 9.118 0 011.988 7.022l-5.215 43.65a9.472 9.472 0 01-2.24 5.14c-1.224 1.373-2.832 2.417-4.692 2.902-6.772 1.664-16.75 1.78-29.918.206-14.075-1.682-24.568-4.349-31.621-8.018A10.176 10.176 0 0131.1 76.32a9.123 9.123 0 01-1.005-5.491l5.178-43.338c.308-2.578 1.628-4.752 3.508-6.294a9.473 9.473 0 017.053-1.949l54.686 6.605z" stroke="url(#z0n3rhna0e)" stroke-width="1.579"/><mask id="b" style="mask-type:alpha" maskUnits="userSpaceOnUse" x="29" y="18" width="81" height="73"><path fill-rule="evenodd" clip-rule="evenodd" d="M45.747 18.497l54.764 6.543a10.177 10.177 0 018.958 11.388l-5.212 43.616a10.173 10.173 0 01-7.647 8.698c-6.814 1.73-16.892 1.797-30.27.2-14.214-1.7-24.777-4.375-31.9-8.052a10.175 10.175 0 01-5.168-10.264l5.165-43.234a10.175 10.175 0 0111.38-8.887l-.035-.004-.035-.004z" fill="#fff"/></mask><g mask="url(#b)"><ellipse opacity=".5" cx="35.359" cy="21.743" rx="34.98" ry="35.331" transform="rotate(6.813 35.36 21.743)" fill="url(#n8q8yin4dg)"/></g><mask id="c" style="mask-type:alpha" maskUnits="userSpaceOnUse" x="29" y="18" width="81" height="73"><path fill-rule="evenodd" clip-rule="evenodd" d="M45.747 18.497l54.764 6.543a10.177 10.177 0 018.958 11.388l-5.212 43.616a10.173 10.173 0 01-7.647 8.698c-6.814 1.73-16.892 1.797-30.27.2-14.214-1.7-24.777-4.375-31.9-8.052a10.175 10.175 0 01-5.168-10.264l5.165-43.234a10.175 10.175 0 0111.38-8.887l-.035-.004-.035-.004z" fill="#fff"/></mask><g mask="url(#c)"><path opacity=".384" fill-rule="evenodd" clip-rule="evenodd" d="M85.207 50.01l.217.108c6.042 3.006 6.01 3.268 5.935 3.903l-.591 4.946c-.076.635-.104.873-6.704 2.565l-.221.057-1.136 1.995.078.236c2.116 6.284 1.907 6.448 1.403 6.844l-4.007 3.078a.967.967 0 01-.658.169c-.54-.065-2.537-1.077-5.93-3.016l-.197-.108-2.277.618-.113.214c-3.043 5.89-3.306 5.858-3.94 5.782l-5.055-.604c-.619-.074-.874-.104-2.626-6.55l-.059-.228-2.076-1.142-.224.074c-5.573 1.759-6.182 1.686-6.382 1.662a.99.99 0 01-.6-.322l-3.155-3.92v-.001c-.403-.508-.551-.696 2.856-6.456l.121-.203-.636-2.21-.216-.107c-6.04-3.014-6.008-3.278-5.932-3.913l.591-4.949c.076-.633.104-.87 6.692-2.55l.227-.059 1.14-2.004-.078-.233c-2.112-6.291-1.9-6.456-1.393-6.85l4-3.07a.967.967 0 01.654-.17c.545.066 2.542 1.08 5.939 3.014l.197.11 2.274-.624.114-.214c3.04-5.885 3.32-5.852 3.937-5.778l5.053.604c.618.074.873.104 2.623 6.551l.061.227 2.076 1.139.223-.07c5.57-1.761 6.18-1.688 6.381-1.664a.957.957 0 01.595.322l3.162 3.916c.392.494.554.699-2.854 6.457l-.122.206.633 2.218zM59.03 52.775c-.528 4.424 2.715 8.464 7.231 9.004 4.514.54 8.618-2.624 9.146-7.047.529-4.424-2.715-8.46-7.229-9-4.515-.54-8.619 2.619-9.148 7.043z" fill="url(#5noae70jsi)"/></g><path fill-rule="evenodd" clip-rule="evenodd" d="M91.857 16.444l12.541 1.499.009-.07.008-.07c.697.084 1.282-.377 1.357-1.004.074-.627-.386-1.212-1.082-1.295l-12.542-1.498c-.697-.084-1.298.516-1.373 1.143-.075.627.385 1.212 1.082 1.295zm-6.019-.79l2.334.28a1.168 1.168 0 001.287-1.013 1.168 1.168 0 00-1.012-1.287l-2.334-.279a1.168 1.168 0 00-1.287 1.012 1.168 1.168 0 001.012 1.287zm-4.877 2.669l2.334.278a1.168 1.168 0 001.287-1.012 1.168 1.168 0 00-1.012-1.287l-2.334-.279a1.168 1.168 0 00-1.287 1.012 1.168 1.168 0 001.012 1.288zM99.6 20.549l-12.785-1.527a1.168 1.168 0 01-1.012-1.287 1.168 1.168 0 011.287-1.012l12.785 1.527c.627.075 1.087.66 1.012 1.287a1.168 1.168 0 01-1.287 1.012z" fill="#243552"/><g style="mix-blend-mode:luminosity"><ellipse opacity=".4" cx="41.999" cy="45.916" rx="21.912" ry="21.701" transform="rotate(2.81 42 45.916)" fill="url(#75o98o6xhj)"/><mask id="d" style="mask-type:alpha" maskUnits="userSpaceOnUse" x="20" y="24" width="44" height="44"><ellipse cx="41.999" cy="45.916" rx="21.912" ry="21.701" transform="rotate(2.81 42 45.916)" fill="#fff"/></mask><g mask="url(#d)"><path opacity=".3" d="M43.455 22.711l-18.73 32.956a15.872 15.872 0 004.93 5.736c2.143 1.513 4.62 2.691 7.235 3.242l19.735-36.921c-1.898-1.502-3.954-2.659-6.157-3.683-1.487-.566-3.823-1.032-7.015-1.295l.035.002-.033-.037z" fill="url(#f7ym8mjqll)"/></g><ellipse opacity=".4" cx="98.036" cy="50.708" rx="21.912" ry="21.701" transform="rotate(2.81 98.036 50.708)" fill="url(#t6eiqjr51m)"/><mask id="e" style="mask-type:alpha" maskUnits="userSpaceOnUse" x="76" y="29" width="44" height="44"><ellipse cx="98.036" cy="50.708" rx="21.912" ry="21.701" transform="rotate(2.81 98.036 50.708)" fill="#fff"/></mask><g mask="url(#e)"><path opacity=".3" d="M97.772 31.68L79.708 62.52a14.52 14.52 0 004.897 5.699c2.144 1.514 4.622 2.692 7.236 3.243l19.082-35.087c-1.902-1.432-3.99-2.661-6.158-3.683a40.413 40.413 0 00-6.984-1.188l-.004.07-.003.07-.002.036z" fill="url(#pk6h9vi4jo)"/></g><path fill-rule="evenodd" clip-rule="evenodd" d="M101.159 28.677c4.758.62 10.035 3.591 13.744 6.942l-.066-.074 6.083 6.637c2.165 3.24 7.403 4.132 7.403 4.132l-.781 5.877s-3.036-.571-4.25.496l-3.467 7.506-1.832 3.608a13.53 13.53 0 01-2.193 3.061 23.564 23.564 0 01-20.872 7.709A23.564 23.564 0 0175.59 58.164l-.065-.11c-.837-1.804-1.397-5.488-1.836-8.377-.28-1.84-.511-3.358-.733-3.862-.569-1.33-2.453-1.67-2.453-1.67s-1.859-.161-2.863.916c-.433.466-1.182 2.137-2.056 4.088-1.15 2.566-2.516 5.617-3.666 7.04l-.11.1a23.564 23.564 0 01-23.02 10.562c-7.77-.98-14.571-5.891-17.99-12.996-.577-1.155-1.047-2.34-1.342-3.517a19.176 19.176 0 01-.86-3.986 99.275 99.275 0 01-.528-3.988c-.243-2.055-.434-3.672-.762-4.174-.815-1.343-4.147-1.612-4.147-1.612l.99-5.832s5.256.54 8.194-1.922a51.695 51.695 0 017.636-4.908l1.515-.735c4.255-2.045 8.974-2.764 13.652-1.936a23.305 23.305 0 0115.652 8.973l4.819 6.575c1.379 2.04 2.726 2.012 4.179 1.983.518-.01 1.05-.022 1.6.06.524.08 1 .225 1.46.367 1.383.424 2.62.804 4.55-.846a69.64 69.64 0 016.417-5.178c4.97-3.7 11.18-5.368 17.335-4.502zm-61.94 35.132a20.048 20.048 0 01-17.303-22.682c1.666-10.975 11.828-18.575 22.845-17.049C55.782 25.535 63.56 35.67 62.103 46.691c-1.596 11.014-11.83 18.646-22.81 17.051l-.035-.002-.038.069zm56.036 7.68c-11.02-1.457-18.799-11.593-17.342-22.614 1.597-11.013 11.83-18.645 22.81-17.05a20.048 20.048 0 0117.307 22.61c-1.597 11.015-11.831 18.647-22.81 17.052l.035.001z" fill="#1B283E"/><path d="M114.903 35.62l-.53.586 1.117-1.118-.587.531zm-13.744-6.943l-.11.784h.007l.103-.784zm13.678 6.868l.583-.534-1.17 1.066.587-.532zm6.083 6.637l.658-.44-.034-.05-.041-.044-.583.534zm7.403 4.132l.785.104.1-.757-.752-.128-.133.78zm-.781 5.877l-.147.778.821.154.11-.828-.784-.104zm-4.25.496l-.523-.595-.125.11-.071.153.719.332zm-3.467 7.506l.705.358.007-.013.006-.013-.718-.332zm-1.832 3.608l.703.362.002-.004-.705-.358zm-2.193 3.061l-.576-.542-.008.009-.008.008.592.525zm-20.872 7.709l.108-.784h-.002l-.106.784zM75.59 58.164l.756-.234-.028-.09-.05-.083-.678.407zm-.065-.11l-.718.333.017.038.021.036.68-.406zm-1.836-8.377l.782-.119-.782.12zm-.733-3.862l-.728.311.004.008.724-.319zm-2.453-1.67l.14-.778-.036-.007-.036-.003-.069.788zm-2.863.916l.58.54-.58-.54zm-2.056 4.088l-.722-.324.722.324zm-3.666 7.04l.532.587.045-.041.039-.048-.616-.497zm-.11.1l-.532-.585-.077.07-.056.087.665.429zm-23.02 10.562l.108-.784h-.01l-.098.784zm-17.99-12.996l.713-.343-.005-.01-.708.353zm-1.342-3.517l.768-.192-.008-.03-.01-.028-.75.25zm-.86-3.986l.786-.085-.002-.02-.003-.019-.782.124zm-.528-3.988l-.786.093.786-.093zm-.762-4.174l-.677.41.007.012.008.011.662-.433zm-4.147-1.612l-.78-.133-.145.852.861.07.064-.79zm.99-5.832l.081-.787-.737-.076-.124.73.78.133zm8.194-1.922l-.485-.626-.012.01-.011.01.508.606zm7.636-4.908l-.346-.712-.011.006-.011.006.368.7zm1.515-.735l-.343-.713h-.003l.346.713zm13.652-1.936l-.138.78.02.003.021.002.097-.785zm15.652 8.973l.638-.468-.005-.007-.004-.006-.629.48zm4.819 6.575l.655-.444-.008-.012-.01-.012-.637.468zm4.179 1.983l.016.79-.016-.79zm1.6.06l.118-.782-.117.783zm1.46.367l-.233.756.232-.757zm4.55-.846l.515.602.01-.008.008-.009-.532-.585zm6.417-5.178l.46.644.006-.005.007-.005-.473-.634zM25.83 56.084l.63-.48-.63.48zm13.39 7.725l-.1.785.53.068.26-.465-.69-.388zM21.917 41.127l-.782-.118-.001.008.783.11zm22.845-17.049l-.108.784h.005l.103-.784zm17.342 22.613l.784.114.001-.01-.785-.104zm-22.81 17.051l.114-.783-.037-.006-.038-.001-.038.79zm-.035-.002l.04-.79-.49-.024-.24.426.69.388zm38.655-14.864l-.784-.114v.01l.784.104zm17.342 22.612l-.039.79.143-1.574-.104.784zm5.468-39.663l-.114.783.013.002.101-.785zm13.365 7.699l-.629.48.629-.48zm3.942 14.912l.783.113.001-.006-.784-.107zm-22.81 17.05l.039-.79-.153 1.574.114-.783zm20.214-36.454c-3.786-3.42-9.206-6.492-14.173-7.14l-.205 1.57c4.551.593 9.685 3.463 13.317 6.744l1.061-1.174zm-1.184 1.045l.067.074 1.173-1.063-.067-.074-1.173 1.063zm7.253 5.57l-6.083-6.636-1.167 1.07 6.083 6.636 1.167-1.07zm6.82 4.667l.133-.78h.001-.002l-.008-.002-.037-.007a13.519 13.519 0 01-.743-.168c-.501-.128-1.19-.33-1.941-.63-1.53-.607-3.199-1.564-4.148-2.984l-1.316.88c1.216 1.82 3.248 2.928 4.879 3.576a17.816 17.816 0 002.792.845l.185.037.051.009.014.002.005.001h.002l.133-.78zm.003 5.981l.782-5.877-1.569-.209-.782 5.878 1.569.208zm-4.512.986c.161-.141.431-.266.818-.348a5.85 5.85 0 011.232-.103 10.077 10.077 0 011.421.12l.087.014.02.004h.004l.146-.777.146-.778h-.005l-.009-.002-.031-.006a8.34 8.34 0 00-.499-.072c-.323-.04-.771-.08-1.264-.086a7.36 7.36 0 00-1.576.138c-.523.11-1.088.315-1.535.707l1.045 1.19zm-3.271 7.244l3.467-7.506-1.437-.664-3.467 7.506 1.437.664zm-1.845 3.634l1.832-3.608-1.411-.716-1.832 3.607 1.411.717zm-2.321 3.245a14.323 14.323 0 002.319-3.24l-1.407-.726a12.764 12.764 0 01-2.065 2.882l1.153 1.084zm-21.558 7.95a24.355 24.355 0 0021.573-7.967l-1.184-1.05a22.773 22.773 0 01-20.172 7.45l-.217 1.568zM74.834 58.398a24.356 24.356 0 0019.987 16.958l.213-1.568A22.773 22.773 0 0176.347 57.93l-1.513.467zm.012.064l.066.109 1.358-.813-.065-.108-1.359.812zm-1.939-8.665c.22 1.441.472 3.102.776 4.63.3 1.511.663 2.966 1.125 3.961l1.436-.665c-.375-.81-.71-2.1-1.01-3.604-.295-1.487-.542-3.112-.762-4.56l-1.565.238zm-.674-3.662c.065.15.165.556.29 1.25.118.66.244 1.489.384 2.412l1.565-.238c-.14-.916-.269-1.767-.391-2.452-.117-.65-.244-1.255-.4-1.61l-1.448.638zm-1.73-1.989l-.14.78-.001-.001h-.001l.008.001.043.01a4.075 4.075 0 01.773.265c.472.218.873.526 1.044.926l1.456-.622c-.398-.93-1.224-1.458-1.835-1.74a5.661 5.661 0 00-1.201-.397h-.004l-.141.778zm-2.282 1.456c.327-.351.837-.538 1.353-.62a4.307 4.307 0 01.856-.047h.007-.001l.067-.789.069-.788h-.002a.091.091 0 00-.011-.001 1.292 1.292 0 00-.103-.006 5.87 5.87 0 00-1.132.068c-.664.106-1.585.378-2.262 1.104l1.159 1.079zm-1.913 3.871c.438-.979.838-1.872 1.182-2.577.172-.353.325-.649.457-.88.14-.243.23-.368.274-.414l-1.159-1.079a3.96 3.96 0 00-.488.706 16.47 16.47 0 00-.507.974c-.357.733-.768 1.652-1.204 2.623l1.445.647zm-3.773 7.215c.633-.784 1.295-1.97 1.926-3.236.637-1.279 1.273-2.699 1.847-3.979l-1.445-.647c-.576 1.287-1.198 2.675-1.819 3.92-.627 1.257-1.224 2.308-1.74 2.948l1.23.994zm-.195.19l.11-.1-1.062-1.174-.11.1 1.062 1.173zM38.68 67.634A24.356 24.356 0 0062.474 56.72l-1.33-.858a22.773 22.773 0 01-22.246 10.206l-.216 1.568zM20.087 54.198c3.534 7.345 10.566 12.425 18.604 13.438l.198-1.57c-7.5-.946-14.072-5.69-17.376-12.554l-1.426.686zM18.69 50.53c.311 1.246.805 2.486 1.4 3.679l1.417-.708c-.559-1.117-1.005-2.247-1.282-3.355l-1.536.384zm-.88-4.093c.15 1.398.448 2.806.896 4.152l1.502-.501a18.384 18.384 0 01-.825-3.82l-1.573.17zm-.527-3.98c.144 1.22.308 2.612.532 4.02l1.563-.249a99.497 99.497 0 01-.523-3.957l-1.572.186zm-.638-3.834l.01.021a2.544 2.544 0 01.11.325c.06.218.117.503.174.854.116.702.222 1.6.344 2.634l1.572-.186c-.12-1.021-.231-1.96-.354-2.705a10.773 10.773 0 00-.206-1.006c-.073-.273-.173-.569-.326-.804l-1.324.867zm-3.485-2.045l-.064.788.005.001.023.002.096.01a11.378 11.378 0 011.515.269c.437.11.87.252 1.225.43.369.186.578.37.67.522l1.353-.82c-.315-.52-.828-.873-1.313-1.116a7.703 7.703 0 00-1.549-.551 12.98 12.98 0 00-1.883-.323h-.013v-.001l-.065.789zm.21-5.965l-.99 5.832 1.56.265.99-5.832-1.56-.265zm8.466-2.396c-1.287 1.078-3.142 1.536-4.771 1.704a16.471 16.471 0 01-2.63.053 7.759 7.759 0 01-.195-.015h-.009l-.08.787a113.322 113.322 0 00-.08.787h.006l.014.002.052.005.187.014a18.051 18.051 0 002.897-.059c1.732-.178 3.974-.68 5.625-2.065l-1.016-1.213zm7.776-5.001a52.49 52.49 0 00-7.753 4.982l.97 1.251a50.906 50.906 0 017.518-4.832l-.735-1.401zm1.537-.747l-1.515.735.691 1.424 1.515-.735-.691-1.424zm14.136-2.003c-4.85-.859-9.735-.112-14.133 2.002l.685 1.426c4.114-1.976 8.665-2.668 13.172-1.87l.276-1.558zm16.143 9.271a24.096 24.096 0 00-16.185-9.277l-.193 1.57a22.514 22.514 0 0115.12 8.668l1.258-.961zm4.828 6.588l-4.819-6.575-1.276.936 4.818 6.574 1.277-.935zm3.524 1.66c-.749.015-1.303.018-1.837-.17-.498-.177-1.053-.554-1.67-1.466l-1.311.887c.763 1.128 1.57 1.758 2.453 2.07.849.3 1.694.275 2.398.26l-.033-1.582zm1.735.07c-.628-.095-1.225-.08-1.735-.07l.033 1.582c.526-.01.993-.019 1.468.053l.234-1.566zm1.574.391c-.454-.14-.984-.303-1.574-.392l-.234 1.566c.456.068.877.196 1.343.339l.465-1.513zm3.805-.69c-.876.747-1.516.971-2.03 1.013-.55.044-1.061-.104-1.775-.323l-.465 1.513c.67.205 1.468.46 2.366.387.932-.074 1.876-.485 2.932-1.387l-1.028-1.204zm6.47-5.221a70.42 70.42 0 00-6.489 5.237l1.065 1.17a68.836 68.836 0 016.344-5.12l-.92-1.288zm17.905-4.642c-6.368-.895-12.785.83-17.917 4.65l.945 1.27c4.809-3.58 10.81-5.188 16.752-4.353l.22-1.567zm-76.07 28.67a20.838 20.838 0 0013.92 8.03l.202-1.57a19.256 19.256 0 01-12.863-7.42l-1.258.96zm-4.066-15.546A20.839 20.839 0 0025.2 56.563l1.258-.96A19.256 19.256 0 0122.7 41.239l-1.567-.221zM44.87 23.294c-11.447-1.586-22.006 6.311-23.736 17.715l1.565.237c1.6-10.547 11.366-17.851 21.954-16.384l.217-1.568zm18.018 23.5c1.514-11.454-6.57-21.987-18.023-23.5l-.207 1.569C55.245 26.262 62.718 36 61.318 46.587l1.57.208zM39.18 64.526c11.412 1.658 22.047-6.274 23.707-17.72l-1.567-.227c-1.534 10.581-11.367 17.913-21.913 16.38l-.227 1.567zm.04.006l.035.001.077-1.58-.035-.002-.077 1.58zm.69-.334l.038-.069-1.38-.776-.038.069 1.38.776zm37.218-15.425c-1.513 11.454 6.57 21.987 18.023 23.5l.208-1.568c-10.588-1.4-18.06-11.138-16.662-21.725l-1.569-.207zm23.708-17.73c-11.411-1.659-22.047 6.274-23.706 17.72l1.566.227c1.534-10.582 11.367-17.913 21.913-16.381l.227-1.566zm13.88 8a20.838 20.838 0 00-13.893-8.002l-.201 1.57a19.254 19.254 0 0112.837 7.395l1.257-.962zm4.098 15.501a20.837 20.837 0 00-4.098-15.5l-1.257.962a19.258 19.258 0 013.787 14.323l1.568.215zM95.106 72.27c11.412 1.658 22.047-6.275 23.707-17.72l-1.566-.228c-1.535 10.582-11.368 17.914-21.913 16.382l-.228 1.566zm.188-1.572l-.035-.002-.078 1.581.035.002.078-1.581z" fill="#1B283E"/></g></g><defs><linearGradient id="n8a8khnmpb" x1="40.83" y1="-38.094" x2="-59.617" y2="92.513" gradientUnits="userSpaceOnUse"><stop stop-color="#85A1C6"/><stop offset="1" stop-color="#1B283E"/></linearGradient><linearGradient id="z0n3rhna0e" x1="199.614" y1="100.43" x2="129.331" y2="-20.131" gradientUnits="userSpaceOnUse"><stop stop-color="#76E1FF"/><stop offset="1" stop-color="#637BFF" stop-opacity=".01"/></linearGradient><linearGradient id="n8q8yin4dg" x1="-24.998" y1="20.27" x2="41.868" y2="88.968" gradientUnits="userSpaceOnUse"><stop stop-color="#587CB9"/><stop offset="1" stop-color="#2E4469" stop-opacity=".01"/></linearGradient><linearGradient id="75o98o6xhj" x1="63.359" y1="24.215" x2="20.639" y2="24.215" gradientUnits="userSpaceOnUse"><stop stop-color="#21C8F6"/><stop offset="1" stop-color="#637BFF"/></linearGradient><linearGradient id="f7ym8mjqll" x1="56.456" y1="23.349" x2="26.766" y2="21.892" gradientUnits="userSpaceOnUse"><stop stop-color="#21C8F6"/><stop offset="1" stop-color="#637BFF"/></linearGradient><linearGradient id="t6eiqjr51m" x1="119.396" y1="29.007" x2="76.675" y2="29.007" gradientUnits="userSpaceOnUse"><stop stop-color="#21C8F6"/><stop offset="1" stop-color="#637BFF"/></linearGradient><linearGradient id="pk6h9vi4jo" x1="110.754" y1="32.141" x2="81.646" y2="30.712" gradientUnits="userSpaceOnUse"><stop stop-color="#21C8F6"/><stop offset="1" stop-color="#637BFF"/></linearGradient><radialGradient id="er31oev18a" cx="0" cy="0" r="1" gradientUnits="userSpaceOnUse" gradientTransform="matrix(0 5.5 -63.5 0 63.5 110.5)"><stop stop-color="#0A111E"/><stop offset="1" stop-color="#0D1320" stop-opacity="0"/></radialGradient><radialGradient id="qm456h87ld" cx="0" cy="0" r="1" gradientUnits="userSpaceOnUse" gradientTransform="rotate(81.808 -3.548 87.229) scale(4.08785 8.94464)"><stop stop-color="#fff"/><stop offset="1" stop-color="#C42E6C"/></radialGradient><radialGradient id="5noae70jsi" cx="0" cy="0" r="1" gradientUnits="userSpaceOnUse" gradientTransform="matrix(-5.6769 47.51346 -48.52437 -5.7977 67.22 53.752)"><stop stop-color="#fff"/><stop offset="1" stop-color="#C42E6C"/></radialGradient></defs></svg>