<svg xmlns="http://www.w3.org/2000/svg" xmlns:xlink="http://www.w3.org/1999/xlink" width="153" height="152"><defs><linearGradient id="f" x1="77.881%" x2="5.866%" y1="0%" y2="146.499%"><stop offset="0%" stop-color="#85A1C6"/><stop offset="100%" stop-color="#1B283E"/></linearGradient><linearGradient id="g" x1="-18.444%" x2="170.401%" y1="-26.592%" y2="175.689%"><stop offset="0%" stop-color="#00BAFF"/><stop offset="100%" stop-color="#83234B" stop-opacity="0"/></linearGradient><linearGradient id="j" x1="8.307%" x2="109.293%" y1="22.033%" y2="102.079%"><stop offset="0%" stop-color="#233249"/><stop offset="100%" stop-color="#0F1723"/></linearGradient><linearGradient id="p" x1="154.902%" x2="24.379%" y1="136.419%" y2="14.902%"><stop offset="0%" stop-color="#76E1FF"/><stop offset="100%" stop-color="#637BFF" stop-opacity="0"/></linearGradient><linearGradient id="q" x1="13.223%" x2="106.768%" y1=".616%" y2="98.781%"><stop offset="0%" stop-color="#587CB9"/><stop offset="100%" stop-color="#2E4469" stop-opacity="0"/></linearGradient><linearGradient id="s" x1="98.645%" x2="1.4%" y1="50.831%" y2="48.994%"><stop offset="0%" stop-color="#21C8F6"/><stop offset="100%" stop-color="#637BFF"/></linearGradient><linearGradient id="x" x1="98.741%" x2="1.259%" y1="48.741%" y2="48.741%"><stop offset="0%" stop-color="#21C8F6"/><stop offset="100%" stop-color="#637BFF"/></linearGradient><linearGradient id="y" x1="98.741%" x2="1.259%" y1="48.741%" y2="48.741%"><stop offset="0%" stop-color="#21C8F6"/><stop offset="100%" stop-color="#637BFF"/></linearGradient><linearGradient id="C" x1="50%" x2="50%" y1="0%" y2="97.483%"><stop offset="0%" stop-color="#21C8F6"/><stop offset="100%" stop-color="#637BFF"/></linearGradient><linearGradient id="D" x1="35.009%" x2="70.899%" y1="100%" y2="8.061%"><stop offset="0%" stop-color="#0091FF" stop-opacity="0"/><stop offset="100%" stop-color="#53B5FF"/></linearGradient><path id="a" d="M0 0h152v152H0z"/><path id="h" d="M8.492 0h45.443a8.492 8.492 0 018.492 8.492V44.41A8.492 8.492 0 0157 52.33c-5.397 2.09-13.635 3.133-24.714 3.133-11.744 0-20.686-1.173-26.826-3.52A8.493 8.493 0 010 44.01V8.492A8.492 8.492 0 018.492 0z"/><path id="i" d="M8.492 0h45.443a8.492 8.492 0 018.492 8.492V44.41A8.492 8.492 0 0157 52.33c-5.397 2.09-13.635 3.133-24.714 3.133-11.744 0-20.686-1.173-26.826-3.52A8.493 8.493 0 010 44.01V8.492A8.492 8.492 0 018.492 0z"/><path id="m" d="M36.424 48.326c-1.554-.004-3.034-.761-4.06-2.078-.439-.563-.389-1.416.112-1.904.501-.489 1.263-.428 1.702.135.566.727 1.383 1.145 2.24 1.148.856.002 1.67-.412 2.233-1.136.436-.56 1.198-.617 1.701-.126.503.49.558 1.344.122 1.905-1.02 1.31-2.496 2.06-4.05 2.056z"/><path id="o" d="M8.492 0h45.443a8.492 8.492 0 018.492 8.492V44.41A8.492 8.492 0 0157 52.33c-5.397 2.09-13.635 3.133-24.714 3.133-11.744 0-20.686-1.173-26.826-3.52A8.493 8.493 0 010 44.01V8.492A8.492 8.492 0 018.492 0z"/><path id="u" d="M26.473 26.184l42.223 2.442a5.52 5.52 0 015.193 5.83l-.011.148a5.825 5.825 0 01-6.141 5.323L46.22 38.683l-20.707-1.198a5.52 5.52 0 01-5.193-5.83l.01-.148a5.826 5.826 0 016.142-5.323z"/><radialGradient id="e" cx="59.519%" cy="50%" r="57.236%" fx="59.519%" fy="50%"><stop offset="0%" stop-color="#1CF"/><stop offset="100%" stop-color="#637BFF"/></radialGradient><radialGradient id="n" cx="50%" cy="50%" r="138.028%" fx="50%" fy="50%" gradientTransform="matrix(.49555 0 0 1 .252 0)"><stop offset="0%" stop-color="#21C8F6"/><stop offset="100%" stop-color="#4BDEFF"/></radialGradient><radialGradient id="v" cx="50%" cy="50%" r="258.922%" fx="50%" fy="50%" gradientTransform="matrix(.26417 0 0 1 .368 0)"><stop offset="0%" stop-color="#21C8F6"/><stop offset="100%" stop-color="#4BDEFF"/></radialGradient><filter id="c" width="114.7%" height="114.7%" x="-7.4%" y="-5.3%" filterUnits="objectBoundingBox"><feOffset dy="2" in="SourceAlpha" result="shadowOffsetOuter1"/><feGaussianBlur in="shadowOffsetOuter1" result="shadowBlurOuter1" stdDeviation="2"/><feColorMatrix in="shadowBlurOuter1" values="0 0 0 0 0.666666667 0 0 0 0 0.639215686 0 0 0 0 0.639215686 0 0 0 0.3 0"/></filter><filter id="l" width="387.3%" height="679.7%" x="-143.6%" y="-266.6%" filterUnits="objectBoundingBox"><feOffset dy="1" in="SourceAlpha" result="shadowOffsetOuter1"/><feGaussianBlur in="shadowOffsetOuter1" result="shadowBlurOuter1" stdDeviation="4"/><feColorMatrix in="shadowBlurOuter1" values="0 0 0 0 0.137254902 0 0 0 0 0.788235294 0 0 0 0 0.968627451 0 0 0 1 0"/></filter><filter id="t" width="144.2%" height="269.2%" x="-22.1%" y="-77.7%" filterUnits="objectBoundingBox"><feOffset dy="1" in="SourceAlpha" result="shadowOffsetOuter1"/><feGaussianBlur in="shadowOffsetOuter1" result="shadowBlurOuter1" stdDeviation="4"/><feColorMatrix in="shadowBlurOuter1" values="0 0 0 0 0.137254902 0 0 0 0 0.788235294 0 0 0 0 0.968627451 0 0 0 1 0"/></filter><ellipse id="w" cx="17.895" cy="17.638" rx="17.895" ry="17.638"/><ellipse id="A" cx="17.895" cy="17.638" rx="17.895" ry="17.638"/><circle id="d" cx="58.329" cy="58.426" r="47.5"/></defs><g transform="translate(.196)" fill="none" fill-rule="evenodd"><mask id="b" fill="#fff"><use xlink:href="#a"/></mask><g mask="url(#b)"><g transform="translate(15.975 18.074)"><use fill="#000" filter="url(#c)" xlink:href="#d"/><use fill="url(#e)" xlink:href="#d"/></g><path fill="url(#f)" d="M27.242 0h40.576c10.05 0 18.198 8.147 18.198 18.198V60.09c0 12.06-9.777 21.837-21.838 21.837H30.882c-12.06 0-21.838-9.777-21.838-21.837V18.198C9.044 8.148 17.192 0 27.242 0z" transform="rotate(-9 217.228 -85.024)"/><path fill="url(#g)" fill-rule="nonzero" d="M27.242 0h40.576c10.05 0 18.198 8.147 18.198 18.198V60.09c0 12.06-9.777 21.837-21.838 21.837H30.882c-12.06 0-21.838-9.777-21.838-21.837V18.198C9.044 8.148 17.192 0 27.242 0z" transform="rotate(-9 217.228 -85.024)"/><path fill="#222" fill-opacity=".468" d="M32.665 81.246c1.887 11.912 13.073 20.04 24.984 18.153l34.239-5.423c11.911-1.886 20.038-13.072 18.152-24.985l1.538 9.715c1.887 11.912-6.24 23.098-18.15 24.984l-34.24 5.423C47.276 111 36.09 102.873 34.204 90.961z" opacity=".405"/><g transform="rotate(-9 286.373 -196.574)"><use fill="#1B283E" xlink:href="#h"/><mask id="k" fill="#fff"><use xlink:href="#i"/></mask><use fill="url(#j)" fill-rule="nonzero" xlink:href="#i"/><g fill-rule="nonzero" mask="url(#k)" transform="rotate(-7 36.417 46.17)"><use fill="#000" filter="url(#l)" xlink:href="#m"/><use fill="url(#n)" xlink:href="#m"/></g><mask id="r" fill="#fff"><use xlink:href="#o"/></mask><path stroke="url(#p)" stroke-width="1.296" d="M53.935.648c2.166 0 4.127.878 5.546 2.298a7.818 7.818 0 012.298 5.546h0V44.41a7.838 7.838 0 01-5.014 7.316c-5.345 2.069-13.507 3.09-24.48 3.09-11.64 0-20.506-1.152-26.593-3.478a7.828 7.828 0 01-3.661-2.88A7.838 7.838 0 01.648 44.01h0V8.492c0-2.166.878-4.127 2.298-5.546A7.818 7.818 0 018.492.648h0z"/><ellipse cx="17.574" cy="10.361" fill="url(#q)" mask="url(#r)" opacity=".778" rx="34.543" ry="34.741"/></g><path fill="url(#s)" d="M26.473 26.184l42.223 2.442a5.52 5.52 0 015.193 5.83l-.011.148a5.825 5.825 0 01-6.141 5.323L46.22 38.683l-20.707-1.198a5.52 5.52 0 01-5.193-5.83l.01-.148a5.826 5.826 0 016.142-5.323z" transform="rotate(-13 167.799 -44.618)"/><g fill-rule="nonzero" transform="rotate(-13 167.799 -44.618)"><use fill="#000" filter="url(#t)" xlink:href="#u"/><use fill="url(#v)" xlink:href="#u"/></g><path d="M72.415 32.759l-1.924.305a.97.97 0 01-1.105-.812.97.97 0 01.8-1.114l1.924-.305a.97.97 0 011.106.812.97.97 0 01-.8 1.114zm3.173-3.218l-1.925.305a.97.97 0 01-1.107-.812.97.97 0 01.802-1.114l1.923-.305a.971.971 0 011.107.812.97.97 0 01-.802 1.114zm10.233 1.095l-10.534 1.668a.973.973 0 01-1.113-.81.973.973 0 01.808-1.116l10.53-1.668a.973.973 0 011.112.811.973.973 0 01-.808 1.115h.005zm3.13-3.212l-10.456 1.657c-.551.087-1.066-.273-1.15-.805-.084-.532.294-1.034.845-1.121l10.456-1.657c.552-.087 1.066.274 1.15.805.085.533-.293 1.034-.845 1.121z" fill="#243552"/><g transform="rotate(-10 302.675 -119.77)"><mask id="z" fill="#fff"><use xlink:href="#w"/></mask><use fill="url(#x)" opacity=".157" xlink:href="#w"/><path fill="url(#y)" d="M17.029 1.89L3.473 27.459l10.75 6.728L27.924 5.478z" mask="url(#z)" opacity=".2"/></g><g transform="rotate(-10 279.493 -384.748)"><mask id="B" fill="#fff"><use xlink:href="#A"/></mask><use fill="url(#x)" opacity=".157" xlink:href="#A"/><path fill="url(#y)" d="M16.935 1.89L3.379 27.459l10.75 6.728L27.83 5.478z" mask="url(#B)" opacity=".2"/></g><path fill="#1B283E" stroke="#1B283E" stroke-width="1.257" d="M94.26 73.441c-9.005 1.588-17.571-4.3-19.132-13.154-1.561-8.853 4.474-17.316 13.48-18.904s17.57 4.3 19.132 13.153c1.56 8.854-4.474 17.317-13.48 18.905zM48.728 81.47c-9.006 1.588-17.572-4.301-19.133-13.154-1.56-8.853 4.474-17.316 13.48-18.904s17.572 4.3 19.133 13.153c1.561 8.853-4.474 17.317-13.48 18.905zm58.208-36.929c-1.635-1.305-4.575-2.85-6.326-3.72a19.57 19.57 0 00-1.388-.675l-.03-.015v.002a19.307 19.307 0 00-11.028-1.275 19.273 19.273 0 00-12.408 7.815c-1.386 1.811-2.519 3.727-3.707 5.617-1.504 2.395-2.788 1.577-4.655 1.906-1.869.33-2.796 1.54-5.027-.199-1.763-1.37-3.482-2.782-5.405-4.01-4.012-2.769-9.166-4.011-14.39-3.09-3.877.683-7.508 2.512-9.987 4.98h0l.033.014a18.17 18.17 0 00-1.046 1.104c-1.348 1.417-3.648 3.886-4.737 5.671-1.62 2.65-6.015 3.584-6.015 3.584l.836 4.744s2.62-.62 3.651.224c.61.497 1.654 3.227 3.066 6.028a18.654 18.654 0 001.64 2.848c.587.894 1.234 1.704 1.919 2.34l.005-.005c4.264 4.431 10.647 6.728 17.233 5.567 7.648-1.349 13.442-6.985 15.274-13.935l.011-.022.032-.078c.956-2.5 1.229-8.931 1.671-10.025.447-1.104 1.99-1.456 1.99-1.456s1.57-.197 2.37.687c.788.877 3.244 6.827 4.998 8.849l.057.063.017.016c4.098 5.905 11.469 9.219 19.117 7.87 6.586-1.161 11.796-5.502 14.287-11.124l.002.005c.428-.833.746-1.813.992-2.854a18.46 18.46 0 00.55-3.234c.368-3.114.37-6.03.772-6.704.681-1.146 3.269-1.445 3.269-1.445l-.837-4.744s-4.378.615-6.806-1.324h0z"/><path fill="#111B2C" stroke="#111B2C" stroke-width="1.156" d="M94.26 73.441c-9.005 1.588-17.571-4.3-19.132-13.154-1.561-8.853 4.474-17.316 13.48-18.904s17.57 4.3 19.132 13.153c1.56 8.854-4.474 17.317-13.48 18.905zM48.728 81.47c-9.006 1.588-17.572-4.301-19.133-13.154-1.56-8.853 4.474-17.316 13.48-18.904s17.572 4.3 19.133 13.153c1.561 8.853-4.474 17.317-13.48 18.905zm58.208-36.929c-1.635-1.305-4.575-2.85-6.326-3.72a19.57 19.57 0 00-1.388-.675l-.03-.015v.002a19.307 19.307 0 00-11.028-1.275 19.273 19.273 0 00-12.408 7.815c-1.386 1.811-2.519 3.727-3.707 5.617-1.504 2.395-2.788 1.577-4.655 1.906-1.869.33-2.796 1.54-5.027-.199-1.763-1.37-3.482-2.782-5.405-4.01-4.012-2.769-9.166-4.011-14.39-3.09-3.877.683-7.508 2.512-9.987 4.98h0l.033.014a18.17 18.17 0 00-1.046 1.104c-1.348 1.417-3.648 3.886-4.737 5.671-1.62 2.65-6.015 3.584-6.015 3.584l.836 4.744s2.62-.62 3.651.224c.61.497 1.654 3.227 3.066 6.028a18.654 18.654 0 001.64 2.848c.587.894 1.234 1.704 1.919 2.34l.005-.005c4.264 4.431 10.647 6.728 17.233 5.567 7.648-1.349 13.442-6.985 15.274-13.935l.011-.022.032-.078c.956-2.5 1.229-8.931 1.671-10.025.447-1.104 1.99-1.456 1.99-1.456s1.57-.197 2.37.687c.788.877 3.244 6.827 4.998 8.849l.057.063.017.016c4.098 5.905 11.469 9.219 19.117 7.87 6.586-1.161 11.796-5.502 14.287-11.124l.002.005c.428-.833.746-1.813.992-2.854a18.46 18.46 0 00.55-3.234c.368-3.114.37-6.03.772-6.704.681-1.146 3.269-1.445 3.269-1.445l-.837-4.744s-4.378.615-6.806-1.324h0z"/><path d="M30.477 17.53v.032a2.67 2.67 0 01-1.318 2.262L3.916 34.655a2.592 2.592 0 01-3.548-.922l-.02-.034a2.662 2.662 0 01-.334-1.585V17.482a2.598 2.598 0 015.195 0l-.001 10.31 17.504-10.285L5.208 7.223l.001 2.337a2.597 2.597 0 01-5.194 0L.014 2.902a2.655 2.655 0 01.334-1.585C.598.877.956.539 1.37.315l.038-.02.075-.037.106-.049.019-.007C1.916.072 2.256 0 2.612 0c.554 0 1.067.173 1.489.469l25.058 14.723a2.672 2.672 0 011.318 2.262v.076z" fill="url(#C)" transform="rotate(-37 204.244 -105.887)"/><path fill="#53B5FF" d="M124.857 111.777l-11.56 8.711a2.643 2.643 0 11-3.181-4.221l11.56-8.711a2.643 2.643 0 113.181 4.221zm-17.212 12.97l-1.739 1.31a2.643 2.643 0 11-3.181-4.221l1.739-1.31a2.643 2.643 0 013.18 4.221z"/><path stroke="url(#D)" stroke-linecap="round" stroke-linejoin="round" stroke-width="4" d="M17.275 130.372c31.204 0 56.5-25.296 56.5-56.5 0-11.401-3.377-22.014-9.185-30.892" opacity=".523" transform="rotate(90 44.475 103.7)"/></g></g></svg>