<svg xmlns="http://www.w3.org/2000/svg" xmlns:xlink="http://www.w3.org/1999/xlink" width="120" height="120.001"><defs><filter id="Rectangle" width="10.611" height="11" x="23.58" y="9.5" filterUnits="userSpaceOnUse"><feOffset/><feGaussianBlur result="blur" stdDeviation="1.5"/><feFlood flood-color="#f35e9c"/><feComposite in2="blur" operator="in"/><feComposite in="SourceGraphic"/></filter><filter id="Rectangle_Copy_99" width="11.833" height="11" x="31.135" y="9.5" filterUnits="userSpaceOnUse"><feOffset/><feGaussianBlur result="blur-2" stdDeviation="1.5"/><feFlood flood-color="#f35e9c"/><feComposite in2="blur-2" operator="in"/><feComposite in="SourceGraphic"/></filter><filter id="Rectangle_Copy_99-2" width="11.833" height="11" x="49.377" y="9.5" filterUnits="userSpaceOnUse"><feOffset/><feGaussianBlur result="blur-3" stdDeviation="1.5"/><feFlood flood-color="#f35e9c"/><feComposite in2="blur-3" operator="in"/><feComposite in="SourceGraphic"/></filter><filter id="Rectangle_Copy_99-3" width="11.833" height="11" x="53.952" y="9.5" filterUnits="userSpaceOnUse"><feOffset/><feGaussianBlur result="blur-4" stdDeviation="1.5"/><feFlood flood-color="#f35e9c"/><feComposite in2="blur-4" operator="in"/><feComposite in="SourceGraphic"/></filter><filter id="Rectangle_Copy_99-4" width="14.833" height="11" x="82.976" y="9.5" filterUnits="userSpaceOnUse"><feOffset/><feGaussianBlur result="blur-5" stdDeviation="1.5"/><feFlood flood-color="#f35e9c"/><feComposite in2="blur-5" operator="in"/><feComposite in="SourceGraphic"/></filter><filter id="Rectangle_Copy_99-5" width="17.833" height="11" x="63.715" y="9.5" filterUnits="userSpaceOnUse"><feOffset/><feGaussianBlur result="blur-6" stdDeviation="1.5"/><feFlood flood-color="#f35e9c"/><feComposite in2="blur-6" operator="in"/><feComposite in="SourceGraphic"/></filter><filter id="Rectangle_Copy_100" width="14.667" height="11" x="36.631" y="9.5" filterUnits="userSpaceOnUse"><feOffset/><feGaussianBlur result="blur-7" stdDeviation="1.5"/><feFlood flood-color="#f35e9c"/><feComposite in2="blur-7" operator="in"/><feComposite in="SourceGraphic"/></filter><filter id="Rectangle_18" width="15" height="11" x="27.5" y="90.5" filterUnits="userSpaceOnUse"><feOffset/><feGaussianBlur result="blur-8" stdDeviation="1.5"/><feFlood flood-color="#f35e9c"/><feComposite in2="blur-8" operator="in"/><feComposite in="SourceGraphic"/></filter><filter id="Rectangle_20" width="14" height="13" x="53.5" y="89.5" filterUnits="userSpaceOnUse"><feOffset/><feGaussianBlur result="blur-9" stdDeviation="1.5"/><feFlood flood-color="#f35e9c"/><feComposite in2="blur-9" operator="in"/><feComposite in="SourceGraphic"/></filter><filter id="Rectangle_25" width="13" height="11" x="77.5" y="90.5" filterUnits="userSpaceOnUse"><feOffset/><feGaussianBlur result="blur-10" stdDeviation="1.5"/><feFlood flood-color="#f35e9c"/><feComposite in2="blur-10" operator="in"/><feComposite in="SourceGraphic"/></filter><radialGradient id="radial-gradient" cx=".5" cy=".5" r=".5" gradientUnits="objectBoundingBox"><stop offset="0" stop-opacity=".729"/><stop offset=".734" stop-opacity=".137"/><stop offset="1" stop-opacity="0"/></radialGradient><radialGradient id="radial-gradient-3" cx=".5" cy=".018" r=".423" gradientTransform="matrix(0 -1 1.235 0 .176 .762)" gradientUnits="objectBoundingBox"><stop offset="0" stop-color="#5b79a2"/><stop offset="1" stop-color="#415f91"/></radialGradient><radialGradient id="radial-gradient-4" cx=".5" cy=".5" r="3.869" gradientUnits="objectBoundingBox"><stop offset="0" stop-color="#fff"/><stop offset="1" stop-color="#bf67f0"/></radialGradient><radialGradient id="radial-gradient-11" cx=".5" cy=".5" r="1.018" gradientUnits="objectBoundingBox"><stop offset="0" stop-color="#fff"/><stop offset="1" stop-color="#c42e6c"/></radialGradient><radialGradient id="radial-gradient-12" cx=".5" cy=".5" r=".5" gradientUnits="objectBoundingBox"><stop offset="0"/><stop offset=".734" stop-opacity=".137"/><stop offset="1" stop-opacity="0"/></radialGradient><radialGradient id="radial-gradient-15" cx=".5" cy=".373" r=".871" gradientTransform="matrix(1 0 0 1.231 0 .017)" gradientUnits="objectBoundingBox"><stop offset="0" stop-color="#d12a6f"/><stop offset="1" stop-color="#83234b" stop-opacity="0"/></radialGradient><radialGradient id="radial-gradient-20" cy="1.315" r=".871" xlink:href="#radial-gradient-15"/><radialGradient id="radial-gradient-23" r=".605" gradientTransform="matrix(.684 -.729 .645 .605 -.165 .562)" xlink:href="#radial-gradient-12"/><radialGradient id="radial-gradient-24" cx=".5" cy=".5" r=".5" gradientUnits="objectBoundingBox"><stop offset="0" stop-color="#c42e6c"/><stop offset="1" stop-color="#621736" stop-opacity="0"/></radialGradient><linearGradient id="linear-gradient" x1=".304" x2=".5" y2="1" gradientUnits="objectBoundingBox"><stop offset="0" stop-color="#b9437c"/><stop offset="1" stop-color="#1a2536"/></linearGradient><linearGradient id="linear-gradient-2" x1=".224" x2=".825" y1=".053" y2=".955" gradientUnits="objectBoundingBox"><stop offset="0" stop-color="#ff5f94"/><stop offset="1" stop-color="#ec454f"/></linearGradient><linearGradient id="linear-gradient-3" x2="1" y1=".5" y2=".5" gradientUnits="objectBoundingBox"><stop offset="0" stop-color="#5b79a2"/><stop offset="1" stop-color="#2e4469"/></linearGradient><linearGradient id="linear-gradient-4" x1=".5" x2=".5" y1="1.642" gradientUnits="objectBoundingBox"><stop offset="0" stop-color="#5b79a2"/><stop offset="1" stop-color="#182439"/></linearGradient><linearGradient id="linear-gradient-7" x1=".809" x2="0" y2=".896" gradientUnits="objectBoundingBox"><stop offset="0" stop-color="#fb3b78"/><stop offset="1" stop-color="#efc7d8"/></linearGradient><linearGradient id="linear-gradient-8" x1=".745" x2="-2.075" y1=".896" y2="-.816" gradientUnits="objectBoundingBox"><stop offset="0" stop-color="#dd1e5b"/><stop offset="1" stop-color="#efc7d8"/></linearGradient><style>.cls-3,.cls-9{opacity:.696}.cls-3{fill:url(#radial-gradient)}.cls-5{fill:#1b283e}.cls-6{fill:#4167b1;opacity:.28}.cls-7{fill:url(#radial-gradient-4)}.cls-23{isolation:isolate}.cls-9{fill:url(#radial-gradient-12)}.cls-10{fill:url(#linear-gradient-3)}.cls-12{fill:#2c4677}.cls-13{fill:none;stroke-miterlimit:10;stroke:#253857;stroke-width:2.7px}.cls-14{fill:#21324e}.cls-15{fill:url(#linear-gradient-4)}.cls-17{fill:#0c1321}.cls-23{mix-blend-mode:lighten;fill:url(#radial-gradient-24)}.cls-25{fill:url(#linear-gradient-8)}</style></defs><g id="frameworks-default" transform="translate(-2694 1012)"><g id="Color_Crown_Shadow" data-name="Color Crown + Shadow" transform="translate(5150 -622)"><circle id="Shadow" cx="58" cy="58" r="58" fill="url(#linear-gradient)" transform="translate(-2454 -388)"/><g id="Color_Crown" data-name="Color Crown" transform="translate(-2456 -390)"><path id="Ring" fill="url(#linear-gradient-2)" d="M780 826a59.72 59.72 0 01-33.547-10.247 60.176 60.176 0 01-21.739-26.4 59.921 59.921 0 015.532-56.9 60.176 60.176 0 0126.4-21.738 59.92 59.92 0 0156.9 5.532 60.174 60.174 0 0121.738 26.4 59.923 59.923 0 01-5.532 56.9 60.174 60.174 0 01-26.4 21.739A59.623 59.623 0 01780 826zm0-118a57.729 57.729 0 00-32.429 9.905 58.167 58.167 0 00-21.014 25.518 57.924 57.924 0 005.348 55 58.169 58.169 0 0025.518 21.014 57.923 57.923 0 0055-5.348 58.17 58.17 0 0021.014-25.518 57.924 57.924 0 00-5.348-55 58.171 58.171 0 00-25.518-21.013A57.638 57.638 0 00780 708z" transform="translate(-720 -706)"/></g><ellipse id="Oval" cx="18" cy="8.5" class="cls-3" rx="18" ry="8.5" transform="rotate(105 -1063.515 -1120.928)"/><ellipse id="Oval-2" cx="18.5" cy="8.5" class="cls-3" data-name="Oval" rx="18.5" ry="8.5" transform="rotate(-113 -1291.944 606.458)"/><g id="Group_215" data-name="Group 215" transform="translate(0 -7)"><rect id="Rectangle-2" width="81" height="90" fill="url(#radial-gradient-3)" data-name="Rectangle" rx="12" transform="translate(-2436 -376)"/><rect id="Rectangle-3" width="77" height="88" class="cls-5" data-name="Rectangle" rx="11" transform="translate(-2434 -374)"/><g id="Group_190_Copy_2" data-name="Group 190 Copy 2" transform="translate(-2427.92 -369)"><path id="Rectangle-4" d="M0 0h6.611v2H0z" class="cls-6" data-name="Rectangle"/><g filter="url(#Rectangle)" transform="translate(-28.08 -14)"><path id="Rectangle-5" d="M0 0h1.611v2H0z" class="cls-7" data-name="Rectangle" transform="translate(28.08 14)"/></g><g filter="url(#Rectangle_Copy_99)" transform="translate(-28.08 -14)"><path id="Rectangle_Copy_99-6" d="M0 0h2.833v2H0z" class="cls-7" data-name="Rectangle Copy 99" transform="translate(35.64 14)"/></g><g filter="url(#Rectangle_Copy_99-2)" transform="translate(-28.08 -14)"><path id="Rectangle_Copy_99-7" d="M0 0h2.833v2H0z" class="cls-7" data-name="Rectangle Copy 99" transform="translate(53.88 14)"/></g><g filter="url(#Rectangle_Copy_99-3)" transform="translate(-28.08 -14)"><path id="Rectangle_Copy_99-8" d="M0 0h2.833v2H0z" class="cls-7" data-name="Rectangle Copy 99" transform="translate(58.45 14)"/></g><path id="Rectangle_Copy_99-9" d="M0 0h2.833v2H0z" class="cls-6" data-name="Rectangle Copy 99" transform="translate(34.947)"/><path id="Rectangle_Copy_99-10" d="M0 0h5.833v2H0z" class="cls-6" data-name="Rectangle Copy 99" transform="translate(52.396)"/><g filter="url(#Rectangle_Copy_99-4)" transform="translate(-28.08 -14)"><path id="Rectangle_Copy_99-11" d="M0 0h5.833v2H0z" class="cls-7" data-name="Rectangle Copy 99" transform="translate(87.48 14)"/></g><g filter="url(#Rectangle_Copy_99-5)" transform="translate(-28.08 -14)"><path id="Rectangle_Copy_99-12" d="M0 0h8.833v2H0z" class="cls-7" data-name="Rectangle Copy 99" transform="translate(68.22 14)"/></g><path id="Rectangle_Copy_99-13" d="M0 0h2.833v2H0z" class="cls-6" data-name="Rectangle Copy 99" transform="translate(21.222)"/><g filter="url(#Rectangle_Copy_100)" transform="translate(-28.08 -14)"><path id="Rectangle_Copy_100-2" d="M0 0h5.667v2H0z" class="cls-7" data-name="Rectangle Copy 100" transform="translate(41.13 14)"/></g></g><g id="Group_190_Copy_2-2" data-name="Group 190 Copy 2" transform="translate(-2427.92 -363)"><path id="Rectangle-6" d="M0 0h6.611v2H0z" class="cls-6" data-name="Rectangle"/><path id="Rectangle_Copy_99-14" d="M0 0h9.833v2H0z" class="cls-6" data-name="Rectangle Copy 99" transform="translate(7.556)"/><path id="Rectangle_Copy_99-15" d="M0 0h2.833v2H0z" class="cls-6" data-name="Rectangle Copy 99" transform="translate(30.372)"/><path id="Rectangle_Copy_99-16" d="M0 0h2.833v2H0z" class="cls-6" data-name="Rectangle Copy 99" transform="translate(34.947)"/><path id="Rectangle_Copy_99-17" d="M0 0h12.833v2H0z" class="cls-6" data-name="Rectangle Copy 99" transform="translate(52.396)"/><path id="Rectangle_Copy_99-18" d="M0 0h8.833v2H0z" class="cls-6" data-name="Rectangle Copy 99" transform="translate(40.135)"/><path id="Rectangle_Copy_99-19" d="M0 0h6.833v2H0z" class="cls-6" data-name="Rectangle Copy 99" transform="translate(21.433)"/></g><g id="Group_190_Copy_2-3" data-name="Group 190 Copy 2" transform="translate(-2427.92 -357)"><path id="Rectangle-7" d="M0 0h6.611v2H0z" class="cls-6" data-name="Rectangle"/><path id="Rectangle_Copy_99-20" d="M0 0h6.833v2H0z" class="cls-6" data-name="Rectangle Copy 99" transform="translate(30.674)"/><path id="Rectangle_Copy_99-21" d="M0 0h7.833v2H0z" class="cls-6" data-name="Rectangle Copy 99" transform="translate(57.396)"/><path id="Rectangle_Copy_99-22" d="M0 0h3.833v2H0z" class="cls-6" data-name="Rectangle Copy 99" transform="translate(51.078)"/><path id="Rectangle_Copy_99-23" d="M0 0h3.833v2H0z" class="cls-6" data-name="Rectangle Copy 99" transform="translate(39.614)"/><path id="Rectangle_Copy_99-24" d="M0 0h3.833v2H0z" class="cls-6" data-name="Rectangle Copy 99" transform="translate(45.346)"/><path id="Rectangle_Copy_99-25" d="M0 0h17.833v2H0z" class="cls-6" data-name="Rectangle Copy 99" transform="translate(7.556)"/></g></g><path id="Subtraction_7" fill="url(#radial-gradient-11)" d="M-5174 755a10.926 10.926 0 01-7.774-3.22A10.925 10.925 0 01-5185 744v-66a10.925 10.925 0 013.222-7.778A10.93 10.93 0 01-5174 667h55a10.93 10.93 0 017.779 3.221A10.925 10.925 0 01-5108 678v1h-55a10.929 10.929 0 00-7.778 3.221A10.928 10.928 0 00-5174 690z" data-name="Subtraction 7" transform="translate(2751 -1048)" style="isolation:isolate;mix-blend-mode:overlay" opacity=".693"/></g><ellipse id="Oval-3" cx="48" cy="8.5" class="cls-9" data-name="Oval" rx="48" ry="8.5" transform="translate(2706 -921.01)"/><ellipse id="Oval-4" cx="19" cy="8.5" class="cls-9" data-name="Oval" rx="19" ry="8.5" transform="translate(2696 -921.01)"/><ellipse id="Oval-5" cx="19" cy="8.5" class="cls-9" data-name="Oval" rx="19" ry="8.5" transform="translate(2775 -921.01)"/><path id="Rectangle-8" d="M14 0h89c7.732 0 14.675 6.32 14.675 14.052s-6.943 17.2-14.675 17.2H14c-7.732 0-14.562-9.46-14.562-17.192S6.268 0 14 0z" class="cls-5" data-name="Rectangle" transform="translate(2696 -944)"/><path id="Rectangle-9" d="M25 0h67c17.945 0 15 6.716 25 46a15 15 0 01-15 15H15A15 15 0 010 46C10 6.716 6.169 0 25 0z" class="cls-10" data-name="Rectangle" transform="translate(2696 -980)"/><path id="Rectangle-10" fill="url(#radial-gradient-15)" d="M25 0h67c17.945 0 15 6.716 25 46a15 15 0 01-15 15H15A15 15 0 010 46C10 6.716 6.169 0 25 0z" data-name="Rectangle" opacity=".829" transform="translate(2696 -980)"/><g id="Group_212" data-name="Group 212" transform="translate(1083 -1409)"><g filter="url(#Rectangle_18)" transform="translate(1611 397)"><rect id="Rectangle_18-2" width="6" height="2" class="cls-7" data-name="Rectangle 18" rx="1" transform="translate(32 95)"/></g><rect id="Rectangle_19" width="6" height="2" class="cls-12" data-name="Rectangle 19" rx="1" transform="translate(1650 492)"/><rect id="Rectangle_23" width="5" height="2" class="cls-12" data-name="Rectangle 23" rx="1" transform="translate(1679 492)"/><g filter="url(#Rectangle_20)" transform="translate(1611 397)"><rect id="Rectangle_20-2" width="5" height="4" class="cls-7" data-name="Rectangle 20" rx="2" transform="translate(58 94)"/></g><rect id="Rectangle_21" width="3" height="2" class="cls-12" data-name="Rectangle 21" rx="1" transform="translate(1675 492)"/><rect id="Rectangle_22" width="11" height="2" class="cls-12" data-name="Rectangle 22" rx="1" transform="translate(1657 492)"/><rect id="Rectangle_24" width="7" height="2" class="cls-12" data-name="Rectangle 24" rx="1" transform="translate(1685 492)"/><g filter="url(#Rectangle_25)" transform="translate(1611 397)"><rect id="Rectangle_25-2" width="4" height="2" class="cls-7" data-name="Rectangle 25" rx="1" transform="translate(82 95)"/></g><rect id="Rectangle_26" width="8" height="2" class="cls-12" data-name="Rectangle 26" rx="1" transform="translate(1698 492)"/></g><g id="Group_186_Copy_59" data-name="Group 186 Copy 59" transform="translate(2722.979 -913.075)"><path id="Path_52_Copy_3" d="M0 6.926C.2-4.495 18.789-.9 18.577 11.219" class="cls-13" data-name="Path 52 Copy 3" transform="rotate(180 9.338 5.688)"/><g id="Group_2" data-name="Group 2" transform="translate(14.961 .066)"><rect id="Rectangle_Copy_14" width="4.335" height="3.552" class="cls-14" data-name="Rectangle Copy 14" rx="1.223" transform="translate(1.626 1.517)"/><rect id="Rectangle-11" width="7.587" height="3.035" class="cls-15" data-name="Rectangle" rx="1.223"/></g></g><g id="Group_186_Copy_59-2" data-name="Group 186 Copy 59" transform="translate(2763.051 -913.009)"><path id="Path_52_Copy_3-2" d="M1.884-.27c.2 11.421 18.789 7.829 18.577-4.293" class="cls-13" data-name="Path 52 Copy 3" transform="translate(.936 4.463)"/><g id="Group_2-2" data-name="Group 2" transform="translate(-1.072)"><rect id="Rectangle_Copy_14-2" width="4.335" height="3.552" class="cls-14" data-name="Rectangle Copy 14" rx="1.223" transform="translate(1.626 1.517)"/><rect id="Rectangle-12" width="7.587" height="3.035" class="cls-15" data-name="Rectangle" rx="1.223"/></g></g><ellipse id="Oval-6" cx="58" cy="8.5" class="cls-9" data-name="Oval" rx="58" ry="8.5" transform="translate(2696 -933.01)"/><g id="Group_213" data-name="Group 213" transform="translate(-35 45)"><g id="Group_213-2" data-name="Group 213"><path id="Rectangle-13" d="M21.49-22.13h75.774c7.732 0 19.85 30.089 19.85 37.821S110.732 31.252 103 31.252H14c-7.732 0-13.792-9.468-13.792-17.2S13.758-22.13 21.49-22.13z" class="cls-5" data-name="Rectangle" transform="translate(2731 -1001)"/><path id="Rectangle-14" d="M25 0h67c17.945 0 15 5.427 25 37.175 0 6.695-6.716 12.122-15 12.122H15C6.716 49.3 0 43.87 0 37.175 10 5.427 6.169 0 25 0z" class="cls-10" data-name="Rectangle" transform="translate(2731 -1025.298)"/><path id="Rectangle-15" fill="url(#radial-gradient-20)" d="M25 0h67c17.945 0 15 5.427 25 37.175 0 6.695-6.716 12.122-15 12.122H15C6.716 49.3 0 43.87 0 37.175 10 5.427 6.169 0 25 0z" data-name="Rectangle" opacity=".829" transform="translate(2731 -1025.298)"/></g><g id="Group_214" data-name="Group 214" transform="translate(1118 -1466)"><rect id="Rectangle_18-3" width="6" height="2" class="cls-12" data-name="Rectangle 18" rx="1" transform="translate(1643 492)"/><rect id="Rectangle_19-2" width="6" height="2" class="cls-17" data-name="Rectangle 19" rx="1" transform="translate(1650 492)"/><rect id="Rectangle_23-2" width="5" height="2" class="cls-17" data-name="Rectangle 23" rx="1" transform="translate(1679 492)"/><rect id="Rectangle_21-2" width="3" height="2" class="cls-12" data-name="Rectangle 21" rx="1" transform="translate(1675 492)"/><rect id="Rectangle_33" width="5" height="2" class="cls-17" data-name="Rectangle 33" rx="1" transform="translate(1669 492)"/><rect id="Rectangle_22-2" width="11" height="2" class="cls-12" data-name="Rectangle 22" rx="1" transform="translate(1657 492)"/><rect id="Rectangle_24-2" width="7" height="2" class="cls-12" data-name="Rectangle 24" rx="1" transform="translate(1685 492)"/><rect id="Rectangle_25-3" width="4" height="2" class="cls-17" data-name="Rectangle 25" rx="1" transform="translate(1693 492)"/><rect id="Rectangle_26-2" width="8" height="2" class="cls-12" data-name="Rectangle 26" rx="1" transform="translate(1698 492)"/></g></g><path id="Subtraction_6" fill="rgba(255,162,201,0.11)" d="M5.535 46.58A11.365 11.365 0 010 37.175c2.192-6.959 3.73-12.695 4.967-17.3 2.216-8.266 3.553-13.253 6.169-16.15C13.617.975 17.246 0 25 0h67a37.117 37.117 0 017.653.6 10.911 10.911 0 014.924 2.254c2.639 2.222 4.127 5.968 5.95 12.1a85.316 85.316 0 00-18.49-6A106.033 106.033 0 0070.5 6.8a104.23 104.23 0 00-25.3 3.023 77.419 77.419 0 00-20.661 8.251 45 45 0 00-13.93 12.238A25.521 25.521 0 005.5 45.3c0 .425.012.856.035 1.28z" data-name="Subtraction 6" opacity=".5" transform="translate(2696 -980.298)"/><ellipse id="Oval-7" cx="22" cy="6.5" fill="url(#radial-gradient-12)" data-name="Oval" opacity=".139" rx="22" ry="6.5" transform="rotate(10.02 6771.007 14978.172)"/><ellipse id="Oval-8" cx="22" cy="6.5" fill="url(#radial-gradient-12)" data-name="Oval" opacity=".148" rx="22" ry="6.5" transform="rotate(120 1658.363 307.248)"/><ellipse id="Oval-9" cx="46" cy="6.5" fill="url(#radial-gradient-23)" data-name="Oval" opacity=".185" rx="46" ry="6.5" transform="rotate(-179 1402.25 -492.273)"/><g id="Group_176" data-name="Group 176" transform="rotate(-90.97 891.798 -1810.017)"><path id="Path_121" fill="none" stroke="#f44881" stroke-linejoin="round" stroke-miterlimit="10" stroke-width="2" d="M23.079 91.977l1.17-65.774L.091 8.142l-10.483 26" data-name="Path 121"/><g id="Group_168" data-name="Group 168" transform="rotate(-158 1.601 23.185)"><g id="Group_32_Copy_17" data-name="Group 32 Copy 17"><circle id="Oval_Copy_65" cx="8" cy="8" r="8" class="cls-23" data-name="Oval Copy 65" transform="translate(.542 .542)"/><circle id="Oval_Copy_65-2" cx="15" cy="15" r="15" class="cls-23" data-name="Oval Copy 65" transform="translate(-6.458 -6.458)"/><circle id="Oval_Copy_63" cx="2.542" cy="2.542" r="2.542" fill="url(#linear-gradient-7)" data-name="Oval Copy 63" transform="translate(6 6)"/></g></g><g id="Group_32_Copy_16" data-name="Group 32 Copy 16" transform="rotate(-158 2.597 6.584)"><circle id="Oval-10" cx="2.886" cy="2.886" r="2.886" class="cls-25" data-name="Oval" transform="translate(1 1)"/></g><g id="Group_32_Copy_20" data-name="Group 32 Copy 20" transform="rotate(-158 15.575 12.492)"><circle id="Oval-11" cx="2.62" cy="2.62" r="2.62" class="cls-25" data-name="Oval"/></g></g></g></svg>