<?xml version="1.0" encoding="UTF-8" standalone="no"?>
<svg
   width="335.70892"
   height="66.804565"
   version="1.1"
   id="svg751"
   sodipodi:docname="logo-white.svg"
   inkscape:version="1.2 (dc2aedaf03, 2022-05-15)"
   xmlns:inkscape="http://www.inkscape.org/namespaces/inkscape"
   xmlns:sodipodi="http://sodipodi.sourceforge.net/DTD/sodipodi-0.dtd"
   xmlns:xlink="http://www.w3.org/1999/xlink"
   xmlns="http://www.w3.org/2000/svg"
   xmlns:svg="http://www.w3.org/2000/svg">
  <defs
     id="defs755">
    <linearGradient
       inkscape:collect="always"
       id="linearGradient9718">
      <stop
         style="stop-color:#7ce510;stop-opacity:1;"
         offset="0.02387268"
         id="stop9714" />
      <stop
         style="stop-color:#3bc92a;stop-opacity:0.5511111;"
         offset="1"
         id="stop9716" />
    </linearGradient>
    <radialGradient
       inkscape:collect="always"
       xlink:href="#linearGradient9718"
       id="radialGradient9722"
       cx="168.74098"
       cy="-30.880978"
       fx="168.74098"
       fy="-30.880978"
       r="50.916771"
       gradientTransform="matrix(1,0,0,0.95868917,0,-1.2757188)"
       gradientUnits="userSpaceOnUse" />
    <radialGradient
       inkscape:collect="always"
       xlink:href="#linearGradient9718"
       id="radialGradient12670"
       gradientUnits="userSpaceOnUse"
       gradientTransform="matrix(1,0,0,0.95868917,0,-1.2757188)"
       cx="168.74098"
       cy="-30.880978"
       fx="168.74098"
       fy="-30.880978"
       r="50.916771" />
    <radialGradient
       inkscape:collect="always"
       xlink:href="#linearGradient9718"
       id="radialGradient12672"
       gradientUnits="userSpaceOnUse"
       gradientTransform="matrix(1,0,0,0.95868917,0,-1.2757188)"
       cx="168.74098"
       cy="-30.880978"
       fx="168.74098"
       fy="-30.880978"
       r="50.916771" />
    <radialGradient
       inkscape:collect="always"
       xlink:href="#linearGradient9718"
       id="radialGradient12674"
       gradientUnits="userSpaceOnUse"
       gradientTransform="matrix(1,0,0,0.95868917,0,-1.2757188)"
       cx="168.74098"
       cy="-30.880978"
       fx="168.74098"
       fy="-30.880978"
       r="50.916771" />
    <radialGradient
       inkscape:collect="always"
       xlink:href="#linearGradient9718"
       id="radialGradient12676"
       gradientUnits="userSpaceOnUse"
       gradientTransform="matrix(1,0,0,0.95868917,0,-1.2757188)"
       cx="168.74098"
       cy="-30.880978"
       fx="168.74098"
       fy="-30.880978"
       r="50.916771" />
    <radialGradient
       inkscape:collect="always"
       xlink:href="#linearGradient9718"
       id="radialGradient12678"
       gradientUnits="userSpaceOnUse"
       gradientTransform="matrix(1,0,0,0.95868917,0,-1.2757188)"
       cx="168.74098"
       cy="-30.880978"
       fx="168.74098"
       fy="-30.880978"
       r="50.916771" />
    <radialGradient
       inkscape:collect="always"
       xlink:href="#linearGradient9718"
       id="radialGradient12680"
       gradientUnits="userSpaceOnUse"
       gradientTransform="matrix(1,0,0,0.95868917,0,-1.2757188)"
       cx="168.74098"
       cy="-30.880978"
       fx="168.74098"
       fy="-30.880978"
       r="50.916771" />
    <radialGradient
       inkscape:collect="always"
       xlink:href="#linearGradient9718"
       id="radialGradient12682"
       gradientUnits="userSpaceOnUse"
       gradientTransform="matrix(1,0,0,0.95868917,0,-1.2757188)"
       cx="168.74098"
       cy="-30.880978"
       fx="168.74098"
       fy="-30.880978"
       r="50.916771" />
    <radialGradient
       inkscape:collect="always"
       xlink:href="#linearGradient9718"
       id="radialGradient12684"
       gradientUnits="userSpaceOnUse"
       gradientTransform="matrix(1,0,0,0.95868917,0,-1.2757188)"
       cx="168.74098"
       cy="-30.880978"
       fx="168.74098"
       fy="-30.880978"
       r="50.916771" />
  </defs>
  <sodipodi:namedview
     id="namedview753"
     pagecolor="#505050"
     bordercolor="#eeeeee"
     borderopacity="1"
     inkscape:showpageshadow="0"
     inkscape:pageopacity="0"
     inkscape:pagecheckerboard="0"
     inkscape:deskcolor="#505050"
     showgrid="false"
     inkscape:zoom="1.4176461"
     inkscape:cx="126.26564"
     inkscape:cy="81.120386"
     inkscape:window-width="1366"
     inkscape:window-height="715"
     inkscape:window-x="-8"
     inkscape:window-y="-8"
     inkscape:window-maximized="1"
     inkscape:current-layer="g2648">
    <inkscape:grid
       type="xygrid"
       id="grid5630"
       originx="38.95722"
       originy="39.396928" />
  </sodipodi:namedview>
  <g
     id="g1023"
     transform="translate(46.937849,40.145112)">
    <g
       id="g2648"
       transform="matrix(1.2839689,0,0,1.2839689,-28.585898,-5.263704)"
       style="stroke:none;stroke-width:0.567366;stroke-dasharray:none">
      <text
         xml:space="preserve"
         style="font-style:normal;font-variant:normal;font-weight:900;font-stretch:normal;font-size:50.941px;line-height:0px;font-family:'Bodoni MT';-inkscape-font-specification:'Bodoni MT Heavy';letter-spacing:3.8901px;direction:rtl;fill:#f9f9f9;stroke:none;stroke-width:0.626817;stroke-dasharray:none;paint-order:fill markers stroke"
         x="213.2442"
         y="21.622622"
         id="text5761"
         transform="scale(0.89668654,1.1152169)"><tspan
           sodipodi:role="line"
           id="tspan5759"
           style="font-style:normal;font-variant:normal;font-weight:bold;font-stretch:normal;font-size:50.941px;font-family:'Cooper Black';-inkscape-font-specification:'Cooper Black,  Bold';fill:#f9f9f9;stroke-width:0.626817"
           x="217.13429"
           y="21.622622">BHUDiL</tspan></text>
      <g
         id="g7264"
         transform="matrix(0.32490159,0.35509974,-0.35509974,0.32490159,157.62022,-53.231605)"
         style="fill:url(#radialGradient9722);fill-opacity:1;stroke:none;stroke-width:0.567366;stroke-dasharray:none">
        <path
           style="fill:url(#radialGradient12670);fill-opacity:1;stroke-width:0.147189"
           d="m 175.38252,-28.778081 c 0,3.763472 -2.8778,6.641272 -6.64128,6.641272 -3.76347,0 -6.64128,-2.8778 -6.64128,-6.641272 0,-3.763472 2.87781,-6.641273 6.64128,-6.641273 3.76348,0 6.64128,2.87806 6.64128,6.641273"
           id="path7029" />
        <path
           style="fill:url(#radialGradient12672);fill-opacity:1;stroke-width:0.147189"
           d="m 177.81773,-8.8542635 c -0.66412,0 -1.54954,-0.4428359 -1.99238,-1.1069631 -0.66412,-1.1069634 -0.22129,-2.4352174 0.88542,-3.0993454 4.64889,-2.8778 7.74824,-7.969527 7.74824,-13.282551 0,-8.633655 -6.86257,-15.496212 -15.49622,-15.496212 -8.63366,0 -15.49648,6.862817 -15.49648,15.496472 0,5.534309 2.8778,10.626042 7.74824,13.282551 1.10697,0.664127 1.32826,1.992382 0.88541,3.0993451 -0.66412,1.1069631 -1.99238,1.3282545 -3.09934,0.8854186 C 153.02347,-12.617476 149.26,-19.258749 149.26,-26.121572 c 0,-11.068872 8.85494,-19.923818 19.92382,-19.923818 11.06887,0 19.92382,8.854946 19.92382,19.923818 0,7.084115 -3.76348,13.503836 -9.74062,17.0460237 -0.88516,0.2212848 -1.32799,0.2212848 -1.54929,0.2212848 z"
           id="path7031" />
        <path
           style="fill:url(#radialGradient12674);fill-opacity:1;stroke-width:0.147189"
           d="m 144.16853,17.932378 c -0.44284,0 -0.66413,0 -1.10696,-0.221291 -15.49622,-9.2977819 -25.23684,-26.1222483 -25.23684,-44.053691 0,-28.114633 22.80162,-50.91651 50.91651,-50.91651 28.11489,0 50.91651,22.801617 50.91651,50.91651 0,17.9314427 -9.51907,34.7559091 -25.01554,43.832406 -1.10697,0.664127 -2.43523,0.221285 -3.09935,-0.885419 -0.66413,-1.106703 -0.2213,-2.435217 0.88541,-3.099345 13.94668,-8.1908182 22.80162,-23.4657452 22.80162,-39.847642 0,-25.679673 -20.80923,-46.488908 -46.48891,-46.488908 -25.67967,0 -46.48865,20.808977 -46.48865,46.488649 0,16.3818961 8.85494,31.6568231 22.80162,40.068926 1.10696,0.664128 1.32825,1.992382 0.88542,3.099352 -0.44259,0.664127 -1.10671,1.106963 -1.77084,1.106963 z"
           id="path7035" />
        <path
           style="fill:url(#radialGradient12676);fill-opacity:1;stroke-width:0.147189"
           d="m 151.91677,4.4282818 c -0.44284,0 -0.66413,0 -1.10697,-0.2212849 -10.84732,-6.4199877 -17.4886,-18.1527269 -17.4886,-30.5498599 0,-19.480976 15.93906,-35.420034 35.42004,-35.420034 19.48098,0 35.42003,15.939058 35.42003,35.420034 0,12.397133 -6.64127,24.1298722 -17.48859,30.5498599 -1.10697,0.6641273 -2.43522,0.2212849 -3.09935,-0.8854186 -0.66413,-1.1069632 -0.22129,-2.43521768 0.88542,-3.09934494 9.51907,-5.53430946 15.27492,-15.71776936 15.27492,-26.56509636 0,-17.046018 -13.94667,-30.992692 -30.99269,-30.992692 -17.04602,0 -30.99269,13.946674 -30.99269,30.992692 0,10.847327 5.75585,21.0307869 15.27492,26.56509636 1.10697,0.66412726 1.32826,1.99238174 0.88542,3.09934494 -0.44232,0.6641273 -1.10645,1.1067035 -1.99186,1.1067035 z"
           id="path7037" />
        <path
           style="fill:url(#radialGradient12678);fill-opacity:1;stroke-width:0.147189"
           d="m 168.74124,-19.922876 c -4.87018,0 -8.85494,-3.984763 -8.85494,-8.854945 0,-4.870183 3.98476,-8.855206 8.85494,-8.855206 4.87018,0 8.85494,3.984764 8.85494,8.854946 0,4.870182 -3.98476,8.855205 -8.85494,8.855205 z m 0,-13.282545 c -2.43522,0 -4.4276,1.992382 -4.4276,4.4276 0,2.435217 1.99238,4.427599 4.4276,4.427599 2.43522,0 4.4276,-1.992382 4.4276,-4.427599 0,-2.435218 -1.99238,-4.4276 -4.4276,-4.4276 z"
           id="path7041" />
        <path
           style="fill:url(#radialGradient12680);fill-opacity:1;stroke-width:0.147189"
           d="m 177.81773,-11.289221 c -0.66412,0 -1.54954,-0.442836 -1.99238,-1.106964 -0.66412,-1.106969 -0.22129,-2.435224 0.88542,-3.099351 4.64889,-2.877794 7.74824,-7.969527 7.74824,-13.282545 0,-8.633655 -6.86257,-15.496219 -15.49622,-15.496219 -8.63366,0 -15.49622,6.862564 -15.49622,15.496219 0,5.534309 2.8778,10.626036 7.74824,13.282545 1.10697,0.664127 1.32826,1.992382 0.88541,3.099351 -0.66412,1.106964 -1.99238,1.328255 -3.09934,0.885412 -6.41998,-3.763472 -10.1832,-10.1832 -10.1832,-17.267308 0,-11.068872 8.85494,-19.923818 19.92382,-19.923818 11.06888,0 19.92382,8.854946 19.92382,19.923818 0,7.084108 -3.76348,13.503836 -9.74062,17.046024 -0.44284,0.221284 -0.88567,0.442836 -1.10697,0.442836 z"
           id="path7043" />
        <path
           style="fill:url(#radialGradient12682);fill-opacity:1;stroke-width:0.147189"
           d="m 193.53524,15.275869 c -0.66413,0 -1.54955,-0.442836 -1.99238,-1.106963 -0.66413,-1.10697 -0.2213,-2.435224 0.88541,-3.099352 13.94668,-8.1908116 22.80162,-23.465739 22.80162,-39.847635 0,-25.679674 -20.80923,-46.488911 -46.48891,-46.488911 -25.67967,0 -46.48891,20.809237 -46.48891,46.488911 0,16.381896 8.85494,31.6568234 22.80162,40.068927 1.10696,0.664127 1.32825,1.992382 0.88542,3.099345 -0.66413,1.106969 -1.99239,1.328254 -3.09936,0.885418 -15.27492,-9.2977813 -25.01554,-26.122254 -25.01554,-44.05369 4.2e-4,-28.114636 22.8024,-50.916253 50.91703,-50.916253 28.11463,0 50.91651,22.801617 50.91651,50.916253 0,17.931436 -9.51907,34.7559087 -25.01554,43.832399 -0.44285,0.221551 -0.88542,0.221551 -1.10697,0.221551 z"
           id="path7047" />
        <path
           style="fill:url(#radialGradient12684);fill-opacity:1;stroke-width:0.147189"
           d="m 151.91677,1.9933238 c -0.44284,0 -0.66413,0 -1.10697,-0.2212914 -10.84732,-6.4199812 -17.4886,-18.1527274 -17.4886,-30.5498534 0,-19.480983 15.93906,-35.420038 35.42004,-35.420038 19.48098,0 35.42003,15.939055 35.42003,35.420038 0,12.397126 -6.64127,24.1298722 -17.48859,30.5498534 -1.10697,0.6641273 -2.43522,0.2212914 -3.09935,-0.88541857 -0.66413,-1.10696317 -0.22129,-2.43521773 0.88542,-3.09934493 9.51907,-5.534303 15.27492,-15.7177629 15.27492,-26.5650899 0,-17.046018 -13.94667,-30.992694 -30.99269,-30.992694 -17.04602,0 -30.99269,13.946676 -30.99269,30.992694 0,10.847327 5.75585,21.0307869 15.27492,26.5650899 1.10697,0.6641272 1.32826,1.99238176 0.88542,3.09934493 -0.44232,0.66387407 -1.10645,1.10670997 -1.99186,1.10670997 z"
           id="path7049" />
      </g>
    </g>
  </g>
</svg>
