<svg width="50" height="50" xmlns="http://www.w3.org/2000/svg"><defs><filter x="-26.7%" y="-650%" width="153.3%" height="1400%" filterUnits="objectBoundingBox" id="b"><feOffset dy="1" in="SourceAlpha" result="shadowOffsetOuter1"/><feGaussianBlur stdDeviation="1.5" in="shadowOffsetOuter1" result="shadowBlurOuter1"/><feColorMatrix values="0 0 0 0 0.0592987805 0 0 0 0 0.554883454 0 0 0 0 1 0 0 0 1 0" in="shadowBlurOuter1" result="shadowMatrixOuter1"/><feMerge><feMergeNode in="shadowMatrixOuter1"/><feMergeNode in="SourceGraphic"/></feMerge></filter><filter x="-26.7%" y="-400%" width="153.3%" height="900%" filterUnits="objectBoundingBox" id="c"><feOffset dy="1" in="SourceAlpha" result="shadowOffsetOuter1"/><feGaussianBlur stdDeviation="1.5" in="shadowOffsetOuter1" result="shadowBlurOuter1"/><feColorMatrix values="0 0 0 0 0.0592987805 0 0 0 0 0.554883454 0 0 0 0 1 0 0 0 1 0" in="shadowBlurOuter1" result="shadowMatrixOuter1"/><feMerge><feMergeNode in="shadowMatrixOuter1"/><feMergeNode in="SourceGraphic"/></feMerge></filter><filter x="-26.7%" y="-400%" width="153.3%" height="900%" filterUnits="objectBoundingBox" id="d"><feOffset dy="1" in="SourceAlpha" result="shadowOffsetOuter1"/><feGaussianBlur stdDeviation="1.5" in="shadowOffsetOuter1" result="shadowBlurOuter1"/><feColorMatrix values="0 0 0 0 0.0592987805 0 0 0 0 0.554883454 0 0 0 0 1 0 0 0 1 0" in="shadowBlurOuter1" result="shadowMatrixOuter1"/><feMerge><feMergeNode in="shadowMatrixOuter1"/><feMergeNode in="SourceGraphic"/></feMerge></filter><filter x="-26.7%" y="-400%" width="153.3%" height="900%" filterUnits="objectBoundingBox" id="e"><feOffset dy="1" in="SourceAlpha" result="shadowOffsetOuter1"/><feGaussianBlur stdDeviation="1.5" in="shadowOffsetOuter1" result="shadowBlurOuter1"/><feColorMatrix values="0 0 0 0 0.0592987805 0 0 0 0 0.554883454 0 0 0 0 1 0 0 0 1 0" in="shadowBlurOuter1" result="shadowMatrixOuter1"/><feMerge><feMergeNode in="shadowMatrixOuter1"/><feMergeNode in="SourceGraphic"/></feMerge></filter><filter x="-26.7%" y="-650%" width="153.3%" height="1400%" filterUnits="objectBoundingBox" id="f"><feOffset dy="1" in="SourceAlpha" result="shadowOffsetOuter1"/><feGaussianBlur stdDeviation="1.5" in="shadowOffsetOuter1" result="shadowBlurOuter1"/><feColorMatrix values="0 0 0 0 0.0592987805 0 0 0 0 0.554883454 0 0 0 0 1 0 0 0 1 0" in="shadowBlurOuter1" result="shadowMatrixOuter1"/><feMerge><feMergeNode in="shadowMatrixOuter1"/><feMergeNode in="SourceGraphic"/></feMerge></filter><filter x="-26.7%" y="-650%" width="153.3%" height="1400%" filterUnits="objectBoundingBox" id="g"><feOffset dy="1" in="SourceAlpha" result="shadowOffsetOuter1"/><feGaussianBlur stdDeviation="1.5" in="shadowOffsetOuter1" result="shadowBlurOuter1"/><feColorMatrix values="0 0 0 0 0.0592987805 0 0 0 0 0.554883454 0 0 0 0 1 0 0 0 1 0" in="shadowBlurOuter1" result="shadowMatrixOuter1"/><feMerge><feMergeNode in="shadowMatrixOuter1"/><feMergeNode in="SourceGraphic"/></feMerge></filter><radialGradient cx="50%" cy="39.664%" fx="50%" fy="39.664%" r="47.428%" gradientTransform="scale(-.79834 -1) rotate(36.591 1.136 -1.703)" id="h"><stop stop-color="#44ACFF" offset="0%"/><stop stop-color="#FFF" stop-opacity="0" offset="100%"/></radialGradient><linearGradient x1="0%" y1="50%" x2="100%" y2="50%" id="a"><stop stop-color="#5B79A2" offset="0%"/><stop stop-color="#2E4469" offset="100%"/></linearGradient></defs><g transform="translate(6 9)" fill="none" fill-rule="evenodd"><rect fill="url(#a)" width="38" height="32" rx="6"/><path d="M6 2h26a4 4 0 014 4v20a4 4 0 01-4 4H6a4 4 0 01-4-4V6a4 4 0 014-4z" fill="#22385D"/><g filter="url(#b)" transform="translate(4 5)" fill="#53B5FF"><path d="M0 0h16.326v1.231H0z"/><path opacity=".326" d="M19.047 0h10.884v1.231H19.047z"/></g><g fill="#53B5FF"><g filter="url(#c)" opacity=".326" transform="translate(4 12.5)"><path d="M0 0h30v1.231H0z"/></g><g filter="url(#d)" transform="translate(4 17.423)"><path d="M0 0h3v1.231H0z"/><path opacity=".326" d="M5.93 0h24v1.231h-24z"/></g><g filter="url(#e)" transform="translate(4 14.962)"><path d="M0 0h29.93v1.231H0z"/></g></g><g filter="url(#f)" transform="translate(4 9.923)" fill="#53B5FF"><path d="M0 0h16.326v1.231H0z"/><path opacity=".326" d="M19.047 0h10.884v1.231H19.047z"/></g><g filter="url(#g)" transform="translate(4 7.462)" fill="#53B5FF"><path d="M0 0h29.93v1.231H0z"/></g><path d="M1.975 1h31.518a1.475 1.475 0 01.955 2.597L21.252 14.83a1.475 1.475 0 01-.066.053L2.864 28.749A1.475 1.475 0 01.5 27.573V2.475C.5 1.66 1.16 1 1.975 1z" fill="url(#h)" opacity=".297"/><path d="M32.91 22.61c-.913 0-1.77-.352-2.415-.992a3.356 3.356 0 01-.999-2.398.45.45 0 00-.9 0c0 .907-.354 1.759-.998 2.398a3.405 3.405 0 01-2.415.992.45.45 0 100 .9 3.41 3.41 0 013.413 3.4.45.45 0 10.9 0 3.41 3.41 0 013.414-3.4.45.45 0 100-.9zm-8.753-3.518a2.397 2.397 0 01-2.403-2.386.45.45 0 00-.9 0 2.397 2.397 0 01-2.404 2.386.45.45 0 000 .9 2.401 2.401 0 012.404 2.393.45.45 0 00.9 0 2.401 2.401 0 012.403-2.393.45.45 0 100-.9zm.733-3.982c.974 0 1.767.787 1.767 1.754a.45.45 0 00.9 0c0-.97.793-1.76 1.767-1.76a.45.45 0 000-.9 1.763 1.763 0 01-1.767-1.754.45.45 0 10-.9 0c0 .97-.793 1.76-1.768 1.76a.45.45 0 100 .9z" fill="#80C8FF"/></g></svg>