<?xml version="1.0" encoding="utf-8"?>
<!-- Generator: Adobe Illustrator 23.0.0, SVG Export Plug-In . SVG Version: 6.00 Build 0)  -->
<svg version="1.1" id="Layer_1" xmlns="http://www.w3.org/2000/svg" xmlns:xlink="http://www.w3.org/1999/xlink" x="0px" y="0px"
	 viewBox="0 0 30 30" style="enable-background:new 0 0 30 30;" xml:space="preserve">
<style type="text/css">
	.st0{fill:#FFFFFF;}
</style>
<path class="st0" d="M19.3,5.2c4.2,0,7.7,3.4,7.7,7.7c0,4.2-3.4,7.7-7.7,7.7v0h-3.4l-5.1,5.1v-5.1v0c-4.2,0-7.7-3.4-7.7-7.7
	c0-4.2,3.4-7.7,7.7-7.7H19.3 M19.3,3.5h-8.5c-5.2,0-9.4,4.2-9.4,9.4c0,4.6,3.3,8.4,7.7,9.2v3.6c0,0.7,0.4,1.3,1.1,1.6
	c0.2,0.1,0.4,0.1,0.7,0.1c0.4,0,0.9-0.2,1.2-0.5l4.6-4.6h2.7c5.2,0,9.4-4.2,9.4-9.4C28.6,7.7,24.4,3.5,19.3,3.5L19.3,3.5z"/>
</svg>
