<?xml version="1.0" encoding="utf-8"?>
<!-- Generator: Adobe Illustrator 23.0.0, SVG Export Plug-In . SVG Version: 6.00 Build 0)  -->
<svg version="1.1" id="Layer_1" xmlns="http://www.w3.org/2000/svg" xmlns:xlink="http://www.w3.org/1999/xlink" x="0px" y="0px"
	 viewBox="0 0 30 30" style="enable-background:new 0 0 30 30;" xml:space="preserve">
<style type="text/css">
	.st0{fill:#FFFFFF;}
</style>
<path class="st0" d="M26.9,18.1h-1.6c-0.2-1.1-0.5-2.3-1-3.6c-1.1-3-2.9-5.1-5.3-6.2h5.3c0.2,0.7,0.9,1.3,1.6,1.3
	c0.9,0,1.7-0.8,1.7-1.7S27,6.2,26.1,6.2c-0.8,0-1.5,0.5-1.6,1.3h-6V6.2c0-0.9-0.8-1.7-1.7-1.7h-3.4c-0.9,0-1.7,0.8-1.7,1.7v1.3h-6
	C5.4,6.8,4.7,6.2,3.9,6.2C3,6.2,2.2,7,2.2,7.9S3,9.6,3.9,9.6c0.8,0,1.5-0.5,1.6-1.3h5.3c-2.3,1.1-4.1,3.2-5.3,6.2
	c-0.5,1.2-0.8,2.5-1,3.6H3.1c-0.9,0-1.7,0.8-1.7,1.7v3.4c0,0.9,0.8,1.7,1.7,1.7h3.4c0.9,0,1.7-0.8,1.7-1.7v-3.4
	c0-0.9-0.8-1.7-1.7-1.7H5.6c0.2-1,0.5-2.1,0.9-3.3c1.1-3,2.8-5,5.1-5.9v0.6c0,0.9,0.8,1.7,1.7,1.7h3.4c0.9,0,1.7-0.8,1.7-1.7V9
	c2.3,0.9,4,2.9,5.1,5.9c0.4,1.1,0.7,2.3,0.9,3.3h-0.9c-0.9,0-1.7,0.8-1.7,1.7v3.4c0,0.9,0.8,1.7,1.7,1.7h3.4c0.9,0,1.7-0.8,1.7-1.7
	v-3.4C28.6,18.9,27.8,18.1,26.9,18.1z M26.1,7.1c0.5,0,0.9,0.4,0.9,0.9c0,0.5-0.4,0.9-0.9,0.9c-0.5,0-0.9-0.4-0.9-0.9
	C25.2,7.5,25.6,7.1,26.1,7.1z M3.9,8.8c-0.5,0-0.9-0.4-0.9-0.9c0-0.5,0.4-0.9,0.9-0.9c0.5,0,0.9,0.4,0.9,0.9
	C4.8,8.4,4.4,8.8,3.9,8.8z M6.5,23.2H3.1v-3.4h3.4V23.2z M16.7,9.6h-3.4V6.2h3.4V9.6z M26.9,23.2h-3.4v-3.4h3.4V23.2z"/>
</svg>
