<?xml version="1.0" encoding="utf-8"?>
<!-- Generator: Adobe Illustrator 23.0.0, SVG Export Plug-In . SVG Version: 6.00 Build 0)  -->
<svg version="1.1" id="Layer_1" xmlns="http://www.w3.org/2000/svg" xmlns:xlink="http://www.w3.org/1999/xlink" x="0px" y="0px"
	 viewBox="0 0 30 30" style="enable-background:new 0 0 30 30;" xml:space="preserve">
<style type="text/css">
	.st0{fill:#FFFFFF;}
</style>
<path class="st0" d="M20.1,1H9.9C8,1,6.5,2.5,6.5,4.4v20.4c0,1.9,1.5,3.4,3.4,3.4h10.2c1.9,0,3.4-1.5,3.4-3.4V4.4
	C23.5,2.5,22,1,20.1,1z M8.2,4.4c0-0.9,0.8-1.7,1.7-1.7h10.2c0.9,0,1.7,0.8,1.7,1.7v2.6H8.2V4.4z M8.2,7.8h13.6v12.8H8.2V7.8z
	 M21.8,24.8c0,0.9-0.8,1.7-1.7,1.7H9.9c-0.9,0-1.7-0.8-1.7-1.7v-3.4h13.6V24.8z M15,25.6c0.9,0,1.7-0.8,1.7-1.7s-0.8-1.7-1.7-1.7
	s-1.7,0.8-1.7,1.7S14.1,25.6,15,25.6z M15,23.1c0.5,0,0.9,0.4,0.9,0.9c0,0.5-0.4,0.9-0.9,0.9s-0.9-0.4-0.9-0.9
	C14.1,23.5,14.5,23.1,15,23.1z M17.1,4.8c0,0.2-0.2,0.4-0.4,0.4h-3.4c-0.2,0-0.4-0.2-0.4-0.4s0.2-0.4,0.4-0.4h3.4
	C16.9,4.4,17.1,4.5,17.1,4.8z"/>
</svg>
