<?xml version="1.0" encoding="utf-8"?>
<!-- Generator: Adobe Illustrator 23.0.0, SVG Export Plug-In . SVG Version: 6.00 Build 0)  -->
<svg version="1.1" id="Layer_1" xmlns="http://www.w3.org/2000/svg" xmlns:xlink="http://www.w3.org/1999/xlink" x="0px" y="0px"
	 viewBox="0 0 30 30" style="enable-background:new 0 0 30 30;" xml:space="preserve">
<style type="text/css">
	.st0{fill:#FFFFFF;}
</style>
<path class="st0" d="M25.1,6.4h-6.3c-0.2-0.5-0.6-1-1-1.4L20.8,2c0.2-0.2,0.2-0.4,0-0.6c-0.2-0.2-0.4-0.2-0.6,0l-3,3
	c-0.6-0.4-1.4-0.6-2.2-0.6c-0.8,0-1.5,0.2-2.2,0.6l-3-3c-0.2-0.2-0.4-0.2-0.6,0C9.1,1.6,9.1,1.9,9.2,2L12.1,5
	c-0.4,0.4-0.8,0.9-1,1.4H4.9C3,6.4,1.5,7.9,1.5,9.7v15.2c0,1.9,1.5,3.4,3.4,3.4h20.3c1.9,0,3.4-1.5,3.4-3.4V9.7
	C28.5,7.9,27,6.4,25.1,6.4z M15,4.7c1.2,0,2.3,0.6,2.9,1.7h-5.8C12.7,5.3,13.8,4.7,15,4.7z M26.8,24.9c0,0.9-0.8,1.7-1.7,1.7H4.9
	c-0.9,0-1.7-0.8-1.7-1.7V9.7c0-0.9,0.8-1.7,1.7-1.7h20.3c0.9,0,1.7,0.8,1.7,1.7V24.9z M20.9,10.6v13.5H5.7V10.6H20.9 M20.9,9.7H5.7
	c-0.5,0-0.8,0.4-0.8,0.8v13.5c0,0.5,0.4,0.8,0.8,0.8h15.2c0.5,0,0.8-0.4,0.8-0.8V10.6C21.8,10.1,21.4,9.7,20.9,9.7L20.9,9.7z
	 M24.3,10.6c0.5,0,0.8,0.4,0.8,0.8c0,0.5-0.4,0.8-0.8,0.8c-0.5,0-0.8-0.4-0.8-0.8C23.4,11,23.8,10.6,24.3,10.6 M24.3,9.7
	c-0.9,0-1.7,0.8-1.7,1.7s0.8,1.7,1.7,1.7s1.7-0.8,1.7-1.7S25.2,9.7,24.3,9.7L24.3,9.7z M24.3,14.8c0.5,0,0.8,0.4,0.8,0.8
	s-0.4,0.8-0.8,0.8c-0.5,0-0.8-0.4-0.8-0.8S23.8,14.8,24.3,14.8 M24.3,14c-0.9,0-1.7,0.8-1.7,1.7c0,0.9,0.8,1.7,1.7,1.7
	s1.7-0.8,1.7-1.7C26,14.7,25.2,14,24.3,14L24.3,14z"/>
</svg>
