<svg xmlns="http://www.w3.org/2000/svg" width="39.724" height="39.726" viewBox="0 0 39.724 39.726">
  <path id="Path_1124" data-name="Path 1124" d="M1571.885,2573.343a4.966,4.966,0,1,0-7.2,0,7.5,7.5,0,0,0-1.3.917,8.749,8.749,0,0,0-3.484-3.338,6.207,6.207,0,1,0-8.06,0,8.758,8.758,0,0,0-3.484,3.338,7.507,7.507,0,0,0-1.3-.917,4.966,4.966,0,1,0-7.2,0,7.452,7.452,0,0,0-3.85,6.517v4.965a2.482,2.482,0,0,0,2.483,2.483v6.207a2.482,2.482,0,0,0,2.483,2.483h4.965a2.482,2.482,0,0,0,2.483-2.483v-4.059a2.477,2.477,0,0,0,1.241.335v7.448a2.482,2.482,0,0,0,2.483,2.483h7.448a2.482,2.482,0,0,0,2.483-2.483v-7.448a2.46,2.46,0,0,0,1.241-.335v4.058A2.482,2.482,0,0,0,1565.8,2596h4.965a2.482,2.482,0,0,0,2.483-2.483v-6.207a2.482,2.482,0,0,0,2.483-2.483v-4.966A7.457,7.457,0,0,0,1571.885,2573.343Zm-28.427-5.9a2.483,2.483,0,1,1-2.483,2.483A2.482,2.482,0,0,1,1543.457,2567.448Zm2.483,13.034v13.034h-1.862v-8.689a.621.621,0,1,0-1.241,0v8.689h-1.862v-13.034a.621.621,0,0,0-1.241,0v4.345h-1.241v-4.966a4.965,4.965,0,0,1,8.88-3.054,8.715,8.715,0,0,0-.191,1.812v1.241h-.621A.621.621,0,0,0,1545.94,2580.483Zm22.345-13.034a2.483,2.483,0,1,1-2.483,2.483A2.482,2.482,0,0,1,1568.284,2567.448Zm-12.414-4.965a3.724,3.724,0,1,1-3.724,3.724A3.725,3.725,0,0,1,1555.871,2562.483Zm6.207,24.827h-1.241v-8.069a.621.621,0,1,0-1.241,0v18h-3.1v-9.931a.621.621,0,0,0-1.241,0v9.931h-3.1v-18a.621.621,0,1,0-1.241,0v8.069h-1.241v-8.69a6.207,6.207,0,0,1,12.414,0Zm11.172-2.483h-1.241v-4.345a.621.621,0,0,0-1.241,0v13.034h-1.862v-8.689a.621.621,0,1,0-1.241,0v8.689H1565.8v-13.034a.621.621,0,0,0-.621-.621h-.621v-1.241a8.627,8.627,0,0,0-.191-1.812,4.965,4.965,0,0,1,8.88,3.054Z" transform="translate(-1536.01 -2560)" fill="#fff"/>
</svg>
