<svg width="302" height="334" fill="none" xmlns="http://www.w3.org/2000/svg"><g opacity=".399" filter="url(#7s9jp4ss1a)"><path d="M150.75 313.005c71.797 0 130-8.045 130-17.969 0-9.924-58.203-17.97-130-17.97s-130 8.046-130 17.97 58.203 17.969 130 17.969z" fill="url(#o3bv3dcanb)"/></g><g filter="url(#qlklmviy6c)"><path d="M172.308 67.639c0 .49.182.925.547 1.302l2.732 2.83c.364.378.784.567 1.257.567.474 0 .893-.19 1.257-.566l25.463-26.38c.365-.377.547-.81.547-1.301 0-.49-.182-.925-.547-1.302l-25.463-26.38c-.364-.377-.783-.565-1.257-.565-.474 0-.893.188-1.257.566l-2.732 2.829c-.364.377-.547.811-.547 1.302 0 .49.183.924.547 1.302L194.33 44.09l-21.475 22.246c-.365.377-.547.811-.547 1.302z" fill="#000"/></g><path d="M172.308 67.639c0 .49.182.925.547 1.302l2.732 2.83c.364.378.784.567 1.257.567.474 0 .893-.19 1.257-.566l25.463-26.38c.365-.377.547-.81.547-1.301 0-.49-.182-.925-.547-1.302l-25.463-26.38c-.364-.377-.783-.565-1.257-.565-.474 0-.893.188-1.257.566l-2.732 2.829c-.364.377-.547.811-.547 1.302 0 .49.183.924.547 1.302L194.33 44.09l-21.475 22.246c-.365.377-.547.811-.547 1.302z" fill="url(#2v6xuaimvd)"/><g filter="url(#euw77ylnwe)"><path d="M129.435 20.543c0-.49-.183-.925-.547-1.302l-2.732-2.83c-.365-.378-.784-.567-1.257-.567-.474 0-.893.19-1.257.566L98.178 42.79c-.364.377-.546.81-.546 1.301 0 .49.182.925.546 1.302l25.464 26.38c.364.377.782.565 1.257.565.474 0 .892-.189 1.257-.566l2.732-2.829c.364-.377.547-.811.547-1.302 0-.49-.183-.925-.547-1.302l-21.475-22.248 21.475-22.246c.365-.377.547-.812.547-1.302z" fill="#000"/></g><path d="M129.435 20.543c0-.49-.183-.925-.547-1.302l-2.732-2.83c-.365-.378-.784-.567-1.257-.567-.474 0-.893.19-1.257.566L98.178 42.79c-.364.377-.546.81-.546 1.301 0 .49.182.925.546 1.302l25.464 26.38c.364.377.782.565 1.257.565.474 0 .892-.189 1.257-.566l2.732-2.829c.364-.377.547-.811.547-1.302 0-.49-.183-.925-.547-1.302l-21.475-22.248 21.475-22.246c.365-.377.547-.812.547-1.302z" fill="url(#4w5e5o00yf)"/><g filter="url(#dhjtrc4c3g)"><path d="M154.461 40.067v7.396h-7.56v-7.396h7.56zm0-9.51v7.397h-7.56v-7.397h7.56zm0-9.51v7.397h-7.56v-7.397h7.56zm0-9.51v7.397h-7.56v-7.397h7.56z" fill="#000"/></g><path d="M154.461 40.067v7.396h-7.56v-7.396h7.56zm0-9.51v7.397h-7.56v-7.397h7.56zm0-9.51v7.397h-7.56v-7.397h7.56zm0-9.51v7.397h-7.56v-7.397h7.56z" fill="url(#ft882fuwmh)"/><path fill-rule="evenodd" clip-rule="evenodd" d="M128.82 54.817c11.194-8.423 34.369-7.594 44.925 0 4.846 3.485 8.388 13.549 8.388 13.549s23.374 4.795 31.567 11.511c0 1.17-7.509 1.321-9.46 1.34.24.174.474.349.707.523 4.257 1.92 18.94 8.717 22.981 12.914 0 1.157-5.759.985-7.355.915.248.258.491.514.731.77 3.982 2.822 17.447 12.849 24.015 23.838l.431.448-10.672-3.065-.011.577a250.706 250.706 0 013.77 11.213l.212.691a172.5 172.5 0 01.935 3.175l.2.712c.462 1.661.891 3.319 1.254 4.905-.937 1.947-5.119-.025-7.351-1.259a316.482 316.482 0 01-.321 3.81c1.543 6.922 4.207 20.39 4.511 32.075-1.294.896-7.33-6.716-7.33-6.716l.005.078.009.135c.113 1.666.848 12.634.848 16.354-.657-.341-3.032-4.005-4.129-5.734a95.168 95.168 0 01-.894 3.013c-.223 28.857-153.408 22.016-153.195-7.381a143.87 143.87 0 01-.91-3.992 2155.562 2155.562 0 01-4.72 9.169c-3.307-12.364-.78-30.52.577-38.311-.062-.714-.12-1.418-.176-2.115-1.458 2.526-4.318 6.61-5.575 2.366 0-10.51 4.325-24.856 4.515-25.482l.006-.021s-7.108 8.936-10.558 6.25c4.391-9.119 16.308-18.237 22.48-22.532.638-.713 1.3-1.438 1.995-2.176-2.621.44-7.103.835-6.796-1.71 5.824-4.98 17.634-10.244 22.243-12.197.344-.263.694-.526 1.046-.789H84.346c6.467-7.612 36.086-13.302 36.086-13.302s3.615-9.958 8.388-13.55z" fill="url(#wexkw935pi)"/><path fill-rule="evenodd" clip-rule="evenodd" d="M150.861 49.529c8.568 0 17.148 2.05 22.463 5.874 4.643 3.34 8.02 12.9 8.126 13.197.161.06.434.143.804.246l.528.144c5.085 1.362 21.758 5.313 29.375 10.628l.257.183-.173.061a5.599 5.599 0 01-.859.194l-.224.034c-2.342.331-5.716.394-6.925.406l-2.187.022 1.77 1.284c.237.172.468.344.698.516 4.146 1.889 17.524 8.052 22.248 12.222a2.63 2.63 0 01-.82.212c-1.787.223-4.36.138-5.338.096l-1.804-.08 1.253 1.302c.246.256.487.51.725.763 3.895 2.777 16.367 12.046 23.117 22.425l.064.101-9.585-2.753-.018.94-.011.576c.633 1.883 2.232 6.35 3.802 11.439l.211.691c.316 1.038.63 2.098.93 3.159l.2.71c.43 1.545.831 3.088 1.177 4.572-.631.274-1.046.252-1.498.174-1.542-.264-3.464-1.224-4.731-1.925a29.798 29.798 0 01-.983-.565 301.368 301.368 0 01-.406 4.942c1.526 7.005 4.121 20.1 4.491 31.602-1.356-.236-4.719-4.799-5.732-6.213l-.14-.196-.154-.218s-.673-.967-1.477-2.241a775.96 775.96 0 01.736 11.495l.043.765c.099 1.838.186 3.641.234 5.087-.906-1.262-2.081-3.143-2.758-4.211l-.879-1.385a100.09 100.09 0 01-1.313 4.568c-.057 3.246-1.944 5.822-5.157 8.017-3.669 2.506-9.057 4.506-15.616 6.044-14.718 3.453-35.291 4.552-55.797 3.564-20.338-.979-40.611-4.013-55.041-8.863-6.422-2.158-11.68-4.671-15.24-7.533-3.14-2.523-4.956-5.309-4.934-8.388-.339-1.484-.64-2.81-.927-4.148a169.7 169.7 0 01-.415-2.001l-.933 1.823a2143.87 2143.87 0 01-3.827 7.44c-2.585-12.159-.241-28.787 1.038-36.13-.053-.897-.111-1.601-.167-2.295l-.185-2.312-1.16 2.008c-.79 1.368-1.992 3.301-3.12 3.779-.746-.223-.935-.6-1.108-1.159.03-10.414 4.296-24.546 4.484-25.165.063-.206.586-1.916 1.468-4.425-1.18 1.901-2.468 3.456-2.716 3.756-.385.467-3.262 3.976-6.114 5.653-.729.429-1.452.739-2.125.804a2.002 2.002 0 01-.798-.07c4.567-8.808 15.973-17.491 21.934-21.638.76-.82 1.419-1.54 2.109-2.275a118.06 118.06 0 011.622-1.69c-.787.213-1.59.37-2.268.484-1.462.246-3.54.496-4.934.145-.369-.092-.69-.218-.884-.447 5.746-5.26 17.304-10.382 21.75-12.263l.589-.447 2.257-1.694H86.11c6.004-5.043 21.605-9.05 29.591-10.845l.945-.21c2.411-.53 3.922-.816 3.922-.816.542-.463 4.033-10.18 8.685-13.681 5.345-4.022 13.483-5.865 21.607-5.865z" fill="url(#jgz2nmjnlj)" stroke="url(#cdixoggg7k)" stroke-width="1.444"/><path opacity=".705" fill-rule="evenodd" clip-rule="evenodd" d="M128.82 54.817c11.194-8.423 34.369-7.594 44.925 0 4.846 3.485 8.388 13.549 8.388 13.549s23.374 4.795 31.567 11.511c0 1.17-7.509 1.321-9.46 1.34.24.174.474.349.707.523 4.257 1.92 18.94 8.717 22.981 12.914 0 1.157-5.759.985-7.355.915.248.258.491.514.731.77 3.982 2.822 17.447 12.849 24.015 23.838l.431.448-10.672-3.065-.011.577a250.706 250.706 0 013.77 11.213l.212.691a172.5 172.5 0 01.935 3.175l.2.712c.462 1.661.891 3.319 1.254 4.905-.937 1.947-5.119-.025-7.351-1.259a316.482 316.482 0 01-.321 3.81c1.543 6.922 4.207 20.39 4.511 32.075-1.294.896-7.33-6.716-7.33-6.716l.005.078.009.135c.113 1.666.848 12.634.848 16.354-.657-.341-3.032-4.005-4.129-5.734a95.168 95.168 0 01-.894 3.013c-.223 28.857-153.408 22.016-153.195-7.381a143.87 143.87 0 01-.91-3.992 2155.562 2155.562 0 01-4.72 9.169c-3.307-12.364-.78-30.52.577-38.311-.062-.714-.12-1.418-.176-2.115-1.458 2.526-4.318 6.61-5.575 2.366 0-10.51 4.325-24.856 4.515-25.482l.006-.021s-7.108 8.936-10.558 6.25c4.391-9.119 16.308-18.237 22.48-22.532.638-.713 1.3-1.438 1.995-2.176-2.621.44-7.103.835-6.796-1.71 5.824-4.98 17.634-10.244 22.243-12.197.344-.263.694-.526 1.046-.789H84.346c6.467-7.612 36.086-13.302 36.086-13.302s3.615-9.958 8.388-13.55z" fill="url(#hkan6igjhl)"/><path fill-rule="evenodd" clip-rule="evenodd" d="M168.688 85.274c0 10.205-7.967 18.478-17.794 18.478-9.828 0-17.794-8.273-17.794-18.478 0-10.205 7.966-18.478 17.794-18.478 9.827 0 17.794 8.273 17.794 18.478z" fill="#24385A" stroke="url(#punhvjvizm)" stroke-width=".859"/><path fill-rule="evenodd" clip-rule="evenodd" d="M168.688 85.274c0 10.205-7.967 18.478-17.794 18.478-9.828 0-17.794-8.273-17.794-18.478 0-10.205 7.966-18.478 17.794-18.478 9.827 0 17.794 8.273 17.794 18.478z" fill="#000" fill-opacity=".152" stroke="url(#oiyhx9z1wn)" stroke-width=".874"/><path fill-rule="evenodd" clip-rule="evenodd" d="M147.728 76.128s-.727.084-1.768.414c-2.277.72-6.063 2.612-7.062 7.365-.048.694-.053 1.402.018 2.094.22 2.197 1.329 4.082 2.941 5.557 2.16 1.974 5.223 3.212 8.27 3.475 4.704.407 9.369-1.514 10.603-6.64.127-.526.226-1.031.313-1.527.276-2.896-.19-5.212-1.231-6.962a7.625 7.625 0 00-1.147-1.483c-1.751-1.763-4.337-2.63-7.419-2.63a19.56 19.56 0 00-3.518.337z" fill="#76E2FF"/><path fill-rule="evenodd" clip-rule="evenodd" d="M150.011 86.414s-1.614.186-2.686 1.405c-.58.658-1.001 1.616-.926 3.009.049.94.505 1.744 1.184 2.366.577.527 1.316.923 2.106 1.159 1.638.488 3.497.286 4.594-.86.383-.4.674-.917.829-1.562.181-.752.258-1.427.241-2.026-.03-1.123-.383-1.978-.977-2.576-.642-.647-1.564-.991-2.663-1.043a6.486 6.486 0 00-.298-.007c-.444 0-.914.045-1.404.135z" fill="url(#jeowm2lj2o)"/><path fill-rule="evenodd" clip-rule="evenodd" d="M154.739 90.62c0 .742-.579 1.344-1.293 1.344-.715 0-1.294-.602-1.294-1.344 0-.741.579-1.343 1.294-1.343.714 0 1.293.602 1.293 1.343z" fill="#ECECEC"/><path d="M169.509 140.248c-3.1 1.304-6.615 1.084-9.645-.605-1.296-.721-1.832-2.418-1.199-3.788.633-1.37 2.196-1.895 3.493-1.173 1.672.932 3.611 1.054 5.321.335 1.709-.718 3.023-2.208 3.603-4.088.45-1.455 1.926-2.208 3.296-1.68 1.37.528 2.116 2.136 1.666 3.592-1.052 3.403-3.434 6.103-6.535 7.407z" fill="#1C2737"/><path d="M239.75 110.066h-178v178h178v-178z" fill="url(#03cj0y3fys)"/><ellipse opacity=".069" cx="153.5" cy="293.5" rx="142.5" ry="10.5" fill="url(#94jbxdziet)"/><ellipse opacity=".152" cx="153.5" cy="294" rx="104.5" ry="13" fill="url(#x1j13n3lwu)"/><ellipse opacity=".155" cx="153.5" cy="293.5" rx="86.5" ry="10.5" fill="url(#hzdi94zrbv)"/><defs><linearGradient id="2v6xuaimvd" x1="190.811" y1="20.776" x2="175.212" y2="35.86" gradientUnits="userSpaceOnUse"><stop stop-color="#1390B3"/><stop offset="1" stop-color="#4BDEFF"/></linearGradient><linearGradient id="4w5e5o00yf" x1="110.931" y1="67.406" x2="126.531" y2="52.322" gradientUnits="userSpaceOnUse"><stop stop-color="#1390B3"/><stop offset="1" stop-color="#4BDEFF"/></linearGradient><linearGradient id="ft882fuwmh" x1="149.816" y1="52.928" x2="149.816" y2="31.498" gradientUnits="userSpaceOnUse"><stop stop-color="#047392"/><stop offset="1" stop-color="#86E9FF"/></linearGradient><linearGradient id="wexkw935pi" x1="56.75" y1="123.936" x2="245.75" y2="123.936" gradientUnits="userSpaceOnUse"><stop stop-color="#5B79A2"/><stop offset="1" stop-color="#2E4469"/></linearGradient><linearGradient id="jgz2nmjnlj" x1="216.683" y1="157.192" x2="103.314" y2="67.51" gradientUnits="userSpaceOnUse"><stop stop-color="#2F4568"/><stop offset="1" stop-color="#18222F"/></linearGradient><linearGradient id="cdixoggg7k" x1="150.834" y1="-22.47" x2="150.834" y2="143.039" gradientUnits="userSpaceOnUse"><stop stop-color="#76E1FF"/><stop offset="1" stop-color="#637BFF" stop-opacity="0"/></linearGradient><linearGradient id="punhvjvizm" x1="149.282" y1="128.901" x2="133.304" y2="69.145" gradientUnits="userSpaceOnUse"><stop stop-color="#C4D6EB" stop-opacity=".676"/><stop offset="1" stop-color="#91ACD2" stop-opacity=".3"/></linearGradient><linearGradient id="oiyhx9z1wn" x1="147.089" y1="96.921" x2="139.227" y2="69.177" gradientUnits="userSpaceOnUse"><stop stop-color="#76E1FF"/><stop offset="1" stop-color="#637BFF" stop-opacity="0"/></linearGradient><linearGradient id="jeowm2lj2o" x1="146.39" y1="90.44" x2="155.355" y2="90.44" gradientUnits="userSpaceOnUse"><stop stop-color="#5B79A2"/><stop offset="1" stop-color="#2E4469"/></linearGradient><linearGradient id="03cj0y3fys" x1="70.126" y1="288.066" x2="239.75" y2="149.532" gradientUnits="userSpaceOnUse"><stop stop-color="#00607B"/><stop offset="1" stop-color="#4BDEFF"/></linearGradient><radialGradient id="o3bv3dcanb" cx="0" cy="0" r="1" gradientUnits="userSpaceOnUse" gradientTransform="matrix(-126.87 0 0 -32.3797 2.619 -60.582)"><stop/><stop offset="1" stop-opacity=".01"/></radialGradient><radialGradient id="hkan6igjhl" cx="0" cy="0" r="1" gradientUnits="userSpaceOnUse" gradientTransform="matrix(4.40136 -114.93676 143.3829 5.49067 136 -42.5)"><stop stop-color="#25C2F2" stop-opacity=".626"/><stop offset="1" stop-color="#1B2B44"/></radialGradient><radialGradient id="94jbxdziet" cx="0" cy="0" r="1" gradientUnits="userSpaceOnUse" gradientTransform="matrix(-196 0 0 -4.76518 153.5 291.738)"><stop stop-color="#00D0FF"/><stop offset="1" stop-color="#1291B4" stop-opacity=".01"/></radialGradient><radialGradient id="x1j13n3lwu" cx="0" cy="0" r="1" gradientUnits="userSpaceOnUse" gradientTransform="matrix(-104.49997 .0839 -.01327 -16.5245 153.5 291.819)"><stop stop-color="#00D0FF"/><stop offset="1" stop-color="#1291B4" stop-opacity=".01"/></radialGradient><radialGradient id="hzdi94zrbv" cx="0" cy="0" r="1" gradientUnits="userSpaceOnUse" gradientTransform="matrix(-84.4171 0 0 -2.33086 153.5 291.738)"><stop stop-color="#00D0FF"/><stop offset="1" stop-color="#1291B4" stop-opacity=".01"/></radialGradient><filter id="7s9jp4ss1a" x=".265" y="256.581" width="300.97" height="76.908" filterUnits="userSpaceOnUse" color-interpolation-filters="sRGB"><feFlood flood-opacity="0" result="BackgroundImageFix"/><feBlend in="SourceGraphic" in2="BackgroundImageFix" result="shape"/><feGaussianBlur stdDeviation="10.242" result="effect1_foregroundBlur_350_22465"/></filter><filter id="qlklmviy6c" x="167.308" y="10.844" width="41.803" height="66.494" filterUnits="userSpaceOnUse" color-interpolation-filters="sRGB"><feFlood flood-opacity="0" result="BackgroundImageFix"/><feColorMatrix in="SourceAlpha" values="0 0 0 0 0 0 0 0 0 0 0 0 0 0 0 0 0 0 127 0" result="hardAlpha"/><feOffset/><feGaussianBlur stdDeviation="2.5"/><feColorMatrix values="0 0 0 0 0.137255 0 0 0 0 0.788235 0 0 0 0 0.968627 0 0 0 0.4263 0"/><feBlend in2="BackgroundImageFix" result="effect1_dropShadow_350_22465"/><feBlend in="SourceGraphic" in2="effect1_dropShadow_350_22465" result="shape"/></filter><filter id="euw77ylnwe" x="92.632" y="10.844" width="41.803" height="66.494" filterUnits="userSpaceOnUse" color-interpolation-filters="sRGB"><feFlood flood-opacity="0" result="BackgroundImageFix"/><feColorMatrix in="SourceAlpha" values="0 0 0 0 0 0 0 0 0 0 0 0 0 0 0 0 0 0 127 0" result="hardAlpha"/><feOffset/><feGaussianBlur stdDeviation="2.5"/><feColorMatrix values="0 0 0 0 0.137255 0 0 0 0 0.788235 0 0 0 0 0.968627 0 0 0 0.4263 0"/><feBlend in2="BackgroundImageFix" result="effect1_dropShadow_350_22465"/><feBlend in="SourceGraphic" in2="effect1_dropShadow_350_22465" result="shape"/></filter><filter id="dhjtrc4c3g" x="135.901" y=".537" width="29.56" height="57.926" filterUnits="userSpaceOnUse" color-interpolation-filters="sRGB"><feFlood flood-opacity="0" result="BackgroundImageFix"/><feColorMatrix in="SourceAlpha" values="0 0 0 0 0 0 0 0 0 0 0 0 0 0 0 0 0 0 127 0" result="hardAlpha"/><feOffset/><feGaussianBlur stdDeviation="5.5"/><feColorMatrix values="0 0 0 0 0.137255 0 0 0 0 0.788235 0 0 0 0 0.968627 0 0 0 0.4263 0"/><feBlend in2="BackgroundImageFix" result="effect1_dropShadow_350_22465"/><feBlend in="SourceGraphic" in2="effect1_dropShadow_350_22465" result="shape"/></filter></defs></svg>