<svg width="897" height="894" xmlns="http://www.w3.org/2000/svg" xmlns:xlink="http://www.w3.org/1999/xlink"><defs><linearGradient x1="41.772%" y1="91.27%" x2="65.936%" y2="50%" id="a"><stop stop-color="#1390B3" offset="0%"/><stop stop-color="#4BDEFF" offset="100%"/></linearGradient><linearGradient x1="45.728%" y1="91.27%" x2="58.274%" y2="50%" id="b"><stop stop-color="#1390B3" offset="0%"/><stop stop-color="#4BDEFF" offset="100%"/></linearGradient><linearGradient x1="0%" y1="50%" x2="100%" y2="50%" id="c"><stop stop-color="#5B79A2" offset="0%"/><stop stop-color="#2E4469" offset="100%"/></linearGradient><linearGradient x1="85.355%" y1="72.153%" x2="14.645%" y2="27.847%" id="d"><stop stop-color="#2F4568" offset="0%"/><stop stop-color="#18222F" offset="100%"/></linearGradient><linearGradient x1="45.432%" y1="168.048%" x2="3.23%" y2="5.569%" id="f"><stop stop-color="#C4D6EB" stop-opacity=".676" offset="0%"/><stop stop-color="#91ACD2" stop-opacity=".3" offset="100%"/></linearGradient><linearGradient x1="0%" y1="50%" x2="100%" y2="50%" id="g"><stop stop-color="#5B79A2" offset="0%"/><stop stop-color="#2E4469" offset="100%"/></linearGradient><linearGradient x1="30.414%" y1="33.066%" x2="50%" y2="66.934%" id="l"><stop stop-color="#5B79A2" offset="0%"/><stop stop-color="#2E4469" offset="100%"/></linearGradient><linearGradient x1="46.013%" y1="2.256%" x2="55.511%" y2="100%" id="p"><stop stop-color="#374F73" offset="0%"/><stop stop-color="#253652" offset="100%"/></linearGradient><linearGradient x1="50%" y1="149.484%" x2="50%" y2="0%" id="q"><stop stop-color="#5B79A2" offset="0%"/><stop stop-color="#2E4469" offset="100%"/></linearGradient><linearGradient x1="98.741%" y1="48.741%" x2="1.259%" y2="48.741%" id="t"><stop stop-color="#21C8F6" offset="0%"/><stop stop-color="#637BFF" offset="100%"/></linearGradient><linearGradient x1="34.594%" y1="41.662%" x2="60.398%" y2="55.248%" id="u"><stop stop-color="#5B79A2" offset="0%"/><stop stop-color="#2E4469" offset="100%"/></linearGradient><linearGradient x1="31.057%" y1="-144.062%" x2="31.057%" y2="100%" id="v"><stop stop-color="#6F90BC" offset="0%"/><stop stop-color="#2E4469" offset="100%"/></linearGradient><linearGradient x1="75.874%" y1="34.349%" x2="92.229%" y2="96.248%" id="x"><stop stop-color="#5B79A2" offset="0%"/><stop stop-color="#2E4469" offset="100%"/></linearGradient><linearGradient x1="38.15%" y1="78.776%" x2="41.988%" y2="102.32%" id="A"><stop stop-color="#55739C" offset="0%"/><stop stop-color="#4179D5" offset="100%"/></linearGradient><linearGradient x1="1.259%" y1="48.741%" x2="98.741%" y2="48.741%" id="B"><stop stop-color="#21C8F6" offset="0%"/><stop stop-color="#637BFF" offset="100%"/></linearGradient><linearGradient x1="50%" y1="108%" x2="50%" y2="-31.193%" id="F"><stop stop-color="#25C2F2" stop-opacity=".22" offset="0%"/><stop stop-color="#293F64" offset="100%"/></linearGradient><linearGradient x1="154.902%" y1="138.176%" x2="24.379%" y2="14.189%" id="L"><stop stop-color="#76E1FF" offset="0%"/><stop stop-color="#637BFF" stop-opacity="0" offset="100%"/></linearGradient><linearGradient x1="13.955%" y1=".616%" x2="105.637%" y2="98.781%" id="M"><stop stop-color="#587CB9" offset="0%"/><stop stop-color="#2E4469" stop-opacity="0" offset="100%"/></linearGradient><linearGradient x1="98.741%" y1="48.741%" x2="1.259%" y2="48.741%" id="R"><stop stop-color="#21C8F6" offset="0%"/><stop stop-color="#637BFF" offset="100%"/></linearGradient><linearGradient x1="98.741%" y1="48.741%" x2="1.259%" y2="48.741%" id="S"><stop stop-color="#21C8F6" offset="0%"/><stop stop-color="#637BFF" offset="100%"/></linearGradient><linearGradient x1="50%" y1="100%" x2="50%" y2="50%" id="aa"><stop stop-color="#5B79A2" offset="0%"/><stop stop-color="#2E4469" offset="100%"/><stop stop-color="#2E4469" offset="100%"/><stop stop-color="#2E4469" offset="100%"/></linearGradient><linearGradient x1="46.086%" y1="2.256%" x2="55.411%" y2="100%" id="ae"><stop stop-color="#374F73" offset="0%"/><stop stop-color="#253652" offset="100%"/></linearGradient><linearGradient x1="50%" y1="149.484%" x2="50%" y2="0%" id="af"><stop stop-color="#5B79A2" offset="0%"/><stop stop-color="#2E4469" offset="100%"/></linearGradient><linearGradient x1="50%" y1="100%" x2="50%" y2="69.152%" id="ah"><stop stop-color="#5B79A2" offset="0%"/><stop stop-color="#2E4469" offset="100%"/></linearGradient><linearGradient x1="50%" y1="66.186%" x2="28.893%" y2="13.232%" id="ai"><stop stop-color="#267195" offset="0%"/><stop stop-color="#00C3FF" offset="100%"/></linearGradient><linearGradient x1="10.01%" y1="35.997%" x2="94.296%" y2="65.589%" id="aj"><stop stop-color="#5B79A2" offset="0%"/><stop stop-color="#2E4469" offset="100%"/></linearGradient><linearGradient x1="40.357%" y1="51.698%" x2="16.862%" y2="41.52%" id="ar"><stop stop-color="#21C8F6" stop-opacity=".299" offset="0%"/><stop stop-color="#637BFF" offset="100%"/></linearGradient><radialGradient cx="38.543%" cy="58.44%" fx="38.543%" fy="58.44%" r="79.242%" gradientTransform="scale(.79157 1) rotate(-66.363 .436 .507)" id="e"><stop stop-color="#25C2F2" stop-opacity=".626" offset="0%"/><stop stop-color="#293F64" offset="100%"/></radialGradient><radialGradient cx="7.73%" cy="3.866%" fx="7.73%" fy="3.866%" r="112.902%" gradientTransform="matrix(.19465 .9424 -.54845 .33448 .083 -.047)" id="m"><stop stop-color="#25C2F2" stop-opacity=".626" offset="0%"/><stop stop-color="#293F64" offset="100%"/></radialGradient><radialGradient cx="52.436%" cy="42.955%" fx="52.436%" fy="42.955%" r="36.114%" gradientTransform="matrix(-1 0 0 -.21135 1.049 .52)" id="n"><stop stop-color="#172743" offset="0%"/><stop stop-opacity="0" offset="100%"/></radialGradient><radialGradient cx="7.73%" cy="3.866%" fx="7.73%" fy="3.866%" r="141.293%" gradientTransform="matrix(.15555 .75304 -.17802 .65798 .072 -.045)" id="w"><stop stop-color="#25C2F2" stop-opacity=".626" offset="0%"/><stop stop-color="#293F64" offset="100%"/></radialGradient><radialGradient cx="50%" cy="50%" fx="50%" fy="50%" r="68.353%" gradientTransform="matrix(0 1 -.99995 0 1 0)" id="z"><stop stop-color="#21C8F6" offset="0%"/><stop stop-color="#4BDEFF" offset="100%"/></radialGradient><radialGradient cx="43.496%" cy="117.006%" fx="43.496%" fy="117.006%" r="68.68%" gradientTransform="matrix(.0947 -.97563 .73994 .38556 -.472 1.143)" id="C"><stop stop-color="#25C2F2" offset="0%"/><stop stop-color="#293F64" offset="100%"/></radialGradient><radialGradient cx="50%" cy="50%" fx="50%" fy="50%" r="152.585%" gradientTransform="matrix(.44828 0 0 1 .276 0)" id="J"><stop stop-color="#21C8F6" offset="0%"/><stop stop-color="#4BDEFF" offset="100%"/></radialGradient><radialGradient cx="42.558%" cy="20.967%" fx="42.558%" fy="20.967%" r="61.194%" gradientTransform="scale(.78313 1) rotate(85.619 .485 .273)" id="Y"><stop stop-color="#5B79A2" offset="0%"/><stop stop-color="#2E4469" offset="100%"/><stop stop-color="#2E4469" offset="100%"/><stop stop-color="#253858" offset="100%"/></radialGradient><radialGradient cx="7.73%" cy="3.866%" fx="7.73%" fy="3.866%" r="110.038%" gradientTransform="matrix(.19972 .96693 -.75723 .25503 .091 -.046)" id="Z"><stop stop-color="#25C2F2" stop-opacity=".626" offset="0%"/><stop stop-color="#293F64" offset="100%"/></radialGradient><radialGradient cx="7.73%" cy="3.866%" fx="7.73%" fy="3.866%" r="132.448%" gradientTransform="scale(.27862 1) rotate(53.449 .177 .237)" id="ab"><stop stop-color="#25C2F2" stop-opacity=".626" offset="0%"/><stop stop-color="#293F64" offset="100%"/></radialGradient><radialGradient cx="52.436%" cy="42.955%" fx="52.436%" fy="42.955%" r="36.733%" gradientTransform="matrix(-.98314 0 0 -.21136 1.04 .52)" id="ac"><stop stop-color="#172743" offset="0%"/><stop stop-opacity="0" offset="100%"/></radialGradient><radialGradient cx="7.73%" cy="3.866%" fx="7.73%" fy="3.866%" r="107.149%" gradientTransform="matrix(.27667 .8972 -.56208 .44163 .078 -.048)" id="ak"><stop stop-color="#22CBFF" stop-opacity=".194" offset="0%"/><stop stop-color="#293F64" stop-opacity=".378" offset="100%"/></radialGradient><radialGradient cx="22.124%" cy="112.647%" fx="22.124%" fy="112.647%" r="117.192%" gradientTransform="matrix(.3058 -.87278 .54679 .48812 -.462 .77)" id="al"><stop stop-color="#25C2F2" stop-opacity=".626" offset="0%"/><stop stop-color="#293F64" offset="100%"/></radialGradient><radialGradient cx="50%" cy="50%" fx="50%" fy="50%" r="68.421%" gradientTransform="scale(.99969 1)" id="aq"><stop stop-color="#21C8F6" offset="0%"/><stop stop-color="#4BDEFF" offset="100%"/></radialGradient><radialGradient cx="50%" cy="50%" fx="50%" fy="50%" r="1321.789%" gradientTransform="matrix(.05175 0 0 1 .474 0)" id="au"><stop stop-color="#21C8F6" offset="0%"/><stop stop-color="#4BDEFF" offset="100%"/></radialGradient><radialGradient cx="50%" cy="50%" fx="50%" fy="50%" r="696.262%" gradientTransform="matrix(.09824 0 0 1 .45 0)" id="ax"><stop stop-color="#21C8F6" offset="0%"/><stop stop-color="#4BDEFF" offset="100%"/></radialGradient><radialGradient cx="50%" cy="50%" fx="50%" fy="50%" r="267.793%" gradientTransform="matrix(.25542 0 0 1 .372 0)" id="aA"><stop stop-color="#21C8F6" offset="0%"/><stop stop-color="#4BDEFF" offset="100%"/></radialGradient><filter x="0%" y="0%" width="100%" height="100%" filterUnits="objectBoundingBox" id="o"><feGaussianBlur in="SourceGraphic"/></filter><filter x="-23.7%" y="-423.2%" width="147.5%" height="1033.6%" filterUnits="objectBoundingBox" id="r"><feOffset dy="5" in="SourceAlpha" result="shadowOffsetOuter1"/><feGaussianBlur stdDeviation="17" in="shadowOffsetOuter1" result="shadowBlurOuter1"/><feColorMatrix values="0 0 0 0 0.0115609217 0 0 0 0 0.467910214 0 0 0 0 1 0 0 0 1 0" in="shadowBlurOuter1"/></filter><filter x="-40%" y="-40%" width="180%" height="180%" filterUnits="objectBoundingBox" id="y"><feGaussianBlur stdDeviation="12.344" in="SourceGraphic"/></filter><filter x="-163.8%" y="-303.8%" width="427.6%" height="830.8%" filterUnits="objectBoundingBox" id="H"><feOffset dy="8" in="SourceAlpha" result="shadowOffsetOuter1"/><feGaussianBlur stdDeviation="14.5" in="shadowOffsetOuter1" result="shadowBlurOuter1"/><feColorMatrix values="0 0 0 0 0.137254902 0 0 0 0 0.788235294 0 0 0 0 0.968627451 0 0 0 1 0" in="shadowBlurOuter1"/></filter><filter x="-28.7%" y="-101.6%" width="157.4%" height="365.7%" filterUnits="objectBoundingBox" id="O"><feOffset dy="12" in="SourceAlpha" result="shadowOffsetOuter1"/><feGaussianBlur stdDeviation="15" in="shadowOffsetOuter1" result="shadowBlurOuter1"/><feColorMatrix values="0 0 0 0 0.137254902 0 0 0 0 0.788235294 0 0 0 0 0.968627451 0 0 0 1 0" in="shadowBlurOuter1"/></filter><filter x="-13.7%" y="-75.7%" width="127.4%" height="251.4%" filterUnits="objectBoundingBox" id="W"><feGaussianBlur stdDeviation="11.612" in="SourceGraphic"/></filter><filter x="-19.2%" y="-149.3%" width="138.5%" height="398.7%" filterUnits="objectBoundingBox" id="X"><feGaussianBlur stdDeviation="11.612" in="SourceGraphic"/></filter><filter x="0%" y="0%" width="100%" height="100%" filterUnits="objectBoundingBox" id="ad"><feGaussianBlur in="SourceGraphic"/></filter><filter x="0%" y="0%" width="100%" height="100%" filterUnits="objectBoundingBox" id="ag"><feGaussianBlur in="SourceGraphic"/></filter><filter x="-222.6%" y="-191.4%" width="545.2%" height="545.3%" filterUnits="objectBoundingBox" id="ao"><feOffset dy="12" in="SourceAlpha" result="shadowOffsetOuter1"/><feGaussianBlur stdDeviation="26.5" in="shadowOffsetOuter1" result="shadowBlurOuter1"/><feColorMatrix values="0 0 0 0 0.137254902 0 0 0 0 0.788235294 0 0 0 0 0.968627451 0 0 0 1 0" in="shadowBlurOuter1"/></filter><filter x="-60%" y="-997.2%" width="220.1%" height="2420.1%" filterUnits="objectBoundingBox" id="as"><feOffset dy="12" in="SourceAlpha" result="shadowOffsetOuter1"/><feGaussianBlur stdDeviation="26.5" in="shadowOffsetOuter1" result="shadowBlurOuter1"/><feColorMatrix values="0 0 0 0 0.137254902 0 0 0 0 0.788235294 0 0 0 0 0.968627451 0 0 0 1 0" in="shadowBlurOuter1"/></filter><filter x="-82%" y="-834.4%" width="263.9%" height="1768.8%" filterUnits="objectBoundingBox" id="av"><feOffset in="SourceAlpha" result="shadowOffsetOuter1"/><feGaussianBlur stdDeviation="20.5" in="shadowOffsetOuter1" result="shadowBlurOuter1"/><feColorMatrix values="0 0 0 0 0.180392157 0 0 0 0 0.811764706 0 0 0 0 0.976470588 0 0 0 1 0" in="shadowBlurOuter1"/></filter><filter x="-213.1%" y="-834.4%" width="526.3%" height="1768.8%" filterUnits="objectBoundingBox" id="ay"><feOffset in="SourceAlpha" result="shadowOffsetOuter1"/><feGaussianBlur stdDeviation="20.5" in="shadowOffsetOuter1" result="shadowBlurOuter1"/><feColorMatrix values="0 0 0 0 0.180392157 0 0 0 0 0.811764706 0 0 0 0 0.976470588 0 0 0 1 0" in="shadowBlurOuter1"/></filter><path d="M175.932 159.493s-4.816-7.324-9.655-9.356c-1.454-.61-2.91-.743-4.238-.057-1.78.922-2.182 3.123-1.89 5.725.654 5.802 4.764 13.594 4.764 13.594a26.875 26.875 0 012.566-2.088c7.358-5.297 17.027-7.13 20.53-7.646.851-.125 1.338-.172 1.338-.172s-.472-1.462-1.498-3.305c-.588-1.058-1.358-2.239-2.326-3.34-1.151-1.313-2.583-2.514-4.32-3.262-.523-.226-.995-.328-1.42-.329-4.247 0-3.85 10.236-3.85 10.236" id="h"/><path d="M248.869 152.808c-1.783.625-3.29 1.724-4.524 2.951a18.844 18.844 0 00-2.157 2.599c-1.402 2.021-2.094 3.764-2.094 3.764s.482.081 1.325.265c3.23.709 11.753 2.943 18.561 7.958a28.631 28.631 0 013.843 3.371s4.883-7.927 5.723-13.726c.283-1.958.106-3.673-.876-4.758-1.776-1.962-4.694-1.145-6.675-.048-4.387 2.43-8.517 7.877-8.517 7.877s1.097-10.487-3.364-10.487a3.78 3.78 0 00-1.245.234" id="j"/><path d="M132.057 229.348H346.07a5.73 5.73 0 010 11.46H132.057a5.73 5.73 0 010-11.46z" id="s"/><path d="M28.307 0h149.849c15.633 0 28.307 12.674 28.307 28.307v120.17a28.307 28.307 0 01-18.027 26.375c-17.851 6.957-45.07 10.436-81.658 10.436-38.793 0-68.342-3.91-88.646-11.732A28.307 28.307 0 010 147.14V28.307C0 12.674 12.674 0 28.307 0z" id="D"/><path d="M28.307 0h149.849c15.633 0 28.307 12.674 28.307 28.307v120.17a28.307 28.307 0 01-18.027 26.375c-17.851 6.957-45.07 10.436-81.658 10.436-38.793 0-68.342-3.91-88.646-11.732A28.307 28.307 0 010 147.14V28.307C0 12.674 12.674 0 28.307 0z" id="E"/><path d="M141.235 166.282c-5.18-.007-10.106-2.287-13.52-6.256-1.46-1.697-1.29-4.27.382-5.746a3.982 3.982 0 015.67.403 9.858 9.858 0 007.457 3.453 9.801 9.801 0 007.448-3.434 3.979 3.979 0 015.668-.388 4.113 4.113 0 01.398 5.747c-3.403 3.96-8.325 6.227-13.503 6.22z" id="I"/><path d="M28.307 0h149.849c15.633 0 28.307 12.674 28.307 28.307v120.17a28.307 28.307 0 01-18.027 26.375c-17.851 6.957-45.07 10.436-81.658 10.436-38.793 0-68.342-3.91-88.646-11.732A28.307 28.307 0 010 147.14V28.307C0 12.674 12.674 0 28.307 0z" id="K"/><path d="M87.574 97.581h139.17c10.6 0 19.194 8.594 19.194 19.195 0 10.6-8.593 19.194-19.194 19.194H87.574c-10.6 0-19.194-8.594-19.194-19.194 0-10.601 8.594-19.195 19.194-19.195z" id="P"/><path d="M106.554 135.304c58.848 0 106.554-1.258 106.554-48.95S165.402 0 106.554 0 0 38.662 0 86.354s47.706 48.95 106.554 48.95z" id="am"/><path d="M3.969 0h135.058a3.685 3.685 0 110 7.37H3.969a3.685 3.685 0 010-7.37z" id="at"/><path d="M3.969 0h67.655a3.685 3.685 0 010 7.37H3.969a3.685 3.685 0 010-7.37z" id="aw"/><path d="M3.685 27.015h21.486a3.685 3.685 0 110 7.37H3.685a3.685 3.685 0 110-7.37z" id="az"/><ellipse id="Q" cx="59.185" cy="58.923" rx="59.185" ry="58.923"/><ellipse id="U" cx="59.185" cy="58.923" rx="59.185" ry="58.923"/><ellipse id="ap" cx="64.715" cy="60.632" rx="19.206" ry="19.2"/></defs><g style="mix-blend-mode:luminosity" fill="none" fill-rule="evenodd" opacity=".1"><g fill-rule="nonzero"><path d="M213 15.109c0-.979-.365-1.845-1.093-2.598l-5.467-5.646c-.728-.752-1.567-1.13-2.514-1.13-.947 0-1.786.378-2.514 1.13l-50.937 52.619c-.73.752-1.093 1.619-1.093 2.597s.364 1.845 1.093 2.597l50.937 52.618c.728.754 1.565 1.129 2.514 1.129.949 0 1.786-.376 2.514-1.129l5.466-5.643c.729-.752 1.094-1.618 1.094-2.598 0-.977-.365-1.844-1.094-2.596l-42.958-44.378 42.959-44.375c.73-.752 1.093-1.619 1.093-2.597z" fill="url(#a)" transform="rotate(174 403.6 99.002)"/><path d="M63.618 15.109c0-.979-.364-1.845-1.093-2.598l-5.466-5.646c-.729-.752-1.567-1.13-2.514-1.13-.948 0-1.786.378-2.515 1.13L1.093 59.484C.363 60.236 0 61.103 0 62.08s.365 1.845 1.093 2.597l50.937 52.618c.728.754 1.566 1.129 2.514 1.129.949 0 1.786-.376 2.515-1.129l5.466-5.643c.728-.752 1.093-1.618 1.093-2.598 0-.977-.365-1.844-1.093-2.596L19.567 62.081l42.958-44.375c.73-.752 1.093-1.619 1.093-2.597z" fill="url(#a)" transform="rotate(-6 885.696 -4181.737)"/><path d="M121.65 5.764l-9-2.508c-.632-.207-1.253-.146-1.857.181a2.465 2.465 0 00-1.219 1.482l-29 98.384c-.207.66-.138 1.285.208 1.871.345.587.86.984 1.548 1.191l8.998 2.509c.633.208 1.253.147 1.858-.181a2.467 2.467 0 001.218-1.481l29-98.385a2.224 2.224 0 00-.207-1.873c-.346-.587-.86-.984-1.548-1.19z" fill="url(#b)" transform="rotate(5 -346.656 5207.435)"/></g><g transform="rotate(-6 1980.253 -3263.29)"><path d="M160.155 29.882c24.876-18.636 76.375-16.8 99.834 0 10.768 7.711 18.64 29.979 18.64 29.979s51.942 10.609 70.147 25.47c0 2.584-16.665 2.921-21.012 2.965.527.387 1.049.773 1.567 1.16 9.464 4.249 42.086 19.284 51.065 28.568 0 2.56-12.794 2.18-16.344 2.025.55.57 1.089 1.137 1.62 1.7 8.846 6.242 38.772 28.43 53.37 52.746l.958.991-23.716-6.78-.025 1.28c2.117 5.786 10.033 27.87 14.159 45.788-1.423 2.942-6.21 1.839-10.682-.026l-.546-.232a61.444 61.444 0 01-5.108-2.526 705.397 705.397 0 01-.714 8.43c3.429 15.316 9.349 45.113 10.024 70.967-2.874 1.982-16.289-14.86-16.289-14.86s.58 8.39 1.101 17.426l.057.988.028.495.056.991c.367 6.61.674 13.189.674 16.755-1.458-.753-6.734-8.855-9.172-12.683-.637 2.257-1.3 4.479-1.989 6.661-.496 63.85-340.906 48.714-340.434-16.33a325.404 325.404 0 01-2.024-8.831 4934.829 4934.829 0 01-10.487 20.286c-7.35-27.355-1.735-67.528 1.281-84.767a787.312 787.312 0 01-.39-4.677c-3.24 5.588-9.596 14.624-12.39 5.235 0-23.777 10.049-56.428 10.049-56.428S7.665 182.42 0 176.476c9.758-20.177 36.238-40.35 49.955-49.853a266.182 266.182 0 014.433-4.815c-5.824.976-15.784 1.847-15.103-3.785 12.942-11.019 39.188-22.664 49.43-26.984.765-.583 1.543-1.165 2.323-1.746H61.324c14.372-16.842 80.192-29.432 80.192-29.432s8.033-22.033 18.64-29.98z" fill="url(#c)"/><path d="M160.26 28.887c24.876-18.636 76.374-16.8 99.833 0 10.769 7.712 18.64 29.98 18.64 29.98v-.001s51.942 10.61 70.148 25.47c0 2.585-16.666 2.922-21.012 2.966.527.387 1.048.773 1.566 1.16 9.465 4.248 42.087 19.284 51.066 28.568 0 2.559-12.795 2.18-16.344 2.025.55.57 1.089 1.136 1.62 1.7 8.846 6.241 38.772 28.43 53.369 52.746l.959.99-23.716-6.78-.026 1.28c2.117 5.787 10.034 27.87 14.16 45.788-1.423 2.942-6.21 1.84-10.683-.025l-.546-.232a61.444 61.444 0 01-5.107-2.527 705.418 705.418 0 01-.715 8.43c3.43 15.316 9.35 45.113 10.025 70.967-2.875 1.982-16.29-14.86-16.29-14.86s.58 8.391 1.102 17.427l.056.987.029.496.055.99c.368 6.61.675 13.189.675 16.756-1.459-.754-6.735-8.856-9.172-12.684-.637 2.257-1.3 4.48-1.99 6.662-.496 63.85-340.906 48.714-340.433-16.33a325.404 325.404 0 01-2.024-8.832 4934.829 4934.829 0 01-10.487 20.286c-7.35-27.355-1.736-67.528 1.28-84.766a787.312 787.312 0 01-.39-4.678c-3.24 5.588-9.595 14.624-12.389 5.235 0-23.777 10.048-56.427 10.048-56.427S7.77 181.424.105 175.48c9.757-20.177 36.238-40.35 49.955-49.853a266.186 266.186 0 014.432-4.815c-5.824.976-15.784 1.848-15.102-3.784 12.942-11.02 39.188-22.664 49.43-26.985.765-.582 1.542-1.164 2.323-1.745H61.428c14.373-16.842 80.193-29.433 80.193-29.433s8.033-22.032 18.639-29.979z" fill="url(#d)"/><path d="M160.155 29.882c24.876-18.636 76.375-16.8 99.834 0 10.768 7.711 18.64 29.979 18.64 29.979s51.942 10.609 70.147 25.47c0 2.584-16.665 2.921-21.012 2.965.527.387 1.049.773 1.567 1.16 9.464 4.249 42.086 19.284 51.065 28.568 0 2.56-12.794 2.18-16.344 2.025.55.57 1.089 1.137 1.62 1.7 8.846 6.242 38.772 28.43 53.37 52.746l.958.991-23.716-6.78-.025 1.28c2.117 5.786 10.033 27.87 14.159 45.788-1.423 2.942-6.21 1.839-10.682-.026l-.546-.232a61.444 61.444 0 01-5.108-2.526 705.397 705.397 0 01-.714 8.43c3.429 15.316 9.349 45.113 10.024 70.967-2.874 1.982-16.289-14.86-16.289-14.86s.58 8.39 1.101 17.426l.057.988.028.495.056.991c.367 6.61.674 13.189.674 16.755-1.458-.753-6.734-8.855-9.172-12.683-.637 2.257-1.3 4.479-1.989 6.661-.496 63.85-340.906 48.714-340.434-16.33a325.404 325.404 0 01-2.024-8.831 4934.829 4934.829 0 01-10.487 20.286c-7.35-27.355-1.735-67.528 1.281-84.767a787.312 787.312 0 01-.39-4.677c-3.24 5.588-9.596 14.624-12.39 5.235 0-23.777 10.049-56.428 10.049-56.428S7.665 182.42 0 176.476c9.758-20.177 36.238-40.35 49.955-49.853a266.182 266.182 0 014.433-4.815c-5.824.976-15.784 1.847-15.103-3.785 12.942-11.019 39.188-22.664 49.43-26.984.765-.583 1.543-1.165 2.323-1.746H61.324c14.372-16.842 80.192-29.432 80.192-29.432s8.033-22.033 18.64-29.98z" fill="url(#e)" opacity=".538"/><path d="M248.75 97.27c0 22.58-17.703 40.885-39.542 40.885-21.839 0-39.542-18.305-39.542-40.884 0-22.58 17.703-40.885 39.542-40.885 21.839 0 39.542 18.305 39.542 40.885" stroke="url(#f)" stroke-width="1.904" fill="#24385A"/><path d="M202.172 77.035s-1.614.186-3.927.915c-5.06 1.592-13.474 5.78-15.694 16.296-.108 1.536-.117 3.101.039 4.634.49 4.86 2.953 9.032 6.536 12.295 4.8 4.368 11.606 7.107 18.377 7.69 10.455.898 20.82-3.351 23.563-14.694.282-1.163.503-2.281.695-3.377.614-6.409-.422-11.533-2.735-15.405a16.954 16.954 0 00-2.549-3.282c-3.89-3.9-9.637-5.82-16.486-5.82-2.475 0-5.091.25-7.819.748" fill="#76E2FF"/><path d="M204.13 88.832s-3.586.412-5.97 3.109c-1.286 1.456-2.224 3.576-2.057 6.658.11 2.08 1.124 3.86 2.632 5.236 1.283 1.166 2.925 2.042 4.68 2.563 3.64 1.08 7.77.634 10.208-1.902.853-.886 1.5-2.03 1.844-3.456.401-1.664.571-3.158.535-4.484-.067-2.483-.852-4.376-2.171-5.7-1.427-1.43-3.476-2.192-5.918-2.307-.217-.01-.439-.015-.662-.015-.987 0-2.032.1-3.12.298" fill="url(#g)"/><path d="M214.638 98.14c0 1.642-1.287 2.972-2.874 2.972-1.589 0-2.875-1.33-2.875-2.972 0-1.641 1.286-2.972 2.875-2.972 1.587 0 2.874 1.33 2.874 2.972" fill="#ECECEC"/><path d="M250.576 218.904c-6.89 2.885-14.702 2.398-21.434-1.338-2.88-1.596-4.072-5.35-2.664-8.381 1.406-3.031 4.88-4.193 7.76-2.596 3.716 2.061 8.027 2.332 11.825.742 3.798-1.59 6.718-4.886 8.008-9.045 1-3.22 4.28-4.886 7.323-3.718 3.045 1.168 4.703 4.726 3.703 7.947-2.338 7.531-7.63 13.505-14.521 16.39z" fill="#1C2737" fill-rule="nonzero"/><mask id="i" fill="#fff"><use xlink:href="#h"/></mask><path d="M175.932 159.493s-4.816-7.324-9.655-9.356c-1.454-.61-2.91-.743-4.238-.057-1.78.922-2.182 3.123-1.89 5.725.654 5.802 4.764 13.594 4.764 13.594a26.875 26.875 0 012.566-2.088c7.358-5.297 17.027-7.13 20.53-7.646.851-.125 1.338-.172 1.338-.172s-.472-1.462-1.498-3.305c-.588-1.058-1.358-2.239-2.326-3.34-1.151-1.313-2.583-2.514-4.32-3.262-.523-.226-.995-.328-1.42-.329-4.247 0-3.85 10.236-3.85 10.236" mask="url(#i)"/><mask id="k" fill="#fff"><use xlink:href="#j"/></mask><path d="M248.869 152.808c-1.783.625-3.29 1.724-4.524 2.951a18.844 18.844 0 00-2.157 2.599c-1.402 2.021-2.094 3.764-2.094 3.764s.482.081 1.325.265c3.23.709 11.753 2.943 18.561 7.958a28.631 28.631 0 013.843 3.371s4.883-7.927 5.723-13.726c.283-1.958.106-3.673-.876-4.758-1.776-1.962-4.694-1.145-6.675-.048-4.387 2.43-8.517 7.877-8.517 7.877s1.097-10.487-3.364-10.487a3.78 3.78 0 00-1.245.234" mask="url(#k)"/></g><path d="M191.817 579.876l325.302-112.01c19.695-6.782 41.158 3.687 47.94 23.382a37.716 37.716 0 011.488 5.767l29.9 170.565c6.4 36.519-14.686 72.275-49.742 84.346l-203.317 70.008c-35.056 12.07-73.687-3.124-91.125-35.842l-81.45-152.815c-9.798-18.382-2.839-41.226 15.543-51.023a37.716 37.716 0 015.46-2.378z" fill="#1B283E"/><path d="M56.616 73.467H424.19c20.83 0 37.715 16.886 37.715 37.716 0 2.194-.191 4.385-.572 6.546l-28.13 159.626c-6.353 36.054-37.677 62.34-74.287 62.34H121.891c-36.61 0-67.933-26.286-74.287-62.34L19.472 117.73C15.857 97.215 29.556 77.655 50.07 74.04a37.716 37.716 0 016.546-.572z" fill="url(#l)" transform="rotate(-19 1589.457 -33.15)"/><path d="M56.616 73.467H424.19c20.83 0 37.715 16.886 37.715 37.716 0 2.194-.191 4.385-.572 6.546l-28.13 159.626c-6.353 36.054-37.677 62.34-74.287 62.34H121.891c-36.61 0-67.933-26.286-74.287-62.34L19.472 117.73C15.857 97.215 29.556 77.655 50.07 74.04a37.716 37.716 0 016.546-.572z" fill="url(#l)" transform="rotate(-19 1589.457 -33.15)"/><path d="M56.616 73.467H424.19c20.83 0 37.715 16.886 37.715 37.716 0 2.194-.191 4.385-.572 6.546l-28.13 159.626c-6.353 36.054-37.677 62.34-74.287 62.34H121.891c-36.61 0-67.933-26.286-74.287-62.34L19.472 117.73C15.857 97.215 29.556 77.655 50.07 74.04a37.716 37.716 0 016.546-.572z" fill="url(#m)" opacity=".705" transform="rotate(-19 1589.457 -33.15)"/><g transform="rotate(-18 1869.722 -1459.832)"><ellipse fill="url(#n)" opacity=".899" filter="url(#o)" transform="rotate(-81 28.24 28.236)" cx="28.24" cy="28.236" rx="24.68" ry="24.682"/><path d="M21.793 14.332C-15.45 16.73 7.337 51.571 2.873 83.335c-3.957 28.149 14.7 45.674 37.157 45.421" stroke="url(#p)" stroke-width="11.11" transform="scale(-1 1) rotate(-8 87.868 504.297)"/><g transform="scale(-1 1) rotate(82 -20.178 -10.151)"><rect fill="#1B283E" x="6.611" y="6.17" width="17.63" height="18.51" rx="8.815"/><rect fill="url(#q)" width="30.853" height="12.34" rx="6.17"/></g></g><path d="M289.61 669.828l202.353-69.676a5.73 5.73 0 013.731 10.836l-102.787 35.393-99.566 34.283a5.73 5.73 0 01-3.731-10.836z" fill="#1B283E"/><g transform="rotate(-19 1589.623 -31.651)"><use fill="#000" filter="url(#r)" xlink:href="#s"/><use fill="url(#t)" xlink:href="#s"/></g><path d="M306.108 708.525L508.46 638.85a5.73 5.73 0 013.731 10.836l-102.787 35.392-99.566 34.283a5.73 5.73 0 01-3.731-10.836zm6.83 19.837l202.354-69.675a5.73 5.73 0 013.73 10.836l-102.786 35.392-99.567 34.283a5.73 5.73 0 01-3.73-10.836z" fill="#1B283E"/><path d="M118.053 76.435h246.794c20.83 0 37.716 16.886 37.716 37.716 0 3.862-.593 7.701-1.759 11.383l-3.658 11.555c-9.926 31.356-39.024 52.666-71.914 52.666H157.668c-32.89 0-61.988-21.31-71.914-52.666l-3.658-11.555c-6.287-19.858 4.715-41.053 24.574-47.34a37.716 37.716 0 0111.383-1.759z" fill="url(#u)" transform="rotate(-19 1588.904 -36.997)"/><path d="M58.428 76.449h364.417c20.83 0 37.716 16.886 37.716 37.716a37.7 37.7 0 01-3.116 15.01l-6.587 15.184c-11.96 27.57-39.147 45.41-69.2 45.41H99.615c-30.053 0-57.24-17.84-69.2-45.41l-6.587-15.183c-8.29-19.11.48-41.32 19.589-49.611a37.716 37.716 0 0115.01-3.116z" fill="url(#v)" transform="rotate(-19 1588.861 -36.99)"/><path d="M58.428 76.449h364.417c20.83 0 37.716 16.886 37.716 37.716a37.7 37.7 0 01-3.116 15.01l-6.587 15.184c-11.96 27.57-39.147 45.41-69.2 45.41H99.615c-30.053 0-57.24-17.84-69.2-45.41l-6.587-15.183c-8.29-19.11.48-41.32 19.589-49.611a37.716 37.716 0 0115.01-3.116z" fill="url(#w)" transform="rotate(-19 1588.861 -36.99)"/><path d="M570.115 473.658a37.716 37.716 0 011.941 15.207l-1.285 16.5c-2.334 29.962-22.23 55.68-50.646 65.465l-266.678 91.825c-28.415 9.784-59.928 1.767-80.214-20.407l-11.17-12.21a37.575 37.575 0 01-9.886-24.973 32.547 32.547 0 009.852 19.634l5.536 5.294a75.432 75.432 0 0076.693 16.807l273.347-94.121a75.432 75.432 0 0050.088-60.46l1.103-7.581c.75-5.158.257-10.42-1.44-15.349a32.82 32.82 0 00-2.898-6.223 37.696 37.696 0 015.657 10.592z" fill="#1B283E" opacity=".504"/><path d="M309.545 539.34l96.882-33.36a37.716 37.716 0 0126.488.725l20.613 8.384c6.988 2.842 10.349 10.81 7.507 17.798a13.659 13.659 0 01-8.206 7.769l-158.502 54.576c-7.132 2.456-14.905-1.335-17.361-8.468a13.659 13.659 0 011.07-11.248l11.081-19.297a37.716 37.716 0 0120.428-16.88z" fill="#1B283E"/><g transform="rotate(-19 1500.428 -585.979)"><path d="M29.335 0h63.66c16.202 0 29.335 13.134 29.335 29.335v71.553c0 9.258-7.505 16.763-16.762 16.763H16.763C7.505 117.65 0 110.146 0 100.888V29.335C0 13.134 13.134 0 29.335 0z" fill="url(#x)"/><ellipse fill="#1B283E" cx="58.887" cy="61.343" rx="43.194" ry="43.191"/></g><g transform="rotate(-18 1615.041 -682.201)"><ellipse fill="#328AF1" opacity=".842" filter="url(#y)" cx="46.279" cy="46.276" rx="46.279" ry="46.276"/><ellipse fill="url(#z)" transform="scale(1 -1) rotate(4 1426.97 0)" cx="47.266" cy="48.18" rx="24.682" ry="24.681"/><g style="mix-blend-mode:soft-light" fill="#FFF"><path d="M38.631 42.621l3.921 3.921a2.243 2.243 0 01-3.173 3.173l-3.92-3.92a2.243 2.243 0 013.172-3.174zm8.686 8.685l8.56 8.561a2.243 2.243 0 01-3.172 3.173l-8.561-8.56a2.243 2.243 0 013.173-3.174z"/><path d="M36.417 42.05l24.171-6.794a2.143 2.143 0 012.657 1.534 2.251 2.251 0 01-1.572 2.723L37.5 46.307a2.143 2.143 0 01-2.657-1.535 2.251 2.251 0 011.573-2.723z"/><path d="M52.204 61.01l6.794-24.172a2.251 2.251 0 012.723-1.572 2.143 2.143 0 011.534 2.657l-6.793 24.171a2.251 2.251 0 01-2.723 1.573 2.143 2.143 0 01-1.535-2.657zm-.483-11.113l-8.987 8.987A2.18 2.18 0 1139.65 55.8l8.987-8.987a2.18 2.18 0 113.084 3.084zM38.556 63.062l-1.474 1.475a2.18 2.18 0 11-3.084-3.084l1.474-1.475a2.18 2.18 0 113.084 3.084z"/></g><path d="M28.084 50.256c.703 6.692 4.541 12.296 9.901 15.505a20.478 20.478 0 01-5.38-11.844C31.419 42.62 39.614 32.5 50.91 31.312a20.473 20.473 0 0112.703 2.8c-4.253-4.576-10.532-7.165-17.224-6.461-11.296 1.187-19.491 11.308-18.304 22.605z" fill-opacity=".547" fill="#FFF" style="mix-blend-mode:lighten" opacity=".58"/></g><g transform="rotate(-27 720.306 -28.896)"><path d="M90.582 0H223.83c33.5 0 60.658 27.158 60.658 60.658v140.249c0 40.2-32.59 72.79-72.79 72.79H102.713c-40.2 0-72.79-32.59-72.79-72.79V60.658C29.924 27.158 57.082 0 90.583 0z" fill="url(#A)"/><ellipse fill="url(#B)" cx="82.913" cy="23.415" rx="8.017" ry="8.145"/><path d="M34.92 170.153c0 40.2 32.59 72.79 72.79 72.79h99.27c40.2 0 72.789-32.59 72.789-72.79v32.891c0 40.2-32.589 72.79-72.79 72.79H107.71c-40.2 0-72.79-32.59-72.79-72.79z" fill="url(#C)" opacity=".405"/><g transform="translate(54.908 40.723)"><use fill="#1B283E" xlink:href="#D"/><mask id="G" fill="#fff"><use xlink:href="#E"/></mask><use fill="url(#F)" opacity=".705" xlink:href="#E"/><g fill-rule="nonzero" mask="url(#G)" transform="rotate(-16 141.223 159.782)"><use fill="#000" filter="url(#H)" xlink:href="#I"/><use fill="url(#J)" xlink:href="#I"/></g><mask id="N" fill="#fff"><use xlink:href="#K"/></mask><path stroke="url(#L)" stroke-width="4.32" d="M178.156 2.16c7.22 0 13.757 2.927 18.488 7.658a26.065 26.065 0 017.659 18.49v120.169c0 5.388-1.653 10.5-4.56 14.754a26.118 26.118 0 01-12.092 9.608c-17.679 6.89-44.645 10.289-80.873 10.289-38.446 0-67.743-3.835-87.87-11.588a26.118 26.118 0 01-12.158-9.602 26.118 26.118 0 01-4.59-14.797V28.307A26.07 26.07 0 019.818 9.818a26.065 26.065 0 0118.49-7.658z"/><ellipse fill="url(#M)" mask="url(#N)" cx="58.123" cy="34.614" rx="114.242" ry="116.059"/></g><g fill-rule="nonzero"><use fill="#000" filter="url(#O)" xlink:href="#P"/><use fill="#FFF" xlink:href="#P"/></g><path d="M184.468 28.913h-6.44c-1.764 0-3.194-1.459-3.194-3.258s1.43-3.258 3.193-3.258h6.441c1.764 0 3.193 1.459 3.193 3.258 0 1.8-1.43 3.258-3.193 3.258zm12.026-8.959h-6.441c-1.764 0-3.193-1.458-3.193-3.258 0-1.799 1.43-3.258 3.193-3.258h6.44c1.764 0 3.194 1.459 3.194 3.258 0 1.8-1.43 3.258-3.193 3.258zm32.864 8.959h-35.275c-1.776 0-3.215-1.459-3.215-3.258s1.44-3.258 3.215-3.258h35.259c1.775 0 3.214 1.459 3.214 3.258 0 1.8-1.439 3.258-3.214 3.258h.016zm11.883-8.959h-35.006c-1.846 0-3.341-1.458-3.341-3.258 0-1.799 1.495-3.258 3.34-3.258h35.007c1.845 0 3.341 1.459 3.341 3.258 0 1.8-1.496 3.258-3.341 3.258z" fill="#243552"/><g transform="rotate(-1 3657.304 -1203.737)"><mask id="T" fill="#fff"><use xlink:href="#Q"/></mask><use fill="url(#R)" opacity=".398" xlink:href="#Q"/><path fill="url(#S)" opacity=".309" mask="url(#T)" d="M56.318 6.313l-44.833 85.42 35.553 22.478L92.352 18.3z"/></g><g transform="rotate(-1 3580.633 -9989.357)"><mask id="V" fill="#fff"><use xlink:href="#U"/></mask><use fill="url(#R)" opacity=".398" xlink:href="#U"/><path fill="url(#S)" opacity=".309" mask="url(#V)" d="M56.008 6.313l-44.833 85.42 35.553 22.478L92.04 18.3z"/></g><path d="M234.788 174.58c-30.24.527-55.179-23.386-55.703-53.413-.524-30.026 23.564-54.795 53.805-55.323 30.239-.527 55.178 23.386 55.702 53.412.524 30.026-23.565 54.796-53.804 55.323zm-152.893 2.668c-30.239.528-55.177-23.385-55.701-53.412C25.67 93.81 49.758 69.04 79.997 68.513c30.242-.528 55.179 23.386 55.703 53.411.524 30.027-23.563 54.796-53.805 55.324zm209.23-91.393c-4.665-5.16-13.468-11.797-18.736-15.588a63.241 63.241 0 00-4.185-2.951l-.092-.065.002.008c-10.184-6.512-22.352-10.206-35.374-9.978-17.541.306-33.293 7.66-44.57 19.295-5.465 5.251-10.156 10.979-15.011 16.595-6.15 7.116-9.922 3.743-16.195 3.852-6.272.11-9.924 3.613-16.318-3.285-5.048-5.443-9.937-11.003-15.583-16.06-11.675-11.234-27.866-18.031-45.408-17.725-13.022.227-25.827 4.357-35.197 11.21v-.008l.1.064c-1.409.976-2.67 2.012-3.989 3.095-5.133 3.972-13.924 10.916-18.406 16.235C15.503 98.453.66 99.231.66 99.231l.281 16.09s8.88-.675 11.813 2.65c1.733 1.96 3.732 11.514 6.897 21.492.974 3.559 2.332 6.98 3.887 10.255 1.457 3.255 3.147 6.266 5.06 8.728l.018-.017c11.637 16.852 31.303 27.768 53.42 27.382a63.416 63.416 0 0057.094-37.987l.048-.062.144-.246c4.415-7.746 8.63-28.825 10.64-32.2 2.032-3.41 7.255-3.762 7.255-3.762s5.232.169 7.381 3.507c2.128 3.302 7.074 24.222 11.758 31.809l.151.24.048.061a63.41 63.41 0 0058.381 35.971c22.117-.386 41.38-11.981 52.421-29.23l.005.017c1.826-2.527 3.375-5.593 4.717-8.898a62.134 62.134 0 003.464-10.384c2.812-10.082 4.325-19.698 5.986-21.717 2.817-3.425 11.429-3.055 11.429-3.055l-.281-16.09s-14.622-.264-21.554-7.93z" stroke="#1B283E" stroke-width="4.191" fill="#1B283E"/></g><g transform="rotate(8 -2363.007 3919.289)"><ellipse fill="#000" opacity=".457" filter="url(#W)" cx="134.544" cy="309.945" rx="126.965" ry="23.007"/><ellipse fill="#000" opacity=".759" filter="url(#X)" cx="137.981" cy="321.931" rx="90.514" ry="11.664"/><path d="M57.515 160.782H218.73c15.562 0 28.177 12.615 28.177 28.177v72.63c0 38.48-31.193 69.673-69.673 69.673H98.888c-38.48 0-69.673-31.194-69.673-69.673v-72.507c0-15.63 12.67-28.3 28.3-28.3z" fill="url(#Y)" fill-rule="nonzero"/><path d="M57.515 160.782H218.73c15.562 0 28.177 12.615 28.177 28.177v72.63c0 38.48-31.193 69.673-69.673 69.673H98.888c-38.48 0-69.673-31.194-69.673-69.673v-72.507c0-15.63 12.67-28.3 28.3-28.3z" fill="url(#Z)" opacity=".705"/><path d="M138.06 214.62c60.114 0 108.846-.564 108.846-21.943s-48.732-38.71-108.845-38.71c-60.114 0-108.846 17.331-108.846 38.71 0 21.38 48.732 21.943 108.846 21.943z" fill="url(#aa)" fill-rule="nonzero"/><path d="M138.06 214.62c60.114 0 108.846-.564 108.846-21.943s-48.732-38.71-108.845-38.71c-60.114 0-108.846 17.331-108.846 38.71 0 21.38 48.732 21.943 108.846 21.943z" fill="url(#ab)" opacity=".705"/><path d="M138.06 200.623c31.007 0 56.142-.433 56.142-16.879 0-16.445-25.135-29.777-56.141-29.777-31.006 0-56.142 13.332-56.142 29.777 0 16.446 25.136 16.88 56.142 16.88z" fill="#16243A" fill-rule="nonzero"/><g transform="scale(-1 1) rotate(-4 2911.673 825.814)"><ellipse fill="url(#ac)" opacity=".899" filter="url(#ad)" transform="rotate(-81 17.89 18.11)" cx="17.889" cy="18.11" rx="15.866" ry="15.598"/><path d="M13.766 9.041c-23.525 1.541-9.131 23.95-11.952 44.377-2.499 18.104 10.843 37.032 24.742 31.13" stroke="url(#ae)" stroke-width="7.111" transform="scale(-1 1) rotate(-8 57.493 319.643)"/><g transform="scale(-1 1) rotate(82 -12.896 -6.274)"><rect fill="#1B283E" x="4.176" y="3.968" width="11.137" height="11.904" rx="5.568"/><rect fill="url(#af)" width="19.489" height="7.936" rx="3.968"/></g></g><g transform="rotate(-4 3049.693 -3126.582)"><ellipse fill="url(#ac)" opacity=".899" filter="url(#ag)" transform="rotate(-81 17.89 18.11)" cx="17.889" cy="18.11" rx="15.866" ry="15.598"/><path d="M13.766 9.041c-23.525 1.541-9.131 23.95-11.952 44.377-2.499 18.104 10.843 37.032 24.742 31.13" stroke="url(#ae)" stroke-width="7.111" transform="scale(-1 1) rotate(-8 57.493 319.643)"/><g transform="scale(-1 1) rotate(82 -12.896 -6.274)"><rect fill="#1B283E" x="4.176" y="3.968" width="11.137" height="11.904" rx="5.568"/><rect fill="url(#af)" width="19.489" height="7.936" rx="3.968"/></g></g><path d="M119.027 116.642h39.722c10.37 0 18.776 8.406 18.776 18.776v46.159c0 5.925-4.803 10.729-10.729 10.729H110.98c-5.925 0-10.729-4.804-10.729-10.73v-46.158c0-10.37 8.406-18.776 18.776-18.776z" fill="url(#ah)"/><path d="M119.027 116.642h39.722c10.37 0 18.776 8.406 18.776 18.776v46.159c0 5.925-4.803 10.729-10.729 10.729H110.98c-5.925 0-10.729-4.804-10.729-10.73v-46.158c0-10.37 8.406-18.776 18.776-18.776z" fill="url(#ai)" opacity=".447"/><path d="M134.052 167.964c74.035 0 134.052-1.562 134.052-60.766S208.087 0 134.052 0 0 47.994 0 107.198c0 59.204 60.017 60.766 134.052 60.766z" fill="url(#aj)" fill-rule="nonzero" transform="translate(4.009)"/><path d="M134.052 167.964c74.035 0 134.052-1.562 134.052-60.766S208.087 0 134.052 0 0 47.994 0 107.198c0 59.204 60.017 60.766 134.052 60.766z" fill="url(#ak)" opacity=".705" transform="translate(4.009)"/><path d="M134.052 167.964c74.035 0 134.052-1.562 134.052-60.766S208.087 0 134.052 0 0 47.994 0 107.198c0 59.204 60.017 60.766 134.052 60.766z" fill="url(#al)" opacity=".705" transform="translate(4.009)"/><g transform="translate(31.507 16.33)"><mask id="an" fill="#fff"><use xlink:href="#am"/></mask><use fill="#192841" fill-rule="nonzero" opacity=".736" xlink:href="#am"/><g fill-rule="nonzero" mask="url(#an)"><use fill="#000" filter="url(#ao)" xlink:href="#ap"/><use fill="url(#aq)" xlink:href="#ap"/></g><path d="M106.554 0c41.095 0 76.756 18.853 94.533 46.47-15.865-7.6-34.372-11.96-54.135-11.96-58.848 0-106.554 38.662-106.554 86.354 0 3.778.3 7.265.88 10.483C16.163 126.142 0 114.114 0 86.354 0 38.662 47.706 0 106.554 0z" fill="url(#ar)" fill-rule="nonzero" opacity=".195" mask="url(#an)"/></g><g fill-rule="nonzero"><g transform="translate(65.879 249.613)"><use fill="#000" filter="url(#as)" xlink:href="#at"/><use fill="url(#au)" xlink:href="#at"/></g><g transform="translate(65.879 249.613)"><use fill="#000" filter="url(#av)" xlink:href="#aw"/><use fill="url(#ax)" xlink:href="#aw"/></g><path d="M69.616 263.104h135.058a3.685 3.685 0 110 7.37H69.616a3.685 3.685 0 110-7.37zm-.052 13.524h135.058a3.685 3.685 0 110 7.37H69.564a3.685 3.685 0 110-7.37z" fill="#16243A"/><g transform="translate(65.879 249.613)"><use fill="#000" filter="url(#ay)" xlink:href="#az"/><use fill="url(#aA)" xlink:href="#az"/></g><path d="M69.564 290.354h135.058a3.685 3.685 0 110 7.37H69.564a3.685 3.685 0 010-7.37z" fill="#16243A"/></g></g></g></svg>