<?xml version="1.0" encoding="UTF-8" standalone="no"?>
<!-- Created with Inkscape (http://www.inkscape.org/) -->

<svg
   width="482.33115mm"
   height="328.2254mm"
   viewBox="0 0 482.33115 328.2254"
   version="1.1"
   id="svg5"
   xml:space="preserve"
   inkscape:export-filename="ill.svg"
   inkscape:export-xdpi="96"
   inkscape:export-ydpi="96"
   inkscape:version="1.2 (dc2aedaf03, 2022-05-15)"
   sodipodi:docname="drawing-2.svg"
   xmlns:inkscape="http://www.inkscape.org/namespaces/inkscape"
   xmlns:sodipodi="http://sodipodi.sourceforge.net/DTD/sodipodi-0.dtd"
   xmlns:xlink="http://www.w3.org/1999/xlink"
   xmlns="http://www.w3.org/2000/svg"
   xmlns:svg="http://www.w3.org/2000/svg"><sodipodi:namedview
     id="namedview7"
     pagecolor="#505050"
     bordercolor="#eeeeee"
     borderopacity="1"
     inkscape:showpageshadow="0"
     inkscape:pageopacity="0"
     inkscape:pagecheckerboard="0"
     inkscape:deskcolor="#505050"
     inkscape:document-units="mm"
     showgrid="false"
     showguides="true"
     inkscape:lockguides="false"
     inkscape:zoom="0.25172589"
     inkscape:cx="85.410364"
     inkscape:cy="873.96652"
     inkscape:window-width="1366"
     inkscape:window-height="715"
     inkscape:window-x="-8"
     inkscape:window-y="-8"
     inkscape:window-maximized="1"
     inkscape:current-layer="text6247"><inkscape:grid
       type="xygrid"
       id="grid1719" /></sodipodi:namedview><defs
     id="defs2"><linearGradient
       inkscape:collect="always"
       id="linearGradient9668"><stop
         style="stop-color:#24f4fa;stop-opacity:0.66161615;"
         offset="0"
         id="stop9664" /><stop
         style="stop-color:#0088de;stop-opacity:0.76767677;"
         offset="1"
         id="stop9666" /></linearGradient><linearGradient
       inkscape:collect="always"
       id="linearGradient7050"><stop
         style="stop-color:#ffffff;stop-opacity:0;"
         offset="0.00857144"
         id="stop7046" /><stop
         style="stop-color:#ffffff;stop-opacity:1;"
         offset="0.45999998"
         id="stop7048" /></linearGradient><linearGradient
       inkscape:collect="always"
       id="linearGradient4044"><stop
         style="stop-color:#4e88fc;stop-opacity:1;"
         offset="0"
         id="stop4040" /><stop
         style="stop-color:#48f7ae;stop-opacity:0.81944442;"
         offset="1"
         id="stop4042" /></linearGradient><linearGradient
       id="linearGradient3462"
       inkscape:swatch="solid"><stop
         style="stop-color:#e6e6e6;stop-opacity:1;"
         offset="0"
         id="stop3460" /></linearGradient><linearGradient
       x1="0.42041999"
       y1="0.91269994"
       x2="0.65412003"
       y2="0.5"
       id="a"><stop
         stop-color="#1390B3"
         offset="0%"
         id="stop583" /><stop
         stop-color="#4BDEFF"
         offset="100%"
         id="stop585" /></linearGradient><linearGradient
       x1="0.5"
       y1="0"
       x2="0.5"
       y2="1"
       id="b"><stop
         stop-color="#F44881"
         offset="0%"
         id="stop588" /><stop
         stop-color="#EC454F"
         offset="100%"
         id="stop590" /></linearGradient><linearGradient
       x1="171.86977"
       y1="467.30493"
       x2="171.86977"
       y2="370.69843"
       id="c"
       gradientTransform="scale(1.0000362,0.99996377)"
       gradientUnits="userSpaceOnUse"><stop
         stop-color="#8B60ED"
         offset="0%"
         id="stop593" /><stop
         stop-color="#B372BD"
         offset="100%"
         id="stop595" /></linearGradient><linearGradient
       x1="295.4353"
       y1="381.66327"
       x2="295.4353"
       y2="478.26978"
       id="d"
       gradientTransform="scale(1.0000362,0.99996377)"
       gradientUnits="userSpaceOnUse"><stop
         stop-color="#6EDCC4"
         offset="0%"
         id="stop598" /><stop
         stop-color="#1AAB8B"
         offset="100%"
         id="stop600" /></linearGradient><linearGradient
       x1="48.303249"
       y1="343.73846"
       x2="48.303249"
       y2="248.54916"
       id="e"
       gradientTransform="scale(1.0000362,0.99996377)"
       gradientUnits="userSpaceOnUse"><stop
         stop-color="#F19A1A"
         offset="0%"
         id="stop603" /><stop
         stop-color="#FFC73C"
         offset="100%"
         id="stop605" /></linearGradient><linearGradient
       x1="261.51761"
       y1="242.23219"
       x2="271.31677"
       y2="397.69382"
       id="i"
       gradientTransform="scale(1.1139967,0.89766874)"
       gradientUnits="userSpaceOnUse"><stop
         stop-color="#00D0FF"
         offset="0%"
         id="stop613" /><stop
         stop-color="#637BFF"
         stop-opacity="0"
         offset="100%"
         id="stop615" /></linearGradient><linearGradient
       x1="292.61957"
       y1="386.26489"
       x2="244.93169"
       y2="196.16042"
       id="k"
       gradientTransform="scale(0.97583394,1.0247645)"
       gradientUnits="userSpaceOnUse"><stop
         stop-color="#C4D6EB"
         stop-opacity=".676"
         offset="0%"
         id="stop618" /><stop
         stop-color="#91ACD2"
         stop-opacity=".3"
         offset="100%"
         id="stop620" /></linearGradient><linearGradient
       x1="285.59589"
       y1="285.01913"
       x2="262.11819"
       y2="196.70682"
       id="l"
       gradientTransform="scale(0.97583394,1.0247645)"
       gradientUnits="userSpaceOnUse"><stop
         stop-color="#76E1FF"
         offset="0%"
         id="stop623" /><stop
         stop-color="#637BFF"
         stop-opacity="0"
         offset="100%"
         id="stop625" /></linearGradient><linearGradient
       x1="267.35889"
       y1="257.05807"
       x2="294.1958"
       y2="257.05807"
       id="p"
       gradientTransform="scale(1.0311654,0.96977655)"
       gradientUnits="userSpaceOnUse"><stop
         stop-color="#5B79A2"
         offset="0%"
         id="stop628" /><stop
         stop-color="#2E4469"
         offset="100%"
         id="stop630" /></linearGradient><linearGradient
       x1="0"
       y1="115.44397"
       x2="230.88794"
       y2="115.44397"
       id="A"
       gradientTransform="scale(1.0275158,0.97322106)"
       gradientUnits="userSpaceOnUse"><stop
         stop-color="#05A"
         offset="0%"
         id="stop633" /><stop
         stop-color="#1378E2"
         offset="100%"
         id="stop635" /></linearGradient><linearGradient
       x1="76.08329"
       y1="108.0316"
       x2="184.09573"
       y2="108.0316"
       id="B"
       gradientTransform="scale(0.94933864,1.0533649)"
       gradientUnits="userSpaceOnUse"><stop
         stop-color="#F19A1A"
         offset="0%"
         id="stop638" /><stop
         stop-color="#FFC73C"
         offset="100%"
         id="stop640" /></linearGradient><linearGradient
       x1="0.012589999"
       y1="0.48741001"
       x2="0.98740995"
       y2="0.48741001"
       id="D"><stop
         stop-color="#21C8F6"
         offset="0%"
         id="stop643" /><stop
         stop-color="#637BFF"
         offset="100%"
         id="stop645" /></linearGradient><linearGradient
       x1="19.111286"
       y1="64.052925"
       x2="-0.10839681"
       y2="64.056053"
       id="E"
       gradientTransform="scale(6.1555341,0.16245544)"
       gradientUnits="userSpaceOnUse"><stop
         stop-color="#21C8F6"
         offset="0%"
         id="stop648" /><stop
         stop-color="#637BFF"
         offset="100%"
         id="stop650" /></linearGradient><linearGradient
       x1="410.03091"
       y1="558.49719"
       x2="248.59491"
       y2="681.80707"
       id="H"
       gradientTransform="scale(1.3147671,0.76059099)"
       gradientUnits="userSpaceOnUse"><stop
         stop-color="#4784E6"
         offset="0%"
         id="stop658" /><stop
         stop-color="#0F49A7"
         offset="100%"
         id="stop660" /></linearGradient><linearGradient
       x1="0.5"
       y1="1.4948399"
       x2="0.5"
       y2="0"
       id="K"><stop
         stop-color="#2C63C0"
         offset="0%"
         id="stop663" /><stop
         stop-color="#1952AF"
         offset="100%"
         id="stop665" /></linearGradient><linearGradient
       x1="101.53337"
       y1="2229.3611"
       x2="44.416512"
       y2="2229.3611"
       id="M"
       gradientTransform="scale(4.4404865,0.22520055)"
       gradientUnits="userSpaceOnUse"><stop
         stop-color="#69A1FF"
         offset="0%"
         id="stop668" /><stop
         stop-color="#5089E8"
         offset="100%"
         id="stop670" /></linearGradient><linearGradient
       x1="76.126884"
       y1="837.62756"
       x2="215.62262"
       y2="827.41595"
       id="N"
       gradientTransform="scale(2.224156,0.44960876)"
       gradientUnits="userSpaceOnUse"><stop
         stop-color="#225BBA"
         offset="0%"
         id="stop673" /><stop
         stop-color="#356DC9"
         offset="100%"
         id="stop675" /></linearGradient><linearGradient
       x1="120.12636"
       y1="837.5957"
       x2="215.62262"
       y2="827.41595"
       id="O"
       gradientTransform="scale(2.224156,0.44960876)"
       gradientUnits="userSpaceOnUse"><stop
         stop-color="#1A53B1"
         offset="0%"
         id="stop678" /><stop
         stop-color="#356DC9"
         offset="100%"
         id="stop680" /></linearGradient><linearGradient
       x1="276.51401"
       y1="307.6413"
       x2="383.7702"
       y2="370.95172"
       id="P"
       gradientTransform="scale(1.0221507,0.97832934)"
       gradientUnits="userSpaceOnUse"><stop
         stop-color="#3B74D2"
         offset="0%"
         id="stop683" /><stop
         stop-color="#2059B7"
         offset="100%"
         id="stop685" /></linearGradient><linearGradient
       x1="283.58246"
       y1="0"
       x2="66.859215"
       y2="445.52908"
       id="X"
       gradientTransform="scale(0.96674142,1.0344028)"
       gradientUnits="userSpaceOnUse"><stop
         stop-color="#5C95F3"
         offset="0%"
         id="stop688" /><stop
         stop-color="#144DAB"
         offset="100%"
         id="stop690" /></linearGradient><linearGradient
       x1="114.93792"
       y1="152.74014"
       x2="201.80557"
       y2="93.053345"
       id="aa"
       gradientTransform="scale(0.94343713,1.059954)"
       gradientUnits="userSpaceOnUse"><stop
         stop-color="#1390B3"
         offset="0%"
         id="stop693" /><stop
         stop-color="#4BDEFF"
         offset="100%"
         id="stop695" /></linearGradient><linearGradient
       x1="349.06754"
       y1="309.47189"
       x2="54.937828"
       y2="32.747963"
       id="ag"
       gradientTransform="scale(1.0581412,0.94505343)"
       gradientUnits="userSpaceOnUse"><stop
         stop-color="#76E1FF"
         offset="0%"
         id="stop698" /><stop
         stop-color="#637BFF"
         stop-opacity="0"
         offset="100%"
         id="stop700" /></linearGradient><linearGradient
       x1="16.001286"
       y1="0.72588497"
       x2="125.16567"
       y2="116.40201"
       id="ah"
       gradientTransform="scale(0.94151768,1.0621149)"
       gradientUnits="userSpaceOnUse"><stop
         stop-color="#587CB9"
         offset="0%"
         id="stop703" /><stop
         stop-color="#2E4469"
         stop-opacity="0"
         offset="100%"
         id="stop705" /></linearGradient><radialGradient
       cx="124.70954"
       cy="1399.1462"
       fx="124.70954"
       fy="1399.1462"
       r="482.67648"
       gradientTransform="scale(2.2668052,0.44114951)"
       id="h"
       gradientUnits="userSpaceOnUse"><stop
         offset="0%"
         id="stop713" /><stop
         stop-opacity=".002"
         offset="100%"
         id="stop715" /></radialGradient><radialGradient
       cx="195.9958"
       cy="553.93268"
       fx="195.9958"
       fy="553.93268"
       r="355.89716"
       gradientTransform="scale(1.1142328,0.89747855)"
       id="j"
       gradientUnits="userSpaceOnUse"><stop
         stop-color="#00C3FF"
         offset="0%"
         id="stop718" /><stop
         stop-color="#293F64"
         offset="100%"
         id="stop720" /></radialGradient><radialGradient
       cx="269.71844"
       cy="271.88589"
       fx="269.71844"
       fy="271.88589"
       r="32.225597"
       gradientTransform="scale(1.0670404,0.9371716)"
       id="o"
       gradientUnits="userSpaceOnUse"><stop
         stop-color="#21C8F6"
         offset="0%"
         id="stop723" /><stop
         stop-color="#6EE4FF"
         offset="100%"
         id="stop725" /></radialGradient><radialGradient
       cx="305.11942"
       cy="243.58813"
       fx="305.11942"
       fy="243.58813"
       r="4.3120136"
       gradientTransform="scale(0.97492973,1.025715)"
       id="s"
       gradientUnits="userSpaceOnUse"><stop
         stop-color="#21C8F6"
         offset="0%"
         id="stop728" /><stop
         stop-color="#6EE4FF"
         offset="100%"
         id="stop730" /></radialGradient><radialGradient
       cx="626.00519"
       cy="880.19128"
       fx="626.00519"
       fy="880.19128"
       r="91.835136"
       gradientTransform="matrix(0.37417735,0,0,0.18708867,-388.1291,-90.582795)"
       id="y"
       gradientUnits="userSpaceOnUse"><stop
         stop-color="#090E17"
         offset="0%"
         id="stop733" /><stop
         stop-color="#111A29"
         stop-opacity="0"
         offset="100%"
         id="stop735" /></radialGradient><radialGradient
       cx="0.52436"
       cy="0.42955002"
       fx="0.52436"
       fy="0.42955002"
       r="0.36113998"
       gradientTransform="matrix(-1,0,0,-0.21038,1.049,0.52)"
       id="I"><stop
         stop-color="#172743"
         offset="0%"
         id="stop738" /><stop
         stop-opacity="0"
         offset="100%"
         id="stop740" /></radialGradient><radialGradient
       cx="205.99025"
       cy="388.86725"
       fx="205.99025"
       fy="388.86725"
       r="227.4286"
       gradientTransform="scale(1.608635,0.62164507)"
       id="Q"
       gradientUnits="userSpaceOnUse"><stop
         stop-color="#172743"
         offset="0%"
         id="stop743" /><stop
         stop-opacity="0"
         offset="100%"
         id="stop745" /></radialGradient><radialGradient
       cx="61.215816"
       cy="66.613861"
       fx="61.215816"
       fy="66.613861"
       r="46.648735"
       gradientTransform="scale(1.0024206,0.99758521)"
       id="T"
       gradientUnits="userSpaceOnUse"><stop
         stop-color="#83B2FF"
         offset="0%"
         id="stop748" /><stop
         stop-color="#84B3FF"
         offset="100%"
         id="stop750" /></radialGradient><radialGradient
       cx="23.820875"
       cy="23.820875"
       fx="23.820875"
       fy="23.820875"
       r="49.052895"
       gradientTransform="scale(0.99440094,1.0056306)"
       id="W"
       gradientUnits="userSpaceOnUse"><stop
         stop-color="#FFF"
         offset="0%"
         id="stop753" /><stop
         stop-color="#C42E6C"
         offset="100%"
         id="stop755" /></radialGradient><radialGradient
       cx="112.67352"
       cy="112.67352"
       fx="112.67352"
       fy="112.67352"
       r="139.37715"
       gradientTransform="scale(1.0581412,0.94505343)"
       id="Z"
       gradientUnits="userSpaceOnUse"><stop
         stop-color="#0F47A5"
         offset="0%"
         id="stop758" /><stop
         stop-color="#002E79"
         offset="100%"
         id="stop760" /></radialGradient><radialGradient
       cx="115.01041"
       cy="256.14304"
       fx="115.01041"
       fy="256.14304"
       r="18.942762"
       gradientTransform="scale(1.4856688,0.67309752)"
       id="ae"
       gradientUnits="userSpaceOnUse"><stop
         stop-color="#95BDFF"
         offset="0%"
         id="stop763" /><stop
         stop-color="#78AAFF"
         offset="100%"
         id="stop765" /></radialGradient><radialGradient
       cx="0.5"
       cy="0.5"
       fx="0.5"
       fy="0.5"
       r="0.28075001"
       gradientTransform="matrix(0,1,-1.6664,0,1.333,0)"
       id="aj"><stop
         offset="0%"
         id="stop768" /><stop
         stop-opacity="0"
         offset="100%"
         id="stop770" /></radialGradient><radialGradient
       cx="156.54033"
       cy="102.05594"
       fx="156.54033"
       fy="102.05594"
       r="75.657722"
       gradientTransform="matrix(0.41285027,0,0,0.1695635,-198.77439,35.635208)"
       id="ao"
       gradientUnits="userSpaceOnUse"><stop
         stop-color="#090E17"
         offset="0%"
         id="stop773" /><stop
         stop-color="#111A29"
         stop-opacity="0"
         offset="100%"
         id="stop775" /></radialGradient><filter
       x="-0.80345446"
       y="-0.91479343"
       width="2.6069088"
       height="2.8295867"
       filterUnits="objectBoundingBox"
       id="m"><feOffset
         in="SourceAlpha"
         result="shadowOffsetOuter1"
         id="feOffset778" /><feGaussianBlur
         stdDeviation="23"
         in="shadowOffsetOuter1"
         result="shadowBlurOuter1"
         id="feGaussianBlur780" /><feColorMatrix
         values="0 0 0 0 0.137254902 0 0 0 0 0.788235294 0 0 0 0 0.968627451 0 0 0 0.426300262 0"
         in="shadowBlurOuter1"
         id="feColorMatrix782" /></filter><filter
       x="-6.912096"
       y="-6.5698643"
       width="14.824192"
       height="14.139729"
       filterUnits="objectBoundingBox"
       id="q"><feOffset
         in="SourceAlpha"
         result="shadowOffsetOuter1"
         id="feOffset785" /><feGaussianBlur
         stdDeviation="23"
         in="shadowOffsetOuter1"
         result="shadowBlurOuter1"
         id="feGaussianBlur787" /><feColorMatrix
         values="0 0 0 0 0.137254902 0 0 0 0 0.788235294 0 0 0 0 0.968627451 0 0 0 0.426300262 0"
         in="shadowBlurOuter1"
         id="feColorMatrix789" /></filter><filter
       x="-0.1062211"
       y="-0.11214704"
       width="1.2124422"
       height="1.2242941"
       filterUnits="objectBoundingBox"
       id="z"><feOffset
         in="SourceAlpha"
         result="shadowOffsetOuter1"
         id="feOffset805" /><feGaussianBlur
         stdDeviation="10.5"
         in="shadowOffsetOuter1"
         result="shadowBlurOuter1"
         id="feGaussianBlur807" /><feColorMatrix
         values="0 0 0 0 0 0 0 0 0 0 0 0 0 0 0 0 0 0 0.0869208916 0"
         in="shadowBlurOuter1"
         result="shadowMatrixOuter1"
         id="feColorMatrix809" /><feMerge
         id="feMerge815"><feMergeNode
           in="shadowMatrixOuter1"
           id="feMergeNode811" /><feMergeNode
           in="SourceGraphic"
           id="feMergeNode813" /></feMerge></filter><filter
       x="-0.10870875"
       y="-0.3648628"
       width="1.2174175"
       height="1.7297256"
       filterUnits="objectBoundingBox"
       id="C"><feGaussianBlur
         stdDeviation="17.895"
         in="SourceGraphic"
         id="feGaussianBlur818" /></filter><filter
       x="-0.32856464"
       y="-0.31216294"
       width="1.6571293"
       height="1.6243259"
       filterUnits="objectBoundingBox"
       id="G"><feGaussianBlur
         stdDeviation="17.895"
         in="SourceGraphic"
         id="feGaussianBlur821" /></filter><filter
       x="0"
       y="0"
       width="1"
       height="1"
       filterUnits="objectBoundingBox"
       id="J"><feGaussianBlur
         in="SourceGraphic"
         id="feGaussianBlur824" /></filter><filter
       x="0"
       y="0"
       width="1"
       height="1"
       filterUnits="objectBoundingBox"
       id="L"><feGaussianBlur
         in="SourceGraphic"
         id="feGaussianBlur827" /></filter><filter
       x="-0.12777945"
       y="-0.55642772"
       width="1.2555588"
       height="2.1128554"
       filterUnits="objectBoundingBox"
       id="R"><feGaussianBlur
         stdDeviation="9.865"
         in="SourceGraphic"
         id="feGaussianBlur830" /></filter><filter
       x="-0.31639901"
       y="-0.31794566"
       width="1.632798"
       height="1.6358913"
       filterUnits="objectBoundingBox"
       id="S"><feGaussianBlur
         stdDeviation="16.911"
         in="SourceGraphic"
         id="feGaussianBlur833" /></filter><filter
       x="-0.20263852"
       y="-0.20037571"
       width="1.405277"
       height="1.4007514"
       filterUnits="objectBoundingBox"
       id="U"><feOffset
         in="SourceAlpha"
         result="shadowOffsetOuter1"
         id="feOffset836" /><feGaussianBlur
         stdDeviation="4"
         in="shadowOffsetOuter1"
         result="shadowBlurOuter1"
         id="feGaussianBlur838" /><feColorMatrix
         values="0 0 0 0 0.951002038 0 0 0 0 0.370524746 0 0 0 0 0.61045536 0 0 0 1 0"
         in="shadowBlurOuter1"
         id="feColorMatrix840" /></filter><filter
       x="-5.1226258"
       y="-11.30672"
       width="11.245251"
       height="23.61344"
       filterUnits="objectBoundingBox"
       id="ac"><feOffset
         in="SourceAlpha"
         result="shadowOffsetOuter1"
         id="feOffset843" /><feGaussianBlur
         stdDeviation="59"
         in="shadowOffsetOuter1"
         result="shadowBlurOuter1"
         id="feGaussianBlur845" /><feColorMatrix
         values="0 0 0 0 0.951002038 0 0 0 0 0.370524746 0 0 0 0 0.61045536 0 0 0 1 0"
         in="shadowBlurOuter1"
         id="feColorMatrix847" /></filter><path
       d="m 1209.868,618.93 v 96.603 h -96.61 v -96.602 h 96.61 z m 123.57,0 v 96.603 h -96.61 v -96.602 h 96.61 z m 123.571,0 v 96.603 h -96.61 v -96.602 h 96.61 z m 123.57,0 v 96.603 h -96.609 v -96.602 h 96.61 z M 221.304,617.808 v 96.602 h -96.61 v -96.602 z m 247.14,0 v 96.602 h -96.609 v -96.602 h 96.61 z m 247.142,-0.33 v 96.602 h -96.61 v -96.603 h 96.61 z m -123.57,0 v 96.602 h -96.61 v -96.603 h 96.61 z m 617.852,-123.232 v 96.603 h -96.61 v -96.603 z m -123.57,0 v 96.603 h -96.61 v -96.603 z m -864.994,0 v 96.603 h -96.61 v -96.603 z m -123.57,0 v 96.603 H 1.123 v -96.603 h 96.61 z m 370.71,0 v 96.603 h -96.609 v -96.603 h 96.61 z m 247.142,-0.33 v 96.602 h -96.61 v -96.602 z m -123.57,0 v 96.602 h -96.61 V 493.916 Z M 96.61,371.808 V 468.41 H 0 v -96.602 z m 123.57,0 v 96.602 h -96.61 v -96.602 z m 123.57,0 v 96.602 h -96.609 v -96.602 h 96.61 z m 866.118,-1.123 v 96.602 h -96.61 v -96.602 z m -123.57,0 v 96.602 h -96.61 v -96.602 z m -368.465,0 v 96.602 h -96.61 v -96.602 z m -249.388,0 v 96.602 h -96.61 V 370.685 Z M 962.727,247.123 v 96.603 h -96.61 v -96.603 z m -244.894,0 v 96.603 h -96.61 v -96.603 z m -123.571,0 v 96.603 h -96.61 v -96.603 z m -125.817,0 v 96.603 h -96.61 V 247.123 Z M 962.727,123.562 v 96.602 h -96.61 v -96.602 z m -123.57,0 v 96.602 h -96.61 v -96.602 z m -244.895,0 v 96.602 h -96.61 V 123.562 Z M 839.156,0 v 96.603 h -96.61 V 0 Z"
       id="g" /><path
       d="m 280.813,225.69 c 0,0 -2.242,0.262 -5.455,1.293 -7.029,2.25 -18.714,8.17 -21.798,23.032 -0.15,2.172 -0.163,4.384 0.053,6.55 0.68,6.87 4.103,12.765 9.08,17.377 6.666,6.174 16.12,10.046 25.524,10.868 14.522,1.27 28.92,-4.735 32.728,-20.766 0.392,-1.644 0.7,-3.225 0.966,-4.773 0.852,-9.059 -0.586,-16.301 -3.798,-21.774 a 23.912,23.912 0 0 0 -3.541,-4.638 c -5.404,-5.513 -13.386,-8.226 -22.9,-8.226 -3.436,0 -7.07,0.355 -10.86,1.058"
       id="n" /><path
       d="m 301.463,249.852 c 0,2.32 -1.787,4.201 -3.992,4.201 -2.207,0 -3.994,-1.88 -3.994,-4.2 0,-2.32 1.787,-4.202 3.994,-4.202 2.205,0 3.992,1.882 3.992,4.201"
       id="r" /><path
       d="m 244.366,342.233 c 0,0 -6.69,-10.351 -13.411,-13.223 -2.02,-0.862 -4.042,-1.05 -5.887,-0.08 -2.472,1.302 -3.03,4.413 -2.624,8.09 0.908,8.201 6.617,19.215 6.617,19.215 a 37.805,37.805 0 0 1 3.564,-2.952 c 10.22,-7.487 23.65,-10.078 28.515,-10.807 1.183,-0.176 1.859,-0.243 1.859,-0.243 0,0 -0.655,-2.066 -2.081,-4.67 -0.817,-1.496 -1.886,-3.165 -3.231,-4.722 -1.599,-1.855 -3.587,-3.552 -6,-4.61 -0.727,-0.32 -1.382,-0.463 -1.971,-0.464 -5.9,0 -5.35,14.466 -5.35,14.466"
       id="t" /><path
       d="m 345.673,332.785 c -2.475,0.883 -4.568,2.436 -6.283,4.172 a 26.537,26.537 0 0 0 -2.996,3.672 c -1.948,2.857 -2.909,5.32 -2.909,5.32 0,0 0.67,0.115 1.84,0.375 4.488,1.002 16.325,4.159 25.782,11.247 a 39.989,39.989 0 0 1 5.338,4.765 c 0,0 6.782,-11.205 7.95,-19.4 0.392,-2.767 0.146,-5.192 -1.218,-6.725 -2.467,-2.773 -6.52,-1.619 -9.272,-0.067 -6.093,3.434 -11.83,11.132 -11.83,11.132 0,0 1.524,-14.821 -4.672,-14.821 -0.52,0 -1.095,0.104 -1.73,0.33"
       id="v" /><path
       d="m 47.373,20.863 v -9.26 l -3.43,1.965 -4.738,2.715 v 9.26 l 8.17,-4.68 z m -9.8,16.752 v -9.267 l -4.662,2.65 -13.309,7.558 V 47.91 L 37.572,37.615 Z M 0,6.083 V 37.615 L 17.968,47.909 V 38.557 L 8.581,33.271 8.578,33.269 8.574,33.267 C 8.542,33.248 8.516,33.222 8.486,33.2 8.461,33.18 8.431,33.163 8.409,33.14 L 8.407,33.138 C 8.38,33.112 8.362,33.081 8.34,33.053 8.32,33.025 8.295,33.002 8.278,32.973 V 32.97 C 8.259,32.94 8.248,32.903 8.234,32.869 8.221,32.839 8.204,32.81 8.196,32.777 8.186,32.737 8.184,32.697 8.179,32.657 8.175,32.627 8.167,32.597 8.167,32.567 V 10.763 L 3.43,8.046 0,6.084 Z M 8.985,0 0.82,4.678 8.984,9.355 17.149,4.677 8.983,0 Z m 4.247,29.193 4.737,-2.714 V 6.083 l -3.43,1.965 -4.738,2.715 V 31.16 l 3.43,-1.966 z M 38.389,5.52 l -8.165,4.678 8.165,4.678 8.164,-4.68 L 38.39,5.52 Z m -0.817,10.763 -4.738,-2.715 -3.43,-1.965 v 9.26 l 4.737,2.714 3.431,1.966 z m -18.788,20.868 11.977,-6.804 5.986,-3.4 -8.159,-4.675 -9.394,5.382 -8.562,4.905 z"
       id="V" /><path
       d="m 32.317,0 h 173.815 c 17.848,0 32.317,14.469 32.317,32.317 v 138.447 a 32.316,32.316 0 0 1 -20.534,30.095 c -20.611,8.07 -52.143,12.106 -94.594,12.106 -44.972,0 -79.187,-4.529 -102.644,-13.586 A 32.317,32.317 0 0 1 0,169.23 V 32.317 C 0,14.47 14.469,0 32.317,0 Z"
       id="Y" /><path
       d="m 170.878,178.671 c -4.936,-0.006 -9.633,-2.202 -12.886,-6.026 -1.392,-1.635 -1.228,-4.114 0.365,-5.535 1.593,-1.422 4.011,-1.248 5.404,0.387 1.795,2.11 4.386,3.323 7.108,3.327 2.72,0.003 5.309,-1.203 7.1,-3.31 a 3.765,3.765 0 0 1 5.402,-0.374 c 1.596,1.426 1.766,3.905 0.378,5.537 -3.243,3.815 -7.935,6 -12.87,5.994 z"
       id="ad" /><path
       d="m 32.317,0 h 173.815 c 17.848,0 32.317,14.469 32.317,32.317 v 138.447 a 32.316,32.316 0 0 1 -20.534,30.095 c -20.611,8.07 -52.143,12.106 -94.594,12.106 -44.972,0 -79.187,-4.529 -102.644,-13.586 A 32.317,32.317 0 0 1 0,169.23 V 32.317 C 0,14.47 14.469,0 32.317,0 Z"
       id="af" /><ellipse
       id="ak"
       cx="68.353996"
       cy="67.723999"
       rx="68.353996"
       ry="67.723999" /><ellipse
       id="am"
       cx="68.353996"
       cy="67.723999"
       rx="68.353996"
       ry="67.723999" /><linearGradient
       inkscape:collect="always"
       xlink:href="#a"
       id="linearGradient2436"
       x1="1193.6595"
       y1="537.7627"
       x2="1216.8032"
       y2="496.89249"
       gradientTransform="matrix(0.19522709,-0.02743738,0.04941888,0.35163364,-169.59747,19.183581)"
       gradientUnits="userSpaceOnUse" /><linearGradient
       inkscape:collect="always"
       xlink:href="#b"
       id="linearGradient2438"
       x1="48.303249"
       y1="370.69843"
       x2="48.303249"
       y2="467.30493"
       gradientTransform="scale(1.0000362,0.99996377)"
       gradientUnits="userSpaceOnUse" /><linearGradient
       inkscape:collect="always"
       xlink:href="#b"
       id="linearGradient2440"
       x1="48.303249"
       y1="0"
       x2="48.303249"
       y2="96.606499"
       gradientTransform="scale(1.0000362,0.99996377)"
       gradientUnits="userSpaceOnUse" /><linearGradient
       inkscape:collect="always"
       xlink:href="#b"
       id="linearGradient2442"
       x1="531.73236"
       y1="8.4483832e-14"
       x2="531.73236"
       y2="1063.4647"
       gradientTransform="scale(1.4862553,0.67283193)"
       gradientUnits="userSpaceOnUse" /><linearGradient
       inkscape:collect="always"
       xlink:href="#a"
       id="linearGradient2444"
       x1="491.73544"
       y1="90.386513"
       x2="514.87921"
       y2="49.51601"
       gradientTransform="scale(0.74512266,1.3420609)"
       gradientUnits="userSpaceOnUse" /><linearGradient
       inkscape:collect="always"
       xlink:href="#D"
       id="linearGradient2446"
       x1="3.371882"
       y1="9.4675798"
       x2="15.887558"
       y2="9.4675798"
       gradientTransform="scale(1.0024175,0.99758838)"
       gradientUnits="userSpaceOnUse" /><linearGradient
       inkscape:collect="always"
       xlink:href="#D"
       id="linearGradient2448"
       x1="131.69461"
       y1="9.5289516"
       x2="139.51654"
       y2="9.5289516"
       gradientTransform="scale(1.0024956,0.99751058)"
       gradientUnits="userSpaceOnUse" /><linearGradient
       inkscape:collect="always"
       xlink:href="#D"
       id="linearGradient2450"
       x1="144.53258"
       y1="9.5289516"
       x2="152.35451"
       y2="9.5289516"
       gradientTransform="scale(1.0024956,0.99751058)"
       gradientUnits="userSpaceOnUse" /><linearGradient
       inkscape:collect="always"
       xlink:href="#D"
       id="linearGradient2452"
       x1="157.37054"
       y1="9.5289516"
       x2="165.19247"
       y2="9.5289516"
       gradientTransform="scale(1.0024956,0.99751058)"
       gradientUnits="userSpaceOnUse" /><radialGradient
       inkscape:collect="always"
       xlink:href="#I"
       id="radialGradient2454"
       gradientTransform="scale(0.99766419,1.0023413)"
       cx="34.051723"
       cy="28.396444"
       fx="34.051723"
       fy="28.396444"
       r="20.539059"
       gradientUnits="userSpaceOnUse" /><linearGradient
       inkscape:collect="always"
       xlink:href="#K"
       id="linearGradient2456"
       x1="11.240599"
       y1="33.605793"
       x2="11.240599"
       y2="0"
       gradientTransform="scale(1.5849689,0.63092722)"
       gradientUnits="userSpaceOnUse" /><radialGradient
       inkscape:collect="always"
       xlink:href="#I"
       id="radialGradient2458"
       gradientTransform="scale(0.99766419,1.0023413)"
       cx="34.051723"
       cy="28.396444"
       fx="34.051723"
       fy="28.396444"
       r="20.539059"
       gradientUnits="userSpaceOnUse" /><linearGradient
       inkscape:collect="always"
       xlink:href="#K"
       id="linearGradient2460"
       x1="11.240599"
       y1="33.605793"
       x2="11.240599"
       y2="0"
       gradientTransform="scale(1.5849689,0.63092722)"
       gradientUnits="userSpaceOnUse" /><radialGradient
       inkscape:collect="always"
       xlink:href="#aj"
       id="radialGradient2462"
       gradientTransform="scale(1.3669917,0.73153332)"
       cx="75.325989"
       cy="270.20505"
       fx="75.325989"
       fy="270.20505"
       r="19.754076"
       gradientUnits="userSpaceOnUse" /><radialGradient
       inkscape:collect="always"
       xlink:href="#aj"
       id="radialGradient2464"
       gradientTransform="scale(1.3669917,0.73153332)"
       cx="209.03346"
       cy="273.64987"
       fx="209.03346"
       fy="273.64987"
       r="19.754076"
       gradientUnits="userSpaceOnUse" /><radialGradient
       cx="156.54033"
       cy="102.05594"
       fx="156.54033"
       fy="102.05594"
       r="75.657722"
       gradientTransform="matrix(0.41285027,0,0,0.1695635,-185.30538,74.635709)"
       id="ao-3"
       gradientUnits="userSpaceOnUse"><stop
         stop-color="#090E17"
         offset="0%"
         id="stop773-7" /><stop
         stop-color="#111A29"
         stop-opacity="0"
         offset="100%"
         id="stop775-1" /></radialGradient><linearGradient
       inkscape:collect="always"
       xlink:href="#linearGradient4044"
       id="linearGradient4046"
       x1="-232.01311"
       y1="209.0768"
       x2="-42.333332"
       y2="211.66667"
       gradientUnits="userSpaceOnUse"
       gradientTransform="matrix(2.0329113,0,0,2.0329113,-39.252259,-170.98188)" /><linearGradient
       inkscape:collect="always"
       xlink:href="#linearGradient4044"
       id="linearGradient4121"
       gradientUnits="userSpaceOnUse"
       gradientTransform="matrix(2.0329113,0,0,2.0329113,-39.252259,-170.98188)"
       x1="-232.01311"
       y1="209.0768"
       x2="-42.333332"
       y2="211.66667" /><linearGradient
       inkscape:collect="always"
       xlink:href="#linearGradient4044"
       id="linearGradient4123"
       gradientUnits="userSpaceOnUse"
       gradientTransform="matrix(2.0329113,0,0,2.0329113,-39.252259,-170.98188)"
       x1="-232.01311"
       y1="209.0768"
       x2="-42.333332"
       y2="211.66667" /><linearGradient
       inkscape:collect="always"
       xlink:href="#linearGradient4044"
       id="linearGradient4125"
       gradientUnits="userSpaceOnUse"
       gradientTransform="matrix(2.0329113,0,0,2.0329113,-39.252259,-170.98188)"
       x1="-232.01311"
       y1="209.0768"
       x2="-42.333332"
       y2="211.66667" /><linearGradient
       inkscape:collect="always"
       xlink:href="#linearGradient4044"
       id="linearGradient4127"
       gradientUnits="userSpaceOnUse"
       gradientTransform="matrix(2.0329113,0,0,2.0329113,-41.506063,-168.8467)"
       x1="-232.01311"
       y1="209.0768"
       x2="-42.333332"
       y2="211.66667" /><linearGradient
       inkscape:collect="always"
       xlink:href="#linearGradient7050"
       id="linearGradient7052"
       x1="74.138176"
       y1="133.27867"
       x2="196.7034"
       y2="133.27867"
       gradientUnits="userSpaceOnUse" /><linearGradient
       inkscape:collect="always"
       xlink:href="#linearGradient7050"
       id="linearGradient7054"
       gradientUnits="userSpaceOnUse"
       x1="74.138176"
       y1="133.27867"
       x2="196.7034"
       y2="133.27867" /><linearGradient
       inkscape:collect="always"
       xlink:href="#linearGradient7050"
       id="linearGradient7056"
       gradientUnits="userSpaceOnUse"
       x1="74.138176"
       y1="133.27867"
       x2="196.7034"
       y2="133.27867" /><linearGradient
       inkscape:collect="always"
       xlink:href="#linearGradient7050"
       id="linearGradient7058"
       gradientUnits="userSpaceOnUse"
       x1="74.138176"
       y1="133.27867"
       x2="196.7034"
       y2="133.27867" /><linearGradient
       inkscape:collect="always"
       xlink:href="#linearGradient7050"
       id="linearGradient7060"
       gradientUnits="userSpaceOnUse"
       x1="74.138176"
       y1="133.27867"
       x2="196.7034"
       y2="133.27867" /><linearGradient
       inkscape:collect="always"
       xlink:href="#linearGradient7050"
       id="linearGradient7062"
       gradientUnits="userSpaceOnUse"
       x1="74.138176"
       y1="133.27867"
       x2="196.7034"
       y2="133.27867" /><linearGradient
       inkscape:collect="always"
       xlink:href="#linearGradient7050"
       id="linearGradient7064"
       gradientUnits="userSpaceOnUse"
       x1="74.138176"
       y1="133.27867"
       x2="196.7034"
       y2="133.27867" /><linearGradient
       inkscape:collect="always"
       xlink:href="#linearGradient7050"
       id="linearGradient7066"
       gradientUnits="userSpaceOnUse"
       x1="74.138176"
       y1="133.27867"
       x2="196.7034"
       y2="133.27867" /><linearGradient
       inkscape:collect="always"
       xlink:href="#linearGradient9668"
       id="linearGradient9670"
       x1="48.149132"
       y1="100.54287"
       x2="140.6731"
       y2="36.284096"
       gradientUnits="userSpaceOnUse"
       gradientTransform="matrix(1.2260072,0,0,1.2260072,-9.8309718,-18.155999)" /><linearGradient
       inkscape:collect="always"
       xlink:href="#linearGradient9668"
       id="linearGradient19131"
       gradientUnits="userSpaceOnUse"
       gradientTransform="matrix(1.2260072,0,0,1.2260072,-9.8309718,-18.155999)"
       x1="48.149132"
       y1="100.54287"
       x2="140.6731"
       y2="36.284096" /><linearGradient
       inkscape:collect="always"
       xlink:href="#linearGradient9668"
       id="linearGradient19133"
       gradientUnits="userSpaceOnUse"
       gradientTransform="matrix(1.2260072,0,0,1.2260072,-9.8309718,-18.155999)"
       x1="48.149132"
       y1="100.54287"
       x2="140.6731"
       y2="36.284096" /><linearGradient
       inkscape:collect="always"
       xlink:href="#linearGradient9668"
       id="linearGradient19135"
       gradientUnits="userSpaceOnUse"
       gradientTransform="matrix(1.2260072,0,0,1.2260072,-9.8309718,-18.155999)"
       x1="48.149132"
       y1="100.54287"
       x2="140.6731"
       y2="36.284096" /><linearGradient
       inkscape:collect="always"
       xlink:href="#linearGradient9668"
       id="linearGradient19137"
       gradientUnits="userSpaceOnUse"
       gradientTransform="matrix(1.2260072,0,0,1.2260072,-9.8309718,-18.155999)"
       x1="48.149132"
       y1="100.54287"
       x2="140.6731"
       y2="36.284096" /><linearGradient
       inkscape:collect="always"
       xlink:href="#linearGradient9668"
       id="linearGradient19139"
       gradientUnits="userSpaceOnUse"
       gradientTransform="matrix(1.2260072,0,0,1.2260072,-9.8309718,-18.155999)"
       x1="48.149132"
       y1="100.54287"
       x2="140.6731"
       y2="36.284096" /><linearGradient
       inkscape:collect="always"
       xlink:href="#linearGradient9668"
       id="linearGradient19141"
       gradientUnits="userSpaceOnUse"
       gradientTransform="matrix(1.2260072,0,0,1.2260072,-9.8309718,-18.155999)"
       x1="48.149132"
       y1="100.54287"
       x2="140.6731"
       y2="36.284096" /><linearGradient
       inkscape:collect="always"
       xlink:href="#linearGradient9668"
       id="linearGradient19143"
       gradientUnits="userSpaceOnUse"
       gradientTransform="matrix(1.2260072,0,0,1.2260072,-9.8309718,-18.155999)"
       x1="48.149132"
       y1="100.54287"
       x2="140.6731"
       y2="36.284096" /><linearGradient
       inkscape:collect="always"
       xlink:href="#linearGradient9668"
       id="linearGradient19145"
       gradientUnits="userSpaceOnUse"
       gradientTransform="matrix(1.2260072,0,0,1.2260072,-9.8309718,-18.155999)"
       x1="48.149132"
       y1="100.54287"
       x2="140.6731"
       y2="36.284096" /><linearGradient
       inkscape:collect="always"
       xlink:href="#linearGradient9668"
       id="linearGradient19147"
       gradientUnits="userSpaceOnUse"
       gradientTransform="matrix(1.2260072,0,0,1.2260072,-9.8309718,-18.155999)"
       x1="48.149132"
       y1="100.54287"
       x2="140.6731"
       y2="36.284096" /><linearGradient
       inkscape:collect="always"
       xlink:href="#linearGradient9668"
       id="linearGradient19149"
       gradientUnits="userSpaceOnUse"
       gradientTransform="matrix(1.2260072,0,0,1.2260072,-9.8309718,-18.155999)"
       x1="48.149132"
       y1="100.54287"
       x2="140.6731"
       y2="36.284096" /></defs><g
     inkscape:label="Layer 1"
     inkscape:groupmode="layer"
     id="layer1"
     transform="translate(147.3469,-0.3743109)"><g
       id="g20396"><ellipse
         fill="url(#ao)"
         opacity="0.458"
         transform="rotate(-75.000001)"
         cx="-135.73265"
         cy="54.543922"
         rx="14.816667"
         ry="6.0854163"
         id="ellipse1091"
         style="fill:url(#ao);fill-rule:evenodd;stroke-width:0.264583" /><ellipse
         fill="url(#ao)"
         opacity="0.458"
         transform="rotate(-75.000001)"
         cx="-122.26364"
         cy="93.544418"
         rx="14.816667"
         ry="6.0854163"
         id="ellipse1091-8"
         style="fill:url(#ao-3);fill-rule:evenodd;stroke-width:0.264583" /><path
         d="m 97.158489,145.06686 c -0.04249,-0.30236 -0.190956,-0.55455 -0.445015,-0.75584 l -1.906337,-1.51126 c -0.254059,-0.20128 -0.525379,-0.28205 -0.813064,-0.24162 -0.287948,0.0405 -0.526496,0.19289 -0.714969,0.45637 l -13.19479,18.43555 c -0.188961,0.26382 -0.261895,0.54713 -0.219438,0.84923 0.04249,0.30235 0.190956,0.55455 0.445015,0.75584 l 17.76491,14.08445 c 0.254133,0.20181 0.524819,0.28186 0.813028,0.24135 0.288209,-0.0405 0.526532,-0.19263 0.715267,-0.45614 l 1.416044,-1.97739 c 0.18873,-0.26351 0.26193,-0.54686 0.2194,-0.84948 -0.0425,-0.3021 -0.19088,-0.55403 -0.44498,-0.75558 L 85.811157,161.46359 96.939088,145.91635 c 0.18896,-0.26382 0.261895,-0.54713 0.219401,-0.84949 z"
         fill="url(#a)"
         fill-rule="nonzero"
         opacity="0.455"
         id="path863"
         style="mix-blend-mode:luminosity;fill:url(#linearGradient2436);stroke-width:0.264583" /><g
         opacity="0.228"
         id="g881"
         transform="matrix(0.26458333,0,0,0.26458333,-147.3469,0.37431091)"
         style="mix-blend-mode:luminosity;fill:none;fill-rule:evenodd"><path
           fill="url(#b)"
           d="m 0,370.685 h 96.61 v 96.603 H 0 Z"
           transform="translate(984.951,590.284)"
           id="path865"
           style="fill:url(#linearGradient2438)" /><path
           fill="url(#c)"
           d="m 123.571,370.685 h 96.61 v 96.603 h -96.61 z"
           transform="translate(984.951,590.284)"
           id="path867"
           style="fill:url(#c)" /><path
           fill="url(#d)"
           d="m 247.141,370.685 h 96.61 v 96.603 h -96.61 z"
           transform="translate(984.951,590.284)"
           id="path869"
           style="fill:url(#d)" /><path
           fill="url(#e)"
           d="m 0,247.123 h 96.61 v 96.603 H 0 Z"
           transform="translate(984.951,590.284)"
           id="path871"
           style="fill:url(#e)" /><path
           fill="#4bdeff"
           fill-rule="nonzero"
           d="m 984.951,713.846 h 96.61 v 96.603 h -96.61 z"
           id="path873" /><path
           fill="url(#b)"
           d="M 0,0 H 96.61 V 96.603 H 0 Z"
           transform="translate(984.951,590.284)"
           id="path875"
           style="fill:url(#linearGradient2440)" /><use
           fill="url(#f)"
           style="mix-blend-mode:luminosity;fill:url(#linearGradient2442)"
           xlink:href="#g"
           opacity="0.654"
           transform="translate(242.404,343.491)"
           id="use877" /><path
           d="m 1108.522,247.123 h 96.61 v 96.603 h -96.61 z m 0,-123.561 h 96.61 v 96.603 h -96.61 z m -123.571,0 h 96.61 v 96.603 h -96.61 z M 984.951,0 h 96.61 v 96.603 h -96.61 z M 216.304,838.186 v 96.61 H 119.7 v -96.61 z m 0.039,123.598 v 96.61 H 119.74 v -96.61 z m -119.74,0.026 v 96.61 H 0 v -96.61 z"
           opacity="0.37"
           fill="#1aab8b"
           id="path879" /></g><g
         transform="matrix(0.25972219,-0.05048488,0.05048488,0.25972219,28.198877,148.33471)"
         id="g923"
         style="mix-blend-mode:luminosity;fill:none;fill-rule:evenodd"><ellipse
           fill="url(#h)"
           opacity="0.278"
           cx="273.52399"
           cy="633.71301"
           rx="218.187"
           ry="42.462002"
           id="ellipse883"
           style="fill:url(#h)" /><g
           transform="translate(0,31.102)"
           id="g921"><path
             d="m 290.486,142.475 c 26.442,0 52.92,6.414 69.324,18.368 14.42,10.509 24.887,40.696 25.097,41.297 0.016,0.047 -0.36,1.014 2.315,1.593 0.414,0.09 1.009,0.219 1.765,0.386 l 0.933,0.207 c 13.929,3.117 67.54,15.815 90.784,32.987 -3.039,0.77 -6.845,1.198 -10.732,1.49 l -0.793,0.056 c -0.525,0.037 -1.051,0.071 -1.57,0.103 l -0.79,0.046 c -4.837,0.274 -9.373,0.353 -11.586,0.375 l -6.59,0.068 5.284,3.938 c 0.727,0.542 1.445,1.083 2.16,1.625 12.751,5.883 53.908,25.093 68.576,38.135 l 0.325,0.293 -0.03,0.01 c -0.73,0.208 -1.493,0.346 -2.313,0.46 l -0.415,0.054 c -2.69,0.339 -5.956,0.45 -8.947,0.46 h -0.888 a 167.2,167.2 0 0 1 -6.635,-0.162 l -5.49,-0.243 3.777,3.992 c 0.757,0.8 1.501,1.596 2.235,2.387 12.038,8.696 50.655,37.771 71.466,70.3 l 0.143,0.227 -29.63,-8.62 -0.053,2.906 -0.035,1.804 c 2.24,6.668 8.514,24.442 13.993,43.354 l 0.455,1.58 c 1.865,6.516 3.62,13.13 5.064,19.406 -0.254,0.26 -0.573,0.436 -0.935,0.55 -1.026,0.324 -2.302,0.255 -3.694,0.014 -4.757,-0.825 -10.688,-3.828 -14.598,-6.017 a 98.05,98.05 0 0 1 -3.036,-1.77 1000.766,1000.766 0 0 1 -1.257,15.428 c 4.713,21.896 12.728,62.872 13.867,98.854 -2.342,-0.395 -6.64,-5.067 -10.514,-9.875 l -0.514,-0.642 c -4.088,-5.133 -7.575,-10.212 -7.575,-10.212 0,0 -2.09,-3.042 -4.572,-7.038 0.37,5.14 0.603,8.56 0.603,8.56 0.017,0.247 0.69,10.18 1.354,21.582 l 0.05,0.858 0.05,0.862 0.049,0.867 c 0.058,1.013 0.115,2.032 0.171,3.053 l 0.048,0.874 0.076,1.4 c 0.312,5.798 0.585,11.498 0.735,16.075 -0.953,-1.378 -2.004,-2.967 -3.063,-4.558 l -0.415,-0.624 -0.443,-0.673 a 391.098,391.098 0 0 1 -4.588,-7.165 431.353,431.353 0 0 1 -2.696,-4.364 329.763,329.763 0 0 1 -4.074,14.3 c -0.173,10.143 -5.997,18.215 -15.927,25.088 -11.323,7.836 -27.953,14.09 -48.198,18.9 -45.427,10.796 -108.927,14.235 -172.218,11.146 -62.773,-3.065 -125.347,-12.55 -169.886,-27.717 -19.821,-6.75 -36.049,-14.606 -47.04,-23.557 -9.702,-7.9 -15.31,-16.628 -15.24,-26.267 -1.045,-4.627 -1.975,-8.774 -2.86,-12.957 a 499.517,499.517 0 0 1 -1.28,-6.243 10896.57,10896.57 0 0 1 -11.557,22.822 l -1.086,2.135 c -0.684,1.345 -1.368,2.687 -2.047,4.012 -7.986,-38.034 -0.75,-90.054 3.2,-113.024 -0.166,-2.791 -0.345,-4.99 -0.517,-7.163 l -0.57,-7.203 -3.578,6.278 c -2.439,4.28 -6.153,10.328 -9.634,11.824 -0.32,0.139 -0.634,0.234 -0.941,0.201 -0.212,-0.022 -0.407,-0.123 -0.596,-0.28 -0.758,-0.623 -1.345,-1.811 -1.883,-3.57 0.09,-33.307 13.861,-78.784 13.861,-78.784 0,0 2.194,-7.245 5.999,-17.715 -4.05,8.254 -9.875,15.698 -9.875,15.698 0,0 -9.438,12.06 -18.803,17.676 -2.262,1.356 -4.507,2.34 -6.598,2.552 -0.876,0.088 -1.72,0.03 -2.51,-0.227 14.08,-27.564 49.324,-54.748 67.738,-67.728 2.342,-2.561 4.375,-4.815 6.505,-7.11 1.661,-1.79 3.301,-3.52 4.92,-5.198 -2.402,0.657 -4.852,1.14 -6.923,1.493 -4.51,0.77 -10.922,1.553 -15.222,0.457 -1.137,-0.29 -2.128,-0.686 -2.727,-1.4 -0.267,-0.32 -0.416,-0.709 -0.461,-1.164 18.063,-15.25 53.432,-31.175 67.34,-37.146 1.188,-0.83 1.9,-1.374 2.612,-1.917 l 6.343,-4.816 H 90.549 c 25.298,-21.64 106.439,-37.193 106.439,-37.193 0,0 0.438,-0.084 1.26,-0.236 0.258,-0.774 0.408,-1.196 0.408,-1.196 0,0 10.779,-30.401 25.144,-41.353 16.496,-12.575 41.61,-18.34 66.686,-18.34 z"
             stroke="url(#i)"
             stroke-width="4.447"
             id="path885"
             style="stroke:url(#i)" /><path
             d="m 222.453,158.767 c 34.551,-26.34 106.082,-23.745 138.666,0 14.957,10.9 25.89,42.371 25.89,42.371 0,0 0.873,0.182 2.46,0.532 l 0.936,0.209 c 14.57,3.26 72.038,16.984 94.038,35.258 0,3.653 -23.152,4.13 -29.187,4.191 0.732,0.546 1.455,1.091 2.175,1.637 13.142,6.004 58.459,27.257 70.931,40.38 0,3.616 -17.768,3.08 -22.7,2.862 0.762,0.805 1.511,1.607 2.25,2.404 12.289,8.822 53.853,40.181 74.128,74.547 l 1.331,1.401 -32.94,-9.583 -0.036,1.808 c 2.94,8.18 13.936,39.391 19.666,64.716 -2.892,6.087 -15.798,-0.077 -22.69,-3.935 -0.3,3.883 -0.63,7.861 -0.992,11.916 4.764,21.646 12.986,63.76 13.924,100.3 -3.993,2.802 -22.625,-21.002 -22.625,-21.002 0,0 0.958,14.114 1.724,28.127 l 0.076,1.4 c 0.477,8.862 0.861,17.492 0.861,22.281 -1.256,-0.66 -4.55,-5.313 -7.68,-10.044 l -0.445,-0.675 a 393.42,393.42 0 0 1 -4.615,-7.207 322.18,322.18 0 0 1 -2.762,9.415 c -0.69,90.242 -473.512,68.85 -472.856,-23.081 a 466.787,466.787 0 0 1 -2.81,-12.482 9010.995,9010.995 0 0 1 -8.682,17.128 l -1.085,2.135 c -1.629,3.2 -3.251,6.382 -4.8,9.409 -10.209,-38.663 -2.41,-95.442 1.779,-119.806 -0.19,-2.23 -0.369,-4.434 -0.541,-6.611 -4.501,7.898 -13.329,20.67 -17.21,7.399 0,-33.605 13.957,-79.752 13.957,-79.752 0,0 -21.942,27.943 -32.589,19.543 13.553,-28.517 50.334,-57.03 69.387,-70.46 a 373.85,373.85 0 0 1 6.157,-6.806 c -8.09,1.38 -21.924,2.611 -20.978,-5.349 17.977,-15.574 54.432,-32.032 68.657,-38.139 a 389.852,389.852 0 0 1 3.227,-2.467 H 85.177 c 19.963,-23.804 111.386,-41.599 111.386,-41.599 0,0 11.157,-31.14 25.89,-42.37 z"
             fill="url(#j)"
             id="path887"
             style="fill:url(#j)" /><path
             d="m 335.381,121.853 c 0,1.154 0.423,2.176 1.268,3.063 l 6.34,6.659 c 0.846,0.887 1.818,1.332 2.917,1.332 1.098,0 2.071,-0.445 2.916,-1.332 l 59.081,-62.059 c 0.847,-0.888 1.268,-1.91 1.268,-3.063 0,-1.154 -0.423,-2.176 -1.268,-3.063 L 348.823,1.331 C 347.977,0.442 347.006,0 345.905,0 c -1.1,0 -2.071,0.444 -2.916,1.331 l -6.34,6.656 c -0.845,0.887 -1.269,1.909 -1.269,3.064 0,1.153 0.424,2.174 1.269,3.062 l 49.826,52.34 -49.827,52.336 c -0.846,0.888 -1.268,1.91 -1.268,3.064 z"
             fill="url(#a)"
             fill-rule="nonzero"
             opacity="0.455"
             id="path889"
             style="fill:url(#linearGradient2444)" /><path
             d="m 345.508,254.29 c 0,31.914 -24.589,57.786 -54.923,57.786 -30.333,0 -54.922,-25.872 -54.922,-57.785 0,-31.913 24.589,-57.785 54.922,-57.785 30.334,0 54.923,25.872 54.923,57.785"
             stroke="url(#k)"
             stroke-width="4.33"
             fill="#24385a"
             id="path891"
             style="stroke:url(#k)" /><path
             d="m 345.508,254.29 c 0,31.914 -24.589,57.786 -54.923,57.786 -30.333,0 -54.922,-25.872 -54.922,-57.785 0,-31.913 24.589,-57.785 54.922,-57.785 30.334,0 54.923,25.872 54.923,57.785"
             stroke="url(#l)"
             stroke-width="4.33"
             fill-opacity="0.152"
             fill="#000000"
             id="path893"
             style="stroke:url(#l)" /><g
             fill-rule="nonzero"
             id="g899"><use
               fill="#000000"
               filter="url(#m)"
               xlink:href="#n"
               id="use895" /><use
               fill="url(#o)"
               xlink:href="#n"
               id="use897"
               style="fill:url(#o)" /></g><path
             d="m 286.869,236.698 c 0,0 -4.982,0.582 -8.293,4.393 -1.787,2.058 -3.09,5.054 -2.858,9.41 0.154,2.94 1.561,5.455 3.656,7.4 1.782,1.649 4.062,2.886 6.5,3.623 5.057,1.526 10.793,0.896 14.18,-2.687 1.183,-1.254 2.082,-2.87 2.56,-4.886 0.558,-2.352 0.794,-4.463 0.744,-6.337 -0.093,-3.51 -1.183,-6.185 -3.016,-8.056 -1.981,-2.02 -4.828,-3.098 -8.22,-3.261 a 19.91,19.91 0 0 0 -0.92,-0.021 23.7,23.7 0 0 0 -4.333,0.422"
             fill="url(#p)"
             id="path901"
             style="fill:url(#p)" /><g
             fill-rule="nonzero"
             id="g907"><use
               fill="#000000"
               filter="url(#q)"
               xlink:href="#r"
               id="use903" /><use
               fill="url(#s)"
               xlink:href="#r"
               id="use905"
               style="fill:url(#s)" /></g><path
             d="m 348.045,426.203 c -9.571,4.077 -20.421,3.388 -29.771,-1.89 -4,-2.258 -5.657,-7.562 -3.701,-11.847 1.953,-4.284 6.778,-5.926 10.78,-3.67 5.16,2.914 11.147,3.297 16.423,1.05 5.276,-2.248 9.331,-6.907 11.123,-12.784 1.389,-4.552 5.944,-6.906 10.172,-5.255 4.23,1.65 6.532,6.68 5.143,11.232 -3.247,10.644 -10.598,19.087 -20.17,23.164 z"
             fill="#1c2737"
             fill-rule="nonzero"
             id="path909" /><mask
             id="u"
             fill="#ffffff"><use
               xlink:href="#t"
               id="use911" /></mask><path
             d="m 244.366,342.233 c 0,0 -6.69,-10.351 -13.411,-13.223 -2.02,-0.862 -4.042,-1.05 -5.887,-0.08 -2.472,1.302 -3.03,4.413 -2.624,8.09 0.908,8.201 6.617,19.215 6.617,19.215 a 37.805,37.805 0 0 1 3.564,-2.952 c 10.22,-7.487 23.65,-10.078 28.515,-10.807 1.183,-0.176 1.859,-0.243 1.859,-0.243 0,0 -0.655,-2.066 -2.081,-4.67 -0.817,-1.496 -1.886,-3.165 -3.231,-4.722 -1.599,-1.855 -3.587,-3.552 -6,-4.61 -0.727,-0.32 -1.382,-0.463 -1.971,-0.464 -5.9,0 -5.35,14.466 -5.35,14.466"
             mask="url(#u)"
             id="path914" /><mask
             id="w"
             fill="#ffffff"><use
               xlink:href="#v"
               id="use916" /></mask><path
             d="m 345.673,332.785 c -2.475,0.883 -4.568,2.436 -6.283,4.172 a 26.537,26.537 0 0 0 -2.996,3.672 c -1.948,2.857 -2.909,5.32 -2.909,5.32 0,0 0.67,0.115 1.84,0.375 4.488,1.002 16.325,4.159 25.782,11.247 a 39.989,39.989 0 0 1 5.338,4.765 c 0,0 6.782,-11.205 7.95,-19.4 0.392,-2.767 0.146,-5.192 -1.218,-6.725 -2.467,-2.773 -6.52,-1.619 -9.272,-0.067 -6.093,3.434 -11.83,11.132 -11.83,11.132 0,0 1.524,-14.821 -4.672,-14.821 -0.52,0 -1.095,0.104 -1.73,0.33"
             mask="url(#w)"
             id="path919" /></g></g><ellipse
         fill="url(#y)"
         opacity="0.73"
         transform="rotate(-93)"
         cx="-156.01624"
         cy="76.705833"
         rx="19.84375"
         ry="9.921875"
         id="ellipse927"
         style="mix-blend-mode:luminosity;fill:url(#y);fill-rule:evenodd;stroke-width:0.264583" /><g
         filter="url(#z)"
         transform="matrix(0.25880155,-0.05500997,-0.05500997,-0.25880155,-72.210753,290.64895)"
         id="g933"
         style="mix-blend-mode:luminosity;fill:none;fill-rule:evenodd"><rect
           fill="url(#A)"
           width="237.241"
           height="224.705"
           rx="64.480003"
           id="rect929"
           x="0"
           y="0"
           style="fill:url(#A)" /><path
           d="M 90.32,57.762 C 79.908,51.79 71.466,56.682 71.466,68.679 v 88.533 c 0,12.01 8.442,16.895 18.854,10.93 l 77.4,-44.38 c 10.416,-5.973 10.416,-15.65 0,-21.623 z"
           fill="url(#B)"
           transform="matrix(1,0,0,-1,0,225.9)"
           id="path931"
           style="fill:url(#B)" /></g><g
         transform="matrix(0.26357651,0.02305996,-0.02305996,0.26357651,-39.276988,123.4276)"
         id="g1087"
         style="mix-blend-mode:luminosity;fill:none;fill-rule:evenodd"><ellipse
           fill="#002561"
           opacity="0.469"
           style="mix-blend-mode:hard-light"
           filter="url(#C)"
           cx="310.42001"
           cy="628.41498"
           rx="197.537"
           ry="58.855"
           id="ellipse935" /><g
           transform="translate(424.824,555.485)"
           id="g941"><ellipse
             fill="#1b283e"
             cx="9.6529999"
             cy="9.6059999"
             rx="9.6529999"
             ry="9.6059999"
             id="ellipse937" /><ellipse
             fill="url(#D)"
             cx="9.6529999"
             cy="9.6059999"
             rx="6.4349999"
             ry="6.4039998"
             id="ellipse939"
             style="fill:url(#linearGradient2446)" /></g><path
           stroke="url(#E)"
           stroke-width="3.181"
           stroke-linecap="round"
           stroke-linejoin="round"
           d="M 0,10.406 H 117.349"
           transform="translate(424.824,498.65)"
           id="path943"
           style="stroke:url(#E)" /><g
           transform="translate(0,498.65)"
           id="g967"><g
             transform="translate(205.926)"
             fill="#1b283e"
             id="g959"><rect
               x="33.785"
               width="3.2179999"
               height="67.239998"
               rx="1.609"
               id="rect945"
               y="0" /><rect
               x="11.262"
               width="3.2179999"
               height="67.239998"
               rx="1.609"
               id="rect947"
               y="0" /><rect
               x="56.307999"
               width="3.2179999"
               height="67.239998"
               rx="1.609"
               id="rect949"
               y="0" /><rect
               width="3.2179999"
               height="67.239998"
               rx="1.609"
               id="rect951"
               x="0"
               y="0" /><rect
               x="45.046001"
               width="3.2179999"
               height="67.239998"
               rx="1.609"
               id="rect953"
               y="0" /><rect
               x="22.523001"
               width="3.2179999"
               height="67.239998"
               rx="1.609"
               id="rect955"
               y="0" /><rect
               x="67.57"
               width="3.2179999"
               height="67.239998"
               rx="1.609"
               id="rect957"
               y="0" /></g><ellipse
             fill="url(#F)"
             cx="135.944"
             cy="9.6059999"
             rx="4.0219998"
             ry="4.0019999"
             id="ellipse961"
             style="fill:url(#linearGradient2448)" /><ellipse
             fill="url(#F)"
             cx="148.814"
             cy="9.6059999"
             rx="4.0219998"
             ry="4.0019999"
             id="ellipse963"
             style="fill:url(#linearGradient2450)" /><ellipse
             fill="url(#F)"
             cx="161.68401"
             cy="9.6059999"
             rx="4.0219998"
             ry="4.0019999"
             id="ellipse965"
             style="fill:url(#linearGradient2452)" /></g><ellipse
           fill="#002561"
           opacity="0.469"
           style="mix-blend-mode:hard-light"
           filter="url(#G)"
           cx="538.04303"
           cy="547.92999"
           rx="65.357002"
           ry="68.791"
           id="ellipse969" /><path
           d="m 122.77,331.196 400.845,-0.93 c 23.78,-0.054 43.104,19.18 43.159,42.96 a 43.059,43.059 0 0 1 -0.336,5.466 l -25.515,203.134 c -5.403,43.02 -41.946,75.313 -85.303,75.385 l -260.197,0.433 c -42.795,0.071 -79.15,-31.294 -85.352,-73.638 L 80.265,380.494 C 76.819,356.964 93.1,335.096 116.629,331.65 a 43.059,43.059 0 0 1 6.14,-0.454 z"
           fill="#002b73"
           id="path971" /><path
           d="m 111.183,331.379 424.435,-7.367 c 23.777,-0.412 43.387,18.528 43.8,42.306 a 43.059,43.059 0 0 1 -0.59,7.887 l -28.232,167.902 c -6.868,40.841 -41.834,71.01 -83.24,71.821 l -276.958,5.42 c -41.47,0.812 -77.628,-28.054 -86.021,-68.675 L 69.762,383.143 c -4.812,-23.288 10.166,-46.068 33.455,-50.88 a 43.059,43.059 0 0 1 7.966,-0.884 z"
           fill="url(#H)"
           transform="rotate(1,323.336,471.931)"
           id="path973"
           style="fill:url(#H)" /><g
           transform="rotate(1,-21990.1,31032.607)"
           id="g985"><ellipse
             fill="url(#I)"
             opacity="0.899"
             filter="url(#J)"
             transform="rotate(-81,32.59,32.48)"
             cx="32.59"
             cy="32.479"
             rx="28.370001"
             ry="28.503"
             id="ellipse975"
             style="fill:url(#radialGradient2454)" /><path
             d="m 52.78,32.547 c 42.21,8.714 10.575,44.708 10.6,81.58 0.022,32.674 -24.12,49.622 -49.762,45.725"
             stroke="#08409e"
             stroke-width="12.683"
             id="path977" /><g
             transform="matrix(-0.1391731,0.99026807,0.99026807,0.1391731,31.675972,12.855037)"
             id="g983"><rect
               fill="#002b74"
               x="7.6360002"
               y="7.092"
               width="20.361"
               height="21.275"
               rx="10.181"
               id="rect979" /><rect
               fill="url(#K)"
               width="35.632"
               height="14.184"
               rx="7.092"
               id="rect981"
               x="0"
               y="0"
               style="fill:url(#linearGradient2456)" /></g></g><g
           transform="matrix(-0.9998477,0.01745241,0.01745241,0.9998477,119.15513,385.57181)"
           id="g997"><ellipse
             fill="url(#I)"
             opacity="0.899"
             filter="url(#L)"
             transform="rotate(-81,32.59,32.48)"
             cx="32.59"
             cy="32.479"
             rx="28.370001"
             ry="28.503"
             id="ellipse987"
             style="fill:url(#radialGradient2458)" /><path
             d="m 52.779,32.547 c 42.21,8.714 10.576,44.708 10.601,81.58 0.022,32.674 -18.855,47.621 -44.498,43.723"
             stroke="#08409e"
             stroke-width="12.683"
             id="path989" /><g
             transform="matrix(-0.1391731,0.99026807,0.99026807,0.1391731,31.675972,12.855037)"
             id="g995"><rect
               fill="#002b74"
               x="7.6360002"
               y="7.092"
               width="20.361"
               height="21.275"
               rx="10.181"
               id="rect991" /><rect
               fill="url(#K)"
               width="35.632"
               height="14.184"
               rx="7.092"
               id="rect993"
               x="0"
               y="0"
               style="fill:url(#linearGradient2460)" /></g></g><path
           d="m 200.425,471.508 247.234,0.023 a 6.587,6.587 0 0 1 0,13.172 l -125.583,-0.012 -121.65,-0.011 a 6.587,6.587 0 0 1 -10e-4,-13.172 z"
           fill="#002b73"
           id="path999" /><path
           d="m 200.428,495.622 247.233,0.023 a 6.587,6.587 0 0 1 0,13.172 l -125.583,-0.012 -121.65,-0.011 a 6.587,6.587 0 0 1 -0.001,-13.172 z"
           fill="url(#M)"
           id="path1001"
           style="fill:url(#M)" /><path
           d="m 203.895,519.736 247.234,0.023 a 6.587,6.587 0 0 1 0,13.173 l -125.583,-0.012 -121.65,-0.012 a 6.587,6.587 0 0 1 -10e-4,-13.172 z m 0.003,24.114 247.233,0.023 a 6.587,6.587 0 0 1 0,13.173 l -125.583,-0.012 -121.65,-0.012 a 6.587,6.587 0 0 1 -0.001,-13.172 z"
           fill="#002b73"
           id="path1003" /><path
           d="m 106.673,330.058 441.034,-5.71 c 17.91,-0.232 32.617,14.1 32.85,32.01 a 32.432,32.432 0 0 1 -4.094,16.196 l -2.983,5.357 a 86.118,86.118 0 0 1 -74.127,44.219 l -341.176,4.417 A 86.118,86.118 0 0 1 83.63,385.426 l -3.946,-6.44 C 70.411,363.85 75.164,344.063 90.299,334.79 a 32.14,32.14 0 0 1 16.374,-4.732 z"
           fill="url(#N)"
           opacity="0.504"
           transform="rotate(1,326.931,375.402)"
           id="path1005"
           style="fill:url(#N)" /><path
           d="m 288.083,331.572 84.735,0.007 a 43.059,43.059 0 0 1 31.51,13.717 l 12.859,13.811 c 6.16,6.616 5.79,16.974 -0.826,23.134 a 16.368,16.368 0 0 1 -11.155,4.389 l -149.512,-0.014 c -9.041,0 -16.37,-7.33 -16.369,-16.372 a 16.37,16.37 0 0 1 4.39,-11.153 l 12.85,-13.802 a 43.059,43.059 0 0 1 31.518,-13.717 z"
           fill="#111a28"
           id="path1007" /><path
           d="m 106.673,330.058 441.034,-5.71 c 17.91,-0.232 32.617,14.1 32.85,32.01 a 32.432,32.432 0 0 1 -4.094,16.196 l -2.983,5.357 a 86.118,86.118 0 0 1 -74.127,44.219 l -341.176,4.417 A 86.118,86.118 0 0 1 83.63,385.426 l -3.946,-6.44 C 70.411,363.85 75.164,344.063 90.299,334.79 a 32.14,32.14 0 0 1 16.374,-4.732 z"
           fill="url(#O)"
           opacity="0.504"
           transform="rotate(1,326.931,375.402)"
           id="path1009"
           style="fill:url(#O)" /><path
           d="m 295.459,233.362 h 74.301 c 18.497,0 33.49,14.994 33.49,33.49 v 82.597 c 0,10.57 -8.567,19.138 -19.137,19.138 H 281.106 c -10.57,0 -19.138,-8.569 -19.138,-19.138 v -82.597 c 0,-18.496 14.994,-33.49 33.49,-33.49 z"
           fill="url(#P)"
           id="path1011"
           style="fill:url(#P)" /><ellipse
           fill="#1e55b1"
           cx="331.09698"
           cy="303.86801"
           rx="49.884998"
           ry="49.641998"
           id="ellipse1013" /><ellipse
           fill="url(#Q)"
           opacity="0.65"
           filter="url(#R)"
           cx="325.69601"
           cy="248.071"
           rx="92.643997"
           ry="21.275"
           id="ellipse1015"
           style="fill:url(#Q)" /><g
           transform="translate(268.186,238.525)"
           id="g1029"><ellipse
             fill="#328af1"
             opacity="0.193"
             filter="url(#S)"
             cx="64.138"
             cy="63.826"
             rx="64.138"
             ry="63.826"
             id="ellipse1017" /><ellipse
             fill="url(#T)"
             transform="matrix(0.99756405,-0.06975647,-0.06975647,-0.99756405,4.7849945,137.02432)"
             cx="61.363998"
             cy="66.453003"
             rx="34.206001"
             ry="34.041"
             id="ellipse1019"
             style="fill:url(#T)" /><g
             transform="translate(40.07,43.996)"
             style="mix-blend-mode:luminosity"
             id="g1025"><use
               fill="#000000"
               filter="url(#U)"
               xlink:href="#V"
               id="use1021" /><use
               fill="url(#W)"
               xlink:href="#V"
               id="use1023"
               style="fill:url(#W)" /></g><path
             d="M 32.472,68.664 A 30.156,30.156 0 0 0 45.186,90.274 30.139,30.139 0 0 1 39.98,76.209 C 38.24,59.64 50.194,44.804 66.68,43.07 a 29.817,29.817 0 0 1 20.293,5.253 C 80.92,39.589 70.446,34.341 59.173,35.526 42.683,37.259 30.73,52.096 32.472,68.663 Z"
             fill-opacity="0.547"
             fill="#ffffff"
             style="mix-blend-mode:lighten"
             opacity="0.5"
             id="path1027" /></g><g
           transform="rotate(-1,448.973,-7561.037)"
           id="g1085"><path
             d="m 115.285,0 h 155.502 c 38.246,0 69.25,31.005 69.25,69.251 v 162.227 c 0,45.896 -37.205,83.102 -83.1,83.102 H 129.134 c -45.895,0 -83.1,-37.206 -83.1,-83.102 V 69.251 C 46.034,31.005 77.038,0 115.284,0 Z"
             fill="url(#X)"
             id="path1031"
             style="fill:url(#X)" /><ellipse
             fill="#013a99"
             cx="107.233"
             cy="26.913"
             rx="9.2589998"
             ry="9.3610001"
             id="ellipse1033" /><path
             d="m 47.012,194.42 c 0,45.896 37.205,83.102 83.1,83.102 h 126.821 c 45.896,0 83.102,-37.206 83.102,-83.101 v 37.396 c 0,45.896 -37.206,83.101 -83.102,83.101 h -126.82 c -45.896,0 -83.101,-37.205 -83.101,-83.1 z"
             fill="#1349a4"
             opacity="0.189"
             id="path1035" /><g
             transform="translate(74.89,46.806)"
             id="g1057"><mask
               id="ab"
               fill="#ffffff"><use
                 xlink:href="#Y"
                 id="use1037" /></mask><use
               fill="url(#Z)"
               xlink:href="#Y"
               id="use1040"
               style="fill:url(#Z)" /><path
               d="M 92.84,25.364 C 79.188,17.437 68.12,23.931 68.12,39.858 v 117.536 c 0,15.943 11.068,22.43 24.72,14.51 l 101.482,-58.917 c 13.657,-7.93 13.657,-20.779 0,-28.708 z"
               fill="url(#aa)"
               fill-rule="nonzero"
               mask="url(#ab)"
               id="path1042"
               style="fill:url(#aa)" /><g
               opacity="0.7"
               mask="url(#ab)"
               transform="rotate(-15,170.867,172.41)"
               id="g1048"><use
                 fill="#000000"
                 filter="url(#ac)"
                 xlink:href="#ad"
                 id="use1044" /><use
                 fill="url(#ae)"
                 xlink:href="#ad"
                 id="use1046"
                 style="fill:url(#ae)" /></g><mask
               id="ai"
               fill="#ffffff"><use
                 xlink:href="#af"
                 id="use1050" /></mask><path
               stroke="url(#ag)"
               stroke-width="5.033"
               d="m 206.132,2.517 c 8.23,0 15.68,3.335 21.072,8.728 5.393,5.393 8.729,12.843 8.729,21.072 v 138.448 a 29.768,29.768 0 0 1 -5.185,16.798 29.767,29.767 0 0 1 -13.75,10.952 c -20.412,7.993 -51.647,11.934 -93.677,11.934 -44.567,0 -78.487,-4.44 -101.738,-13.418 A 29.767,29.767 0 0 1 7.741,186.086 29.768,29.768 0 0 1 2.517,169.231 V 32.317 c 0,-8.23 3.335,-15.68 8.728,-21.072 5.393,-5.393 12.843,-8.728 21.072,-8.728 z"
               id="path1053"
               style="stroke:url(#ag)" /><ellipse
               fill="url(#ah)"
               opacity="0.527"
               mask="url(#ai)"
               cx="0.78399998"
               cy="13.823"
               rx="110.163"
               ry="111.335"
               id="ellipse1055"
               style="fill:url(#ah)" /></g><path
             d="m 224.521,33.232 h -7.439 c -2.036,0 -3.687,-1.677 -3.687,-3.745 0,-2.068 1.65,-3.744 3.687,-3.744 h 7.44 c 2.036,0 3.687,1.676 3.687,3.744 0,2.068 -1.651,3.745 -3.688,3.745 z M 238.41,22.935 h -7.439 c -2.037,0 -3.688,-1.677 -3.688,-3.745 0,-2.068 1.651,-3.744 3.688,-3.744 h 7.439 c 2.037,0 3.688,1.676 3.688,3.744 0,2.068 -1.651,3.745 -3.688,3.745 z m 37.955,10.297 h -40.74 c -2.05,0 -3.712,-1.677 -3.712,-3.745 0,-2.068 1.662,-3.744 3.712,-3.744 h 40.722 c 2.05,0 3.713,1.676 3.713,3.744 0,2.068 -1.662,3.745 -3.713,3.745 z M 290.09,22.935 h -40.43 c -2.131,0 -3.859,-1.677 -3.859,-3.745 0,-2.068 1.728,-3.744 3.859,-3.744 h 40.43 c 2.13,0 3.858,1.676 3.858,3.744 0,2.068 -1.727,3.745 -3.858,3.745 z"
             fill="#013a99"
             id="path1059" /><ellipse
             fill="url(#aj)"
             opacity="0.882"
             transform="rotate(-1,102.97,197.664)"
             cx="102.97"
             cy="197.664"
             rx="48.091999"
             ry="25.736"
             id="ellipse1061"
             style="fill:url(#radialGradient2462)" /><ellipse
             fill="url(#aj)"
             opacity="0.882"
             transform="rotate(-1,285.747,200.184)"
             cx="285.74701"
             cy="200.18401"
             rx="48.091999"
             ry="25.736"
             id="ellipse1063"
             style="fill:url(#radialGradient2464)" /><g
             transform="rotate(-4,1024.258,-418.557)"
             id="g1072"><mask
               id="al"
               fill="#ffffff"><use
                 xlink:href="#ak"
                 id="use1065" /></mask><use
               fill="#5d95f3"
               opacity="0.398"
               xlink:href="#ak"
               id="use1068" /><path
               d="M 69.455,-4.932 15.864,100.665 c 3.71,6.818 9.116,12.536 16.214,17.156 7.099,4.62 14.796,7.65 23.092,9.09 L 111.337,8.601 C 102.823,3.229 96.222,-0.234 91.535,-1.786 86.848,-3.338 79.488,-4.386 69.455,-4.932 Z"
               fill="#5d95f3"
               opacity="0.398"
               mask="url(#al)"
               id="path1070" /></g><g
             transform="rotate(-4,1029.224,-2926.654)"
             id="g1081"><mask
               id="an"
               fill="#ffffff"><use
                 xlink:href="#am"
                 id="use1074" /></mask><use
               fill="#5d95f3"
               opacity="0.398"
               xlink:href="#am"
               id="use1077" /><path
               d="m 64.538,8.334 -51.494,99.09 c 3.711,6.818 9.116,12.536 16.214,17.156 7.099,4.62 14.796,7.65 23.092,9.091 L 106.42,21.867 C 97.906,16.495 91.305,13.033 86.618,11.481 81.931,9.929 74.571,8.88 64.538,8.334 Z"
               fill="#5d95f3"
               opacity="0.398"
               mask="url(#an)"
               id="path1079" /></g><path
             d="m 279.023,192.723 c -34.925,-0.61 -62.748,-29.08 -62.145,-63.593 0.602,-34.51 29.402,-61.993 64.327,-61.384 34.924,0.61 62.748,29.081 62.145,63.592 -0.602,34.512 -29.403,61.995 -64.327,61.385 z M 102.444,189.641 C 67.52,189.031 39.697,160.561 40.3,126.048 c 0.602,-34.51 29.402,-61.994 64.326,-61.384 34.926,0.61 62.748,29.081 62.145,63.592 -0.602,34.512 -29.4,61.995 -64.327,61.385 z M 326.618,74.415 c -13.172,-8.86 -30.203,-16.25 -45.241,-16.512 -20.26,-0.353 -38.736,7.461 -52.22,20.372 -6.52,5.812 -12.163,12.203 -17.994,18.458 -7.384,7.928 -11.602,3.901 -18.846,3.775 -7.244,-0.127 -11.6,3.75 -18.704,-4.43 C 168.006,89.622 162.586,83.039 156.273,77.002 143.249,63.629 124.835,55.171 104.575,54.817 89.536,54.555 74.589,58.784 63.498,66.278 a 670.213,670.213 0 0 0 -4.615,3.464 C 52.8,74.098 42.373,81.72 36.985,87.65 28.982,96.46 11.819,96.758 11.819,96.758 l -0.323,18.494 c 0,0 10.276,-0.419 13.528,3.518 1.922,2.32 3.845,13.376 7.097,24.965 0.98,4.127 2.41,8.112 4.074,11.935 1.551,3.799 3.38,7.325 5.49,10.23 l 0.021,-0.02 c 12.754,19.826 35.014,33.156 60.557,33.602 29.66,0.518 55.488,-16.48 67.427,-41.338 l 0.058,-0.07 0.176,-0.277 c 5.408,-8.72 11.12,-32.764 13.577,-36.56 2.482,-3.836 8.524,-4.029 8.524,-4.029 0,0 6.032,0.404 8.378,4.325 2.323,3.879 7.192,28.107 12.292,37.011 l 0.166,0.282 0.052,0.072 c 11.064,25.26 36.279,43.149 65.939,43.666 25.543,0.446 48.244,-12.099 61.68,-31.467 l 0.005,0.02 c 2.21,-2.83 4.121,-6.29 5.803,-10.032 a 71.188,71.188 0 0 0 4.415,-11.788 c 3.652,-11.468 5.785,-22.453 7.783,-24.706 3.39,-3.82 13.314,-3.049 13.314,-3.049 l 0.323,-18.494 c 0,0 -16.867,-0.891 -24.56,-9.976 -5.175,-6.115 -15.07,-14.092 -20.997,-18.658 z"
             stroke="#002b74"
             stroke-width="5.033"
             fill="#002b74"
             id="path1083" /></g></g><g
         aria-label="digital"
         id="text3988"
         style="font-size:62.0886px;font-family:'Franklin Gothic Heavy';-inkscape-font-specification:'Franklin Gothic Heavy, Normal';fill:url(#linearGradient4046);stroke-width:0.53872"
         transform="matrix(0.70179182,0,0,0.70179182,302.68482,-39.238124)"><path
           d="m -479.29405,270.07507 h -11.33845 v -4.09275 q -2.51628,4.7294 -8.30677,4.7294 -5.33574,0 -8.67058,-4.15338 -3.30452,-4.18371 -3.30452,-12.12668 0,-7.42759 3.33484,-11.7932 3.33484,-4.3656 8.82216,-4.3656 4.57782,0 7.54886,3.48642 v -13.0665 h 11.91446 z m -11.91446,-19.82712 q 0,-4.15339 -3.42579,-4.15339 -2.39502,0 -3.15294,2.63756 -0.7276,2.63755 -0.7276,6.45745 0,7.48823 3.81991,7.48823 1.4552,0 2.45565,-1.18235 1.03077,-1.18235 1.03077,-3.60769 z"
           style="fill:url(#linearGradient4121);stroke-width:0.538721"
           id="path4092" /><path
           d="m -460.83118,227.38916 v 9.58008 h -12.09636 v -9.58008 z m 0,11.85383 v 30.83208 h -12.09636 v -30.83208 z"
           style="fill:url(#linearGradient4123);stroke-width:0.538721"
           id="path4094" /><path
           d="m -422.32897,232.23983 -0.30317,8.27646 -0.57602,-0.0303 q -1.6371,-0.091 -2.33438,-0.091 -2.81945,0 -3.39547,1.12172 3.4561,2.84977 3.4561,6.88189 0,4.72941 -3.75927,7.12443 -3.72895,2.3647 -10.15609,2.3647 -0.15159,0 -1.57647,-0.0606 -1.33394,-0.0606 -1.39457,-0.0606 -2.94072,0 -2.94072,1.51584 0,1.33393 2.60724,1.42488 l 9.91356,0.42444 q 5.42669,0.24253 7.94297,3.03167 2.54661,2.78913 2.54661,6.51809 0,4.42624 -3.78959,7.21537 -3.75927,2.81945 -14.67328,2.81945 -16.82577,0 -16.82577,-7.73075 0,-4.21402 4.45655,-5.88144 -2.88008,-2.03122 -2.88008,-4.82036 0,-4.5475 5.91175,-6.85157 -4.94162,-2.15249 -4.94162,-7.15474 0,-4.57783 4.0018,-7.12443 4.00181,-2.5466 10.97465,-2.5466 3.18325,0 5.79049,0.63665 1.06108,-7.24569 7.67012,-7.24569 1.51584,0 4.27466,0.24253 z m -17.70495,19.91807 q 3.51673,0 3.51673,-3.72895 0,-3.8199 -3.60768,-3.8199 -3.57737,0 -3.57737,3.88053 0,3.66832 3.66832,3.66832 z m -3.09231,17.52306 q -0.66696,-0.0303 -1.33393,-0.0303 -3.12262,0 -3.12262,1.94027 0,1.78868 2.3647,2.30407 2.39502,0.51538 6.36651,0.51538 3.75927,0 4.82035,-0.63665 1.0914,-0.63665 1.0914,-1.75837 0,-0.78823 -0.48506,-1.33393 -0.48507,-0.51539 -2.30407,-0.60634 z"
           style="fill:url(#linearGradient4125);stroke-width:0.538721"
           id="path4096" /><path
           d="m -407.61214,272.32887 c -0.12952,6.63659 -9.74875,6.98889 -10.07981,-0.11862 -0.026,-8.23596 9.96119,-8.11733 10.07981,0.11862 z"
           style="fill:url(#linearGradient4127);stroke-width:0.538721"
           id="path4098"
           inkscape:transform-center-y="-13.926772"
           sodipodi:nodetypes="ccc" /><text
           xml:space="preserve"
           style="font-style:normal;font-variant:normal;font-weight:normal;font-stretch:normal;font-size:32.4315px;font-family:'Franklin Gothic Heavy';-inkscape-font-specification:'Franklin Gothic Heavy, Normal';font-variant-ligatures:normal;font-variant-caps:normal;font-variant-numeric:normal;font-variant-east-asian:normal;fill:#4e94fc;fill-opacity:1;stroke-width:0.338358;stroke-dasharray:none"
           x="-367.0762"
           y="242.01266"
           id="text6188"><tspan
             sodipodi:role="line"
             id="tspan6190"
             x="-367.0762"
             y="242.01266"></tspan></text></g><g
         aria-label="Bule Hora"
         id="text9419"
         style="font-size:38.9977px;font-family:'Franklin Gothic Heavy';-inkscape-font-specification:'Franklin Gothic Heavy, Normal';fill:#ffffff;stroke-width:0.406865"
         transform="translate(-6.306463,-23.123697)"><path
           d="M -29.179291,85.954193 V 59.962074 h 13.195999 q 4.113039,0 5.9981814,2.075561 1.8851427,2.075561 1.8851427,4.74142 0,1.942268 -1.104427,3.522741 -1.0853851,1.561431 -3.2561561,2.151729 5.0460896,1.218678 5.0460896,6.055306 0,2.894361 -1.7899335,5.179382 -1.7708921,2.26598 -7.5976961,2.26598 z m 7.350152,-16.033234 h 3.694119 q 1.390054,0 1.96131,-0.704548 0.571255,-0.704548 0.571255,-1.504306 0,-2.17077 -2.665858,-2.17077 h -3.560826 z m 0,10.244513 h 3.884537 q 1.44718,0 2.113645,-0.704548 0.685506,-0.72359 0.685506,-1.618557 0,-0.894967 -0.666464,-1.637599 -0.647423,-0.761674 -2.399273,-0.761674 h -3.617951 z"
           style="stroke-width:0.406866"
           id="path9772" /><path
           d="M 14.445577,66.588636 V 85.954193 H 7.4191362 v -3.179988 q -1.5423895,3.579867 -6.0172232,3.579867 -2.7610676,0 -4.2844153,-1.523348 -1.5043058,-1.542389 -1.5043058,-4.398666 V 66.588636 h 7.5976964 v 12.186781 q 0,1.142511 0.3046695,1.618557 0.3237114,0.457005 1.23772,0.457005 0.9711341,0 1.5804732,-0.685507 0.609339,-0.704548 0.609339,-1.96131 V 66.588636 Z"
           style="stroke-width:0.406866"
           id="path9774" /><path
           d="M 25.927812,59.962074 V 85.954193 H 18.444367 V 59.962074 Z"
           style="stroke-width:0.406866"
           id="path9776" /><path
           d="m 42.722718,79.003919 7.083567,0.476047 q -0.628381,2.856276 -3.218072,4.874712 -2.570649,1.999394 -6.969316,1.999394 -4.893754,0 -7.807156,-2.818193 -2.913403,-2.837235 -2.913403,-7.026441 0,-4.341541 2.875319,-7.331111 2.875319,-2.98957 7.673864,-2.98957 4.64621,0 7.502487,2.818194 2.875319,2.818193 2.875319,7.673863 0,0.399879 -0.01904,1.104427 H 36.838788 q 0.03808,1.828018 0.647423,2.722984 0.609339,0.875925 2.323105,0.875925 2.47544,0 2.913402,-2.380231 z M 42.22763,73.976872 q -0.01904,-1.96131 -0.799757,-2.627774 -0.761674,-0.685507 -1.904185,-0.685507 -2.703942,0 -2.703942,3.313281 z"
           style="stroke-width:0.406866"
           id="path9778" /><path
           d="M 84.862324,59.962074 V 85.954193 H 76.88379 V 75.842973 H 70.7904 v 10.11122 H 62.811867 V 59.962074 H 70.7904 v 9.559006 h 6.09339 v -9.559006 z"
           style="stroke-width:0.406866"
           id="path9780"
           sodipodi:nodetypes="ccccccccccccc" /><path
           d="m 98.572455,86.354072 q -4.817587,0 -7.654822,-2.98957 -2.837235,-3.008611 -2.837235,-7.045483 0,-4.341541 2.951487,-7.235901 2.970527,-2.894361 7.711947,-2.894361 4.779508,0 7.673868,2.856277 2.9134,2.856277 2.9134,7.159734 0,4.341541 -2.95149,7.254943 -2.93244,2.894361 -7.807155,2.894361 z m 0.114251,-4.608127 q 1.770894,0 2.151734,-1.828017 0.39987,-1.847059 0.39987,-3.846453 0,-2.722984 -0.55221,-3.92262 -0.55221,-1.199636 -1.980352,-1.199636 -1.313887,0 -1.923226,1.23772 -0.609339,1.23772 -0.609339,4.074955 0,3.332323 0.628381,4.417708 0.628381,1.066343 1.885142,1.066343 z"
           style="stroke-width:0.406866"
           id="path9782" /><path
           d="m 119.55656,85.954193 h -7.27398 V 66.588636 h 6.32189 v 3.998788 q 1.08539,-4.360583 5.04609,-4.360583 0.39988,0 1.10443,0.07617 v 6.759856 q -0.79976,-0.190419 -1.42814,-0.190419 -3.77029,0 -3.77029,4.208248 z"
           style="stroke-width:0.406866"
           id="path9784" /><path
           d="m 146.67216,85.954193 h -7.2359 q -0.26659,-1.23772 -0.26659,-2.703942 -2.05652,3.103821 -6.22668,3.103821 -3.42753,0 -5.1413,-1.75185 -1.69472,-1.75185 -1.69472,-4.017829 0,-3.065737 2.7801,-4.95088 2.79916,-1.904185 9.90176,-2.285022 v -0.437962 q 0,-1.275804 -0.59029,-1.694724 -0.57126,-0.418921 -1.69473,-0.418921 -2.62777,0 -2.93244,2.113645 l -6.93123,-0.647423 q 1.48526,-6.074349 10.11122,-6.074349 2.34214,0 4.30345,0.476047 1.96131,0.457004 3.10382,1.44718 1.14252,0.990176 1.52335,2.094603 0.39988,1.104427 0.39988,4.246331 v 7.73099 q 0,2.208854 0.5903,3.770285 z m -7.88333,-9.063918 q -4.85567,0.514129 -4.85567,3.10382 0,1.75185 1.92323,1.75185 1.21868,0 2.07556,-0.72359 0.85688,-0.72359 0.85688,-3.19903 z"
           style="stroke-width:0.406866"
           id="path9786" /></g><g
         aria-label="University"
         id="text9419-1"
         style="font-size:31.1406px;font-family:'Franklin Gothic Heavy';-inkscape-font-specification:'Franklin Gothic Heavy, Normal';fill:url(#linearGradient9670);stroke-width:0.32489"
         transform="translate(-6.306463,-18.919388)"><path
           d="m 66.245434,92.390977 v 13.745653 q 0,3.90778 -2.326422,5.62599 -2.311216,1.703 -6.036532,1.703 -3.922986,0 -6.310229,-1.64218 -2.372038,-1.64218 -2.372038,-5.35229 V 92.390977 h 6.477488 v 13.335113 q 0,1.49012 0.62342,2.17437 0.638626,0.68424 2.022315,0.68424 1.155608,0 1.885466,-0.48657 0.745063,-0.50178 0.881911,-1.1252 0.152054,-0.62342 0.152054,-2.43286 V 92.390977 Z"
           style="fill:url(#linearGradient19131);stroke-width:0.324891"
           id="path9811" /><path
           d="m 84.811192,113.14631 h -6.066943 v -9.73144 q 0,-1.20122 -0.380135,-1.53574 -0.364929,-0.33452 -0.927527,-0.33452 -1.657386,0 -1.657386,2.31122 v 9.29048 H 69.712258 V 97.682446 h 5.625987 v 2.189574 q 1.246841,-2.508886 4.455174,-2.508886 1.687796,0 2.843405,0.653831 1.170813,0.638625 1.67259,1.67259 0.501778,1.018765 0.501778,3.558055 z"
           style="fill:url(#linearGradient19133);stroke-width:0.324891"
           id="path9813" /><path
           d="m 94.071264,91.737146 v 4.804898 h -6.066943 v -4.804898 z m 0,5.9453 V 113.14631 H 88.004321 V 97.682446 Z"
           style="fill:url(#linearGradient19135);stroke-width:0.324891"
           id="path9815" /><path
           d="m 111.54224,97.682446 -5.67161,15.463864 h -4.5312 L 95.56139,97.682446 h 6.2342 l 2.20478,6.568724 q 0.2737,0.80588 0.48657,1.59656 0.076,-0.2737 0.22808,-0.69945 0.0304,-0.0608 0.19767,-0.5778 l 2.28081,-6.888034 z"
           style="fill:url(#linearGradient19137);stroke-width:0.324891"
           id="path9817" /><path
           d="m 122.779,107.59635 5.6564,0.38013 q -0.50178,2.28081 -2.56971,3.89258 -2.05272,1.59656 -5.56516,1.59656 -3.90778,0 -6.23421,-2.25039 -2.32642,-2.2656 -2.32642,-5.61079 0,-3.46682 2.29601,-5.854063 2.29601,-2.387243 6.12777,-2.387243 3.71011,0 5.99091,2.250395 2.29601,2.250391 2.29601,6.127761 0,0.31932 -0.0152,0.88191 h -10.35486 q 0.0304,1.45972 0.51698,2.17437 0.48658,0.69945 1.85506,0.69945 1.9767,0 2.32642,-1.90067 z m -0.39534,-4.01422 q -0.0152,-1.56615 -0.63862,-2.09834 -0.60822,-0.54739 -1.52054,-0.54739 -2.15916,0 -2.15916,2.64573 z"
           style="fill:url(#linearGradient19139);stroke-width:0.324891"
           id="path9819" /><path
           d="m 136.63109,113.14631 h -5.80845 V 97.682446 h 5.04819 v 3.193124 q 0.8667,-3.482026 4.02942,-3.482026 0.31931,0 0.88191,0.06082 v 5.397906 q -0.63863,-0.15205 -1.1404,-0.15205 -3.01067,0 -3.01067,3.36039 z"
           style="fill:url(#linearGradient19141);stroke-width:0.324891"
           id="path9821" /><path
           d="m 141.4512,108.76716 4.78969,-0.65383 q 0.41055,1.67259 3.25395,1.67259 2.35683,0 2.35683,-0.91232 0,-0.39534 -0.45616,-0.60822 -0.45616,-0.22808 -2.15916,-0.45616 -4.71367,-0.65383 -5.88448,-2.03752 -1.17081,-1.39889 -1.17081,-3.10189 0,-2.37204 1.97669,-3.831755 1.9767,-1.474921 5.18504,-1.474921 5.62598,0 7.17693,4.059836 l -4.59202,0.8667 q -0.63863,-1.36848 -2.69135,-1.36848 -0.97315,0 -1.45972,0.2737 -0.47136,0.25849 -0.47136,0.51698 0,0.76027 1.45971,0.92753 3.80134,0.42575 5.15462,0.8667 1.35328,0.44096 2.31122,1.61177 0.95794,1.17082 0.95794,2.8282 0,2.5393 -2.12875,4.02943 -2.11355,1.49012 -5.83887,1.49012 -6.27982,0 -7.76994,-4.69846 z"
           style="fill:url(#linearGradient19143);stroke-width:0.324891"
           id="path9823" /><path
           d="m 165.38445,91.737146 v 4.804898 h -6.06694 v -4.804898 z m 0,5.9453 v 15.463864 h -6.06694 V 97.682446 Z"
           style="fill:url(#linearGradient19145);stroke-width:0.324891"
           id="path9825" /><path
           d="m 178.12655,97.682446 v 3.938194 h -3.08669 v 5.70201 q 0,1.17082 0.44096,1.3989 0.44095,0.21287 0.91232,0.21287 0.72986,0 1.73341,-0.25849 v 4.31833 q -1.79423,0.34972 -3.52764,0.34972 -2.79779,0 -4.12066,-1.20123 -1.30766,-1.20122 -1.30766,-3.83175 l 0.0152,-1.80944 v -4.88092 h -2.31121 v -3.938194 h 2.31121 l 0.0912,-5.032977 5.76283,-0.09123 v 5.12421 z"
           style="fill:url(#linearGradient19147);stroke-width:0.324891"
           id="path9827" /><path
           d="m 194.59397,97.682446 -6.06694,16.756324 q -0.69945,1.90067 -2.00711,2.96504 -1.30766,1.07958 -4.02943,1.07958 -0.65383,0 -3.04107,-0.13684 v -4.30312 q 1.18602,0.18246 2.18957,0.18246 2.61533,0 2.61533,-1.15561 0,-0.38013 -0.25849,-1.04917 l -5.54996,-14.338664 h 6.49269 l 2.5545,8.241314 2.67615,-8.241314 z"
           style="fill:url(#linearGradient19149);stroke-width:0.324891"
           id="path9829" /></g></g><g
       aria-label="library"
       id="text6247"
       style="font-size:40.7027px;font-family:'Franklin Gothic Heavy';-inkscape-font-specification:'Franklin Gothic Heavy, Normal';fill:url(#linearGradient7052);fill-opacity:1;stroke-width:0.424652"
       inkscape:groupmode="layer"
       transform="matrix(1.0432079,0,0,1.0432079,-6.0054124,11.886471)"><path
         d="m 81.948803,116.65376 v 27.12851 h -7.810626 v -27.12851 z"
         style="fill:url(#linearGradient7054);fill-opacity:1;stroke-width:0.424654"
         id="path7009" /><path
         d="m 94.052292,115.79917 v 6.28029 H 86.12242 v -6.28029 z m 0,7.77087 v 20.21223 H 86.12242 v -20.21223 z"
         style="fill:url(#linearGradient7056);fill-opacity:1;stroke-width:0.424654"
         id="path7011" /><path
         d="m 102.73739,143.78227 h -4.471734 v -27.12851 h 7.810624 v 9.32108 q 1.6297,-2.82216 5.18721,-2.82216 2.50417,0 4.25312,1.31171 1.74894,1.31171 2.60354,3.75625 0.8546,2.42468 0.8546,5.10772 0,4.88909 -2.18618,7.89012 -2.18618,2.98115 -6.5188,2.98115 -4.27299,0 -6.49891,-3.19977 -0.63598,1.19246 -1.03347,2.78241 z m 3.33889,-7.53238 q 0,2.98115 2.30543,2.98115 1.25208,0 1.90794,-1.07321 0.67573,-1.09309 0.67573,-4.47174 0,-3.67675 -0.75523,-4.61085 -0.75523,-0.95397 -1.86819,-0.95397 -0.87447,0 -1.57008,0.67573 -0.6956,0.67573 -0.6956,1.96756 z"
         style="fill:url(#linearGradient7058);fill-opacity:1;stroke-width:0.424654"
         id="path7013" /><path
         d="m 129.72678,143.78227 h -7.59201 v -20.21223 h 6.59829 v 4.17362 q 1.13284,-4.55123 5.26671,-4.55123 0.41736,0 1.15271,0.0795 v 7.0554 q -0.83472,-0.19875 -1.49058,-0.19875 -3.93512,0 -3.93512,4.39224 z"
         style="fill:url(#linearGradient7060);fill-opacity:1;stroke-width:0.424654"
         id="path7015" /><path
         d="m 158.02788,143.78227 h -7.55226 q -0.27824,-1.29183 -0.27824,-2.82216 -2.14643,3.23952 -6.49892,3.23952 -3.57739,0 -5.36608,-1.82844 -1.76882,-1.82844 -1.76882,-4.19349 0,-3.19977 2.90166,-5.16733 2.92153,-1.98744 10.33467,-2.38493 v -0.45711 q 0,-1.33158 -0.61611,-1.76882 -0.59623,-0.43723 -1.76881,-0.43723 -2.74267,0 -3.06066,2.20605 l -7.23427,-0.67573 q 1.5502,-6.33992 10.55329,-6.33992 2.44455,0 4.49161,0.49686 2.04706,0.47698 3.23952,1.51045 1.19246,1.03347 1.58995,2.18618 0.41736,1.15271 0.41736,4.43199 v 8.06899 q 0,2.30542 0.61611,3.93512 z m -8.22799,-9.4602 q -5.06796,0.53661 -5.06796,3.23953 0,1.82844 2.00731,1.82844 1.27196,0 2.1663,-0.75523 0.89435,-0.75522 0.89435,-3.33889 z"
         style="fill:url(#linearGradient7062);fill-opacity:1;stroke-width:0.424654"
         id="path7017" /><path
         d="m 169.11777,143.78227 h -7.592 v -20.21223 h 6.59829 v 4.17362 q 1.13283,-4.55123 5.2667,-4.55123 0.41736,0 1.15272,0.0795 v 7.0554 q -0.83473,-0.19875 -1.49058,-0.19875 -3.93513,0 -3.93513,4.39224 z"
         style="fill:url(#linearGradient7064);fill-opacity:1;stroke-width:0.424654"
         id="path7019" /><path
         d="m 196.7034,123.57004 -7.92988,21.90155 q -0.91422,2.4843 -2.62341,3.8755 -1.7092,1.41108 -5.26671,1.41108 -0.8546,0 -3.97487,-0.17886 v -5.62445 q 1.5502,0.23849 2.86191,0.23849 3.41839,0 3.41839,-1.51045 0,-0.49686 -0.33787,-1.37133 l -7.25414,-18.74153 h 8.48635 l 3.3389,10.77191 3.49788,-10.77191 z"
         style="fill:url(#linearGradient7066);fill-opacity:1;stroke-width:0.424654"
         id="path7021" /></g></g></svg>
