<svg width="1823" height="1236" xmlns="http://www.w3.org/2000/svg" xmlns:xlink="http://www.w3.org/1999/xlink"><defs><linearGradient x1="42.042%" y1="91.27%" x2="65.412%" y2="50%" id="a"><stop stop-color="#1390B3" offset="0%"/><stop stop-color="#4BDEFF" offset="100%"/></linearGradient><linearGradient x1="50%" y1="0%" x2="50%" y2="100%" id="b"><stop stop-color="#F44881" offset="0%"/><stop stop-color="#EC454F" offset="100%"/></linearGradient><linearGradient x1="50%" y1="100%" x2="50%" y2="0%" id="c"><stop stop-color="#8B60ED" offset="0%"/><stop stop-color="#B372BD" offset="100%"/></linearGradient><linearGradient x1="50%" y1="11.35%" x2="50%" y2="111.35%" id="d"><stop stop-color="#6EDCC4" offset="0%"/><stop stop-color="#1AAB8B" offset="100%"/></linearGradient><linearGradient x1="50%" y1="100%" x2="50%" y2="1.467%" id="e"><stop stop-color="#F19A1A" offset="0%"/><stop stop-color="#FFC73C" offset="100%"/></linearGradient><linearGradient x1="50%" y1="0%" x2="50%" y2="100%" id="f"><stop stop-color="#F44881" offset="0%"/><stop stop-color="#EC454F" offset="100%"/></linearGradient><linearGradient x1="50%" y1="16.428%" x2="51.872%" y2="46.127%" id="i"><stop stop-color="#00D0FF" offset="0%"/><stop stop-color="#637BFF" stop-opacity="0" offset="100%"/></linearGradient><linearGradient x1="45.588%" y1="168.048%" x2="4.83%" y2="5.569%" id="k"><stop stop-color="#C4D6EB" stop-opacity=".676" offset="0%"/><stop stop-color="#91ACD2" stop-opacity=".3" offset="100%"/></linearGradient><linearGradient x1="39.585%" y1="81.515%" x2="19.519%" y2="6.036%" id="l"><stop stop-color="#76E1FF" offset="0%"/><stop stop-color="#637BFF" stop-opacity="0" offset="100%"/></linearGradient><linearGradient x1="0%" y1="50%" x2="100%" y2="50%" id="p"><stop stop-color="#5B79A2" offset="0%"/><stop stop-color="#2E4469" offset="100%"/></linearGradient><linearGradient x1="0%" y1="50%" x2="100%" y2="50%" id="A"><stop stop-color="#05A" offset="0%"/><stop stop-color="#1378E2" offset="100%"/></linearGradient><linearGradient x1=".733%" y1="50.733%" x2="99.267%" y2="50.733%" id="B"><stop stop-color="#F19A1A" offset="0%"/><stop stop-color="#FFC73C" offset="100%"/></linearGradient><linearGradient x1="1.259%" y1="48.741%" x2="98.741%" y2="48.741%" id="D"><stop stop-color="#21C8F6" offset="0%"/><stop stop-color="#637BFF" offset="100%"/></linearGradient><linearGradient x1="98.922%" y1="49.992%" x2=".766%" y2="50.008%" id="E"><stop stop-color="#21C8F6" offset="0%"/><stop stop-color="#637BFF" offset="100%"/></linearGradient><linearGradient x1="1.259%" y1="48.741%" x2="98.741%" y2="48.741%" id="F"><stop stop-color="#21C8F6" offset="0%"/><stop stop-color="#637BFF" offset="100%"/></linearGradient><linearGradient x1="92.101%" y1="34.122%" x2="50.529%" y2="65.876%" id="H"><stop stop-color="#4784E6" offset="0%"/><stop stop-color="#0F49A7" offset="100%"/></linearGradient><linearGradient x1="50%" y1="149.484%" x2="50%" y2="0%" id="K"><stop stop-color="#2C63C0" offset="0%"/><stop stop-color="#1952AF" offset="100%"/></linearGradient><linearGradient x1="98.741%" y1="48.741%" x2="1.259%" y2="48.741%" id="M"><stop stop-color="#69A1FF" offset="0%"/><stop stop-color="#5089E8" offset="100%"/></linearGradient><linearGradient x1="18.665%" y1="51.13%" x2="80.028%" y2="46.638%" id="N"><stop stop-color="#225BBA" offset="0%"/><stop stop-color="#356DC9" offset="100%"/></linearGradient><linearGradient x1="38.02%" y1="51.116%" x2="80.028%" y2="46.638%" id="O"><stop stop-color="#1A53B1" offset="0%"/><stop stop-color="#356DC9" offset="100%"/></linearGradient><linearGradient x1="14.631%" y1="50%" x2="92.229%" y2="95.804%" id="P"><stop stop-color="#3B74D2" offset="0%"/><stop stop-color="#2059B7" offset="100%"/></linearGradient><linearGradient x1="77.59%" y1="0%" x2="6.327%" y2="146.499%" id="X"><stop stop-color="#5C95F3" offset="0%"/><stop stop-color="#144DAB" offset="100%"/></linearGradient><linearGradient x1="29.548%" y1="91.27%" x2="89.612%" y2="50%" id="aa"><stop stop-color="#1390B3" offset="0%"/><stop stop-color="#4BDEFF" offset="100%"/></linearGradient><linearGradient x1="154.902%" y1="137.331%" x2="24.379%" y2="14.532%" id="ag"><stop stop-color="#76E1FF" offset="0%"/><stop stop-color="#637BFF" stop-opacity="0" offset="100%"/></linearGradient><linearGradient x1="13.579%" y1=".616%" x2="106.218%" y2="98.781%" id="ah"><stop stop-color="#587CB9" offset="0%"/><stop stop-color="#2E4469" stop-opacity="0" offset="100%"/></linearGradient><linearGradient x1="98.741%" y1="48.741%" x2="-10.029%" y2="48.741%" id="ap"><stop stop-color="#21C8F6" offset="0%"/><stop stop-color="#637BFF" offset="100%"/></linearGradient><radialGradient cx="52.101%" cy="30.594%" fx="52.101%" fy="30.594%" r="250.733%" gradientTransform="matrix(-.19461 0 0 -.25522 .622 .384)" id="h"><stop offset="0%"/><stop stop-opacity=".002" offset="100%"/></radialGradient><radialGradient cx="37.435%" cy="76.012%" fx="37.435%" fy="76.012%" r="67.976%" gradientTransform="matrix(.28028 -.9375 .75513 .34797 -.304 .847)" id="j"><stop stop-color="#00C3FF" offset="0%"/><stop stop-color="#293F64" offset="100%"/></radialGradient><radialGradient cx="50%" cy="50%" fx="50%" fy="50%" r="50.05%" gradientTransform="matrix(.03907 -.99901 .87742 .04449 .042 .977)" id="o"><stop stop-color="#21C8F6" offset="0%"/><stop stop-color="#6EE4FF" offset="100%"/></radialGradient><radialGradient cx="50%" cy="50%" fx="50%" fy="50%" r="52.641%" gradientTransform="scale(1 .95048) rotate(-87.871 .514 .513)" id="s"><stop stop-color="#21C8F6" offset="0%"/><stop stop-color="#6EE4FF" offset="100%"/></radialGradient><radialGradient cx="55.352%" cy="36.823%" fx="55.352%" fy="36.823%" r="86.583%" gradientTransform="matrix(-.5 0 0 -.39582 .83 .514)" id="y"><stop stop-color="#090E17" offset="0%"/><stop stop-color="#111A29" stop-opacity="0" offset="100%"/></radialGradient><radialGradient cx="52.436%" cy="42.955%" fx="52.436%" fy="42.955%" r="36.114%" gradientTransform="matrix(-1 0 0 -.21038 1.049 .52)" id="I"><stop stop-color="#172743" offset="0%"/><stop stop-opacity="0" offset="100%"/></radialGradient><radialGradient cx="52.436%" cy="42.955%" fx="52.436%" fy="42.955%" r="157.26%" gradientTransform="matrix(-.22964 0 0 -.21136 .645 .52)" id="Q"><stop stop-color="#172743" offset="0%"/><stop stop-opacity="0" offset="100%"/></radialGradient><radialGradient cx="50%" cy="50%" fx="50%" fy="50%" r="68.353%" gradientTransform="matrix(0 1 -.99517 0 .998 0)" id="T"><stop stop-color="#83B2FF" offset="0%"/><stop stop-color="#84B3FF" offset="100%"/></radialGradient><radialGradient cx="50%" cy="50%" fx="50%" fy="50%" r="102.962%" gradientTransform="matrix(0 .98882 -1.93068 0 1.465 .006)" id="W"><stop stop-color="#FFF" offset="0%"/><stop stop-color="#C42E6C" offset="100%"/></radialGradient><radialGradient cx="50%" cy="50%" fx="50%" fy="50%" r="61.85%" gradientTransform="matrix(.636 -.70207 .62704 .7121 -.132 .495)" id="Z"><stop stop-color="#0F47A5" offset="0%"/><stop stop-color="#002E79" offset="100%"/></radialGradient><radialGradient cx="50%" cy="50%" fx="50%" fy="50%" r="101.811%" gradientTransform="matrix(0 1 -1.7196 0 1.36 0)" id="ae"><stop stop-color="#95BDFF" offset="0%"/><stop stop-color="#78AAFF" offset="100%"/></radialGradient><radialGradient cx="50%" cy="50%" fx="50%" fy="50%" r="28.075%" gradientTransform="matrix(0 1 -1.6664 0 1.333 0)" id="aj"><stop offset="0%"/><stop stop-opacity="0" offset="100%"/></radialGradient><radialGradient cx="55.352%" cy="36.823%" fx="55.352%" fy="36.823%" r="105.406%" gradientTransform="matrix(-.41071 0 0 -.39582 .78 .514)" id="ao"><stop stop-color="#090E17" offset="0%"/><stop stop-color="#111A29" stop-opacity="0" offset="100%"/></radialGradient><filter x="-100.4%" y="-114.3%" width="300.9%" height="328.7%" filterUnits="objectBoundingBox" id="m"><feOffset in="SourceAlpha" result="shadowOffsetOuter1"/><feGaussianBlur stdDeviation="23" in="shadowOffsetOuter1" result="shadowBlurOuter1"/><feColorMatrix values="0 0 0 0 0.137254902 0 0 0 0 0.788235294 0 0 0 0 0.968627451 0 0 0 0.426300262 0" in="shadowBlurOuter1"/></filter><filter x="-864.1%" y="-821.3%" width="1828.1%" height="1742.5%" filterUnits="objectBoundingBox" id="q"><feOffset in="SourceAlpha" result="shadowOffsetOuter1"/><feGaussianBlur stdDeviation="23" in="shadowOffsetOuter1" result="shadowBlurOuter1"/><feColorMatrix values="0 0 0 0 0.137254902 0 0 0 0 0.788235294 0 0 0 0 0.968627451 0 0 0 0.426300262 0" in="shadowBlurOuter1"/></filter><filter x="-58%" y="-42.5%" width="215.9%" height="185.1%" filterUnits="objectBoundingBox" id="x"><feOffset in="SourceAlpha" result="shadowOffsetOuter1"/><feGaussianBlur stdDeviation="16.5" in="shadowOffsetOuter1" result="shadowBlurOuter1"/><feColorMatrix values="0 0 0 0 0.137254902 0 0 0 0 0.788235294 0 0 0 0 0.968627451 0 0 0 0.216701267 0" in="shadowBlurOuter1" result="shadowMatrixOuter1"/><feMerge><feMergeNode in="shadowMatrixOuter1"/><feMergeNode in="SourceGraphic"/></feMerge></filter><filter x="-17.1%" y="-18%" width="134.1%" height="136%" filterUnits="objectBoundingBox" id="z"><feOffset in="SourceAlpha" result="shadowOffsetOuter1"/><feGaussianBlur stdDeviation="10.5" in="shadowOffsetOuter1" result="shadowBlurOuter1"/><feColorMatrix values="0 0 0 0 0 0 0 0 0 0 0 0 0 0 0 0 0 0 0.0869208916 0" in="shadowBlurOuter1" result="shadowMatrixOuter1"/><feMerge><feMergeNode in="shadowMatrixOuter1"/><feMergeNode in="SourceGraphic"/></feMerge></filter><filter x="-13.6%" y="-45.6%" width="127.2%" height="191.2%" filterUnits="objectBoundingBox" id="C"><feGaussianBlur stdDeviation="17.895" in="SourceGraphic"/></filter><filter x="-41.1%" y="-39%" width="182.1%" height="178%" filterUnits="objectBoundingBox" id="G"><feGaussianBlur stdDeviation="17.895" in="SourceGraphic"/></filter><filter x="0%" y="0%" width="100%" height="100%" filterUnits="objectBoundingBox" id="J"><feGaussianBlur in="SourceGraphic"/></filter><filter x="0%" y="0%" width="100%" height="100%" filterUnits="objectBoundingBox" id="L"><feGaussianBlur in="SourceGraphic"/></filter><filter x="-16%" y="-69.6%" width="131.9%" height="239.1%" filterUnits="objectBoundingBox" id="R"><feGaussianBlur stdDeviation="9.865" in="SourceGraphic"/></filter><filter x="-39.5%" y="-39.7%" width="179.1%" height="179.5%" filterUnits="objectBoundingBox" id="S"><feGaussianBlur stdDeviation="16.911" in="SourceGraphic"/></filter><filter x="-25.3%" y="-25%" width="150.7%" height="150.1%" filterUnits="objectBoundingBox" id="U"><feOffset in="SourceAlpha" result="shadowOffsetOuter1"/><feGaussianBlur stdDeviation="4" in="shadowOffsetOuter1" result="shadowBlurOuter1"/><feColorMatrix values="0 0 0 0 0.951002038 0 0 0 0 0.370524746 0 0 0 0 0.61045536 0 0 0 1 0" in="shadowBlurOuter1"/></filter><filter x="-640.3%" y="-1413.3%" width="1380.6%" height="2926.6%" filterUnits="objectBoundingBox" id="ac"><feOffset in="SourceAlpha" result="shadowOffsetOuter1"/><feGaussianBlur stdDeviation="59" in="shadowOffsetOuter1" result="shadowBlurOuter1"/><feColorMatrix values="0 0 0 0 0.951002038 0 0 0 0 0.370524746 0 0 0 0 0.61045536 0 0 0 1 0" in="shadowBlurOuter1"/></filter><path d="M1209.868 618.93v96.603h-96.61v-96.602h96.61zm123.57 0v96.603h-96.61v-96.602h96.61zm123.571 0v96.603h-96.61v-96.602h96.61zm123.57 0v96.603h-96.609v-96.602h96.61zm-1359.275-1.122v96.602h-96.61v-96.602h96.61zm247.14 0v96.602h-96.609v-96.602h96.61zm247.142-.33v96.602h-96.61v-96.603h96.61zm-123.57 0v96.602h-96.61v-96.603h96.61zm617.852-123.232v96.603h-96.61v-96.603h96.61zm-123.57 0v96.603h-96.61v-96.603h96.61zm-864.994 0v96.603h-96.61v-96.603h96.61zm-123.57 0v96.603H1.123v-96.603h96.61zm370.71 0v96.603h-96.609v-96.603h96.61zm247.142-.33v96.602h-96.61v-96.602h96.61zm-123.57 0v96.602h-96.61v-96.602h96.61zM96.61 371.808v96.602H0v-96.602h96.61zm123.57 0v96.602h-96.61v-96.602h96.61zm123.57 0v96.602h-96.609v-96.602h96.61zm866.118-1.123v96.602h-96.61v-96.602h96.61zm-123.57 0v96.602h-96.61v-96.602h96.61zm-368.465 0v96.602h-96.61v-96.602h96.61zm-249.388 0v96.602h-96.61v-96.602h96.61zm494.282-123.562v96.603h-96.61v-96.603h96.61zm-244.894 0v96.603h-96.61v-96.603h96.61zm-123.571 0v96.603h-96.61v-96.603h96.61zm-125.817 0v96.603h-96.61v-96.603h96.61zm494.282-123.561v96.602h-96.61v-96.602h96.61zm-123.57 0v96.602h-96.61v-96.602h96.61zm-244.895 0v96.602h-96.61v-96.602h96.61zM839.156 0v96.603h-96.61V0h96.61z" id="g"/><path d="M280.813 225.69s-2.242.262-5.455 1.293c-7.029 2.25-18.714 8.17-21.798 23.032-.15 2.172-.163 4.384.053 6.55.68 6.87 4.103 12.765 9.08 17.377 6.666 6.174 16.12 10.046 25.524 10.868 14.522 1.27 28.92-4.735 32.728-20.766.392-1.644.7-3.225.966-4.773.852-9.059-.586-16.301-3.798-21.774a23.912 23.912 0 00-3.541-4.638c-5.404-5.513-13.386-8.226-22.9-8.226-3.436 0-7.07.355-10.86 1.058" id="n"/><path d="M301.463 249.852c0 2.32-1.787 4.201-3.992 4.201-2.207 0-3.994-1.88-3.994-4.2 0-2.32 1.787-4.202 3.994-4.202 2.205 0 3.992 1.882 3.992 4.201" id="r"/><path d="M244.366 342.233s-6.69-10.351-13.411-13.223c-2.02-.862-4.042-1.05-5.887-.08-2.472 1.302-3.03 4.413-2.624 8.09.908 8.201 6.617 19.215 6.617 19.215a37.805 37.805 0 013.564-2.952c10.22-7.487 23.65-10.078 28.515-10.807 1.183-.176 1.859-.243 1.859-.243s-.655-2.066-2.081-4.67c-.817-1.496-1.886-3.165-3.231-4.722-1.599-1.855-3.587-3.552-6-4.61-.727-.32-1.382-.463-1.971-.464-5.9 0-5.35 14.466-5.35 14.466" id="t"/><path d="M345.673 332.785c-2.475.883-4.568 2.436-6.283 4.172a26.537 26.537 0 00-2.996 3.672c-1.948 2.857-2.909 5.32-2.909 5.32s.67.115 1.84.375c4.488 1.002 16.325 4.159 25.782 11.247a39.989 39.989 0 015.338 4.765s6.782-11.205 7.95-19.4c.392-2.767.146-5.192-1.218-6.725-2.467-2.773-6.52-1.619-9.272-.067-6.093 3.434-11.83 11.132-11.83 11.132s1.524-14.821-4.672-14.821c-.52 0-1.095.104-1.73.33" id="v"/><path d="M47.373 20.863v-9.26l-3.43 1.965-4.738 2.715v9.26l8.17-4.68h-.002zm-9.8 16.752v-9.267l-4.662 2.65-13.309 7.558v9.354l17.97-10.295zM0 6.083v31.532l17.968 10.294v-9.352l-9.387-5.286-.003-.002-.004-.002c-.032-.019-.058-.045-.088-.067-.025-.02-.055-.037-.077-.06l-.002-.002c-.027-.026-.045-.057-.067-.085-.02-.028-.045-.051-.062-.08v-.003c-.019-.03-.03-.067-.044-.101-.013-.03-.03-.059-.038-.092-.01-.04-.012-.08-.017-.12-.004-.03-.012-.06-.012-.09V10.763L3.43 8.046 0 6.084zM8.985 0L.82 4.678l8.164 4.677 8.165-4.678L8.983 0h.002zm4.247 29.193l4.737-2.714V6.083l-3.43 1.965-4.738 2.715V31.16l3.43-1.966zM38.389 5.52l-8.165 4.678 8.165 4.678 8.164-4.68L38.39 5.52zm-.817 10.763l-4.738-2.715-3.43-1.965v9.26l4.737 2.714 3.431 1.966v-9.26zM18.784 37.151l11.977-6.804 5.986-3.4-8.159-4.675-9.394 5.382-8.562 4.905 8.152 4.592z" id="V"/><path d="M32.317 0h173.815c17.848 0 32.317 14.469 32.317 32.317v138.447a32.316 32.316 0 01-20.534 30.095c-20.611 8.07-52.143 12.106-94.594 12.106-44.972 0-79.187-4.529-102.644-13.586A32.317 32.317 0 010 169.23V32.317C0 14.47 14.469 0 32.317 0z" id="Y"/><path d="M170.878 178.671c-4.936-.006-9.633-2.202-12.886-6.026-1.392-1.635-1.228-4.114.365-5.535 1.593-1.422 4.011-1.248 5.404.387 1.795 2.11 4.386 3.323 7.108 3.327 2.72.003 5.309-1.203 7.1-3.31a3.765 3.765 0 015.402-.374c1.596 1.426 1.766 3.905.378 5.537-3.243 3.815-7.935 6-12.87 5.994z" id="ad"/><path d="M32.317 0h173.815c17.848 0 32.317 14.469 32.317 32.317v138.447a32.316 32.316 0 01-20.534 30.095c-20.611 8.07-52.143 12.106-94.594 12.106-44.972 0-79.187-4.529-102.644-13.586A32.317 32.317 0 010 169.23V32.317C0 14.47 14.469 0 32.317 0z" id="af"/><ellipse id="ak" cx="68.354" cy="67.724" rx="68.354" ry="67.724"/><ellipse id="am" cx="68.354" cy="67.724" rx="68.354" ry="67.724"/></defs><g fill="none" fill-rule="evenodd"><g style="mix-blend-mode:luminosity"><path d="M932.184 611.465c0-1.154-.423-2.176-1.268-3.063l-6.34-6.659c-.845-.887-1.818-1.332-2.916-1.332-1.099 0-2.072.445-2.916 1.332l-59.082 62.059c-.846.888-1.268 1.91-1.268 3.063 0 1.154.423 2.176 1.268 3.063l59.081 62.059c.845.889 1.816 1.331 2.916 1.331 1.1 0 2.072-.444 2.917-1.331l6.34-6.656c.845-.887 1.268-1.909 1.268-3.064 0-1.153-.423-2.174-1.268-3.062l-49.827-52.34 49.827-52.336c.846-.888 1.268-1.91 1.268-3.064z" fill="url(#a)" fill-rule="nonzero" opacity=".455" transform="rotate(-8 895.29 666.864)"/><g opacity=".228"><path fill="url(#b)" d="M0 370.685h96.61v96.603H0z" transform="translate(984.951 590.284)"/><path fill="url(#c)" d="M123.571 370.685h96.61v96.603h-96.61z" transform="translate(984.951 590.284)"/><path fill="url(#d)" d="M247.141 370.685h96.61v96.603h-96.61z" transform="translate(984.951 590.284)"/><path fill="url(#e)" d="M0 247.123h96.61v96.603H0z" transform="translate(984.951 590.284)"/><path fill="#4BDEFF" fill-rule="nonzero" d="M984.951 713.846h96.61v96.603h-96.61z"/><path fill="url(#b)" d="M0 0h96.61v96.603H0z" transform="translate(984.951 590.284)"/><use fill="url(#f)" style="mix-blend-mode:luminosity" xlink:href="#g" opacity=".654" transform="translate(242.404 343.491)"/><path d="M1108.522 247.123h96.61v96.603h-96.61zm0-123.561h96.61v96.603h-96.61zm-123.571 0h96.61v96.603h-96.61zm0-123.562h96.61v96.603h-96.61zM216.304 838.186v96.61H119.7v-96.61zm.039 123.598v96.61H119.74v-96.61zm-119.74.026v96.61H0v-96.61z" opacity=".37" fill="#1AAB8B"/></g><g transform="rotate(-11 3547.165 -3135.642)"><ellipse fill="url(#h)" opacity=".278" cx="273.524" cy="633.713" rx="218.187" ry="42.462"/><g transform="translate(0 31.102)"><path d="M290.486 142.475c26.442 0 52.92 6.414 69.324 18.368 14.42 10.509 24.887 40.696 25.097 41.297.016.047-.36 1.014 2.315 1.593.414.09 1.009.219 1.765.386l.933.207c13.929 3.117 67.54 15.815 90.784 32.987-3.039.77-6.845 1.198-10.732 1.49l-.793.056c-.525.037-1.051.071-1.57.103l-.79.046c-4.837.274-9.373.353-11.586.375l-6.59.068 5.284 3.938c.727.542 1.445 1.083 2.16 1.625 12.751 5.883 53.908 25.093 68.576 38.135l.325.293-.03.01c-.73.208-1.493.346-2.313.46l-.415.054c-2.69.339-5.956.45-8.947.46h-.888a167.2 167.2 0 01-6.635-.162l-5.49-.243 3.777 3.992c.757.8 1.501 1.596 2.235 2.387 12.038 8.696 50.655 37.771 71.466 70.3l.143.227-29.63-8.62-.053 2.906-.035 1.804c2.24 6.668 8.514 24.442 13.993 43.354l.455 1.58c1.865 6.516 3.62 13.13 5.064 19.406-.254.26-.573.436-.935.55-1.026.324-2.302.255-3.694.014-4.757-.825-10.688-3.828-14.598-6.017a98.05 98.05 0 01-3.036-1.77 1000.766 1000.766 0 01-1.257 15.428c4.713 21.896 12.728 62.872 13.867 98.854-2.342-.395-6.64-5.067-10.514-9.875l-.514-.642c-4.088-5.133-7.575-10.212-7.575-10.212s-2.09-3.042-4.572-7.038c.37 5.14.603 8.56.603 8.56.017.247.69 10.18 1.354 21.582l.05.858.05.862.049.867c.058 1.013.115 2.032.171 3.053l.048.874.076 1.4c.312 5.798.585 11.498.735 16.075-.953-1.378-2.004-2.967-3.063-4.558l-.415-.624-.443-.673a391.098 391.098 0 01-4.588-7.165 431.353 431.353 0 01-2.696-4.364 329.763 329.763 0 01-4.074 14.3c-.173 10.143-5.997 18.215-15.927 25.088-11.323 7.836-27.953 14.09-48.198 18.9-45.427 10.796-108.927 14.235-172.218 11.146-62.773-3.065-125.347-12.55-169.886-27.717-19.821-6.75-36.049-14.606-47.04-23.557-9.702-7.9-15.31-16.628-15.24-26.267-1.045-4.627-1.975-8.774-2.86-12.957a499.517 499.517 0 01-1.28-6.243 10896.57 10896.57 0 01-11.557 22.822l-1.086 2.135c-.684 1.345-1.368 2.687-2.047 4.012-7.986-38.034-.75-90.054 3.2-113.024-.166-2.791-.345-4.99-.517-7.163l-.57-7.203-3.578 6.278c-2.439 4.28-6.153 10.328-9.634 11.824-.32.139-.634.234-.941.201-.212-.022-.407-.123-.596-.28-.758-.623-1.345-1.811-1.883-3.57.09-33.307 13.861-78.784 13.861-78.784s2.194-7.245 5.999-17.715c-4.05 8.254-9.875 15.698-9.875 15.698s-9.438 12.06-18.803 17.676c-2.262 1.356-4.507 2.34-6.598 2.552-.876.088-1.72.03-2.51-.227 14.08-27.564 49.324-54.748 67.738-67.728 2.342-2.561 4.375-4.815 6.505-7.11 1.661-1.79 3.301-3.52 4.92-5.198-2.402.657-4.852 1.14-6.923 1.493-4.51.77-10.922 1.553-15.222.457-1.137-.29-2.128-.686-2.727-1.4-.267-.32-.416-.709-.461-1.164 18.063-15.25 53.432-31.175 67.34-37.146 1.188-.83 1.9-1.374 2.612-1.917l6.343-4.816H90.549c25.298-21.64 106.439-37.193 106.439-37.193s.438-.084 1.26-.236c.258-.774.408-1.196.408-1.196s10.779-30.401 25.144-41.353c16.496-12.575 41.61-18.34 66.686-18.34z" stroke="url(#i)" stroke-width="4.447"/><path d="M222.453 158.767c34.551-26.34 106.082-23.745 138.666 0 14.957 10.9 25.89 42.371 25.89 42.371s.873.182 2.46.532l.936.209c14.57 3.26 72.038 16.984 94.038 35.258 0 3.653-23.152 4.13-29.187 4.191.732.546 1.455 1.091 2.175 1.637 13.142 6.004 58.459 27.257 70.931 40.38 0 3.616-17.768 3.08-22.7 2.862.762.805 1.511 1.607 2.25 2.404 12.289 8.822 53.853 40.181 74.128 74.547l1.331 1.401-32.94-9.583-.036 1.808c2.94 8.18 13.936 39.391 19.666 64.716-2.892 6.087-15.798-.077-22.69-3.935-.3 3.883-.63 7.861-.992 11.916 4.764 21.646 12.986 63.76 13.924 100.3-3.993 2.802-22.625-21.002-22.625-21.002s.958 14.114 1.724 28.127l.076 1.4c.477 8.862.861 17.492.861 22.281-1.256-.66-4.55-5.313-7.68-10.044l-.445-.675a393.42 393.42 0 01-4.615-7.207 322.18 322.18 0 01-2.762 9.415c-.69 90.242-473.512 68.85-472.856-23.081a466.787 466.787 0 01-2.81-12.482 9010.995 9010.995 0 01-8.682 17.128l-1.085 2.135c-1.629 3.2-3.251 6.382-4.8 9.409-10.209-38.663-2.41-95.442 1.779-119.806-.19-2.23-.369-4.434-.541-6.611-4.501 7.898-13.329 20.67-17.21 7.399 0-33.605 13.957-79.752 13.957-79.752S10.647 374.358 0 365.958c13.553-28.517 50.334-57.03 69.387-70.46a373.85 373.85 0 016.157-6.806c-8.09 1.38-21.924 2.611-20.978-5.349 17.977-15.574 54.432-32.032 68.657-38.139a389.852 389.852 0 013.227-2.467H85.177c19.963-23.804 111.386-41.599 111.386-41.599s11.157-31.14 25.89-42.37z" fill="url(#j)"/><path d="M335.381 121.853c0 1.154.423 2.176 1.268 3.063l6.34 6.659c.846.887 1.818 1.332 2.917 1.332 1.098 0 2.071-.445 2.916-1.332l59.081-62.059c.847-.888 1.268-1.91 1.268-3.063 0-1.154-.423-2.176-1.268-3.063l-59.08-62.059C347.977.442 347.006 0 345.905 0c-1.1 0-2.071.444-2.916 1.331l-6.34 6.656c-.845.887-1.269 1.909-1.269 3.064 0 1.153.424 2.174 1.269 3.062l49.826 52.34-49.827 52.336c-.846.888-1.268 1.91-1.268 3.064z" fill="url(#a)" fill-rule="nonzero" opacity=".455"/><path d="M345.508 254.29c0 31.914-24.589 57.786-54.923 57.786-30.333 0-54.922-25.872-54.922-57.785 0-31.913 24.589-57.785 54.922-57.785 30.334 0 54.923 25.872 54.923 57.785" stroke="url(#k)" stroke-width="4.33" fill="#24385A"/><path d="M345.508 254.29c0 31.914-24.589 57.786-54.923 57.786-30.333 0-54.922-25.872-54.922-57.785 0-31.913 24.589-57.785 54.922-57.785 30.334 0 54.923 25.872 54.923 57.785" stroke="url(#l)" stroke-width="4.33" fill-opacity=".152" fill="#000"/><g fill-rule="nonzero"><use fill="#000" filter="url(#m)" xlink:href="#n"/><use fill="url(#o)" xlink:href="#n"/></g><path d="M286.869 236.698s-4.982.582-8.293 4.393c-1.787 2.058-3.09 5.054-2.858 9.41.154 2.94 1.561 5.455 3.656 7.4 1.782 1.649 4.062 2.886 6.5 3.623 5.057 1.526 10.793.896 14.18-2.687 1.183-1.254 2.082-2.87 2.56-4.886.558-2.352.794-4.463.744-6.337-.093-3.51-1.183-6.185-3.016-8.056-1.981-2.02-4.828-3.098-8.22-3.261a19.91 19.91 0 00-.92-.021 23.7 23.7 0 00-4.333.422" fill="url(#p)"/><g fill-rule="nonzero"><use fill="#000" filter="url(#q)" xlink:href="#r"/><use fill="url(#s)" xlink:href="#r"/></g><path d="M348.045 426.203c-9.571 4.077-20.421 3.388-29.771-1.89-4-2.258-5.657-7.562-3.701-11.847 1.953-4.284 6.778-5.926 10.78-3.67 5.16 2.914 11.147 3.297 16.423 1.05 5.276-2.248 9.331-6.907 11.123-12.784 1.389-4.552 5.944-6.906 10.172-5.255 4.23 1.65 6.532 6.68 5.143 11.232-3.247 10.644-10.598 19.087-20.17 23.164z" fill="#1C2737" fill-rule="nonzero"/><mask id="u" fill="#fff"><use xlink:href="#t"/></mask><path d="M244.366 342.233s-6.69-10.351-13.411-13.223c-2.02-.862-4.042-1.05-5.887-.08-2.472 1.302-3.03 4.413-2.624 8.09.908 8.201 6.617 19.215 6.617 19.215a37.805 37.805 0 013.564-2.952c10.22-7.487 23.65-10.078 28.515-10.807 1.183-.176 1.859-.243 1.859-.243s-.655-2.066-2.081-4.67c-.817-1.496-1.886-3.165-3.231-4.722-1.599-1.855-3.587-3.552-6-4.61-.727-.32-1.382-.463-1.971-.464-5.9 0-5.35 14.466-5.35 14.466" mask="url(#u)"/><mask id="w" fill="#fff"><use xlink:href="#v"/></mask><path d="M345.673 332.785c-2.475.883-4.568 2.436-6.283 4.172a26.537 26.537 0 00-2.996 3.672c-1.948 2.857-2.909 5.32-2.909 5.32s.67.115 1.84.375c4.488 1.002 16.325 4.159 25.782 11.247a39.989 39.989 0 015.338 4.765s6.782-11.205 7.95-19.4c.392-2.767.146-5.192-1.218-6.725-2.467-2.773-6.52-1.619-9.272-.067-6.093 3.434-11.83 11.132-11.83 11.132s1.524-14.821-4.672-14.821c-.52 0-1.095.104-1.73.33" mask="url(#w)"/></g></g><path d="M676.508 636.123c6.365 0 12.121-1.17 17.27-3.51 5.147-2.34 9.43-5.569 12.846-9.687 3.416-4.119 5.78-8.752 7.09-13.9h-25.553c-2.34 5.054-6.505 7.582-12.495 7.582-4.025 0-7.418-1.287-10.18-3.861-2.76-2.574-4.328-6.295-4.703-11.162h54.335a61.48 61.48 0 00.421-7.02c0-7.863-1.661-14.742-4.984-20.639-3.323-5.897-7.932-10.436-13.83-13.619-5.896-3.182-12.635-4.773-20.217-4.773-7.769 0-14.648 1.638-20.639 4.914-5.99 3.276-10.647 7.956-13.97 14.04-3.322 6.084-4.984 13.197-4.984 21.34 0 8.144 1.685 15.257 5.055 21.341 3.37 6.084 8.05 10.764 14.04 14.04 5.99 3.276 12.823 4.914 20.498 4.914zm14.461-47.876h-30.045c.655-4.306 2.363-7.629 5.124-9.969 2.762-2.34 6.155-3.51 10.18-3.51 4.211 0 7.721 1.217 10.53 3.65 2.807 2.434 4.211 5.71 4.211 9.829zM754.524 635V531.104h-24.009V635h24.009zm55.41 1.123c7.676 0 14.626-1.638 20.85-4.914 6.225-3.276 11.139-7.98 14.742-14.11 3.604-6.13 5.406-13.221 5.406-21.27 0-8.05-1.779-15.14-5.335-21.271-3.557-6.131-8.424-10.834-14.602-14.11-6.178-3.276-13.104-4.914-20.78-4.914-7.674 0-14.6 1.638-20.778 4.914-6.178 3.276-11.045 7.979-14.602 14.11-3.557 6.13-5.335 13.22-5.335 21.27 0 8.144 1.755 15.257 5.265 21.341 3.51 6.084 8.33 10.764 14.46 14.04 6.132 3.276 13.035 4.914 20.71 4.914zm0-20.779c-4.585 0-8.4-1.685-11.442-5.054-3.042-3.37-4.563-8.19-4.563-14.462 0-6.364 1.545-11.208 4.634-14.531 3.088-3.323 6.973-4.984 11.653-4.984 4.586 0 8.447 1.685 11.583 5.054 3.135 3.37 4.703 8.19 4.703 14.461 0 6.272-1.614 11.092-4.844 14.462-3.229 3.37-7.137 5.054-11.723 5.054zm80.123 57.002V624.05c2.34 3.557 5.592 6.458 9.757 8.705 4.166 2.246 8.963 3.37 14.391 3.37 6.459 0 12.309-1.662 17.55-4.985 5.242-3.323 9.384-8.05 12.426-14.18 3.042-6.131 4.563-13.221 4.563-21.271s-1.521-15.116-4.563-21.2-7.184-10.764-12.426-14.04c-5.241-3.276-11.091-4.914-17.55-4.914-5.522 0-10.342 1.123-14.46 3.37-4.12 2.246-7.348 5.194-9.688 8.844v-11.091h-24.009v115.69h24.009zm16.988-57.142c-4.774 0-8.822-1.732-12.145-5.195-3.322-3.463-4.984-8.19-4.984-14.18 0-5.991 1.662-10.718 4.984-14.181 3.323-3.463 7.371-5.195 12.145-5.195 4.867 0 8.962 1.708 12.285 5.125 3.323 3.416 4.984 8.12 4.984 14.11s-1.685 10.74-5.054 14.25c-3.37 3.51-7.441 5.266-12.215 5.266zm91.494 20.92c6.365 0 12.121-1.17 17.27-3.51 5.147-2.34 9.43-5.57 12.846-9.688 3.416-4.119 5.78-8.752 7.09-13.9h-25.553c-2.34 5.054-6.505 7.582-12.495 7.582-4.025 0-7.418-1.287-10.18-3.861-2.76-2.574-4.328-6.295-4.703-11.162h54.335a61.48 61.48 0 00.421-7.02c0-7.863-1.661-14.742-4.984-20.639-3.323-5.897-7.933-10.436-13.83-13.619-5.896-3.182-12.635-4.773-20.217-4.773-7.769 0-14.648 1.638-20.639 4.914-5.99 3.276-10.647 7.956-13.97 14.04-3.322 6.084-4.984 13.197-4.984 21.34 0 8.144 1.685 15.257 5.055 21.341 3.37 6.084 8.05 10.764 14.04 14.04 5.99 3.276 12.823 4.914 20.498 4.914zM1013 588.246h-30.045c.655-4.306 2.363-7.629 5.124-9.969 2.761-2.34 6.154-3.51 10.18-3.51 4.211 0 7.721 1.217 10.53 3.65 2.807 2.434 4.211 5.71 4.211 9.829zM1076.555 635v-36.364c0-6.458 1.497-10.974 4.492-13.548 2.996-2.574 7.488-3.861 13.479-3.861h6.599v-25.413c-5.148 0-9.828 1.24-14.04 3.721-4.212 2.48-7.722 5.873-10.53 10.179v-13.057h-24.009V635h24.009z" fill="#FFF" fill-rule="nonzero"/><ellipse fill="url(#y)" opacity=".73" transform="rotate(-93 877.277 632.272)" cx="877.277" cy="632.272" rx="75" ry="37.5"/><g filter="url(#z)" transform="scale(1 -1) rotate(12 5646.53 772.39)"><rect fill="url(#A)" width="237.241" height="224.705" rx="64.48"/><path d="M90.32 57.762c-10.412-5.972-18.854-1.08-18.854 10.917v88.533c0 12.01 8.442 16.895 18.854 10.93l77.4-44.38c10.416-5.973 10.416-15.65 0-21.623l-77.4-44.377z" fill="url(#B)" transform="matrix(1 0 0 -1 0 225.9)"/></g><g transform="rotate(5 -5808.966 4940.1)"><ellipse fill="#002561" opacity=".469" style="mix-blend-mode:hard-light" filter="url(#C)" cx="310.42" cy="628.415" rx="197.537" ry="58.855"/><g transform="translate(424.824 555.485)"><ellipse fill="#1B283E" cx="9.653" cy="9.606" rx="9.653" ry="9.606"/><ellipse fill="url(#D)" cx="9.653" cy="9.606" rx="6.435" ry="6.404"/></g><path stroke="url(#E)" stroke-width="3.181" stroke-linecap="round" stroke-linejoin="round" d="M0 10.406h117.349" transform="translate(424.824 498.65)"/><g transform="translate(0 498.65)"><g transform="translate(205.926)" fill="#1B283E"><rect x="33.785" width="3.218" height="67.24" rx="1.609"/><rect x="11.262" width="3.218" height="67.24" rx="1.609"/><rect x="56.308" width="3.218" height="67.24" rx="1.609"/><rect width="3.218" height="67.24" rx="1.609"/><rect x="45.046" width="3.218" height="67.24" rx="1.609"/><rect x="22.523" width="3.218" height="67.24" rx="1.609"/><rect x="67.57" width="3.218" height="67.24" rx="1.609"/></g><ellipse fill="url(#F)" cx="135.944" cy="9.606" rx="4.022" ry="4.002"/><ellipse fill="url(#F)" cx="148.814" cy="9.606" rx="4.022" ry="4.002"/><ellipse fill="url(#F)" cx="161.684" cy="9.606" rx="4.022" ry="4.002"/></g><ellipse fill="#002561" opacity=".469" style="mix-blend-mode:hard-light" filter="url(#G)" cx="538.043" cy="547.93" rx="65.357" ry="68.791"/><path d="M122.77 331.196l400.845-.93c23.78-.054 43.104 19.18 43.159 42.96a43.059 43.059 0 01-.336 5.466l-25.515 203.134c-5.403 43.02-41.946 75.313-85.303 75.385l-260.197.433c-42.795.071-79.15-31.294-85.352-73.638L80.265 380.494c-3.446-23.53 12.835-45.398 36.364-48.844a43.059 43.059 0 016.14-.454z" fill="#002B73"/><path d="M111.183 331.379l424.435-7.367c23.777-.412 43.387 18.528 43.8 42.306a43.059 43.059 0 01-.59 7.887l-28.232 167.902c-6.868 40.841-41.834 71.01-83.24 71.821l-276.958 5.42c-41.47.812-77.628-28.054-86.021-68.675l-34.615-167.53c-4.812-23.288 10.166-46.068 33.455-50.88a43.059 43.059 0 017.966-.884z" fill="url(#H)" transform="rotate(1 323.336 471.931)"/><g transform="rotate(1 -21990.1 31032.607)"><ellipse fill="url(#I)" opacity=".899" filter="url(#J)" transform="rotate(-81 32.59 32.48)" cx="32.59" cy="32.479" rx="28.37" ry="28.503"/><path d="M52.78 32.547c42.21 8.714 10.575 44.708 10.6 81.58.022 32.674-24.12 49.622-49.762 45.725" stroke="#08409E" stroke-width="12.683"/><g transform="scale(-1 1) rotate(82 -23.232 -11.792)"><rect fill="#002B74" x="7.636" y="7.092" width="20.361" height="21.275" rx="10.181"/><rect fill="url(#K)" width="35.632" height="14.184" rx="7.092"/></g></g><g transform="scale(-1 1) rotate(1 -22150.654 -6634.127)"><ellipse fill="url(#I)" opacity=".899" filter="url(#L)" transform="rotate(-81 32.59 32.48)" cx="32.59" cy="32.479" rx="28.37" ry="28.503"/><path d="M52.779 32.547c42.21 8.714 10.576 44.708 10.601 81.58.022 32.674-18.855 47.621-44.498 43.723" stroke="#08409E" stroke-width="12.683"/><g transform="scale(-1 1) rotate(82 -23.232 -11.792)"><rect fill="#002B74" x="7.636" y="7.092" width="20.361" height="21.275" rx="10.181"/><rect fill="url(#K)" width="35.632" height="14.184" rx="7.092"/></g></g><path d="M200.425 471.508l247.234.023a6.587 6.587 0 010 13.172l-125.583-.012-121.65-.011a6.587 6.587 0 01-.001-13.172z" fill="#002B73"/><path d="M200.428 495.622l247.233.023a6.587 6.587 0 010 13.172l-125.583-.012-121.65-.011a6.587 6.587 0 01-.001-13.172z" fill="url(#M)"/><path d="M203.895 519.736l247.234.023a6.587 6.587 0 010 13.173l-125.583-.012-121.65-.012a6.587 6.587 0 01-.001-13.172zm.003 24.114l247.233.023a6.587 6.587 0 010 13.173l-125.583-.012-121.65-.012a6.587 6.587 0 01-.001-13.172z" fill="#002B73"/><path d="M106.673 330.058l441.034-5.71c17.91-.232 32.617 14.1 32.85 32.01a32.432 32.432 0 01-4.094 16.196l-2.983 5.357a86.118 86.118 0 01-74.127 44.219l-341.176 4.417a86.118 86.118 0 01-74.547-41.121l-3.946-6.44c-9.273-15.136-4.52-34.923 10.615-44.196a32.14 32.14 0 0116.374-4.732z" fill="url(#N)" opacity=".504" transform="rotate(1 326.931 375.402)"/><path d="M288.083 331.572l84.735.007a43.059 43.059 0 0131.51 13.717l12.859 13.811c6.16 6.616 5.79 16.974-.826 23.134a16.368 16.368 0 01-11.155 4.389l-149.512-.014c-9.041 0-16.37-7.33-16.369-16.372a16.37 16.37 0 014.39-11.153l12.85-13.802a43.059 43.059 0 0131.518-13.717z" fill="#111A28"/><path d="M106.673 330.058l441.034-5.71c17.91-.232 32.617 14.1 32.85 32.01a32.432 32.432 0 01-4.094 16.196l-2.983 5.357a86.118 86.118 0 01-74.127 44.219l-341.176 4.417a86.118 86.118 0 01-74.547-41.121l-3.946-6.44c-9.273-15.136-4.52-34.923 10.615-44.196a32.14 32.14 0 0116.374-4.732z" fill="url(#O)" opacity=".504" transform="rotate(1 326.931 375.402)"/><path d="M295.459 233.362h74.301c18.497 0 33.49 14.994 33.49 33.49v82.597c0 10.57-8.567 19.138-19.137 19.138H281.106c-10.57 0-19.138-8.569-19.138-19.138v-82.597c0-18.496 14.994-33.49 33.49-33.49z" fill="url(#P)"/><ellipse fill="#1E55B1" cx="331.097" cy="303.868" rx="49.885" ry="49.642"/><ellipse fill="url(#Q)" opacity=".65" filter="url(#R)" cx="325.696" cy="248.071" rx="92.644" ry="21.275"/><g transform="translate(268.186 238.525)"><ellipse fill="#328AF1" opacity=".193" filter="url(#S)" cx="64.138" cy="63.826" rx="64.138" ry="63.826"/><ellipse fill="url(#T)" transform="scale(1 -1) rotate(4 1964.324 0)" cx="61.364" cy="66.453" rx="34.206" ry="34.041"/><g transform="translate(40.07 43.996)" style="mix-blend-mode:luminosity"><use fill="#000" filter="url(#U)" xlink:href="#V"/><use fill="url(#W)" xlink:href="#V"/></g><path d="M32.472 68.664a30.156 30.156 0 0012.714 21.61 30.139 30.139 0 01-5.206-14.065C38.24 59.64 50.194 44.804 66.68 43.07a29.817 29.817 0 0120.293 5.253c-6.053-8.734-16.527-13.982-27.8-12.797-16.49 1.733-28.443 16.57-26.701 33.137z" fill-opacity=".547" fill="#FFF" style="mix-blend-mode:lighten" opacity=".5"/></g><g transform="rotate(-1 448.973 -7561.037)"><path d="M115.285 0h155.502c38.246 0 69.25 31.005 69.25 69.251v162.227c0 45.896-37.205 83.102-83.1 83.102H129.134c-45.895 0-83.1-37.206-83.1-83.102V69.251C46.034 31.005 77.038 0 115.284 0z" fill="url(#X)"/><ellipse fill="#013A99" cx="107.233" cy="26.913" rx="9.259" ry="9.361"/><path d="M47.012 194.42c0 45.896 37.205 83.102 83.1 83.102h126.821c45.896 0 83.102-37.206 83.102-83.101v37.396c0 45.896-37.206 83.101-83.102 83.101h-126.82c-45.896 0-83.101-37.205-83.101-83.1z" fill="#1349A4" opacity=".189"/><g transform="translate(74.89 46.806)"><mask id="ab" fill="#fff"><use xlink:href="#Y"/></mask><use fill="url(#Z)" xlink:href="#Y"/><path d="M92.84 25.364c-13.652-7.927-24.72-1.433-24.72 14.494v117.536c0 15.943 11.068 22.43 24.72 14.51l101.482-58.917c13.657-7.93 13.657-20.779 0-28.708L92.84 25.364z" fill="url(#aa)" fill-rule="nonzero" mask="url(#ab)"/><g opacity=".7" mask="url(#ab)" transform="rotate(-15 170.867 172.41)"><use fill="#000" filter="url(#ac)" xlink:href="#ad"/><use fill="url(#ae)" xlink:href="#ad"/></g><mask id="ai" fill="#fff"><use xlink:href="#af"/></mask><path stroke="url(#ag)" stroke-width="5.033" d="M206.132 2.517c8.23 0 15.68 3.335 21.072 8.728 5.393 5.393 8.729 12.843 8.729 21.072v138.448a29.768 29.768 0 01-5.185 16.798 29.767 29.767 0 01-13.75 10.952c-20.412 7.993-51.647 11.934-93.677 11.934-44.567 0-78.487-4.44-101.738-13.418a29.767 29.767 0 01-13.842-10.945 29.768 29.768 0 01-5.224-16.855V32.317c0-8.23 3.335-15.68 8.728-21.072 5.393-5.393 12.843-8.728 21.072-8.728z"/><ellipse fill="url(#ah)" opacity=".527" mask="url(#ai)" cx=".784" cy="13.823" rx="110.163" ry="111.335"/></g><path d="M224.521 33.232h-7.439c-2.036 0-3.687-1.677-3.687-3.745s1.65-3.744 3.687-3.744h7.44c2.036 0 3.687 1.676 3.687 3.744 0 2.068-1.651 3.745-3.688 3.745zm13.889-10.297h-7.439c-2.037 0-3.688-1.677-3.688-3.745s1.651-3.744 3.688-3.744h7.439c2.037 0 3.688 1.676 3.688 3.744 0 2.068-1.651 3.745-3.688 3.745zm37.955 10.297h-40.74c-2.05 0-3.712-1.677-3.712-3.745s1.662-3.744 3.712-3.744h40.722c2.05 0 3.713 1.676 3.713 3.744 0 2.068-1.662 3.745-3.713 3.745h.018zm13.725-10.297h-40.43c-2.131 0-3.859-1.677-3.859-3.745s1.728-3.744 3.859-3.744h40.43c2.13 0 3.858 1.676 3.858 3.744 0 2.068-1.727 3.745-3.858 3.745z" fill="#013A99"/><ellipse fill="url(#aj)" opacity=".882" transform="rotate(-1 102.97 197.664)" cx="102.97" cy="197.664" rx="48.092" ry="25.736"/><ellipse fill="url(#aj)" opacity=".882" transform="rotate(-1 285.747 200.184)" cx="285.747" cy="200.184" rx="48.092" ry="25.736"/><g transform="rotate(-4 1024.258 -418.557)"><mask id="al" fill="#fff"><use xlink:href="#ak"/></mask><use fill="#5D95F3" opacity=".398" xlink:href="#ak"/><path d="M69.455-4.932L15.864 100.665c3.71 6.818 9.116 12.536 16.214 17.156 7.099 4.62 14.796 7.65 23.092 9.09l56.167-118.31C102.823 3.229 96.222-.234 91.535-1.786c-4.687-1.552-12.047-2.6-22.08-3.146z" fill="#5D95F3" opacity=".398" mask="url(#al)"/></g><g transform="rotate(-4 1029.224 -2926.654)"><mask id="an" fill="#fff"><use xlink:href="#am"/></mask><use fill="#5D95F3" opacity=".398" xlink:href="#am"/><path d="M64.538 8.334l-51.494 99.09c3.711 6.818 9.116 12.536 16.214 17.156 7.099 4.62 14.796 7.65 23.092 9.091l54.07-111.804c-8.514-5.372-15.115-8.834-19.802-10.386-4.687-1.552-12.047-2.601-22.08-3.147z" fill="#5D95F3" opacity=".398" mask="url(#an)"/></g><path d="M279.023 192.723c-34.925-.61-62.748-29.08-62.145-63.593.602-34.51 29.402-61.993 64.327-61.384 34.924.61 62.748 29.081 62.145 63.592-.602 34.512-29.403 61.995-64.327 61.385zm-176.579-3.082c-34.924-.61-62.747-29.08-62.144-63.593.602-34.51 29.402-61.994 64.326-61.384 34.926.61 62.748 29.081 62.145 63.592-.602 34.512-29.4 61.995-64.327 61.385zM326.618 74.415c-13.172-8.86-30.203-16.25-45.241-16.512-20.26-.353-38.736 7.461-52.22 20.372-6.52 5.812-12.163 12.203-17.994 18.458-7.384 7.928-11.602 3.901-18.846 3.775-7.244-.127-11.6 3.75-18.704-4.43-5.607-6.456-11.027-13.039-17.34-19.076-13.024-13.373-31.438-21.831-51.698-22.185-15.039-.262-29.986 3.967-41.077 11.461a670.213 670.213 0 00-4.615 3.464C52.8 74.098 42.373 81.72 36.985 87.65c-8.003 8.81-25.166 9.108-25.166 9.108l-.323 18.494s10.276-.419 13.528 3.518c1.922 2.32 3.845 13.376 7.097 24.965.98 4.127 2.41 8.112 4.074 11.935 1.551 3.799 3.38 7.325 5.49 10.23l.021-.02c12.754 19.826 35.014 33.156 60.557 33.602 29.66.518 55.488-16.48 67.427-41.338l.058-.07.176-.277c5.408-8.72 11.12-32.764 13.577-36.56 2.482-3.836 8.524-4.029 8.524-4.029s6.032.404 8.378 4.325c2.323 3.879 7.192 28.107 12.292 37.011l.166.282.052.072c11.064 25.26 36.279 43.149 65.939 43.666 25.543.446 48.244-12.099 61.68-31.467l.005.02c2.21-2.83 4.121-6.29 5.803-10.032a71.188 71.188 0 004.415-11.788c3.652-11.468 5.785-22.453 7.783-24.706 3.39-3.82 13.314-3.049 13.314-3.049l.323-18.494s-16.867-.891-24.56-9.976c-5.175-6.115-15.07-14.092-20.997-18.658z" stroke="#002B74" stroke-width="5.033" fill="#002B74"/></g></g></g><g transform="translate(384.984 536)"><ellipse fill="url(#ao)" opacity=".458" transform="rotate(-75 238.268 71.466)" cx="238.268" cy="71.466" rx="56" ry="23"/><path d="M76.636 0v95.963h-22.25V85.588l-.264.429c-2.066 3.259-4.949 5.882-8.648 7.87C41.614 95.964 37.125 97 32.007 97c-5.985 0-11.406-1.535-16.264-4.604C10.886 89.327 7.048 84.961 4.23 79.3 1.409 73.636 0 67.087 0 59.652c0-7.435 1.41-13.962 4.229-19.581 2.819-5.62 6.657-9.942 11.514-12.968 4.858-3.026 10.28-4.539 16.264-4.539 4.771 0 9.13.994 13.077 2.983 3.782 1.905 6.787 4.446 9.016 7.622l.287.418V0h22.249zm48.401 22.564c7.026 0 13.272 1.47 18.736 4.41 5.465 2.939 9.737 7.132 12.816 12.578 3.08 5.447 4.62 11.8 4.62 19.063 0 1.815-.1 3.697-.3 5.645l-.091.839h-50.353l.04.461c.408 4.27 1.848 7.553 4.318 9.848 2.56 2.378 5.704 3.567 9.434 3.567 5.428 0 9.239-2.232 11.432-6.695l.147-.308h23.68l-.156.592c-1.242 4.519-3.38 8.6-6.414 12.246-3.166 3.804-7.134 6.787-11.905 8.948C136.27 95.919 130.936 97 125.037 97c-7.113 0-13.445-1.513-18.996-4.539-5.552-3.026-9.889-7.348-13.011-12.968-3.123-5.62-4.684-12.19-4.684-19.71 0-7.522 1.54-14.093 4.619-19.712 3.079-5.62 7.394-9.942 12.946-12.968 5.551-3.026 11.927-4.539 19.126-4.539zm64.796 1.038l15.743 51.612 15.744-51.612H245l-25.762 72.36h-27.454l-25.762-72.36h23.81zM38.513 41.886c-4.424 0-8.175 1.578-11.255 4.734-3.079 3.155-4.619 7.5-4.619 13.032 0 5.533 1.54 9.92 4.62 13.163 3.079 3.242 6.83 4.863 11.254 4.863 4.424 0 8.175-1.6 11.255-4.798 3.079-3.2 4.619-7.565 4.619-13.098s-1.54-9.899-4.62-13.098c-3.079-3.198-6.83-4.798-11.254-4.798zm86.264-1.556c-3.73 0-6.874 1.08-9.433 3.242-2.464 2.081-4.023 5.004-4.678 8.77l-.071.437h27.844c0-3.804-1.301-6.83-3.904-9.077-2.602-2.248-5.855-3.372-9.758-3.372z" fill="url(#ap)" fill-rule="nonzero"/></g><path d="M419.744 408.77c5.793 0 10.817-1.063 15.07-3.19s7.498-4.987 9.735-8.58c2.237-3.593 3.355-7.59 3.355-11.99 0-4.62-1.137-8.397-3.41-11.33s-4.968-5.17-8.085-6.71c-3.117-1.54-7.168-3.153-12.155-4.84-4.987-1.613-8.653-3.117-11-4.51-2.347-1.393-3.52-3.337-3.52-5.83 0-2.273.697-4.015 2.09-5.225 1.393-1.21 3.227-1.815 5.5-1.815 2.64 0 4.803.715 6.49 2.145 1.687 1.43 2.603 3.392 2.75 5.885h20.35c-.367-7.26-3.153-12.925-8.36-16.995-5.207-4.07-12.063-6.105-20.57-6.105-8.36 0-15.143 2.035-20.35 6.105-5.207 4.07-7.81 9.698-7.81 16.885 0 4.84 1.137 8.763 3.41 11.77 2.273 3.007 4.987 5.28 8.14 6.82 3.153 1.54 7.223 3.08 12.21 4.62 3.447 1.027 6.105 1.943 7.975 2.75 1.87.807 3.447 1.833 4.73 3.08 1.283 1.247 1.925 2.823 1.925 4.73 0 2.273-.807 4.052-2.42 5.335-1.613 1.283-3.813 1.925-6.6 1.925-2.713 0-4.913-.752-6.6-2.255-1.687-1.503-2.677-3.685-2.97-6.545h-20.02c.147 5.06 1.558 9.387 4.235 12.98 2.677 3.593 6.252 6.307 10.725 8.14 4.473 1.833 9.533 2.75 15.18 2.75zm68.603.11c7.627 0 14.044-2.053 19.25-6.16 5.207-4.107 8.617-9.753 10.23-16.94h-20.02c-1.686 4.693-4.95 7.04-9.79 7.04-3.446 0-6.196-1.338-8.25-4.015-2.053-2.677-3.08-6.508-3.08-11.495 0-4.987 1.027-8.818 3.08-11.495 2.054-2.677 4.804-4.015 8.25-4.015 4.84 0 8.104 2.347 9.79 7.04h20.02c-1.613-7.333-5.005-13.017-10.175-17.05-5.17-4.033-11.605-6.05-19.305-6.05-6.013 0-11.348 1.283-16.005 3.85-4.656 2.567-8.286 6.233-10.89 11-2.603 4.767-3.905 10.34-3.905 16.72 0 6.38 1.302 11.953 3.905 16.72 2.604 4.767 6.234 8.433 10.89 11 4.657 2.567 9.992 3.85 16.005 3.85zm60.134-.88v-28.49c0-5.06 1.173-8.598 3.52-10.615 2.346-2.017 5.866-3.025 10.56-3.025h5.17v-19.91c-4.034 0-7.7.972-11 2.915s-6.05 4.602-8.25 7.975v-10.23h-18.81V408h18.81zm57.383.88c4.987 0 9.497-.917 13.53-2.75 4.033-1.833 7.388-4.363 10.065-7.59 2.677-3.227 4.528-6.857 5.555-10.89h-20.02c-1.833 3.96-5.097 5.94-9.79 5.94-3.153 0-5.812-1.008-7.975-3.025-2.163-2.017-3.392-4.932-3.685-8.745h42.57c.22-1.907.33-3.74.33-5.5 0-6.16-1.302-11.55-3.905-16.17-2.603-4.62-6.215-8.177-10.835-10.67-4.62-2.493-9.9-3.74-15.84-3.74-6.087 0-11.477 1.283-16.17 3.85-4.693 2.567-8.342 6.233-10.945 11-2.603 4.767-3.905 10.34-3.905 16.72 0 6.38 1.32 11.953 3.96 16.72 2.64 4.767 6.307 8.433 11 11s10.047 3.85 16.06 3.85zm11.33-37.51h-23.54c.513-3.373 1.852-5.977 4.015-7.81 2.163-1.833 4.822-2.75 7.975-2.75 3.3 0 6.05.953 8.25 2.86s3.3 4.473 3.3 7.7zm58.263 37.51c4.987 0 9.497-.917 13.53-2.75 4.034-1.833 7.389-4.363 10.065-7.59 2.677-3.227 4.529-6.857 5.555-10.89h-20.02c-1.833 3.96-5.096 5.94-9.79 5.94-3.153 0-5.811-1.008-7.975-3.025-2.163-2.017-3.391-4.932-3.685-8.745h42.57c.22-1.907.33-3.74.33-5.5 0-6.16-1.301-11.55-3.905-16.17-2.603-4.62-6.215-8.177-10.835-10.67-4.62-2.493-9.9-3.74-15.84-3.74-6.086 0-11.476 1.283-16.17 3.85-4.693 2.567-8.341 6.233-10.945 11-2.603 4.767-3.905 10.34-3.905 16.72 0 6.38 1.32 11.953 3.96 16.72 2.64 4.767 6.307 8.433 11 11 4.694 2.567 10.047 3.85 16.06 3.85zm11.33-37.51h-23.54c.514-3.373 1.852-5.977 4.015-7.81 2.164-1.833 4.822-2.75 7.975-2.75 3.3 0 6.05.953 8.25 2.86s3.3 4.473 3.3 7.7zM736.581 408v-33.33c0-4.107 1.063-7.297 3.19-9.57 2.126-2.273 4.986-3.41 8.58-3.41 3.593 0 6.453 1.137 8.58 3.41 2.126 2.273 3.19 5.463 3.19 9.57V408h18.7v-35.86c0-8.14-2.145-14.538-6.435-19.195-4.29-4.657-10.029-6.985-17.215-6.985-4.034 0-7.664.788-10.89 2.365-3.227 1.577-5.794 3.722-7.7 6.435v-8.14h-18.81V408h18.81zm84.223.88c7.627 0 14.043-2.053 19.25-6.16 5.207-4.107 8.617-9.753 10.23-16.94h-20.02c-1.687 4.693-4.95 7.04-9.79 7.04-3.447 0-6.197-1.338-8.25-4.015-2.053-2.677-3.08-6.508-3.08-11.495 0-4.987 1.027-8.818 3.08-11.495 2.053-2.677 4.803-4.015 8.25-4.015 4.84 0 8.103 2.347 9.79 7.04h20.02c-1.613-7.333-5.005-13.017-10.175-17.05-5.17-4.033-11.605-6.05-19.305-6.05-6.013 0-11.348 1.283-16.005 3.85-4.657 2.567-8.287 6.233-10.89 11-2.603 4.767-3.905 10.34-3.905 16.72 0 6.38 1.302 11.953 3.905 16.72 2.603 4.767 6.233 8.433 10.89 11 4.657 2.567 9.992 3.85 16.005 3.85zm64.533 0c4.327 0 8.122-.88 11.385-2.64 3.264-1.76 5.812-4.07 7.645-6.93V408h18.81v-61.38h-18.81v8.69c-1.76-2.86-4.271-5.17-7.535-6.93-3.263-1.76-7.058-2.64-11.385-2.64-5.06 0-9.643 1.283-13.75 3.85-4.106 2.567-7.351 6.233-9.735 11-2.383 4.767-3.575 10.303-3.575 16.61 0 6.307 1.192 11.862 3.575 16.665 2.384 4.803 5.629 8.507 9.735 11.11 4.107 2.603 8.654 3.905 13.64 3.905zm5.61-16.39c-3.74 0-6.911-1.375-9.515-4.125-2.603-2.75-3.905-6.472-3.905-11.165 0-4.693 1.302-8.378 3.905-11.055 2.604-2.677 5.775-4.015 9.515-4.015s6.912 1.357 9.515 4.07c2.604 2.713 3.905 6.417 3.905 11.11s-1.301 8.397-3.905 11.11c-2.603 2.713-5.775 4.07-9.515 4.07zm72.674 16.39c4.986 0 9.368-.807 13.145-2.42 3.776-1.613 6.673-3.832 8.69-6.655 2.016-2.823 3.025-6.032 3.025-9.625-.074-4.253-1.192-7.645-3.355-10.175-2.164-2.53-4.675-4.363-7.535-5.5-2.86-1.137-6.564-2.292-11.11-3.465-3.96-.88-6.875-1.76-8.745-2.64-1.87-.88-2.805-2.2-2.805-3.96 0-1.467.586-2.622 1.76-3.465 1.173-.843 2.86-1.265 5.06-1.265 2.566 0 4.638.623 6.215 1.87 1.576 1.247 2.511 2.933 2.805 5.06h17.38c-.66-6.307-3.209-11.367-7.645-15.18-4.437-3.813-10.505-5.72-18.205-5.72-5.207 0-9.699.843-13.475 2.53-3.777 1.687-6.637 3.978-8.58 6.875-1.944 2.897-2.915 6.105-2.915 9.625 0 4.18 1.063 7.498 3.19 9.955 2.126 2.457 4.656 4.253 7.59 5.39 2.933 1.137 6.6 2.218 11 3.245 4.106 1.027 7.076 1.962 8.91 2.805 1.833.843 2.75 2.145 2.75 3.905 0 1.467-.642 2.658-1.925 3.575-1.284.917-3.099 1.375-5.445 1.375-2.567 0-4.73-.66-6.49-1.98-1.76-1.32-2.75-3.043-2.97-5.17h-18.59c.293 3.96 1.65 7.535 4.07 10.725 2.42 3.19 5.72 5.702 9.9 7.535 4.18 1.833 8.946 2.75 14.3 2.75zm72.453-.88v-15.95h-6.71c-2.053 0-3.52-.403-4.4-1.21-.88-.807-1.32-2.127-1.32-3.96v-24.64h12.32v-15.62h-12.32v-14.96h-18.81v14.96h-7.48v15.62h7.48v24.42c0 7.553 1.907 12.998 5.72 16.335 3.813 3.337 9.13 5.005 15.95 5.005h9.57zm37.253.88c4.987 0 9.369-.807 13.145-2.42 3.777-1.613 6.674-3.832 8.69-6.655 2.017-2.823 3.025-6.032 3.025-9.625-.073-4.253-1.191-7.645-3.355-10.175-2.163-2.53-4.675-4.363-7.535-5.5-2.86-1.137-6.563-2.292-11.11-3.465-3.96-.88-6.875-1.76-8.745-2.64-1.87-.88-2.805-2.2-2.805-3.96 0-1.467.587-2.622 1.76-3.465 1.174-.843 2.86-1.265 5.06-1.265 2.567 0 4.639.623 6.215 1.87 1.577 1.247 2.512 2.933 2.805 5.06h17.38c-.66-6.307-3.208-11.367-7.645-15.18-4.436-3.813-10.505-5.72-18.205-5.72-5.206 0-9.698.843-13.475 2.53-3.776 1.687-6.636 3.978-8.58 6.875-1.943 2.897-2.915 6.105-2.915 9.625 0 4.18 1.064 7.498 3.19 9.955 2.127 2.457 4.657 4.253 7.59 5.39 2.934 1.137 6.6 2.218 11 3.245 4.107 1.027 7.077 1.962 8.91 2.805 1.834.843 2.75 2.145 2.75 3.905 0 1.467-.641 2.658-1.925 3.575-1.283.917-3.098 1.375-5.445 1.375-2.566 0-4.73-.66-6.49-1.98-1.76-1.32-2.75-3.043-2.97-5.17h-18.59c.294 3.96 1.65 7.535 4.07 10.725 2.42 3.19 5.72 5.702 9.9 7.535 4.18 1.833 8.947 2.75 14.3 2.75zM408.531 511.263v-38.344h8.502v-13.088h-8.502v-.461c0-2.704.616-4.578 1.848-5.623 1.232-1.044 3.358-1.474 6.377-1.29v-13.365c-.555-.061-1.417-.092-2.588-.092-7.023 0-12.352 1.644-15.987 4.931-3.634 3.288-5.452 8.096-5.452 14.425v1.475H387v13.088h5.73v38.344h15.801zm40.906.737c5.052 0 9.626-1.075 13.723-3.226 4.097-2.15 7.331-5.238 9.703-9.263 2.372-4.025 3.558-8.68 3.558-13.964 0-5.285-1.17-9.94-3.512-13.964-2.34-4.025-5.544-7.113-9.61-9.264-4.066-2.15-8.625-3.226-13.677-3.226-5.051 0-9.61 1.076-13.676 3.226-4.066 2.151-7.27 5.239-9.61 9.264-2.342 4.025-3.512 8.68-3.512 13.964 0 5.346 1.155 10.016 3.465 14.01 2.31 3.994 5.483 7.066 9.518 9.217 4.035 2.15 8.579 3.226 13.63 3.226zm0-13.641c-3.018 0-5.529-1.106-7.53-3.319-2.003-2.212-3.004-5.376-3.004-9.493 0-4.179 1.016-7.359 3.05-9.54 2.032-2.181 4.589-3.272 7.67-3.272 3.018 0 5.56 1.106 7.623 3.318 2.064 2.212 3.096 5.377 3.096 9.494s-1.063 7.281-3.189 9.493c-2.125 2.213-4.697 3.319-7.716 3.319zm52.735 12.904V487.39c0-4.24.986-7.205 2.957-8.894 1.971-1.69 4.928-2.535 8.871-2.535h4.343v-16.683c-3.388 0-6.468.814-9.24 2.442-2.773 1.629-5.083 3.856-6.931 6.683v-8.572H486.37v51.432h15.802zm75.159 0v-13.365h-5.637c-1.725 0-2.957-.338-3.696-1.014-.74-.676-1.11-1.782-1.11-3.318v-20.647h10.35v-13.088h-10.35v-12.536h-15.801v12.536h-6.284v13.088h6.284v20.462c0 6.33 1.602 10.892 4.805 13.688 3.203 2.796 7.67 4.194 13.4 4.194h8.039zm26.12 0v-27.928c0-3.441.894-6.114 2.68-8.02 1.787-1.904 4.19-2.857 7.208-2.857 3.019 0 5.422.953 7.208 2.858 1.787 1.905 2.68 4.578 2.68 8.019v27.928h15.71v-30.048c0-6.821-1.787-12.182-5.36-16.084-3.573-3.902-8.317-5.853-14.231-5.853-3.45 0-6.561.676-9.333 2.028-2.773 1.351-4.96 3.164-6.561 5.438v-23.688H587.65v68.207h15.802zm70.94.737c4.189 0 7.977-.768 11.366-2.304 3.388-1.536 6.207-3.656 8.455-6.36a22.998 22.998 0 004.667-9.125H682.06c-1.54 3.318-4.281 4.977-8.224 4.977-2.649 0-4.882-.845-6.7-2.535-1.817-1.69-2.849-4.132-3.095-7.327h35.762a40.1 40.1 0 00.277-4.609c0-5.161-1.093-9.678-3.28-13.55-2.187-3.87-5.221-6.85-9.103-8.94-3.88-2.089-8.316-3.134-13.306-3.134-5.114 0-9.642 1.076-13.585 3.226-3.942 2.151-7.007 5.224-9.194 9.218-2.187 3.994-3.28 8.664-3.28 14.01s1.108 10.016 3.326 14.01c2.218 3.994 5.298 7.066 9.24 9.217 3.944 2.15 8.44 3.226 13.493 3.226zm9.518-31.43h-19.776c.431-2.827 1.556-5.009 3.373-6.545 1.817-1.536 4.05-2.304 6.7-2.304 2.772 0 5.082.799 6.93 2.396 1.849 1.598 2.773 3.749 2.773 6.452zm62.96 30.693v-27.928c0-3.319.879-5.884 2.634-7.697 1.756-1.812 4.174-2.719 7.254-2.719 3.08 0 5.499.907 7.254 2.72 1.756 1.812 2.634 4.377 2.634 7.696v27.928h15.71v-27.928c0-3.319.877-5.884 2.633-7.697 1.756-1.812 4.174-2.719 7.254-2.719 3.08 0 5.499.907 7.254 2.72 1.756 1.812 2.634 4.377 2.634 7.696v27.928h15.71v-30.048c0-6.883-1.895-12.26-5.684-16.13-3.788-3.872-8.886-5.807-15.293-5.807-3.635 0-6.993.89-10.073 2.673-3.08 1.782-5.514 4.086-7.3 6.913-1.725-3.073-4.112-5.438-7.162-7.098-3.05-1.659-6.515-2.488-10.396-2.488-3.265 0-6.191.63-8.779 1.89-2.587 1.259-4.682 2.964-6.283 5.115v-6.452h-15.802v51.432h15.802zM853.94 512c5.052 0 9.626-1.075 13.723-3.226 4.097-2.15 7.331-5.238 9.703-9.263 2.372-4.025 3.558-8.68 3.558-13.964 0-5.285-1.17-9.94-3.512-13.964-2.34-4.025-5.544-7.113-9.61-9.264-4.066-2.15-8.625-3.226-13.677-3.226s-9.61 1.076-13.676 3.226c-4.066 2.151-7.27 5.239-9.61 9.264-2.342 4.025-3.512 8.68-3.512 13.964 0 5.346 1.155 10.016 3.465 14.01 2.31 3.994 5.483 7.066 9.518 9.217 4.035 2.15 8.579 3.226 13.63 3.226zm0-13.641c-3.018 0-5.529-1.106-7.531-3.319-2.002-2.212-3.003-5.376-3.003-9.493 0-4.179 1.016-7.359 3.05-9.54 2.032-2.181 4.589-3.272 7.67-3.272 3.018 0 5.56 1.106 7.623 3.318 2.064 2.212 3.096 5.377 3.096 9.494s-1.063 7.281-3.189 9.493c-2.125 2.213-4.697 3.319-7.716 3.319zM910.464 512c3.634 0 6.822-.737 9.564-2.212 2.741-1.475 4.851-3.441 6.33-5.9v7.375h15.802v-68.207h-15.802v23.872c-1.602-2.396-3.804-4.301-6.607-5.715-2.803-1.413-5.9-2.12-9.287-2.12-4.251 0-8.102 1.076-11.552 3.226-3.45 2.151-6.175 5.224-8.178 9.218-2.002 3.994-3.003 8.633-3.003 13.918 0 5.284 1.001 9.939 3.003 13.964 2.003 4.024 4.729 7.128 8.178 9.309 3.45 2.181 7.3 3.272 11.552 3.272zm4.62-13.734c-3.142 0-5.806-1.152-7.993-3.456-2.187-2.304-3.28-5.423-3.28-9.355 0-3.933 1.093-7.02 3.28-9.264 2.187-2.243 4.851-3.364 7.993-3.364 3.142 0 5.806 1.137 7.993 3.41 2.187 2.274 3.28 5.377 3.28 9.31 0 3.932-1.093 7.035-3.28 9.31-2.187 2.273-4.851 3.41-7.993 3.41zM978.076 512c4.189 0 7.978-.768 11.366-2.304 3.388-1.536 6.207-3.656 8.455-6.36a22.998 22.998 0 004.667-9.125h-16.818c-1.54 3.318-4.282 4.977-8.225 4.977-2.649 0-4.882-.845-6.7-2.535-1.817-1.69-2.849-4.132-3.095-7.327h35.762a40.1 40.1 0 00.277-4.609c0-5.161-1.093-9.678-3.28-13.55-2.187-3.87-5.221-6.85-9.102-8.94-3.882-2.089-8.317-3.134-13.307-3.134-5.113 0-9.642 1.076-13.584 3.226-3.943 2.151-7.008 5.224-9.195 9.218-2.187 3.994-3.28 8.664-3.28 14.01s1.108 10.016 3.326 14.01c2.218 3.994 5.298 7.066 9.241 9.217 3.943 2.15 8.44 3.226 13.492 3.226zm9.518-31.43h-19.776c.432-2.827 1.556-5.009 3.373-6.545 1.818-1.536 4.05-2.304 6.7-2.304 2.772 0 5.082.799 6.93 2.396 1.849 1.598 2.773 3.749 2.773 6.452zm41.83 30.693V487.39c0-4.24.986-7.205 2.957-8.894 1.972-1.69 4.929-2.535 8.871-2.535h4.344v-16.683c-3.389 0-6.469.814-9.241 2.442-2.772 1.629-5.083 3.856-6.93 6.683v-8.572h-15.803v51.432h15.802zm41.091 0v-27.928c0-3.441.893-6.114 2.68-8.02 1.787-1.904 4.19-2.857 7.208-2.857 3.019 0 5.421.953 7.208 2.858 1.786 1.905 2.68 4.578 2.68 8.019v27.928H1106v-30.048c0-6.821-1.802-12.182-5.406-16.084-3.604-3.902-8.424-5.853-14.462-5.853-3.388 0-6.438.66-9.148 1.981-2.71 1.322-4.867 3.119-6.469 5.393v-6.821h-15.802v51.432h15.802z" fill="#FFF" fill-rule="nonzero"/></g></svg>