<svg xmlns="http://www.w3.org/2000/svg" xmlns:xlink="http://www.w3.org/1999/xlink" width="1823" height="1236"><defs><linearGradient x1="42.042%" y1="91.27%" x2="65.412%" y2="50%" id="a"><stop stop-color="#1390B3" offset="0%"/><stop stop-color="#4BDEFF" offset="100%"/></linearGradient><linearGradient x1="50%" y1="0%" x2="50%" y2="100%" id="b"><stop stop-color="#F44881" offset="0%"/><stop stop-color="#EC454F" offset="100%"/></linearGradient><linearGradient x1="50%" y1="100%" x2="50%" y2="0%" id="c"><stop stop-color="#8B60ED" offset="0%"/><stop stop-color="#B372BD" offset="100%"/></linearGradient><linearGradient x1="50%" y1="11.35%" x2="50%" y2="111.35%" id="d"><stop stop-color="#6EDCC4" offset="0%"/><stop stop-color="#1AAB8B" offset="100%"/></linearGradient><linearGradient x1="50%" y1="100%" x2="50%" y2="1.467%" id="e"><stop stop-color="#F19A1A" offset="0%"/><stop stop-color="#FFC73C" offset="100%"/></linearGradient><linearGradient x1="50%" y1="0%" x2="50%" y2="100%" id="f"><stop stop-color="#F44881" offset="0%"/><stop stop-color="#EC454F" offset="100%"/></linearGradient><linearGradient x1="50%" y1="16.428%" x2="51.872%" y2="46.127%" id="i"><stop stop-color="#00D0FF" offset="0%"/><stop stop-color="#637BFF" stop-opacity="0" offset="100%"/></linearGradient><linearGradient x1="45.588%" y1="168.048%" x2="4.83%" y2="5.569%" id="k"><stop stop-color="#C4D6EB" stop-opacity=".676" offset="0%"/><stop stop-color="#91ACD2" stop-opacity=".3" offset="100%"/></linearGradient><linearGradient x1="39.585%" y1="81.515%" x2="19.519%" y2="6.036%" id="l"><stop stop-color="#76E1FF" offset="0%"/><stop stop-color="#637BFF" stop-opacity="0" offset="100%"/></linearGradient><linearGradient x1="0%" y1="50%" x2="100%" y2="50%" id="p"><stop stop-color="#5B79A2" offset="0%"/><stop stop-color="#2E4469" offset="100%"/></linearGradient><linearGradient x1="0%" y1="50%" x2="100%" y2="50%" id="A"><stop stop-color="#05A" offset="0%"/><stop stop-color="#1378E2" offset="100%"/></linearGradient><linearGradient x1=".733%" y1="50.733%" x2="99.267%" y2="50.733%" id="B"><stop stop-color="#F19A1A" offset="0%"/><stop stop-color="#FFC73C" offset="100%"/></linearGradient><linearGradient x1="1.259%" y1="48.741%" x2="98.741%" y2="48.741%" id="D"><stop stop-color="#21C8F6" offset="0%"/><stop stop-color="#637BFF" offset="100%"/></linearGradient><linearGradient x1="98.922%" y1="49.992%" x2=".766%" y2="50.008%" id="E"><stop stop-color="#21C8F6" offset="0%"/><stop stop-color="#637BFF" offset="100%"/></linearGradient><linearGradient x1="1.259%" y1="48.741%" x2="98.741%" y2="48.741%" id="F"><stop stop-color="#21C8F6" offset="0%"/><stop stop-color="#637BFF" offset="100%"/></linearGradient><linearGradient x1="92.101%" y1="34.122%" x2="50.529%" y2="65.876%" id="H"><stop stop-color="#4784E6" offset="0%"/><stop stop-color="#0F49A7" offset="100%"/></linearGradient><linearGradient x1="50%" y1="149.484%" x2="50%" y2="0%" id="K"><stop stop-color="#2C63C0" offset="0%"/><stop stop-color="#1952AF" offset="100%"/></linearGradient><linearGradient x1="98.741%" y1="48.741%" x2="1.259%" y2="48.741%" id="M"><stop stop-color="#69A1FF" offset="0%"/><stop stop-color="#5089E8" offset="100%"/></linearGradient><linearGradient x1="18.665%" y1="51.13%" x2="80.028%" y2="46.638%" id="N"><stop stop-color="#225BBA" offset="0%"/><stop stop-color="#356DC9" offset="100%"/></linearGradient><linearGradient x1="38.02%" y1="51.116%" x2="80.028%" y2="46.638%" id="O"><stop stop-color="#1A53B1" offset="0%"/><stop stop-color="#356DC9" offset="100%"/></linearGradient><linearGradient x1="14.631%" y1="50%" x2="92.229%" y2="95.804%" id="P"><stop stop-color="#3B74D2" offset="0%"/><stop stop-color="#2059B7" offset="100%"/></linearGradient><linearGradient x1="77.59%" y1="0%" x2="6.327%" y2="146.499%" id="X"><stop stop-color="#5C95F3" offset="0%"/><stop stop-color="#144DAB" offset="100%"/></linearGradient><linearGradient x1="29.548%" y1="91.27%" x2="89.612%" y2="50%" id="aa"><stop stop-color="#1390B3" offset="0%"/><stop stop-color="#4BDEFF" offset="100%"/></linearGradient><linearGradient x1="154.902%" y1="137.331%" x2="24.379%" y2="14.532%" id="ag"><stop stop-color="#76E1FF" offset="0%"/><stop stop-color="#637BFF" stop-opacity="0" offset="100%"/></linearGradient><linearGradient x1="13.579%" y1=".616%" x2="106.218%" y2="98.781%" id="ah"><stop stop-color="#587CB9" offset="0%"/><stop stop-color="#2E4469" stop-opacity="0" offset="100%"/></linearGradient><linearGradient x1="98.741%" y1="48.741%" x2="-10.029%" y2="48.741%" id="ap"><stop stop-color="#21C8F6" offset="0%"/><stop stop-color="#637BFF" offset="100%"/></linearGradient><radialGradient cx="52.101%" cy="30.594%" fx="52.101%" fy="30.594%" r="250.733%" gradientTransform="matrix(-.19461 0 0 -.25522 .622 .384)" id="h"><stop offset="0%"/><stop stop-opacity=".002" offset="100%"/></radialGradient><radialGradient cx="37.435%" cy="76.012%" fx="37.435%" fy="76.012%" r="67.976%" gradientTransform="matrix(.28028 -.9375 .75513 .34797 -.304 .847)" id="j"><stop stop-color="#00C3FF" offset="0%"/><stop stop-color="#293F64" offset="100%"/></radialGradient><radialGradient cx="50%" cy="50%" fx="50%" fy="50%" r="50.05%" gradientTransform="matrix(.03907 -.99901 .87742 .04449 .042 .977)" id="o"><stop stop-color="#21C8F6" offset="0%"/><stop stop-color="#6EE4FF" offset="100%"/></radialGradient><radialGradient cx="50%" cy="50%" fx="50%" fy="50%" r="52.641%" gradientTransform="scale(1 .95048) rotate(-87.871 .514 .513)" id="s"><stop stop-color="#21C8F6" offset="0%"/><stop stop-color="#6EE4FF" offset="100%"/></radialGradient><radialGradient cx="55.352%" cy="36.823%" fx="55.352%" fy="36.823%" r="86.583%" gradientTransform="matrix(-.5 0 0 -.39582 .83 .514)" id="y"><stop stop-color="#090E17" offset="0%"/><stop stop-color="#111A29" stop-opacity="0" offset="100%"/></radialGradient><radialGradient cx="52.436%" cy="42.955%" fx="52.436%" fy="42.955%" r="36.114%" gradientTransform="matrix(-1 0 0 -.21038 1.049 .52)" id="I"><stop stop-color="#172743" offset="0%"/><stop stop-opacity="0" offset="100%"/></radialGradient><radialGradient cx="52.436%" cy="42.955%" fx="52.436%" fy="42.955%" r="157.26%" gradientTransform="matrix(-.22964 0 0 -.21136 .645 .52)" id="Q"><stop stop-color="#172743" offset="0%"/><stop stop-opacity="0" offset="100%"/></radialGradient><radialGradient cx="50%" cy="50%" fx="50%" fy="50%" r="68.353%" gradientTransform="matrix(0 1 -.99517 0 .998 0)" id="T"><stop stop-color="#83B2FF" offset="0%"/><stop stop-color="#84B3FF" offset="100%"/></radialGradient><radialGradient cx="50%" cy="50%" fx="50%" fy="50%" r="102.962%" gradientTransform="matrix(0 .98882 -1.93068 0 1.465 .006)" id="W"><stop stop-color="#FFF" offset="0%"/><stop stop-color="#C42E6C" offset="100%"/></radialGradient><radialGradient cx="50%" cy="50%" fx="50%" fy="50%" r="61.85%" gradientTransform="matrix(.636 -.70207 .62704 .7121 -.132 .495)" id="Z"><stop stop-color="#0F47A5" offset="0%"/><stop stop-color="#002E79" offset="100%"/></radialGradient><radialGradient cx="50%" cy="50%" fx="50%" fy="50%" r="101.811%" gradientTransform="matrix(0 1 -1.7196 0 1.36 0)" id="ae"><stop stop-color="#95BDFF" offset="0%"/><stop stop-color="#78AAFF" offset="100%"/></radialGradient><radialGradient cx="50%" cy="50%" fx="50%" fy="50%" r="28.075%" gradientTransform="matrix(0 1 -1.6664 0 1.333 0)" id="aj"><stop offset="0%"/><stop stop-opacity="0" offset="100%"/></radialGradient><radialGradient cx="55.352%" cy="36.823%" fx="55.352%" fy="36.823%" r="105.406%" gradientTransform="matrix(-.41071 0 0 -.39582 .78 .514)" id="ao"><stop stop-color="#090E17" offset="0%"/><stop stop-color="#111A29" stop-opacity="0" offset="100%"/></radialGradient><filter x="-100.4%" y="-114.3%" width="300.9%" height="328.7%" filterUnits="objectBoundingBox" id="m"><feOffset in="SourceAlpha" result="shadowOffsetOuter1"/><feGaussianBlur stdDeviation="23" in="shadowOffsetOuter1" result="shadowBlurOuter1"/><feColorMatrix values="0 0 0 0 0.137254902 0 0 0 0 0.788235294 0 0 0 0 0.968627451 0 0 0 0.426300262 0" in="shadowBlurOuter1"/></filter><filter x="-864.1%" y="-821.3%" width="1828.1%" height="1742.5%" filterUnits="objectBoundingBox" id="q"><feOffset in="SourceAlpha" result="shadowOffsetOuter1"/><feGaussianBlur stdDeviation="23" in="shadowOffsetOuter1" result="shadowBlurOuter1"/><feColorMatrix values="0 0 0 0 0.137254902 0 0 0 0 0.788235294 0 0 0 0 0.968627451 0 0 0 0.426300262 0" in="shadowBlurOuter1"/></filter><filter x="-58%" y="-42.5%" width="215.9%" height="185.1%" filterUnits="objectBoundingBox" id="x"><feOffset in="SourceAlpha" result="shadowOffsetOuter1"/><feGaussianBlur stdDeviation="16.5" in="shadowOffsetOuter1" result="shadowBlurOuter1"/><feColorMatrix values="0 0 0 0 0.137254902 0 0 0 0 0.788235294 0 0 0 0 0.968627451 0 0 0 0.216701267 0" in="shadowBlurOuter1" result="shadowMatrixOuter1"/><feMerge><feMergeNode in="shadowMatrixOuter1"/><feMergeNode in="SourceGraphic"/></feMerge></filter><filter x="-17.1%" y="-18%" width="134.1%" height="136%" filterUnits="objectBoundingBox" id="z"><feOffset in="SourceAlpha" result="shadowOffsetOuter1"/><feGaussianBlur stdDeviation="10.5" in="shadowOffsetOuter1" result="shadowBlurOuter1"/><feColorMatrix values="0 0 0 0 0 0 0 0 0 0 0 0 0 0 0 0 0 0 0.0869208916 0" in="shadowBlurOuter1" result="shadowMatrixOuter1"/><feMerge><feMergeNode in="shadowMatrixOuter1"/><feMergeNode in="SourceGraphic"/></feMerge></filter><filter x="-13.6%" y="-45.6%" width="127.2%" height="191.2%" filterUnits="objectBoundingBox" id="C"><feGaussianBlur stdDeviation="17.895" in="SourceGraphic"/></filter><filter x="-41.1%" y="-39%" width="182.1%" height="178%" filterUnits="objectBoundingBox" id="G"><feGaussianBlur stdDeviation="17.895" in="SourceGraphic"/></filter><filter x="0%" y="0%" width="100%" height="100%" filterUnits="objectBoundingBox" id="J"><feGaussianBlur in="SourceGraphic"/></filter><filter x="0%" y="0%" width="100%" height="100%" filterUnits="objectBoundingBox" id="L"><feGaussianBlur in="SourceGraphic"/></filter><filter x="-16%" y="-69.6%" width="131.9%" height="239.1%" filterUnits="objectBoundingBox" id="R"><feGaussianBlur stdDeviation="9.865" in="SourceGraphic"/></filter><filter x="-39.5%" y="-39.7%" width="179.1%" height="179.5%" filterUnits="objectBoundingBox" id="S"><feGaussianBlur stdDeviation="16.911" in="SourceGraphic"/></filter><filter x="-25.3%" y="-25%" width="150.7%" height="150.1%" filterUnits="objectBoundingBox" id="U"><feOffset in="SourceAlpha" result="shadowOffsetOuter1"/><feGaussianBlur stdDeviation="4" in="shadowOffsetOuter1" result="shadowBlurOuter1"/><feColorMatrix values="0 0 0 0 0.951002038 0 0 0 0 0.370524746 0 0 0 0 0.61045536 0 0 0 1 0" in="shadowBlurOuter1"/></filter><filter x="-640.3%" y="-1413.3%" width="1380.6%" height="2926.6%" filterUnits="objectBoundingBox" id="ac"><feOffset in="SourceAlpha" result="shadowOffsetOuter1"/><feGaussianBlur stdDeviation="59" in="shadowOffsetOuter1" result="shadowBlurOuter1"/><feColorMatrix values="0 0 0 0 0.951002038 0 0 0 0 0.370524746 0 0 0 0 0.61045536 0 0 0 1 0" in="shadowBlurOuter1"/></filter><path d="M1209.868 618.93v96.603h-96.61v-96.602h96.61zm123.57 0v96.603h-96.61v-96.602h96.61zm123.571 0v96.603h-96.61v-96.602h96.61zm123.57 0v96.603h-96.609v-96.602h96.61zm-1359.275-1.122v96.602h-96.61v-96.602h96.61zm247.14 0v96.602h-96.609v-96.602h96.61zm247.142-.33v96.602h-96.61v-96.603h96.61zm-123.57 0v96.602h-96.61v-96.603h96.61zm617.852-123.232v96.603h-96.61v-96.603h96.61zm-123.57 0v96.603h-96.61v-96.603h96.61zm-864.994 0v96.603h-96.61v-96.603h96.61zm-123.57 0v96.603H1.123v-96.603h96.61zm370.71 0v96.603h-96.609v-96.603h96.61zm247.142-.33v96.602h-96.61v-96.602h96.61zm-123.57 0v96.602h-96.61v-96.602h96.61zM96.61 371.808v96.602H0v-96.602h96.61zm123.57 0v96.602h-96.61v-96.602h96.61zm123.57 0v96.602h-96.609v-96.602h96.61zm866.118-1.123v96.602h-96.61v-96.602h96.61zm-123.57 0v96.602h-96.61v-96.602h96.61zm-368.465 0v96.602h-96.61v-96.602h96.61zm-249.388 0v96.602h-96.61v-96.602h96.61zm494.282-123.562v96.603h-96.61v-96.603h96.61zm-244.894 0v96.603h-96.61v-96.603h96.61zm-123.571 0v96.603h-96.61v-96.603h96.61zm-125.817 0v96.603h-96.61v-96.603h96.61zm494.282-123.561v96.602h-96.61v-96.602h96.61zm-123.57 0v96.602h-96.61v-96.602h96.61zm-244.895 0v96.602h-96.61v-96.602h96.61zM839.156 0v96.603h-96.61V0h96.61z" id="g"/><path d="M280.813 225.69s-2.242.262-5.455 1.293c-7.029 2.25-18.714 8.17-21.798 23.032-.15 2.172-.163 4.384.053 6.55.68 6.87 4.103 12.765 9.08 17.377 6.666 6.174 16.12 10.046 25.524 10.868 14.522 1.27 28.92-4.735 32.728-20.766.392-1.644.7-3.225.966-4.773.852-9.059-.586-16.301-3.798-21.774a23.912 23.912 0 00-3.541-4.638c-5.404-5.513-13.386-8.226-22.9-8.226-3.436 0-7.07.355-10.86 1.058" id="n"/><path d="M301.463 249.852c0 2.32-1.787 4.201-3.992 4.201-2.207 0-3.994-1.88-3.994-4.2 0-2.32 1.787-4.202 3.994-4.202 2.205 0 3.992 1.882 3.992 4.201" id="r"/><path d="M244.366 342.233s-6.69-10.351-13.411-13.223c-2.02-.862-4.042-1.05-5.887-.08-2.472 1.302-3.03 4.413-2.624 8.09.908 8.201 6.617 19.215 6.617 19.215a37.805 37.805 0 013.564-2.952c10.22-7.487 23.65-10.078 28.515-10.807 1.183-.176 1.859-.243 1.859-.243s-.655-2.066-2.081-4.67c-.817-1.496-1.886-3.165-3.231-4.722-1.599-1.855-3.587-3.552-6-4.61-.727-.32-1.382-.463-1.971-.464-5.9 0-5.35 14.466-5.35 14.466" id="t"/><path d="M345.673 332.785c-2.475.883-4.568 2.436-6.283 4.172a26.537 26.537 0 00-2.996 3.672c-1.948 2.857-2.909 5.32-2.909 5.32s.67.115 1.84.375c4.488 1.002 16.325 4.159 25.782 11.247a39.989 39.989 0 015.338 4.765s6.782-11.205 7.95-19.4c.392-2.767.146-5.192-1.218-6.725-2.467-2.773-6.52-1.619-9.272-.067-6.093 3.434-11.83 11.132-11.83 11.132s1.524-14.821-4.672-14.821c-.52 0-1.095.104-1.73.33" id="v"/><path d="M47.373 20.863v-9.26l-3.43 1.965-4.738 2.715v9.26l8.17-4.68h-.002zm-9.8 16.752v-9.267l-4.662 2.65-13.309 7.558v9.354l17.97-10.295zM0 6.083v31.532l17.968 10.294v-9.352l-9.387-5.286-.003-.002-.004-.002c-.032-.019-.058-.045-.088-.067-.025-.02-.055-.037-.077-.06l-.002-.002c-.027-.026-.045-.057-.067-.085-.02-.028-.045-.051-.062-.08v-.003c-.019-.03-.03-.067-.044-.101-.013-.03-.03-.059-.038-.092-.01-.04-.012-.08-.017-.12-.004-.03-.012-.06-.012-.09V10.763L3.43 8.046 0 6.084zM8.985 0L.82 4.678l8.164 4.677 8.165-4.678L8.983 0h.002zm4.247 29.193l4.737-2.714V6.083l-3.43 1.965-4.738 2.715V31.16l3.43-1.966zM38.389 5.52l-8.165 4.678 8.165 4.678 8.164-4.68L38.39 5.52zm-.817 10.763l-4.738-2.715-3.43-1.965v9.26l4.737 2.714 3.431 1.966v-9.26zM18.784 37.151l11.977-6.804 5.986-3.4-8.159-4.675-9.394 5.382-8.562 4.905 8.152 4.592z" id="V"/><path d="M32.317 0h173.815c17.848 0 32.317 14.469 32.317 32.317v138.447a32.316 32.316 0 01-20.534 30.095c-20.611 8.07-52.143 12.106-94.594 12.106-44.972 0-79.187-4.529-102.644-13.586A32.317 32.317 0 010 169.23V32.317C0 14.47 14.469 0 32.317 0z" id="Y"/><path d="M170.878 178.671c-4.936-.006-9.633-2.202-12.886-6.026-1.392-1.635-1.228-4.114.365-5.535 1.593-1.422 4.011-1.248 5.404.387 1.795 2.11 4.386 3.323 7.108 3.327 2.72.003 5.309-1.203 7.1-3.31a3.765 3.765 0 015.402-.374c1.596 1.426 1.766 3.905.378 5.537-3.243 3.815-7.935 6-12.87 5.994z" id="ad"/><path d="M32.317 0h173.815c17.848 0 32.317 14.469 32.317 32.317v138.447a32.316 32.316 0 01-20.534 30.095c-20.611 8.07-52.143 12.106-94.594 12.106-44.972 0-79.187-4.529-102.644-13.586A32.317 32.317 0 010 169.23V32.317C0 14.47 14.469 0 32.317 0z" id="af"/><ellipse id="ak" cx="68.354" cy="67.724" rx="68.354" ry="67.724"/><ellipse id="am" cx="68.354" cy="67.724" rx="68.354" ry="67.724"/></defs><g fill="none" fill-rule="evenodd"><g style="mix-blend-mode:luminosity"><path d="M932.184 611.465c0-1.154-.423-2.176-1.268-3.063l-6.34-6.659c-.845-.887-1.818-1.332-2.916-1.332-1.099 0-2.072.445-2.916 1.332l-59.082 62.059c-.846.888-1.268 1.91-1.268 3.063 0 1.154.423 2.176 1.268 3.063l59.081 62.059c.845.889 1.816 1.331 2.916 1.331 1.1 0 2.072-.444 2.917-1.331l6.34-6.656c.845-.887 1.268-1.909 1.268-3.064 0-1.153-.423-2.174-1.268-3.062l-49.827-52.34 49.827-52.336c.846-.888 1.268-1.91 1.268-3.064z" fill="url(#a)" fill-rule="nonzero" opacity=".455" transform="rotate(-8 895.29 666.864)"/><g opacity=".228"><path fill="url(#b)" d="M0 370.685h96.61v96.603H0z" transform="translate(984.951 590.284)"/><path fill="url(#c)" d="M123.571 370.685h96.61v96.603h-96.61z" transform="translate(984.951 590.284)"/><path fill="url(#d)" d="M247.141 370.685h96.61v96.603h-96.61z" transform="translate(984.951 590.284)"/><path fill="url(#e)" d="M0 247.123h96.61v96.603H0z" transform="translate(984.951 590.284)"/><path fill="#4BDEFF" fill-rule="nonzero" d="M984.951 713.846h96.61v96.603h-96.61z"/><path fill="url(#b)" d="M0 0h96.61v96.603H0z" transform="translate(984.951 590.284)"/><use fill="url(#f)" style="mix-blend-mode:luminosity" xlink:href="#g" opacity=".654" transform="translate(242.404 343.491)"/><path d="M1108.522 247.123h96.61v96.603h-96.61zm0-123.561h96.61v96.603h-96.61zm-123.571 0h96.61v96.603h-96.61zm0-123.562h96.61v96.603h-96.61zM216.304 838.186v96.61H119.7v-96.61zm.039 123.598v96.61H119.74v-96.61zm-119.74.026v96.61H0v-96.61z" opacity=".37" fill="#1AAB8B"/></g><g transform="rotate(-11 3547.165 -3135.642)"><ellipse fill="url(#h)" opacity=".278" cx="273.524" cy="633.713" rx="218.187" ry="42.462"/><g transform="translate(0 31.102)"><path d="M290.486 142.475c26.442 0 52.92 6.414 69.324 18.368 14.42 10.509 24.887 40.696 25.097 41.297.016.047-.36 1.014 2.315 1.593.414.09 1.009.219 1.765.386l.933.207c13.929 3.117 67.54 15.815 90.784 32.987-3.039.77-6.845 1.198-10.732 1.49l-.793.056c-.525.037-1.051.071-1.57.103l-.79.046c-4.837.274-9.373.353-11.586.375l-6.59.068 5.284 3.938c.727.542 1.445 1.083 2.16 1.625 12.751 5.883 53.908 25.093 68.576 38.135l.325.293-.03.01c-.73.208-1.493.346-2.313.46l-.415.054c-2.69.339-5.956.45-8.947.46h-.888a167.2 167.2 0 01-6.635-.162l-5.49-.243 3.777 3.992c.757.8 1.501 1.596 2.235 2.387 12.038 8.696 50.655 37.771 71.466 70.3l.143.227-29.63-8.62-.053 2.906-.035 1.804c2.24 6.668 8.514 24.442 13.993 43.354l.455 1.58c1.865 6.516 3.62 13.13 5.064 19.406-.254.26-.573.436-.935.55-1.026.324-2.302.255-3.694.014-4.757-.825-10.688-3.828-14.598-6.017a98.05 98.05 0 01-3.036-1.77 1000.766 1000.766 0 01-1.257 15.428c4.713 21.896 12.728 62.872 13.867 98.854-2.342-.395-6.64-5.067-10.514-9.875l-.514-.642c-4.088-5.133-7.575-10.212-7.575-10.212s-2.09-3.042-4.572-7.038c.37 5.14.603 8.56.603 8.56.017.247.69 10.18 1.354 21.582l.05.858.05.862.049.867c.058 1.013.115 2.032.171 3.053l.048.874.076 1.4c.312 5.798.585 11.498.735 16.075-.953-1.378-2.004-2.967-3.063-4.558l-.415-.624-.443-.673a391.098 391.098 0 01-4.588-7.165 431.353 431.353 0 01-2.696-4.364 329.763 329.763 0 01-4.074 14.3c-.173 10.143-5.997 18.215-15.927 25.088-11.323 7.836-27.953 14.09-48.198 18.9-45.427 10.796-108.927 14.235-172.218 11.146-62.773-3.065-125.347-12.55-169.886-27.717-19.821-6.75-36.049-14.606-47.04-23.557-9.702-7.9-15.31-16.628-15.24-26.267-1.045-4.627-1.975-8.774-2.86-12.957a499.517 499.517 0 01-1.28-6.243 10896.57 10896.57 0 01-11.557 22.822l-1.086 2.135c-.684 1.345-1.368 2.687-2.047 4.012-7.986-38.034-.75-90.054 3.2-113.024-.166-2.791-.345-4.99-.517-7.163l-.57-7.203-3.578 6.278c-2.439 4.28-6.153 10.328-9.634 11.824-.32.139-.634.234-.941.201-.212-.022-.407-.123-.596-.28-.758-.623-1.345-1.811-1.883-3.57.09-33.307 13.861-78.784 13.861-78.784s2.194-7.245 5.999-17.715c-4.05 8.254-9.875 15.698-9.875 15.698s-9.438 12.06-18.803 17.676c-2.262 1.356-4.507 2.34-6.598 2.552-.876.088-1.72.03-2.51-.227 14.08-27.564 49.324-54.748 67.738-67.728 2.342-2.561 4.375-4.815 6.505-7.11 1.661-1.79 3.301-3.52 4.92-5.198-2.402.657-4.852 1.14-6.923 1.493-4.51.77-10.922 1.553-15.222.457-1.137-.29-2.128-.686-2.727-1.4-.267-.32-.416-.709-.461-1.164 18.063-15.25 53.432-31.175 67.34-37.146 1.188-.83 1.9-1.374 2.612-1.917l6.343-4.816H90.549c25.298-21.64 106.439-37.193 106.439-37.193s.438-.084 1.26-.236c.258-.774.408-1.196.408-1.196s10.779-30.401 25.144-41.353c16.496-12.575 41.61-18.34 66.686-18.34z" stroke="url(#i)" stroke-width="4.447"/><path d="M222.453 158.767c34.551-26.34 106.082-23.745 138.666 0 14.957 10.9 25.89 42.371 25.89 42.371s.873.182 2.46.532l.936.209c14.57 3.26 72.038 16.984 94.038 35.258 0 3.653-23.152 4.13-29.187 4.191.732.546 1.455 1.091 2.175 1.637 13.142 6.004 58.459 27.257 70.931 40.38 0 3.616-17.768 3.08-22.7 2.862.762.805 1.511 1.607 2.25 2.404 12.289 8.822 53.853 40.181 74.128 74.547l1.331 1.401-32.94-9.583-.036 1.808c2.94 8.18 13.936 39.391 19.666 64.716-2.892 6.087-15.798-.077-22.69-3.935-.3 3.883-.63 7.861-.992 11.916 4.764 21.646 12.986 63.76 13.924 100.3-3.993 2.802-22.625-21.002-22.625-21.002s.958 14.114 1.724 28.127l.076 1.4c.477 8.862.861 17.492.861 22.281-1.256-.66-4.55-5.313-7.68-10.044l-.445-.675a393.42 393.42 0 01-4.615-7.207 322.18 322.18 0 01-2.762 9.415c-.69 90.242-473.512 68.85-472.856-23.081a466.787 466.787 0 01-2.81-12.482 9010.995 9010.995 0 01-8.682 17.128l-1.085 2.135c-1.629 3.2-3.251 6.382-4.8 9.409-10.209-38.663-2.41-95.442 1.779-119.806-.19-2.23-.369-4.434-.541-6.611-4.501 7.898-13.329 20.67-17.21 7.399 0-33.605 13.957-79.752 13.957-79.752S10.647 374.358 0 365.958c13.553-28.517 50.334-57.03 69.387-70.46a373.85 373.85 0 016.157-6.806c-8.09 1.38-21.924 2.611-20.978-5.349 17.977-15.574 54.432-32.032 68.657-38.139a389.852 389.852 0 013.227-2.467H85.177c19.963-23.804 111.386-41.599 111.386-41.599s11.157-31.14 25.89-42.37z" fill="url(#j)"/><path d="M335.381 121.853c0 1.154.423 2.176 1.268 3.063l6.34 6.659c.846.887 1.818 1.332 2.917 1.332 1.098 0 2.071-.445 2.916-1.332l59.081-62.059c.847-.888 1.268-1.91 1.268-3.063 0-1.154-.423-2.176-1.268-3.063l-59.08-62.059C347.977.442 347.006 0 345.905 0c-1.1 0-2.071.444-2.916 1.331l-6.34 6.656c-.845.887-1.269 1.909-1.269 3.064 0 1.153.424 2.174 1.269 3.062l49.826 52.34-49.827 52.336c-.846.888-1.268 1.91-1.268 3.064z" fill="url(#a)" fill-rule="nonzero" opacity=".455"/><path d="M345.508 254.29c0 31.914-24.589 57.786-54.923 57.786-30.333 0-54.922-25.872-54.922-57.785 0-31.913 24.589-57.785 54.922-57.785 30.334 0 54.923 25.872 54.923 57.785" stroke="url(#k)" stroke-width="4.33" fill="#24385A"/><path d="M345.508 254.29c0 31.914-24.589 57.786-54.923 57.786-30.333 0-54.922-25.872-54.922-57.785 0-31.913 24.589-57.785 54.922-57.785 30.334 0 54.923 25.872 54.923 57.785" stroke="url(#l)" stroke-width="4.33" fill-opacity=".152" fill="#000"/><g fill-rule="nonzero"><use fill="#000" filter="url(#m)" xlink:href="#n"/><use fill="url(#o)" xlink:href="#n"/></g><path d="M286.869 236.698s-4.982.582-8.293 4.393c-1.787 2.058-3.09 5.054-2.858 9.41.154 2.94 1.561 5.455 3.656 7.4 1.782 1.649 4.062 2.886 6.5 3.623 5.057 1.526 10.793.896 14.18-2.687 1.183-1.254 2.082-2.87 2.56-4.886.558-2.352.794-4.463.744-6.337-.093-3.51-1.183-6.185-3.016-8.056-1.981-2.02-4.828-3.098-8.22-3.261a19.91 19.91 0 00-.92-.021 23.7 23.7 0 00-4.333.422" fill="url(#p)"/><g fill-rule="nonzero"><use fill="#000" filter="url(#q)" xlink:href="#r"/><use fill="url(#s)" xlink:href="#r"/></g><path d="M348.045 426.203c-9.571 4.077-20.421 3.388-29.771-1.89-4-2.258-5.657-7.562-3.701-11.847 1.953-4.284 6.778-5.926 10.78-3.67 5.16 2.914 11.147 3.297 16.423 1.05 5.276-2.248 9.331-6.907 11.123-12.784 1.389-4.552 5.944-6.906 10.172-5.255 4.23 1.65 6.532 6.68 5.143 11.232-3.247 10.644-10.598 19.087-20.17 23.164z" fill="#1C2737" fill-rule="nonzero"/><mask id="u" fill="#fff"><use xlink:href="#t"/></mask><path d="M244.366 342.233s-6.69-10.351-13.411-13.223c-2.02-.862-4.042-1.05-5.887-.08-2.472 1.302-3.03 4.413-2.624 8.09.908 8.201 6.617 19.215 6.617 19.215a37.805 37.805 0 013.564-2.952c10.22-7.487 23.65-10.078 28.515-10.807 1.183-.176 1.859-.243 1.859-.243s-.655-2.066-2.081-4.67c-.817-1.496-1.886-3.165-3.231-4.722-1.599-1.855-3.587-3.552-6-4.61-.727-.32-1.382-.463-1.971-.464-5.9 0-5.35 14.466-5.35 14.466" mask="url(#u)"/><mask id="w" fill="#fff"><use xlink:href="#v"/></mask><path d="M345.673 332.785c-2.475.883-4.568 2.436-6.283 4.172a26.537 26.537 0 00-2.996 3.672c-1.948 2.857-2.909 5.32-2.909 5.32s.67.115 1.84.375c4.488 1.002 16.325 4.159 25.782 11.247a39.989 39.989 0 015.338 4.765s6.782-11.205 7.95-19.4c.392-2.767.146-5.192-1.218-6.725-2.467-2.773-6.52-1.619-9.272-.067-6.093 3.434-11.83 11.132-11.83 11.132s1.524-14.821-4.672-14.821c-.52 0-1.095.104-1.73.33" mask="url(#w)"/></g></g><ellipse fill="url(#y)" opacity=".73" transform="rotate(-93 877.277 632.272)" cx="877.277" cy="632.272" rx="75" ry="37.5"/><g filter="url(#z)" transform="scale(1 -1) rotate(12 5646.53 772.39)"><rect fill="url(#A)" width="237.241" height="224.705" rx="64.48"/><path d="M90.32 57.762c-10.412-5.972-18.854-1.08-18.854 10.917v88.533c0 12.01 8.442 16.895 18.854 10.93l77.4-44.38c10.416-5.973 10.416-15.65 0-21.623l-77.4-44.377z" fill="url(#B)" transform="matrix(1 0 0 -1 0 225.9)"/></g><g transform="rotate(5 -5808.966 4940.1)"><ellipse fill="#002561" opacity=".469" style="mix-blend-mode:hard-light" filter="url(#C)" cx="310.42" cy="628.415" rx="197.537" ry="58.855"/><g transform="translate(424.824 555.485)"><ellipse fill="#1B283E" cx="9.653" cy="9.606" rx="9.653" ry="9.606"/><ellipse fill="url(#D)" cx="9.653" cy="9.606" rx="6.435" ry="6.404"/></g><path stroke="url(#E)" stroke-width="3.181" stroke-linecap="round" stroke-linejoin="round" d="M0 10.406h117.349" transform="translate(424.824 498.65)"/><g transform="translate(0 498.65)"><g transform="translate(205.926)" fill="#1B283E"><rect x="33.785" width="3.218" height="67.24" rx="1.609"/><rect x="11.262" width="3.218" height="67.24" rx="1.609"/><rect x="56.308" width="3.218" height="67.24" rx="1.609"/><rect width="3.218" height="67.24" rx="1.609"/><rect x="45.046" width="3.218" height="67.24" rx="1.609"/><rect x="22.523" width="3.218" height="67.24" rx="1.609"/><rect x="67.57" width="3.218" height="67.24" rx="1.609"/></g><ellipse fill="url(#F)" cx="135.944" cy="9.606" rx="4.022" ry="4.002"/><ellipse fill="url(#F)" cx="148.814" cy="9.606" rx="4.022" ry="4.002"/><ellipse fill="url(#F)" cx="161.684" cy="9.606" rx="4.022" ry="4.002"/></g><ellipse fill="#002561" opacity=".469" style="mix-blend-mode:hard-light" filter="url(#G)" cx="538.043" cy="547.93" rx="65.357" ry="68.791"/><path d="M122.77 331.196l400.845-.93c23.78-.054 43.104 19.18 43.159 42.96a43.059 43.059 0 01-.336 5.466l-25.515 203.134c-5.403 43.02-41.946 75.313-85.303 75.385l-260.197.433c-42.795.071-79.15-31.294-85.352-73.638L80.265 380.494c-3.446-23.53 12.835-45.398 36.364-48.844a43.059 43.059 0 016.14-.454z" fill="#002B73"/><path d="M111.183 331.379l424.435-7.367c23.777-.412 43.387 18.528 43.8 42.306a43.059 43.059 0 01-.59 7.887l-28.232 167.902c-6.868 40.841-41.834 71.01-83.24 71.821l-276.958 5.42c-41.47.812-77.628-28.054-86.021-68.675l-34.615-167.53c-4.812-23.288 10.166-46.068 33.455-50.88a43.059 43.059 0 017.966-.884z" fill="url(#H)" transform="rotate(1 323.336 471.931)"/><g transform="rotate(1 -21990.1 31032.607)"><ellipse fill="url(#I)" opacity=".899" filter="url(#J)" transform="rotate(-81 32.59 32.48)" cx="32.59" cy="32.479" rx="28.37" ry="28.503"/><path d="M52.78 32.547c42.21 8.714 10.575 44.708 10.6 81.58.022 32.674-24.12 49.622-49.762 45.725" stroke="#08409E" stroke-width="12.683"/><g transform="scale(-1 1) rotate(82 -23.232 -11.792)"><rect fill="#002B74" x="7.636" y="7.092" width="20.361" height="21.275" rx="10.181"/><rect fill="url(#K)" width="35.632" height="14.184" rx="7.092"/></g></g><g transform="scale(-1 1) rotate(1 -22150.654 -6634.127)"><ellipse fill="url(#I)" opacity=".899" filter="url(#L)" transform="rotate(-81 32.59 32.48)" cx="32.59" cy="32.479" rx="28.37" ry="28.503"/><path d="M52.779 32.547c42.21 8.714 10.576 44.708 10.601 81.58.022 32.674-18.855 47.621-44.498 43.723" stroke="#08409E" stroke-width="12.683"/><g transform="scale(-1 1) rotate(82 -23.232 -11.792)"><rect fill="#002B74" x="7.636" y="7.092" width="20.361" height="21.275" rx="10.181"/><rect fill="url(#K)" width="35.632" height="14.184" rx="7.092"/></g></g><path d="M200.425 471.508l247.234.023a6.587 6.587 0 010 13.172l-125.583-.012-121.65-.011a6.587 6.587 0 01-.001-13.172z" fill="#002B73"/><path d="M200.428 495.622l247.233.023a6.587 6.587 0 010 13.172l-125.583-.012-121.65-.011a6.587 6.587 0 01-.001-13.172z" fill="url(#M)"/><path d="M203.895 519.736l247.234.023a6.587 6.587 0 010 13.173l-125.583-.012-121.65-.012a6.587 6.587 0 01-.001-13.172zm.003 24.114l247.233.023a6.587 6.587 0 010 13.173l-125.583-.012-121.65-.012a6.587 6.587 0 01-.001-13.172z" fill="#002B73"/><path d="M106.673 330.058l441.034-5.71c17.91-.232 32.617 14.1 32.85 32.01a32.432 32.432 0 01-4.094 16.196l-2.983 5.357a86.118 86.118 0 01-74.127 44.219l-341.176 4.417a86.118 86.118 0 01-74.547-41.121l-3.946-6.44c-9.273-15.136-4.52-34.923 10.615-44.196a32.14 32.14 0 0116.374-4.732z" fill="url(#N)" opacity=".504" transform="rotate(1 326.931 375.402)"/><path d="M288.083 331.572l84.735.007a43.059 43.059 0 0131.51 13.717l12.859 13.811c6.16 6.616 5.79 16.974-.826 23.134a16.368 16.368 0 01-11.155 4.389l-149.512-.014c-9.041 0-16.37-7.33-16.369-16.372a16.37 16.37 0 014.39-11.153l12.85-13.802a43.059 43.059 0 0131.518-13.717z" fill="#111A28"/><path d="M106.673 330.058l441.034-5.71c17.91-.232 32.617 14.1 32.85 32.01a32.432 32.432 0 01-4.094 16.196l-2.983 5.357a86.118 86.118 0 01-74.127 44.219l-341.176 4.417a86.118 86.118 0 01-74.547-41.121l-3.946-6.44c-9.273-15.136-4.52-34.923 10.615-44.196a32.14 32.14 0 0116.374-4.732z" fill="url(#O)" opacity=".504" transform="rotate(1 326.931 375.402)"/><path d="M295.459 233.362h74.301c18.497 0 33.49 14.994 33.49 33.49v82.597c0 10.57-8.567 19.138-19.137 19.138H281.106c-10.57 0-19.138-8.569-19.138-19.138v-82.597c0-18.496 14.994-33.49 33.49-33.49z" fill="url(#P)"/><ellipse fill="#1E55B1" cx="331.097" cy="303.868" rx="49.885" ry="49.642"/><ellipse fill="url(#Q)" opacity=".65" filter="url(#R)" cx="325.696" cy="248.071" rx="92.644" ry="21.275"/><g transform="translate(268.186 238.525)"><ellipse fill="#328AF1" opacity=".193" filter="url(#S)" cx="64.138" cy="63.826" rx="64.138" ry="63.826"/><ellipse fill="url(#T)" transform="scale(1 -1) rotate(4 1964.324 0)" cx="61.364" cy="66.453" rx="34.206" ry="34.041"/><g transform="translate(40.07 43.996)" style="mix-blend-mode:luminosity"><use fill="#000" filter="url(#U)" xlink:href="#V"/><use fill="url(#W)" xlink:href="#V"/></g><path d="M32.472 68.664a30.156 30.156 0 0012.714 21.61 30.139 30.139 0 01-5.206-14.065C38.24 59.64 50.194 44.804 66.68 43.07a29.817 29.817 0 0120.293 5.253c-6.053-8.734-16.527-13.982-27.8-12.797-16.49 1.733-28.443 16.57-26.701 33.137z" fill-opacity=".547" fill="#FFF" style="mix-blend-mode:lighten" opacity=".5"/></g><g transform="rotate(-1 448.973 -7561.037)"><path d="M115.285 0h155.502c38.246 0 69.25 31.005 69.25 69.251v162.227c0 45.896-37.205 83.102-83.1 83.102H129.134c-45.895 0-83.1-37.206-83.1-83.102V69.251C46.034 31.005 77.038 0 115.284 0z" fill="url(#X)"/><ellipse fill="#013A99" cx="107.233" cy="26.913" rx="9.259" ry="9.361"/><path d="M47.012 194.42c0 45.896 37.205 83.102 83.1 83.102h126.821c45.896 0 83.102-37.206 83.102-83.101v37.396c0 45.896-37.206 83.101-83.102 83.101h-126.82c-45.896 0-83.101-37.205-83.101-83.1z" fill="#1349A4" opacity=".189"/><g transform="translate(74.89 46.806)"><mask id="ab" fill="#fff"><use xlink:href="#Y"/></mask><use fill="url(#Z)" xlink:href="#Y"/><path d="M92.84 25.364c-13.652-7.927-24.72-1.433-24.72 14.494v117.536c0 15.943 11.068 22.43 24.72 14.51l101.482-58.917c13.657-7.93 13.657-20.779 0-28.708L92.84 25.364z" fill="url(#aa)" fill-rule="nonzero" mask="url(#ab)"/><g opacity=".7" mask="url(#ab)" transform="rotate(-15 170.867 172.41)"><use fill="#000" filter="url(#ac)" xlink:href="#ad"/><use fill="url(#ae)" xlink:href="#ad"/></g><mask id="ai" fill="#fff"><use xlink:href="#af"/></mask><path stroke="url(#ag)" stroke-width="5.033" d="M206.132 2.517c8.23 0 15.68 3.335 21.072 8.728 5.393 5.393 8.729 12.843 8.729 21.072v138.448a29.768 29.768 0 01-5.185 16.798 29.767 29.767 0 01-13.75 10.952c-20.412 7.993-51.647 11.934-93.677 11.934-44.567 0-78.487-4.44-101.738-13.418a29.767 29.767 0 01-13.842-10.945 29.768 29.768 0 01-5.224-16.855V32.317c0-8.23 3.335-15.68 8.728-21.072 5.393-5.393 12.843-8.728 21.072-8.728z"/><ellipse fill="url(#ah)" opacity=".527" mask="url(#ai)" cx=".784" cy="13.823" rx="110.163" ry="111.335"/></g><path d="M224.521 33.232h-7.439c-2.036 0-3.687-1.677-3.687-3.745s1.65-3.744 3.687-3.744h7.44c2.036 0 3.687 1.676 3.687 3.744 0 2.068-1.651 3.745-3.688 3.745zm13.889-10.297h-7.439c-2.037 0-3.688-1.677-3.688-3.745s1.651-3.744 3.688-3.744h7.439c2.037 0 3.688 1.676 3.688 3.744 0 2.068-1.651 3.745-3.688 3.745zm37.955 10.297h-40.74c-2.05 0-3.712-1.677-3.712-3.745s1.662-3.744 3.712-3.744h40.722c2.05 0 3.713 1.676 3.713 3.744 0 2.068-1.662 3.745-3.713 3.745h.018zm13.725-10.297h-40.43c-2.131 0-3.859-1.677-3.859-3.745s1.728-3.744 3.859-3.744h40.43c2.13 0 3.858 1.676 3.858 3.744 0 2.068-1.727 3.745-3.858 3.745z" fill="#013A99"/><ellipse fill="url(#aj)" opacity=".882" transform="rotate(-1 102.97 197.664)" cx="102.97" cy="197.664" rx="48.092" ry="25.736"/><ellipse fill="url(#aj)" opacity=".882" transform="rotate(-1 285.747 200.184)" cx="285.747" cy="200.184" rx="48.092" ry="25.736"/><g transform="rotate(-4 1024.258 -418.557)"><mask id="al" fill="#fff"><use xlink:href="#ak"/></mask><use fill="#5D95F3" opacity=".398" xlink:href="#ak"/><path d="M69.455-4.932L15.864 100.665c3.71 6.818 9.116 12.536 16.214 17.156 7.099 4.62 14.796 7.65 23.092 9.09l56.167-118.31C102.823 3.229 96.222-.234 91.535-1.786c-4.687-1.552-12.047-2.6-22.08-3.146z" fill="#5D95F3" opacity=".398" mask="url(#al)"/></g><g transform="rotate(-4 1029.224 -2926.654)"><mask id="an" fill="#fff"><use xlink:href="#am"/></mask><use fill="#5D95F3" opacity=".398" xlink:href="#am"/><path d="M64.538 8.334l-51.494 99.09c3.711 6.818 9.116 12.536 16.214 17.156 7.099 4.62 14.796 7.65 23.092 9.091l54.07-111.804c-8.514-5.372-15.115-8.834-19.802-10.386-4.687-1.552-12.047-2.601-22.08-3.147z" fill="#5D95F3" opacity=".398" mask="url(#an)"/></g><path d="M279.023 192.723c-34.925-.61-62.748-29.08-62.145-63.593.602-34.51 29.402-61.993 64.327-61.384 34.924.61 62.748 29.081 62.145 63.592-.602 34.512-29.403 61.995-64.327 61.385zm-176.579-3.082c-34.924-.61-62.747-29.08-62.144-63.593.602-34.51 29.402-61.994 64.326-61.384 34.926.61 62.748 29.081 62.145 63.592-.602 34.512-29.4 61.995-64.327 61.385zM326.618 74.415c-13.172-8.86-30.203-16.25-45.241-16.512-20.26-.353-38.736 7.461-52.22 20.372-6.52 5.812-12.163 12.203-17.994 18.458-7.384 7.928-11.602 3.901-18.846 3.775-7.244-.127-11.6 3.75-18.704-4.43-5.607-6.456-11.027-13.039-17.34-19.076-13.024-13.373-31.438-21.831-51.698-22.185-15.039-.262-29.986 3.967-41.077 11.461a670.213 670.213 0 00-4.615 3.464C52.8 74.098 42.373 81.72 36.985 87.65c-8.003 8.81-25.166 9.108-25.166 9.108l-.323 18.494s10.276-.419 13.528 3.518c1.922 2.32 3.845 13.376 7.097 24.965.98 4.127 2.41 8.112 4.074 11.935 1.551 3.799 3.38 7.325 5.49 10.23l.021-.02c12.754 19.826 35.014 33.156 60.557 33.602 29.66.518 55.488-16.48 67.427-41.338l.058-.07.176-.277c5.408-8.72 11.12-32.764 13.577-36.56 2.482-3.836 8.524-4.029 8.524-4.029s6.032.404 8.378 4.325c2.323 3.879 7.192 28.107 12.292 37.011l.166.282.052.072c11.064 25.26 36.279 43.149 65.939 43.666 25.543.446 48.244-12.099 61.68-31.467l.005.02c2.21-2.83 4.121-6.29 5.803-10.032a71.188 71.188 0 004.415-11.788c3.652-11.468 5.785-22.453 7.783-24.706 3.39-3.82 13.314-3.049 13.314-3.049l.323-18.494s-16.867-.891-24.56-9.976c-5.175-6.115-15.07-14.092-20.997-18.658z" stroke="#002B74" stroke-width="5.033" fill="#002B74"/></g></g></g><g transform="translate(384.984 536)"><ellipse fill="url(#ao)" opacity=".458" transform="rotate(-75 238.268 71.466)" cx="238.268" cy="71.466" rx="56" ry="23"/></g></g></svg>