<svg width="270" height="321" fill="none" xmlns="http://www.w3.org/2000/svg"><path opacity=".278" d="M129.899 314.005c55.44 0 100.384-8.729 100.384-19.497s-44.944-19.497-100.384-19.497c-55.441 0-100.385 8.729-100.385 19.497s44.944 19.497 100.385 19.497z" fill="url(#paint0_radial_403_26449)"/><path clip-rule="evenodd" d="M134.648 105.426c12.167 0 24.349 2.945 31.897 8.434 6.599 4.799 11.397 18.536 11.544 18.957 2.877 1.097 31.436 7.216 43.62 15.825l.376.269-.273.099c-.401.132-.8.213-1.219.279l-.318.048c-3.323.476-8.112.566-9.831.583l-3.046.031 2.449 1.812c.335.248.664.496.991.743 2.313 1.082 6.265 2.915 10.744 5.146l.942.471c1.81.91 3.689 1.877 5.553 2.871l1.243.669c5.278 2.862 10.312 5.891 13.136 8.413-.426.199-.789.264-1.185.314-2.538.32-6.191.199-7.579.137l-2.53-.112 1.744 1.836c.349.368.691.733 1.028 1.096 5.535 3.99 23.266 17.313 32.848 32.228l.095.152-13.629-3.957-.025 1.335-.016.827c.984 2.932 3.647 10.46 6.077 18.676l.289.983.428 1.487.279.99.276.996a161.463 161.463 0 011.628 6.41c-.902.402-1.49.37-2.131.259-2.188-.379-4.917-1.757-6.716-2.763a45.007 45.007 0 01-1.394-.81 471.158 471.158 0 01-.58 7.082c2.169 10.055 5.856 28.866 6.38 45.389-2.275-.385-8.562-9.518-8.562-9.518s-.174-.254-.464-.688l-.209-.315c-.374-.567-.874-1.335-1.415-2.203.105 1.507.194 2.842.265 3.904.198 2.967.529 8.066.803 13.097l.053.972c.133 2.51.248 4.952.312 6.928-1.287-1.812-2.958-4.517-3.921-6.052-.342-.546-.778-1.236-1.245-1.986a143.796 143.796 0 01-1.866 6.55c-.079 4.658-2.759 8.364-7.327 11.519-5.21 3.598-12.862 6.469-22.176 8.678-20.901 4.957-50.117 6.536-79.236 5.118-28.881-1.407-57.671-5.763-78.163-12.727-9.12-3.099-16.586-6.706-21.643-10.816-4.463-3.627-7.043-7.634-7.011-12.059a444.61 444.61 0 01-1.316-5.951c-.203-.956-.399-1.911-.588-2.862l-1.323 2.613a4213.506 4213.506 0 01-3.543 6.978l-.948 1.86-.945 1.85c-3.675-17.464-.346-41.351 1.471-51.898-.076-1.282-.158-2.292-.237-3.29l-.262-3.304-1.644 2.878c-.35.612-.757 1.289-1.201 1.96-1.276 1.774-2.471 3.267-3.55 3.489-.803-.484-1.04-.988-1.258-1.696.011-4.033.46-8.455 1.115-12.78l.168-1.079.176-1.073c1.882-11.232 4.919-21.239 4.919-21.239.06-.196 1.058-3.458 2.752-8.113-1.865 3.782-4.533 7.185-4.533 7.185-.197.25-4.44 5.596-8.651 8.116-1.041.623-2.075 1.075-3.037 1.172a2.8 2.8 0 01-1.155-.104c6.479-12.655 22.692-25.136 31.164-31.096 1.077-1.176 2.013-2.21 2.993-3.264.765-.823 1.52-1.618 2.266-2.389a33.757 33.757 0 01-3.186.686c-2.075.353-5.026.713-7.005.209-.523-.133-.98-.315-1.255-.643 8.15-7.577 24.573-14.937 30.888-17.638l.837-.641 3.165-2.402H42.66c10.663-9.095 42.869-15.836 48.208-16.923.271-.054 1.2-1.146 2.39-3.626 2.12-4.416 5.985-12.579 10.707-16.171 7.59-5.775 19.145-8.421 30.682-8.421z" stroke="url(#paint1_linear_403_26449)" stroke-width="2.043"/><path opacity=".705" fill-rule="evenodd" clip-rule="evenodd" d="M103.347 112.906c15.897-12.094 48.807-10.903 63.799 0 6.881 5.004 11.911 19.455 11.911 19.455s33.194 6.884 44.828 16.529c0 1.677-10.656 1.896-13.43 1.924.338.25.67.5 1 .75 2.126.97 6.09 2.809 10.584 5.047l.943.472c8.077 4.057 17.531 9.266 21.11 13.023 0 1.661-8.177 1.414-10.445 1.314.351.37.696.738 1.036 1.104 5.656 4.053 24.778 18.451 34.105 34.229l.612.643-15.155-4.4-.016.829c.926 2.573 3.598 10.125 6.036 18.368l.29.987.144.496.285.995.281.997.276.998a159.323 159.323 0 011.736 6.875c-1.331 2.795-7.268-.035-10.439-1.806-.139 1.781-.29 3.608-.457 5.47 2.192 9.94 5.975 29.276 6.406 46.054-1.837 1.286-10.409-9.644-10.409-9.644l.038.572.024.356c.135 2.042.467 7.146.742 12.182l.052.973c.206 3.882.368 7.601.368 9.705-.932-.489-4.305-5.749-5.862-8.232-.406 1.466-.83 2.908-1.27 4.324-.318 41.435-217.856 31.613-217.554-10.598-.455-1.887-.884-3.8-1.294-5.73a3246.81 3246.81 0 01-6.701 13.164c-4.697-17.752-1.11-43.822.818-55.009-.087-1.024-.17-2.036-.249-3.036a35.748 35.748 0 01-1.244 2.029l-.254.377c-2.152 3.132-5.002 5.827-6.42.992 0-15.43 6.422-36.619 6.422-36.619S5.899 211.895 1 208.038c6.236-13.093 23.158-26.185 31.924-32.352a172.236 172.236 0 012.833-3.125c-3.722.634-10.087 1.199-9.652-2.455 8.27-7.151 25.043-14.708 31.588-17.512.49-.378.986-.756 1.485-1.133h-18.99c8.543-10.165 45.52-17.943 50.655-18.982l.287-.058.306-.06s5.133-14.298 11.911-19.455z" fill="url(#paint2_radial_403_26449)"/><path fill-rule="evenodd" clip-rule="evenodd" d="M159.963 156.766c0 14.653-11.313 26.532-25.269 26.532-13.956 0-25.269-11.879-25.269-26.532s11.313-26.532 25.269-26.532c13.956 0 25.269 11.879 25.269 26.532z" fill="#24385A" stroke="url(#paint3_linear_403_26449)" stroke-width="1.99"/><path fill-rule="evenodd" clip-rule="evenodd" d="M159.963 156.766c0 14.653-11.313 26.532-25.269 26.532-13.956 0-25.269-11.879-25.269-26.532s11.313-26.532 25.269-26.532c13.956 0 25.269 11.879 25.269 26.532z" fill="#000" fill-opacity=".152" stroke="url(#paint4_linear_403_26449)" stroke-width="1.99"/><g filter="url(#filter0_d_403_26449)"><path d="M130.198 143.635s-1.031.12-2.51.593c-3.234 1.033-8.61 3.751-10.029 10.575-.069.997-.075 2.013.025 3.007.313 3.155 1.887 5.862 4.177 7.979 3.067 2.835 7.417 4.613 11.743 4.99 6.682.584 13.306-2.174 15.058-9.535a33.8 33.8 0 00.444-2.191c.393-4.159-.269-7.485-1.747-9.997-.465-.79-1.01-1.5-1.629-2.13-2.487-2.531-6.159-3.777-10.536-3.777-1.581 0-3.253.163-4.996.486z" fill="#000"/></g><path d="M130.198 143.635s-1.031.12-2.51.593c-3.234 1.033-8.61 3.751-10.029 10.575-.069.997-.075 2.013.025 3.007.313 3.155 1.887 5.862 4.177 7.979 3.067 2.835 7.417 4.613 11.743 4.99 6.682.584 13.306-2.174 15.058-9.535a33.8 33.8 0 00.444-2.191c.393-4.159-.269-7.485-1.747-9.997-.465-.79-1.01-1.5-1.629-2.13-2.487-2.531-6.159-3.777-10.536-3.777-1.581 0-3.253.163-4.996.486z" fill="url(#paint5_radial_403_26449)"/><path fill-rule="evenodd" clip-rule="evenodd" d="M137.711 158.025s-2.292.268-3.815 2.018c-.822.944-1.421 2.32-1.315 4.32.071 1.35.718 2.505 1.682 3.398.82.757 1.869 1.325 2.991 1.664 2.327.7 4.966.411 6.523-1.235.545-.575.958-1.317 1.179-2.243.256-1.079.365-2.049.342-2.91-.043-1.611-.545-2.839-1.388-3.698-.911-.928-2.221-1.423-3.782-1.498a9.809 9.809 0 00-.423-.009c-.631 0-1.298.064-1.994.193z" fill="url(#paint6_linear_403_26449)"/><g filter="url(#filter1_d_403_26449)"><path d="M144.426 164.066c0 1.065-.822 1.928-1.836 1.928-1.016 0-1.838-.863-1.838-1.928s.822-1.929 1.838-1.929c1.014 0 1.836.864 1.836 1.929z" fill="#000"/></g><path d="M144.426 164.066c0 1.065-.822 1.928-1.836 1.928-1.016 0-1.838-.863-1.838-1.928s.822-1.929 1.838-1.929c1.014 0 1.836.864 1.836 1.929z" fill="url(#paint7_radial_403_26449)"/><path d="M161.13 231.753c-4.403 1.872-9.395 1.556-13.697-.868-1.84-1.036-2.603-3.472-1.703-5.439.899-1.967 3.119-2.721 4.96-1.685 2.374 1.338 5.129 1.514 7.556.482 2.428-1.032 4.293-3.171 5.118-5.87.638-2.09 2.734-3.171 4.68-2.413 1.945.758 3.005 3.067 2.366 5.158-1.494 4.887-4.876 8.763-9.28 10.635z" fill="#1C2737"/><g filter="url(#filter2_d_403_26449)"><path d="M124.202 80.106h-14.16v14.168h14.16V80.106z" fill="url(#paint8_linear_403_26449)"/><path d="M142.319 80.106h-14.16v14.169h14.16V80.106z" fill="url(#paint9_linear_403_26449)"/><path d="M160.436 80.106h-14.161v14.168h14.161V80.106z" fill="url(#paint10_linear_403_26449)"/><path d="M124.202 61.98h-14.16v14.167h14.16V61.98z" fill="url(#paint11_linear_403_26449)"/><path d="M124.202 43.853h-14.16v14.168h14.16V43.853z" fill="#4BDEFF"/><path d="M124.202 25.727h-14.16v14.168h14.16V25.727z" fill="url(#paint12_linear_403_26449)"/></g><g filter="url(#filter3_d_403_26449)"><path d="M163.805 94.873c0 .689.253 1.299.758 1.828l3.793 3.975c.506.53 1.088.796 1.745.796s1.239-.266 1.744-.796l35.346-37.045c.506-.53.758-1.14.758-1.829 0-.689-.253-1.299-.758-1.828l-35.345-37.046c-.506-.53-1.087-.795-1.745-.795-.658 0-1.239.265-1.744.795l-3.793 3.973c-.506.53-.759 1.14-.759 1.83 0 .687.253 1.297.759 1.827l29.808 31.244-29.809 31.242c-.506.53-.758 1.14-.758 1.829z" fill="#000"/></g><path d="M163.805 94.873c0 .689.253 1.299.758 1.828l3.793 3.975c.506.53 1.088.796 1.745.796s1.239-.266 1.744-.796l35.346-37.045c.506-.53.758-1.14.758-1.829 0-.689-.253-1.299-.758-1.828l-35.345-37.046c-.506-.53-1.087-.795-1.745-.795-.658 0-1.239.265-1.744.795l-3.793 3.973c-.506.53-.759 1.14-.759 1.83 0 .687.253 1.297.759 1.827l29.808 31.244-29.809 31.242c-.506.53-.758 1.14-.758 1.829z" fill="url(#paint13_linear_403_26449)"/><g filter="url(#filter4_d_403_26449)"><path d="M98.565 27.6c0-.69-.253-1.3-.759-1.83l-3.793-3.974c-.505-.53-1.087-.796-1.744-.796-.658 0-1.24.266-1.745.796L55.179 58.84c-.506.53-.759 1.14-.759 1.829 0 .689.253 1.299.759 1.828l35.345 37.046c.505.531 1.086.795 1.744.795.659 0 1.24-.265 1.745-.795l3.793-3.973c.505-.53.759-1.14.759-1.83 0-.687-.254-1.297-.76-1.827L67.998 60.67l29.81-31.242c.505-.53.758-1.14.758-1.829z" fill="#000"/></g><path d="M98.565 27.6c0-.69-.253-1.3-.759-1.83l-3.793-3.974c-.505-.53-1.087-.796-1.744-.796-.658 0-1.24.266-1.745.796L55.179 58.84c-.506.53-.759 1.14-.759 1.829 0 .689.253 1.299.759 1.828l35.345 37.046c.505.531 1.086.795 1.744.795.659 0 1.24-.265 1.745-.795l3.793-3.973c.505-.53.759-1.14.759-1.83 0-.687-.254-1.297-.76-1.827L67.998 60.67l29.81-31.242c.505-.53.758-1.14.758-1.829z" fill="url(#paint14_linear_403_26449)"/><defs><linearGradient id="paint1_linear_403_26449" x1="134.612" y1="140.823" x2="137.849" y2="204.124" gradientUnits="userSpaceOnUse"><stop stop-color="#00D0FF"/><stop offset="1" stop-color="#637BFF" stop-opacity="0"/></linearGradient><linearGradient id="paint3_linear_403_26449" x1="132.456" y1="219.408" x2="109.793" y2="133.713" gradientUnits="userSpaceOnUse"><stop stop-color="#C4D6EB" stop-opacity=".676"/><stop offset="1" stop-color="#91ACD2" stop-opacity=".3"/></linearGradient><linearGradient id="paint4_linear_403_26449" x1="129.409" y1="173.489" x2="118.26" y2="133.708" gradientUnits="userSpaceOnUse"><stop stop-color="#76E1FF"/><stop offset="1" stop-color="#637BFF" stop-opacity="0"/></linearGradient><linearGradient id="paint6_linear_403_26449" x1="132.569" y1="163.807" x2="145.301" y2="163.807" gradientUnits="userSpaceOnUse"><stop stop-color="#5B79A2"/><stop offset="1" stop-color="#2E4469"/></linearGradient><linearGradient id="paint8_linear_403_26449" x1="110.049" y1="89.781" x2="131.712" y2="72.398" gradientUnits="userSpaceOnUse"><stop stop-color="#F44881"/><stop offset="1" stop-color="#EC454F"/></linearGradient><linearGradient id="paint9_linear_403_26449" x1="135.239" y1="94.275" x2="135.239" y2="80.106" gradientUnits="userSpaceOnUse"><stop stop-color="#8B60ED"/><stop offset="1" stop-color="#B372BD"/></linearGradient><linearGradient id="paint10_linear_403_26449" x1="153.356" y1="81.713" x2="153.356" y2="95.882" gradientUnits="userSpaceOnUse"><stop stop-color="#6EDCC4"/><stop offset="1" stop-color="#1AAB8B"/></linearGradient><linearGradient id="paint11_linear_403_26449" x1="140.819" y1="73.295" x2="110.048" y2="69.068" gradientUnits="userSpaceOnUse"><stop stop-color="#F19A1A"/><stop offset="1" stop-color="#FFC73C"/></linearGradient><linearGradient id="paint12_linear_403_26449" x1="110.049" y1="35.401" x2="131.712" y2="18.018" gradientUnits="userSpaceOnUse"><stop stop-color="#F44881"/><stop offset="1" stop-color="#EC454F"/></linearGradient><linearGradient id="paint13_linear_403_26449" x1="182.349" y1="94.545" x2="204.011" y2="73.353" gradientUnits="userSpaceOnUse"><stop stop-color="#1390B3"/><stop offset="1" stop-color="#4BDEFF"/></linearGradient><linearGradient id="paint14_linear_403_26449" x1="72.964" y1="93.412" x2="94.626" y2="72.22" gradientUnits="userSpaceOnUse"><stop stop-color="#1390B3"/><stop offset="1" stop-color="#4BDEFF"/></linearGradient><filter id="filter0_d_403_26449" x="96.639" y="122.18" width="73.547" height="69.644" filterUnits="userSpaceOnUse" color-interpolation-filters="sRGB"><feFlood flood-opacity="0" result="BackgroundImageFix"/><feColorMatrix in="SourceAlpha" values="0 0 0 0 0 0 0 0 0 0 0 0 0 0 0 0 0 0 127 0" result="hardAlpha"/><feOffset/><feGaussianBlur stdDeviation="10.484"/><feColorMatrix values="0 0 0 0 0.137255 0 0 0 0 0.788235 0 0 0 0 0.968627 0 0 0 0.4263 0"/><feBlend in2="BackgroundImageFix" result="effect1_dropShadow_403_26449"/><feBlend in="SourceGraphic" in2="effect1_dropShadow_403_26449" result="shape"/></filter><filter id="filter1_d_403_26449" x="119.783" y="141.168" width="45.612" height="45.795" filterUnits="userSpaceOnUse" color-interpolation-filters="sRGB"><feFlood flood-opacity="0" result="BackgroundImageFix"/><feColorMatrix in="SourceAlpha" values="0 0 0 0 0 0 0 0 0 0 0 0 0 0 0 0 0 0 127 0" result="hardAlpha"/><feOffset/><feGaussianBlur stdDeviation="10.484"/><feColorMatrix values="0 0 0 0 0.137255 0 0 0 0 0.788235 0 0 0 0 0.968627 0 0 0 0.4263 0"/><feBlend in2="BackgroundImageFix" result="effect1_dropShadow_403_26449"/><feBlend in="SourceGraphic" in2="effect1_dropShadow_403_26449" result="shape"/></filter><filter id="filter2_d_403_26449" x="94.665" y="10.35" width="81.148" height="99.302" filterUnits="userSpaceOnUse" color-interpolation-filters="sRGB"><feFlood flood-opacity="0" result="BackgroundImageFix"/><feColorMatrix in="SourceAlpha" values="0 0 0 0 0 0 0 0 0 0 0 0 0 0 0 0 0 0 127 0" result="hardAlpha"/><feOffset/><feGaussianBlur stdDeviation="7.689"/><feColorMatrix values="0 0 0 0 0.137255 0 0 0 0 0.788235 0 0 0 0 0.968627 0 0 0 0.216701 0"/><feBlend in2="BackgroundImageFix" result="effect1_dropShadow_403_26449"/><feBlend in="SourceGraphic" in2="effect1_dropShadow_403_26449" result="shape"/></filter><filter id="filter3_d_403_26449" x="142.836" y="1.165" width="86.082" height="121.276" filterUnits="userSpaceOnUse" color-interpolation-filters="sRGB"><feFlood flood-opacity="0" result="BackgroundImageFix"/><feColorMatrix in="SourceAlpha" values="0 0 0 0 0 0 0 0 0 0 0 0 0 0 0 0 0 0 127 0" result="hardAlpha"/><feOffset/><feGaussianBlur stdDeviation="10.484"/><feColorMatrix values="0 0 0 0 0.137255 0 0 0 0 0.788235 0 0 0 0 0.968627 0 0 0 0.4263 0"/><feBlend in2="BackgroundImageFix" result="effect1_dropShadow_403_26449"/><feBlend in="SourceGraphic" in2="effect1_dropShadow_403_26449" result="shape"/></filter><filter id="filter4_d_403_26449" x="33.452" y=".031" width="86.082" height="121.276" filterUnits="userSpaceOnUse" color-interpolation-filters="sRGB"><feFlood flood-opacity="0" result="BackgroundImageFix"/><feColorMatrix in="SourceAlpha" values="0 0 0 0 0 0 0 0 0 0 0 0 0 0 0 0 0 0 127 0" result="hardAlpha"/><feOffset/><feGaussianBlur stdDeviation="10.484"/><feColorMatrix values="0 0 0 0 0.137255 0 0 0 0 0.788235 0 0 0 0 0.968627 0 0 0 0.4263 0"/><feBlend in2="BackgroundImageFix" result="effect1_dropShadow_403_26449"/><feBlend in="SourceGraphic" in2="effect1_dropShadow_403_26449" result="shape"/></filter><radialGradient id="paint0_radial_403_26449" cx="0" cy="0" r="1" gradientUnits="userSpaceOnUse" gradientTransform="matrix(-97.9671 0 0 -25.0032 -23.984 -40.404)"><stop/><stop offset="1" stop-opacity=".01"/></radialGradient><radialGradient id="paint2_radial_403_26449" cx="0" cy="0" r="1" gradientUnits="userSpaceOnUse" gradientTransform="matrix(-159.12204 148.95067 -176.84043 -188.91632 31.674 328.496)"><stop stop-color="#25C2F2" stop-opacity=".626"/><stop offset="1" stop-color="#293F64"/></radialGradient><radialGradient id="paint5_radial_403_26449" cx="0" cy="0" r="1" gradientUnits="userSpaceOnUse" gradientTransform="rotate(-87.76 12.946 -49.312) scale(15.8168 12.1573)"><stop stop-color="#21C8F6"/><stop offset="1" stop-color="#6EE4FF"/></radialGradient><radialGradient id="paint7_radial_403_26449" cx="0" cy="0" r="1" gradientUnits="userSpaceOnUse" gradientTransform="matrix(.07185 -1.83703 2.02492 .0792 63.965 -28.827)"><stop stop-color="#21C8F6"/><stop offset="1" stop-color="#6EE4FF"/></radialGradient></defs></svg>