<svg xmlns="http://www.w3.org/2000/svg" xmlns:xlink="http://www.w3.org/1999/xlink" width="311" height="310"><defs><linearGradient id="c" x1="41.853%" x2="65.78%" y1="91.27%" y2="50%"><stop offset="0%" stop-color="#1390B3"/><stop offset="100%" stop-color="#4BDEFF"/></linearGradient><linearGradient id="h" x1="38.57%" x2="38.57%" y1="115.211%" y2="55.561%"><stop offset="0%" stop-color="#047392"/><stop offset="100%" stop-color="#86E9FF"/></linearGradient><linearGradient id="i" x1="0%" x2="100%" y1="50%" y2="50%"><stop offset="0%" stop-color="#5B79A2"/><stop offset="100%" stop-color="#2E4469"/></linearGradient><linearGradient id="j" x1="85.355%" x2="14.645%" y1="72.439%" y2="27.561%"><stop offset="0%" stop-color="#2F4568"/><stop offset="100%" stop-color="#18222F"/></linearGradient><linearGradient id="k" x1="50%" x2="50%" y1="-48.381%" y2="62.836%"><stop offset="0%" stop-color="#76E1FF"/><stop offset="100%" stop-color="#637BFF" stop-opacity="0"/></linearGradient><linearGradient id="m" x1="45.49%" x2="3.827%" y1="168.048%" y2="5.569%"><stop offset="0%" stop-color="#C4D6EB" stop-opacity=".676"/><stop offset="100%" stop-color="#91ACD2" stop-opacity=".3"/></linearGradient><linearGradient id="n" x1="39.353%" x2="18.841%" y1="81.515%" y2="6.036%"><stop offset="0%" stop-color="#76E1FF"/><stop offset="100%" stop-color="#637BFF" stop-opacity="0"/></linearGradient><linearGradient id="o" x1="0%" x2="100%" y1="50%" y2="50%"><stop offset="0%" stop-color="#5B79A2"/><stop offset="100%" stop-color="#2E4469"/></linearGradient><path id="b" d="M118.31 11.665c0-.546-.202-1.03-.607-1.45l-3.036-3.152c-.405-.42-.87-.63-1.397-.63-.526 0-.992.21-1.396.63L83.58 36.433c-.405.42-.607.904-.607 1.45 0 .547.202 1.03.607 1.45l28.293 29.37c.404.421.87.63 1.396.63.527 0 .992-.21 1.397-.63l3.036-3.15c.404-.42.607-.903.607-1.45 0-.545-.203-1.029-.607-1.449l-23.861-24.77 23.86-24.77c.406-.42.608-.903.608-1.45z"/><path id="e" d="M35.337 11.665c0-.546-.203-1.03-.608-1.45l-3.036-3.152c-.404-.42-.87-.63-1.396-.63-.526 0-.992.21-1.397.63L.607 36.433c-.405.42-.607.904-.607 1.45 0 .547.203 1.03.607 1.45L28.9 68.703c.404.421.87.63 1.396.63.527 0 .993-.21 1.397-.63l3.036-3.15c.405-.42.608-.903.608-1.45 0-.545-.203-1.029-.608-1.449l-23.86-24.77 23.86-24.77c.406-.42.608-.903.608-1.45z"/><path id="g" d="M12.139 32.199v8.235h-8.4v-8.235h8.4zm0-10.589v8.236h-8.4V21.61h8.4zm0-10.588v8.235h-8.4v-8.235h8.4zm0-10.588v8.235h-8.4V.434h8.4z"/><path id="p" d="M87.966 80.26s-2.408-3.686-4.828-4.708c-.727-.307-1.455-.374-2.119-.029-.89.464-1.09 1.571-.944 2.88.326 2.92 2.382 6.842 2.382 6.842a13.56 13.56 0 011.282-1.051c3.68-2.666 8.514-3.589 10.265-3.848.426-.063.67-.087.67-.087s-.236-.735-.75-1.663a9.69 9.69 0 00-1.163-1.68c-.575-.66-1.29-1.265-2.16-1.642a1.794 1.794 0 00-.71-.165c-2.123 0-1.925 5.15-1.925 5.15"/><path id="r" d="M124.434 76.896c-.89.314-1.644.867-2.262 1.485a9.466 9.466 0 00-1.078 1.307c-.701 1.018-1.047 1.894-1.047 1.894s.241.042.662.134c1.616.357 5.877 1.48 9.281 4.004a14.445 14.445 0 011.922 1.697s2.441-3.99 2.861-6.907c.142-.986.053-1.849-.438-2.395-.888-.987-2.347-.576-3.338-.024-2.193 1.223-4.258 3.964-4.258 3.964s.548-5.277-1.682-5.277c-.187 0-.394.037-.623.118"/><filter id="a" width="150.9%" height="128.6%" x="-25.5%" y="-14.3%" filterUnits="objectBoundingBox"><feOffset in="SourceAlpha" result="shadowOffsetOuter1"/><feGaussianBlur in="shadowOffsetOuter1" result="shadowBlurOuter1" stdDeviation="3"/><feColorMatrix in="shadowBlurOuter1" values="0 0 0 0 0.137254902 0 0 0 0 0.788235294 0 0 0 0 0.968627451 0 0 0 0.426300262 0"/></filter><filter id="d" width="150.9%" height="128.6%" x="-25.5%" y="-14.3%" filterUnits="objectBoundingBox"><feOffset in="SourceAlpha" result="shadowOffsetOuter1"/><feGaussianBlur in="shadowOffsetOuter1" result="shadowBlurOuter1" stdDeviation="3"/><feColorMatrix in="shadowBlurOuter1" values="0 0 0 0 0.137254902 0 0 0 0 0.788235294 0 0 0 0 0.968627451 0 0 0 0.426300262 0"/></filter><filter id="f" width="528.6%" height="190%" x="-214.3%" y="-45%" filterUnits="objectBoundingBox"><feOffset in="SourceAlpha" result="shadowOffsetOuter1"/><feGaussianBlur in="shadowOffsetOuter1" result="shadowBlurOuter1" stdDeviation="6"/><feColorMatrix in="shadowBlurOuter1" values="0 0 0 0 0.137254902 0 0 0 0 0.788235294 0 0 0 0 0.968627451 0 0 0 0.426300262 0"/></filter><radialGradient id="l" cx="37.435%" cy="76.012%" r="68.067%" fx="37.435%" fy="76.012%" gradientTransform="scale(.79666 1) rotate(-69.431 .422 .691)"><stop offset="0%" stop-color="#25C2F2" stop-opacity=".626"/><stop offset="100%" stop-color="#293F64"/></radialGradient></defs><g fill="none" fill-rule="evenodd"><g fill-rule="nonzero"><g transform="rotate(-135 184.986 63.877)"><use fill="#000" filter="url(#a)" xlink:href="#b"/><use fill="url(#c)" xlink:href="#b"/></g><g transform="rotate(45 37.886 241.507)"><use fill="#000" filter="url(#d)" xlink:href="#e"/><use fill="url(#c)" xlink:href="#e"/></g><g transform="rotate(46 12.214 299.264)"><use fill="#000" filter="url(#f)" xlink:href="#g"/><use fill="url(#h)" xlink:href="#g"/></g></g><g transform="rotate(45 18.605 169.282)"><path fill="url(#i)" d="M80.078 15.037c12.438-9.378 38.187-8.454 49.916 0 5.384 3.88 9.32 15.086 9.32 15.086s25.971 5.339 35.074 12.817c0 1.3-8.335 1.47-10.507 1.492.264.195.525.39.785.584 2.343 1.058 7.526 3.449 12.707 6.16l.737.387c5.028 2.661 9.927 5.58 12.088 7.829 0 1.288-6.401 1.096-8.174 1.019.277.287.547.572.812.856 4.424 3.141 19.386 14.306 26.685 26.542l.479.499-11.858-3.413-.013.644c.727 2 2.822 7.87 4.732 14.272l.217.732.214.735.212.738c.21.738.416 1.478.615 2.216l.196.736c.323 1.225.625 2.437.894 3.613-1.041 2.167-5.688-.027-8.168-1.401a361.176 361.176 0 01-.357 4.242c1.714 7.707 4.674 22.702 5.012 35.712-1.437.997-8.145-7.478-8.145-7.478s.959 13.959.959 18.446c-.73-.38-3.367-4.455-4.586-6.382a115.88 115.88 0 01-.995 3.352c-.248 32.13-170.453 24.513-170.217-8.218a164.066 164.066 0 01-1.012-4.444c-1.519 2.97-3.509 6.855-5.243 10.208-3.675-13.765-.868-33.981.64-42.656a421.61 421.61 0 01-.195-2.354c-1.62 2.812-4.798 7.36-6.195 2.635 0-11.965 5.024-28.396 5.024-28.396S3.833 91.797 0 88.806C4.879 78.652 18.12 68.5 24.978 63.719c.708-.794 1.445-1.601 2.216-2.423-2.912.49-7.892.93-7.551-1.905 6.47-5.545 19.594-11.405 24.715-13.579.382-.293.77-.586 1.161-.878H30.662c7.186-8.475 40.096-14.811 40.096-14.811s4.017-11.087 9.32-15.086z"/><path fill="url(#j)" stroke="url(#k)" stroke-width="1.605" d="M104.568 9.148c9.52 0 19.052 2.284 24.957 6.54 5.165 3.723 8.92 14.384 9.03 14.695 2.225.866 25.112 5.702 34.46 12.51-1.315.316-2.858.469-4.377.567h0l-.558.034c-1.755.1-3.405.128-4.207.136h0l-2.403.024 1.936 1.425c.262.192.52.385.778.579 2.487 1.144 7.653 3.527 12.816 6.227h0l.735.387c4.444 2.353 8.796 4.899 11.169 6.994-.327.15-.607.199-.913.237-1.987.248-4.846.154-5.931.106h0l-2.007-.088 1.394 1.446c.274.285.54.567.804.848 4.286 3.063 17.928 13.22 25.474 24.645l.286.44-10.652-3.065-.02 1.046-.012.642c.45 1.398 1.274 3.696 2.253 6.614h0l.238.714a243.4 243.4 0 012.274 7.188h0l.323 1.096h0l.106.365.212.736c.209.734.414 1.47.61 2.202h0l.197.735c.29 1.1.562 2.19.81 3.253-.702.306-1.162.281-1.664.195-1.713-.294-3.849-1.363-5.257-2.143a34.744 34.744 0 01-1.092-.63 359.422 359.422 0 01-.452 5.502c1.696 7.799 4.58 22.38 4.99 35.187-1.783-.31-6.694-7.379-6.694-7.379s-.752-1.082-1.648-2.506c.134 1.837.218 3.06.218 3.06s.271 3.951.525 8.323l.035.613.06 1.067c.125 2.251.235 4.495.293 6.262-1.005-1.404-2.31-3.497-3.062-4.686-.267-.422-.608-.956-.973-1.537a118.41 118.41 0 01-1.465 5.078c-.063 3.613-2.16 6.483-5.73 8.926-4.077 2.79-10.063 5.017-17.351 6.73-16.353 3.844-39.212 5.068-61.996 3.968-22.598-1.09-45.124-4.468-61.157-9.868-7.135-2.403-12.977-5.2-16.933-8.387-3.489-2.81-5.507-5.913-5.483-9.341-.376-1.652-.71-3.129-1.03-4.618a169.7 169.7 0 01-.46-2.228l-1.038 2.03a2622.121 2622.121 0 01-4.251 8.284c-2.873-13.539-.269-32.053 1.153-40.228-.06-1-.124-1.782-.186-2.556h0l-.206-2.573-1.29 2.237c-.876 1.522-2.213 3.675-3.465 4.207-.829-.248-1.039-.669-1.231-1.292.033-11.856 4.989-28.04 4.989-28.04h0l.007-.025c.083-.268.865-2.782 2.166-6.32-1.467 2.954-3.569 5.61-3.569 5.61s-3.397 4.294-6.767 6.293c-.815.483-1.624.833-2.377.909a2.212 2.212 0 01-.896-.079c5.074-9.807 17.75-19.476 24.374-24.094.844-.913 1.575-1.715 2.342-2.532.608-.648 1.207-1.273 1.798-1.879-.873.237-1.764.412-2.516.538-1.625.274-3.934.553-5.483.163-.409-.103-.765-.244-.98-.498 6.382-5.86 19.226-11.563 24.165-13.657h0l.655-.498 2.503-1.882H32.619c9.135-7.694 38.29-13.221 38.29-13.221.603-.515 4.482-11.335 9.652-15.233 5.938-4.478 14.98-6.53 24.007-6.53z"/><path fill="url(#l)" d="M80.078 15.037c12.438-9.378 38.187-8.454 49.916 0 5.384 3.88 9.32 15.086 9.32 15.086s25.971 5.339 35.074 12.817c0 1.3-8.335 1.47-10.507 1.492.264.195.525.39.785.584 2.343 1.058 7.526 3.449 12.707 6.16l.737.387c5.028 2.661 9.927 5.58 12.088 7.829 0 1.288-6.401 1.096-8.174 1.019.277.287.547.572.812.856 4.424 3.141 19.386 14.306 26.685 26.542l.479.499-11.858-3.413-.013.644c.727 2 2.822 7.87 4.732 14.272l.217.732.214.735.212.738c.21.738.416 1.478.615 2.216l.196.736c.323 1.225.625 2.437.894 3.613-1.041 2.167-5.688-.027-8.168-1.401a361.176 361.176 0 01-.357 4.242c1.714 7.707 4.674 22.702 5.012 35.712-1.437.997-8.145-7.478-8.145-7.478s.959 13.959.959 18.446c-.73-.38-3.367-4.455-4.586-6.382a115.88 115.88 0 01-.995 3.352c-.248 32.13-170.453 24.513-170.217-8.218a164.066 164.066 0 01-1.012-4.444c-1.519 2.97-3.509 6.855-5.243 10.208-3.675-13.765-.868-33.981.64-42.656a421.61 421.61 0 01-.195-2.354c-1.62 2.812-4.798 7.36-6.195 2.635 0-11.965 5.024-28.396 5.024-28.396S3.833 91.797 0 88.806C4.879 78.652 18.12 68.5 24.978 63.719c.708-.794 1.445-1.601 2.216-2.423-2.912.49-7.892.93-7.551-1.905 6.47-5.545 19.594-11.405 24.715-13.579.382-.293.77-.586 1.161-.878H30.662c7.186-8.475 40.096-14.811 40.096-14.811s4.017-11.087 9.32-15.086z" opacity=".705"/><path fill="#24385A" stroke="url(#m)" stroke-width=".955" d="M124.375 48.948c0 11.363-8.852 20.574-19.771 20.574-10.92 0-19.77-9.211-19.77-20.574 0-11.362 8.85-20.574 19.77-20.574s19.77 9.212 19.77 20.574"/><path fill="#000" fill-opacity=".152" stroke="url(#n)" stroke-width=".971" d="M124.375 48.948c0 11.363-8.852 20.574-19.771 20.574-10.92 0-19.77-9.211-19.77-20.574 0-11.362 8.85-20.574 19.77-20.574s19.77 9.212 19.77 20.574"/><path fill="#76E2FF" d="M101.086 38.766s-.807.093-1.964.46c-2.53.8-6.736 2.908-7.846 8.2-.054.773-.06 1.56.019 2.332.245 2.446 1.477 4.545 3.268 6.187 2.4 2.198 5.803 3.577 9.188 3.87 5.228.452 10.411-1.686 11.782-7.394.14-.585.252-1.148.347-1.7.307-3.225-.21-5.804-1.367-7.752a8.52 8.52 0 00-1.274-1.651c-1.946-1.963-4.82-2.929-8.244-2.929-1.237 0-2.545.126-3.909.377"/><path fill="url(#o)" d="M95.846 46.877s-1.794.207-2.986 1.564c-.643.733-1.112 1.8-1.028 3.35.055 1.048.562 1.943 1.316 2.636.641.586 1.462 1.027 2.34 1.29 1.82.543 3.885.318 5.104-.957.426-.447.75-1.022.922-1.74.2-.837.285-1.589.267-2.256-.033-1.25-.426-2.202-1.085-2.868-.714-.72-1.739-1.103-2.96-1.162a8.651 8.651 0 00-1.89.143"/><path fill="#ECECEC" d="M101.1 51.56c0 .827-.644 1.496-1.438 1.496-.794 0-1.438-.669-1.438-1.495 0-.826.644-1.496 1.438-1.496.794 0 1.437.67 1.437 1.496"/><path fill="#1C2737" fill-rule="nonzero" d="M125.288 110.156c-3.445 1.452-7.35 1.206-10.717-.672-1.44-.804-2.037-2.693-1.332-4.219.703-1.525 2.44-2.109 3.88-1.306 1.858 1.037 4.013 1.174 5.913.373 1.898-.8 3.358-2.458 4.003-4.551.5-1.62 2.14-2.459 3.662-1.87 1.523.586 2.352 2.377 1.852 3.998-1.17 3.79-3.816 6.796-7.261 8.247z"/><mask id="q" fill="#fff"><use xlink:href="#p"/></mask><path d="M87.966 80.26s-2.408-3.686-4.828-4.708c-.727-.307-1.455-.374-2.119-.029-.89.464-1.09 1.571-.944 2.88.326 2.92 2.382 6.842 2.382 6.842a13.56 13.56 0 011.282-1.051c3.68-2.666 8.514-3.589 10.265-3.848.426-.063.67-.087.67-.087s-.236-.735-.75-1.663a9.69 9.69 0 00-1.163-1.68c-.575-.66-1.29-1.265-2.16-1.642a1.794 1.794 0 00-.71-.165c-2.123 0-1.925 5.15-1.925 5.15" mask="url(#q)"/><mask id="s" fill="#fff"><use xlink:href="#r"/></mask><path d="M124.434 76.896c-.89.314-1.644.867-2.262 1.485a9.466 9.466 0 00-1.078 1.307c-.701 1.018-1.047 1.894-1.047 1.894s.241.042.662.134c1.616.357 5.877 1.48 9.281 4.004a14.445 14.445 0 011.922 1.697s2.441-3.99 2.861-6.907c.142-.986.053-1.849-.438-2.395-.888-.987-2.347-.576-3.338-.024-2.193 1.223-4.258 3.964-4.258 3.964s.548-5.277-1.682-5.277c-.187 0-.394.037-.623.118" mask="url(#s)"/></g></g></svg>