<svg width="972" height="323" fill="none" xmlns="http://www.w3.org/2000/svg"><g style="mix-blend-mode:luminosity" opacity=".1"><path fill="url(#pgq3sn2jga)" d="M525.167 270.513h51.51v51.519h-51.51z"/><path fill="url(#lbmfareyhb)" d="M591.052 270.513h51.51v51.519h-51.51z"/><path fill="url(#lfyp5b19wc)" d="M656.937 270.513h51.51v51.519h-51.51z"/><path fill="url(#i79o4wk5id)" d="M525.167 204.616h51.51v51.519h-51.51z"/><path fill="#4BDEFF" d="M525.167 138.721h51.51v51.519h-51.51z"/><path fill="url(#k7cyiqjwfe)" d="M525.167 72.824h51.51v51.519h-51.51z"/><g style="mix-blend-mode:luminosity" opacity=".654"><path fill-rule="evenodd" clip-rule="evenodd" d="M576.677-58.791h-51.51v51.518h51.51v-51.519zm65.885 65.896h-51.51v51.519h51.51V7.105zM591.052 73h51.51v51.519h-51.51V73zm183.28 65.897h-51.51v51.519h51.51v-51.519zm0 65.897h-51.51v51.519h51.51v-51.519zm-117.395 0h51.51v51.519h-51.51v-51.519zm51.51-65.897h-51.51v51.519h51.51v-51.519zM459.282 270.514h51.51v51.519h-51.51v-51.519zm51.51-65.897h-51.51v51.519h51.51v-51.519zm-117.395 65.897h51.511v51.519h-51.511v-51.519zm51.511-65.897h-51.511v51.519h51.511v-51.519zM525.167 7.105h51.51v51.519h-51.51V7.105zM460.48 138.897h51.51v51.519h-51.51v-51.519zm51.51-65.896h-51.51v51.518h51.51V73zm-117.395 0h51.51v51.518h-51.51V73zm51.51-65.896h-51.51v51.519h51.51V7.105zM195.743 270.689h51.51v51.519h-51.51v-51.519zm51.51-65.895h-51.511v51.519h51.511v-51.519zm-117.395 0h51.51v51.519h-51.51v-51.519zm50.911-13.779v-51.519h-51.51v51.519h51.51zm65.885-51.519v51.519h-51.51v-51.519h51.51zm65.885 51.519v-51.519h-51.51v51.519h51.51zm66.484-66.495h-51.511V73.001h51.511v51.519zm-51.511 65.897h51.511v-51.519h-51.511v51.519zm51.511 65.895h-51.511v-51.519h51.511v51.519zm-51.511 65.897h51.511V270.69h-51.511v51.519zm446.82-50.92v51.519h-51.51v-51.519h51.51zm65.885 51.519v-51.519h-51.51v51.519h51.51zm65.885-51.519v51.519h-51.51v-51.519h51.51zm65.885 51.519v-51.519h-51.51v51.519h51.51z" fill="url(#vsrxjb9lrf)" style="mix-blend-mode:luminosity"/><mask id="a" style="mask-type:alpha" maskUnits="userSpaceOnUse" x="129" y="-59" width="843" height="382"><path fill-rule="evenodd" clip-rule="evenodd" d="M576.677-58.791h-51.51v51.518h51.51v-51.519zm65.885 65.896h-51.51v51.519h51.51V7.105zM591.052 73h51.51v51.519h-51.51V73zm183.28 65.897h-51.51v51.519h51.51v-51.519zm0 65.897h-51.51v51.519h51.51v-51.519zm-117.395 0h51.51v51.519h-51.51v-51.519zm51.51-65.897h-51.51v51.519h51.51v-51.519zM459.282 270.514h51.51v51.519h-51.51v-51.519zm51.51-65.897h-51.51v51.519h51.51v-51.519zm-117.395 65.897h51.511v51.519h-51.511v-51.519zm51.511-65.897h-51.511v51.519h51.511v-51.519zM525.167 7.105h51.51v51.519h-51.51V7.105zM460.48 138.897h51.51v51.519h-51.51v-51.519zm51.51-65.896h-51.51v51.518h51.51V73zm-117.395 0h51.51v51.518h-51.51V73zm51.51-65.896h-51.51v51.519h51.51V7.105zM195.743 270.689h51.51v51.519h-51.51v-51.519zm51.51-65.895h-51.511v51.519h51.511v-51.519zm-117.395 0h51.51v51.519h-51.51v-51.519zm50.911-13.779v-51.519h-51.51v51.519h51.51zm65.885-51.519v51.519h-51.51v-51.519h51.51zm65.885 51.519v-51.519h-51.51v51.519h51.51zm66.484-66.495h-51.511V73.001h51.511v51.519zm-51.511 65.897h51.511v-51.519h-51.511v51.519zm51.511 65.895h-51.511v-51.519h51.511v51.519zm-51.511 65.897h51.511V270.69h-51.511v51.519zm446.82-50.92v51.519h-51.51v-51.519h51.51zm65.885 51.519v-51.519h-51.51v51.519h51.51zm65.885-51.519v51.519h-51.51v-51.519h51.51zm65.885 51.519v-51.519h-51.51v51.519h51.51z" fill="#fff" style="mix-blend-mode:luminosity"/></mask><g mask="url(#a)"><path fill-rule="evenodd" clip-rule="evenodd" d="M538.895 15.621c15.602 11.303 27.006 43.94 27.006 43.94s75.26 15.55 101.638 37.332c0 3.788-24.142 4.282-30.443 4.347.76.565 1.515 1.131 2.265 1.697 13.715 6.229 60.982 28.267 73.992 41.875 0 3.75-18.529 3.195-23.678 2.968.794.836 1.577 1.669 2.349 2.497 12.84 9.163 56.179 41.676 77.322 77.304l1.389 1.453-34.362-9.933c-.011.598-.023 1.225-.037 1.878 3.068 8.477 14.538 40.843 20.515 67.105-3.017 6.312-16.479-.079-23.668-4.08-.314 4.028-.659 8.154-1.036 12.359 4.97 22.45 13.546 66.12 14.525 104.012-4.165 2.905-23.602-21.78-23.602-21.78s2.776 40.657 2.776 53.726c-2.112-1.104-9.754-12.975-13.287-18.586a346.086 346.086 0 01-2.883 9.76c-.368 47.768-118.543 57.189-243.21 58.626-124.667 1.438-250.38-35.888-250.045-82.562a482.61 482.61 0 01-2.933-12.944 7283.051 7283.051 0 01-15.194 29.734c-10.649-40.095-2.514-98.977 1.856-124.243-.198-2.313-.385-4.598-.565-6.856-4.695 8.191-13.904 21.435-17.951 7.673 0-34.85 14.558-82.706 14.558-82.706s-22.889 28.978-33.995 20.267c14.138-29.573 52.506-59.141 72.38-73.07a392.499 392.499 0 016.423-7.057c-8.439 1.431-22.87 2.708-21.882-5.546 18.751-16.151 56.779-33.22 71.618-39.552a422.312 422.312 0 013.366-2.558h-43.053c20.824-24.686 116.191-43.14 116.191-43.14s11.639-32.293 27.006-43.94c36.042-27.315 110.659-24.624 144.649 0z" fill="url(#o3hivu2cnh)"/><mask id="b" fill="#fff"><path fill-rule="evenodd" clip-rule="evenodd" d="M538.895 15.621c15.602 11.303 27.006 43.94 27.006 43.94s75.26 15.55 101.638 37.332c0 3.788-24.142 4.282-30.443 4.347.76.565 1.515 1.131 2.265 1.697 13.715 6.229 60.982 28.267 73.992 41.875 0 3.75-18.529 3.195-23.678 2.968.794.836 1.577 1.669 2.349 2.497 12.84 9.163 56.179 41.676 77.322 77.304l1.389 1.453-34.362-9.933c-.011.598-.023 1.225-.037 1.878 3.068 8.477 14.538 40.843 20.515 67.105-3.017 6.312-16.479-.079-23.668-4.08-.314 4.028-.659 8.154-1.036 12.359 4.97 22.45 13.546 66.12 14.525 104.012-4.165 2.905-23.602-21.78-23.602-21.78s2.776 40.657 2.776 53.726c-2.112-1.104-9.754-12.975-13.287-18.586a346.086 346.086 0 01-2.883 9.76c-.72 93.584-493.94 71.4-493.255-23.936a482.61 482.61 0 01-2.933-12.944 7283.051 7283.051 0 01-15.194 29.734c-10.649-40.095-2.514-98.977 1.856-124.243-.198-2.313-.385-4.598-.565-6.856-4.695 8.191-13.904 21.435-17.951 7.673 0-34.85 14.558-82.706 14.558-82.706s-22.889 28.978-33.995 20.267c14.138-29.573 52.506-59.141 72.38-73.07a392.499 392.499 0 016.423-7.057c-8.439 1.431-22.87 2.708-21.882-5.546 18.751-16.151 56.779-33.22 71.618-39.552a422.312 422.312 0 013.366-2.558h-43.053c20.824-24.686 116.191-43.14 116.191-43.14s11.639-32.293 27.006-43.94c36.042-27.315 110.659-24.624 144.649 0z"/></mask><path d="M565.901 59.561l-4.416 1.544 9.075-1.967-4.659.423zm-27.006-43.94l-2.745 3.789 2.745-3.789zm27.006 43.94l.947-4.581-6.177-1.277.571 6.282 4.659-.424zm101.638 37.332h4.678v-2.204l-1.7-1.403-2.978 3.607zm-30.443 4.347l-.048-4.678-13.882.142 11.137 8.289 2.793-3.753zm2.265 1.697l-2.818 3.734.413.312.471.214 1.934-4.26zm73.992 41.875h4.678v-1.877l-1.297-1.356-3.381 3.233zm-23.678 2.968l.206-4.674-11.575-.509 7.976 8.404 3.393-3.221zm2.349 2.497l-3.421 3.19.321.344.382.273 2.718-3.807zm77.322 77.304l-4.023 2.388.272.459.369.386 3.382-3.233zm1.389 1.453l-1.3 4.494 16.678 4.821-11.997-12.548-3.381 3.233zm-34.362-9.933l1.299-4.495-5.864-1.695-.113 6.103 4.678.087zm-.037 1.878l-4.677-.097-.018.871.296.818 4.399-1.592zm20.515 67.105l4.221 2.017.701-1.469-.361-1.587-4.561 1.039zm-23.668-4.08l2.275-4.088-6.371-3.546-.568 7.269 4.664.365zm-1.036 12.359l-4.66-.418-.064.722.156.707 4.568-1.011zm14.525 104.012l2.676 3.837 2.065-1.44-.065-2.517-4.676.12zm-23.602-21.78l3.676-2.894-9.376-11.908 1.033 15.121 4.667-.319zm2.776 53.726l-2.167 4.146 6.846 3.578v-7.724h-4.679zm-13.287-18.586l3.959-2.493-5.62-8.928-2.844 10.16 4.505 1.261zm-2.883 9.76l-4.466-1.393-.207.663-.005.694 4.678.036zm-493.255-23.936l4.678.033.004-.574-.135-.558-4.547 1.099zm-2.933-12.944l4.576-.973-2.751-12.934-5.995 11.786 4.17 2.121zm-15.194 29.734l-4.522 1.2 3.12 11.745 5.561-10.804-4.159-2.141zm1.856-124.243l4.609.798.103-.595-.051-.602-4.661.399zm-.565-6.856l4.663-.371-1.201-15.076-7.521 13.121 4.059 2.326zm-17.951 7.673h-4.679v.674l.19.646 4.489-1.32zm14.558-82.706l4.476 1.362-8.147-4.261 3.671 2.899zm-33.995 20.267l-4.221-2.018-1.617 3.384 2.951 2.315 2.887-3.681zm72.38-73.07l2.685 3.832.449-.315.363-.409-3.497-3.108zm6.423-7.057l3.42 3.192 9.444-10.118-13.646 2.314.782 4.612zm-21.882-5.546l-3.053-3.545-1.377 1.185-.216 1.804 4.646.556zm71.618-39.552l1.837 4.303.546-.233.471-.363-2.854-3.707zm3.366-2.558l2.815 3.737 11.173-8.416h-13.988v4.679zm-43.053 0l-3.576-3.017-6.491 7.695h10.067v-4.678zm116.191-43.14l.888 4.593 2.611-.505.902-2.501-4.401-1.587zm27.006-43.94l-2.826-3.728 2.826 3.728zm171.655 43.94c4.417-1.543 4.416-1.544 4.416-1.545l-.001-.002-.002-.007-.008-.024-.029-.081-.108-.3a156.285 156.285 0 00-1.958-5.076 179.485 179.485 0 00-5.781-12.794c-4.822-9.613-11.993-21.526-20.791-27.9l-5.489 7.578c6.804 4.93 13.136 14.986 17.917 24.518a170.252 170.252 0 015.474 12.116A155.373 155.373 0 01561 59.777c.164.44.288.779.369 1.004l.091.252a.917.917 0 00.021.059l.004.012v.002l4.416-1.545zm4.659-.423l-9.318.847 9.318-.847zm-4.659.423l-.946 4.581h.001l.009.003.037.007.154.033.619.13c.547.118 1.356.293 2.399.524 2.085.462 5.1 1.149 8.804 2.04 7.41 1.785 17.557 4.387 28.51 7.662 10.965 3.278 22.673 7.21 33.23 11.643 10.629 4.463 19.778 9.309 25.842 14.316l5.957-7.214c-7.125-5.884-17.275-11.15-28.176-15.729-10.973-4.608-23.025-8.648-34.173-11.98-11.158-3.336-21.475-5.982-29-7.794a512.015 512.015 0 00-8.969-2.079 327.312 327.312 0 00-2.468-.538l-.651-.138-.17-.035a2.036 2.036 0 00-.057-.012l-.003-.001c-.001 0-.002 0-.949 4.581zm96.959 37.332c0-2.265 1.759-3.043 1.345-2.811-.124.069-.611.28-1.653.536-2.005.492-4.933.887-8.285 1.185-6.634.588-14.096.727-17.219.759l.096 9.356c3.178-.033 10.938-.174 17.949-.796 3.471-.307 6.973-.75 9.691-1.418 1.32-.324 2.768-.774 3.989-1.457.93-.52 3.444-2.142 3.444-5.354h-9.357zm-20.68 2.31a421.795 421.795 0 00-2.291-1.716l-5.586 7.506c.752.559 1.498 1.118 2.24 1.678l5.637-7.468zm-4.753 7.994c6.823 3.099 21.974 10.122 37.013 18.049 7.522 3.965 14.964 8.128 21.299 12.117 6.418 4.041 11.399 7.718 14.232 10.682l6.763-6.466c-3.672-3.841-9.478-8.021-16.01-12.134-6.615-4.165-14.286-8.452-21.921-12.476-15.275-8.051-30.615-15.161-37.507-18.291l-3.869 8.519zm71.247 37.615c0-1.762 1.166-2.606 1.284-2.684.119-.079-.043.048-.756.233-1.36.353-3.464.609-6.024.755-5.031.288-10.758.102-13.297-.01l-.411 9.348c2.609.114 8.721.319 14.242.004 2.715-.156 5.565-.45 7.84-1.041 1.104-.286 2.431-.73 3.583-1.495 1.151-.765 2.896-2.412 2.896-5.11h-9.357zm-13.228 2.274c-.782-.838-1.574-1.68-2.377-2.527l-6.787 6.442c.785.826 1.558 1.648 2.321 2.466l6.843-6.381zm-6.14 6.998c12.871 9.186 55.434 41.2 76.017 75.885l8.046-4.775c-21.703-36.573-65.818-69.584-78.627-78.725l-5.436 7.615zm76.658 76.73l1.389 1.453 6.763-6.466-1.389-1.452-6.763 6.465zm6.07-6.274l-34.362-9.934-2.598 8.989 34.361 9.933 2.599-8.988zm-31.021-3.464c.014-.657.026-1.287.037-1.889l-9.355-.173-.036 1.868 9.354.194zm-9.076 1.495c3.068 8.478 14.446 40.601 20.352 66.551l9.123-2.077c-6.047-26.572-17.609-59.181-20.677-67.658l-8.798 3.184zm20.693 63.495c-.008.016.003-.011.042-.054a.48.48 0 01.101-.088c.042-.026-.066.056-.465.106-.888.111-2.372-.034-4.456-.622-4.098-1.155-8.872-3.532-12.394-5.492l-4.55 8.175c3.668 2.042 9.219 4.86 14.404 6.323 2.556.721 5.452 1.24 8.162.899 2.902-.364 5.972-1.811 7.598-5.212l-8.442-4.035zm-15.824 10.715c.379-4.224.726-8.368 1.041-12.413l-9.328-.729c-.313 4.012-.656 8.119-1.032 12.306l9.319.836zm-9.227.593c4.958 22.397 13.45 65.702 14.416 103.122l9.353-.241c-.99-38.365-9.651-82.4-14.634-104.903l-9.135 2.022zm16.416 99.164c1.6-1.116 2.945-.293 2.303-.567-.362-.155-1.081-.581-2.168-1.442-2.118-1.676-4.741-4.275-7.389-7.133-2.613-2.822-5.115-5.748-6.972-7.981a233.581 233.581 0 01-2.819-3.457l-.156-.196-.038-.048a.088.088 0 01-.008-.011l-.002-.002v-.001l-3.676 2.895-3.675 2.895.001.001.004.005.012.015.046.058.171.216a223.991 223.991 0 002.947 3.613c1.917 2.305 4.534 5.369 7.301 8.355 2.732 2.95 5.749 5.978 8.446 8.113 1.321 1.045 2.805 2.071 4.302 2.71 1.219.52 4.082 1.478 6.723-.364l-5.353-7.674zm-20.925-17.943l-4.667.319v.007l.002.021.006.087.023.341.088 1.309c.075 1.135.184 2.771.314 4.775.259 4.01.606 9.491.952 15.378.697 11.839 1.38 25.121 1.38 31.489h9.357c0-6.701-.705-20.282-1.397-32.039a2552.956 2552.956 0 00-1.271-20.226l-.088-1.317-.023-.344a3.602 3.602 0 01-.006-.089l-.002-.022v-.007l-4.668.318zm4.944 49.58c.484.253.591.46.196.043a21.08 21.08 0 01-1.16-1.374c-.976-1.238-2.173-2.904-3.459-4.775-2.563-3.729-5.317-8.037-7.073-10.827l-7.918 4.985c1.777 2.822 4.61 7.255 7.28 11.141 1.33 1.935 2.66 3.795 3.822 5.268a29.513 29.513 0 001.716 2.017c.44.465 1.249 1.285 2.261 1.814l4.335-8.292zm-13.872-3.287a349.476 349.476 0 002.922-9.893l-9.01-2.521a341.79 341.79 0 01-2.844 9.628l8.932 2.786zm-502.399-25.363c-.102 14.156 8.993 26.168 22.935 36.085 14.012 9.968 33.771 18.467 57.064 25.545 46.649 14.175 108.675 22.997 170.561 25.89 61.884 2.893 124.005-.124 170.85-9.822 23.383-4.84 43.297-11.412 57.507-19.97 14.159-8.528 23.586-19.65 23.694-33.722l-9.356-.072c-.072 9.323-6.216 17.98-19.165 25.779-12.899 7.769-31.63 14.073-54.577 18.823-45.814 9.484-107.09 12.51-168.516 9.638-61.423-2.872-122.619-11.623-168.278-25.496-22.862-6.947-41.529-15.09-54.361-24.218-12.903-9.178-19.072-18.714-19.002-28.393l-9.356-.067zm-2.83-11.936a485.234 485.234 0 002.961 13.069l9.094-2.198a480.817 480.817 0 01-2.904-12.818l-9.151 1.947zm-6.46 30.901a7245.97 7245.97 0 0015.205-29.754l-8.34-4.242a7017.799 7017.799 0 01-15.184 29.713l8.319 4.283zm-6.913-127.181c-2.203 12.736-5.359 33.967-6.622 57.103-1.258 23.057-.659 48.381 4.854 69.137l9.043-2.401c-5.136-19.338-5.794-43.502-4.554-66.226 1.235-22.645 4.331-43.488 6.498-56.018l-9.219-1.595zm-.619-5.687c.181 2.264.368 4.559.567 6.883l9.323-.798a1219.11 1219.11 0 01-.563-6.828l-9.327.743zm-17.776 8.621c1.103 3.748 3.011 7.434 6.696 8.818 3.862 1.451 7.326-.454 9.38-2.036 2.221-1.71 4.247-4.122 5.929-6.431 1.721-2.363 3.27-4.883 4.494-7.017l-8.118-4.653c-1.124 1.961-2.487 4.167-3.939 6.161-1.492 2.049-2.901 3.623-4.075 4.527-1.341 1.033-1.232.371-.381.69.673.253-.088.434-1.009-2.699l-8.977 2.64zm19.047-84.026a1448.102 1448.102 0 00-4.476-1.36l-.001.003a1.668 1.668 0 01-.011.038l-.034.111-.126.422c-.109.37-.269.912-.471 1.611-.405 1.399-.981 3.43-1.671 5.973a468.797 468.797 0 00-5.055 20.468c-3.66 16.409-7.392 37.489-7.392 55.44h9.357c0-16.899 3.547-37.171 7.167-53.403a459.331 459.331 0 014.954-20.056 366.89 366.89 0 012.08-7.369l.118-.392.029-.096.006-.023.002-.005-4.476-1.362zm-36.882 23.948c4.686 3.676 10.229 2.938 14.63 1.168 4.422-1.779 8.786-4.98 12.482-8.179 3.754-3.25 7.105-6.753 9.5-9.418a120.094 120.094 0 002.856-3.292 75.48 75.48 0 001.002-1.221l.058-.074.017-.021.005-.007.002-.002c.001-.001.001-.002-3.67-2.902-3.671-2.899-3.67-2.9-3.67-2.9v-.001l-.001.001-.008.011-.04.05-.174.216c-.157.194-.394.484-.703.853-.616.738-1.517 1.793-2.633 3.035-2.244 2.497-5.309 5.693-8.665 8.599-3.416 2.956-6.856 5.367-9.85 6.571-3.014 1.213-4.497.831-5.364.151l-5.774 7.362zm72.582-80.582c-10.034 7.032-24.78 18.042-38.836 31.068-13.984 12.96-27.627 28.227-35.08 43.815l8.442 4.036c6.685-13.984 19.295-28.288 32.998-40.988 13.631-12.634 28.006-23.372 37.846-30.268l-5.37-7.663zm5.688-6.418a392.757 392.757 0 00-6.5 7.142l6.994 6.215a385.469 385.469 0 016.346-6.973l-6.84-6.384zm-23.108-2.91c-.441 3.689.946 6.798 3.638 8.836 2.333 1.766 5.297 2.469 7.868 2.771 5.241.616 11.514-.165 15.804-.893l-1.564-9.224c-4.149.703-9.311 1.276-13.148.825-1.968-.232-2.954-.668-3.313-.939-.114-.087-.063-.079-.017.032.046.108-.02.06.023-.297l-9.291-1.111zm74.428-43.299c-7.476 3.19-20.807 9.09-34.652 16.24-13.763 7.107-28.369 15.617-38.183 24.07l6.106 7.089c8.937-7.698 22.721-15.797 36.37-22.845 13.566-7.006 26.668-12.806 34.032-15.948l-3.673-8.606zm2.388-1.992a388.76 388.76 0 00-3.405 2.588l5.707 7.414c1.09-.839 2.202-1.681 3.327-2.528l-5.629-7.474zm-40.239 8.415h43.053v-9.357h-43.053v9.357zM367.24 59.561c-.889-4.593-.89-4.593-.891-4.592h-.004l-.015.003-.056.011-.213.042-.818.163c-.715.143-1.761.356-3.098.635a617.316 617.316 0 00-11.173 2.447c-9.325 2.129-21.99 5.23-35.326 9.112-13.318 3.877-27.405 8.563-39.535 13.88-11.941 5.232-22.686 11.367-28.638 18.422l7.152 6.033c4.46-5.287 13.445-10.717 25.242-15.886 11.608-5.087 25.267-9.643 38.394-13.465 13.108-3.817 25.586-6.872 34.794-8.975a607.143 607.143 0 0111.002-2.409 402.997 402.997 0 014.01-.816l.048-.009.011-.002h.002l-.888-4.594zm24.18-47.668c-8.608 6.524-15.76 18.378-20.613 27.95a186.56 186.56 0 00-5.83 12.698 162.19 162.19 0 00-1.574 3.931c-.181.47-.319.839-.414 1.093l-.109.296-.029.08-.008.023-.003.007-.001.002c0 .001-.001.002 4.401 1.588 4.401 1.587 4.4 1.587 4.4 1.588l.001-.002.004-.012.022-.059.092-.25c.083-.224.21-.56.377-.996a176.76 176.76 0 017.017-15.756c4.808-9.485 11.16-19.602 17.919-24.724l-5.652-7.457zm150.219-.06c-18.061-13.085-46.29-20.024-74.241-20.367-27.948-.343-56.802 5.894-75.978 20.427l5.652 7.457C413.938 6.567 440.414.492 467.283.822c26.865.33 52.939 7.048 68.867 18.588l5.489-7.577z" fill="url(#fhb6slgbhi)" mask="url(#b)"/><mask id="c" style="mask-type:alpha" maskUnits="userSpaceOnUse" x="510" y="195" width="43" height="32"><path fill-rule="evenodd" clip-rule="evenodd" d="M522.783 195.795c-2.583.916-4.766 2.526-6.555 4.326a27.466 27.466 0 00-3.125 3.808c-2.032 2.963-3.034 5.517-3.034 5.517s.698.12 1.92.389c4.681 1.039 17.028 4.313 26.893 11.664 1.983 1.476 3.866 3.119 5.568 4.941 0 0 7.075-11.62 8.293-20.118.41-2.87.153-5.385-1.271-6.974-2.572-2.876-6.8-1.679-9.671-.07-6.356 3.561-12.34 11.545-12.34 11.545s1.589-15.371-4.874-15.371c-.542 0-1.142.108-1.804.343z" fill="#fff"/></mask><g mask="url(#c)"><path d="M455.124 84.734s-2.338.272-5.69 1.34c-7.332 2.334-19.522 8.473-22.739 23.886-.156 2.252-.17 4.546.056 6.792.71 7.124 4.28 13.238 9.471 18.02 6.954 6.403 16.816 10.418 26.626 11.271 15.148 1.317 30.167-4.91 34.14-21.535a78.289 78.289 0 001.007-4.95c.889-9.394-.611-16.905-3.962-22.58a24.832 24.832 0 00-3.693-4.81c-5.638-5.717-13.964-8.53-23.888-8.53-3.585 0-7.376.367-11.328 1.096z" fill="url(#ircdf943ol)"/></g></g></g><path d="M115.356 205.046v51.51H63.837v-51.51zm.021 65.9v51.51H63.858v-51.51zm-63.858.014v51.51H-.001v-51.51z" opacity=".37" fill="#1AAB8B"/></g><defs><linearGradient id="pgq3sn2jga" x1="525.167" y1="270.513" x2="525.167" y2="322.032" gradientUnits="userSpaceOnUse"><stop stop-color="#F44881"/><stop offset="1" stop-color="#EC454F"/></linearGradient><linearGradient id="lbmfareyhb" x1="642.562" y1="322.032" x2="642.562" y2="270.513" gradientUnits="userSpaceOnUse"><stop stop-color="#8B60ED"/><stop offset="1" stop-color="#B372BD"/></linearGradient><linearGradient id="lfyp5b19wc" x1="656.937" y1="276.36" x2="656.937" y2="327.879" gradientUnits="userSpaceOnUse"><stop stop-color="#6EDCC4"/><stop offset="1" stop-color="#1AAB8B"/></linearGradient><linearGradient id="i79o4wk5id" x1="576.3" y1="256.135" x2="576.3" y2="205.372" gradientUnits="userSpaceOnUse"><stop stop-color="#F19A1A"/><stop offset="1" stop-color="#FFC73C"/></linearGradient><linearGradient id="k7cyiqjwfe" x1="525.167" y1="72.824" x2="525.167" y2="124.343" gradientUnits="userSpaceOnUse"><stop stop-color="#F44881"/><stop offset="1" stop-color="#EC454F"/></linearGradient><linearGradient id="vsrxjb9lrf" x1="129.259" y1="-58.791" x2="129.259" y2="322.808" gradientUnits="userSpaceOnUse"><stop stop-color="#F44881"/><stop offset="1" stop-color="#EC454F"/></linearGradient><linearGradient id="fhb6slgbhi" x1="256.493" y1="-96.545" x2="271.658" y2="220.547" gradientUnits="userSpaceOnUse"><stop stop-color="#00D0FF"/><stop offset="1" stop-color="#637BFF" stop-opacity=".01"/></linearGradient><radialGradient id="o3hivu2cnh" cx="0" cy="0" r="1" gradientUnits="userSpaceOnUse" gradientTransform="matrix(115.93606 -309.7373 370.55267 138.69952 390.001 365.573)"><stop stop-color="#00C3FF"/><stop offset="1" stop-color="#293F64"/></radialGradient><radialGradient id="ircdf943ol" cx="0" cy="0" r="1" gradientUnits="userSpaceOnUse" gradientTransform="matrix(1.40152 -31.28803 35.81658 1.60437 462.413 114.926)"><stop stop-color="#21C8F6"/><stop offset="1" stop-color="#6EE4FF"/></radialGradient></defs></svg>