<svg width="121" height="120" fill="none" xmlns="http://www.w3.org/2000/svg"><circle cx="60.5" cy="60" r="60" fill="url(#tqad1thcoa)"/><circle cx="60.5" cy="60" r="59" stroke="url(#g5g0g9x08b)" stroke-width="2"/><mask id="a" style="mask-type:alpha" maskUnits="userSpaceOnUse" x="3" y="3" width="115" height="115"><circle cx="60.5" cy="60.5" r="57.5" fill="#D9D9D9"/></mask><g mask="url(#a)"><path fill="#27425A" d="M3 14.25h2.258v1.827H3zM3 7.4h2.258v1.827H3zm0 13.7h2.258v1.827H3zm0 6.85h2.258v1.827H3zm0 6.85h2.258v1.827H3zm3.386 0h4.967v1.827H6.386z"/><g filter="url(#3runurw28d)"><path fill-rule="evenodd" clip-rule="evenodd" d="M33.026-20h-6.322v1.827h6.322V-20zM3-16.575h8.127v1.827H3v-1.827zM12.256-6.3h4.74v1.827h-4.74V-6.3zm30.477 27.4h-4.967v1.826h4.967V21.1zM12.482 34.8h4.966v1.826h-4.966V34.8zm12.19 0h4.967v1.826h-4.966V34.8zM12.707 7.4h-6.32v1.826h6.32V7.4zm-6.32 13.7h16.48v1.826H6.386V21.1zm16.48-17.125h-4.741V5.8h4.74V3.975z" fill="url(#1poq6z46de)"/></g><path fill="#27425A" d="M18.577 34.8h4.967v1.827h-4.967zm13.094-13.7h4.967v1.827h-4.967zM3 38.224h2.258v1.827H3zM3 3.975h2.258v1.827H3zm0 13.7h2.258v1.827H3zm0 6.85h2.258v1.827H3zm0 6.85h2.258v1.827H3zm3.386-27.4h10.611v1.827H6.386zm0 23.975h9.933v1.827H6.386zm11.062 0h9.933v1.827h-9.933zM13.836 7.4h9.03v1.827h-9.03zm10.159-3.425h4.741v1.827h-4.741zM3 10.825h2.258v1.827H3zM3 51h8.127v1.827H3zm0 6.85h2.258v1.827H3zm0 13.7h2.258v1.827H3zm0 13.7h2.258v1.827H3zm0-6.85h2.258v1.827H3zm0 13.7h2.258v1.827H3zm0 6.85h2.258v1.827H3zm0 6.849h2.258v1.827H3zm3.386 0h4.967v1.827H6.386z"/><g filter="url(#1lkdkhhnof)"><path fill-rule="evenodd" clip-rule="evenodd" d="M33.026 51h-6.322v1.827h6.322V51zM3 54.425h8.127v1.827H3v-1.827zM12.256 64.7h4.74v1.826h-4.74V64.7zm30.477 27.4h-4.967v1.826h4.967V92.1zm-30.251 13.699h4.966v1.827h-4.966v-1.827zm12.19 0h4.967v1.827h-4.966v-1.827zm-11.965-27.4h-6.32v1.827h6.32V78.4zm-6.32 13.7h16.48v1.827H6.386V92.1zm16.48-17.124h-4.741V76.8h4.74v-1.826z" fill="url(#gsxgruokig)"/></g><path fill="#27425A" d="M18.577 105.799h4.967v1.827h-4.967zM31.671 92.1h4.967v1.827h-4.967zM3 109.224h2.258v1.827H3zM3 64.7h2.258v1.827H3zm3.386 0h4.741v1.827H6.386zM3 61.275h2.258v1.827H3zm0 13.7h2.258v1.827H3zm0 13.7h2.258v1.827H3zm0 6.85h2.258v1.827H3zm0 6.85h2.258v1.827H3zm3.386-27.4h10.611v1.827H6.386zm0 23.975h9.933v1.827H6.386zm11.062 0h9.933v1.827h-9.933zM13.836 78.4h9.03v1.827h-9.03zm10.159-3.425h4.741v1.827h-4.741zM3 81.825h2.258v1.827H3zm0-13.7h2.258v1.827H3zm37.024 0h4.064v1.827h-4.064zm-5.193 0h4.064v1.827h-4.064zM12.256 51h8.127v1.827h-8.127zm0 3.425h13.32v1.827h-13.32zM21.512 51h4.064v1.827h-4.064zm12.642 0h9.933v1.827h-9.933zm-3.386 3.425h13.32v1.827h-13.32zm-4.064 0h2.935v1.827h-2.935zM75 14.25h2.258v1.827H75zm0-6.85h2.258v1.827H75zm0 13.7h2.258v1.827H75zm0 6.85h2.258v1.827H75zm0 6.85h2.258v1.827H75zm3.386 0h4.967v1.827h-4.967z"/><g filter="url(#fmwyqhlqhh)"><path fill-rule="evenodd" clip-rule="evenodd" d="M105.026-20h-6.322v1.827h6.322V-20zM75-16.575h8.127v1.827H75v-1.827zM84.256-6.3h4.74v1.827h-4.74V-6.3zm30.477 27.4h-4.967v1.826h4.967V21.1zM84.482 34.8h4.966v1.826h-4.966V34.8zm12.19 0h4.967v1.826h-4.966V34.8zM84.707 7.4h-6.32v1.826h6.32V7.4zm-6.32 13.7h16.48v1.826h-16.48V21.1zm16.48-17.125h-4.741V5.8h4.74V3.975z" fill="url(#d1gqoms0ki)"/></g><path fill="#27425A" d="M90.577 34.8h4.967v1.827h-4.967zm13.094-13.7h4.967v1.827h-4.967zM75 38.224h2.258v1.827H75zm0-34.249h2.258v1.827H75zm0 13.7h2.258v1.827H75zm0 6.85h2.258v1.827H75zm0 6.85h2.258v1.827H75zm3.386-27.4h10.611v1.827H78.386zm0 23.975h9.933v1.827h-9.933zm11.062 0h9.933v1.827h-9.933zM85.836 7.4h9.03v1.827h-9.03zm10.159-3.425h4.741v1.827h-4.741zM75 10.825h2.258v1.827H75zM75 51h8.127v1.827H75zm0 6.85h2.258v1.827H75zm0 13.7h2.258v1.827H75zm0 13.7h2.258v1.827H75zm0-6.85h2.258v1.827H75zm0 13.7h2.258v1.827H75zm0 6.85h2.258v1.827H75zm0 6.849h2.258v1.827H75zm3.386 0h4.967v1.827h-4.967z"/><g filter="url(#noi997ey7j)"><path fill-rule="evenodd" clip-rule="evenodd" d="M105.026 51h-6.322v1.827h6.322V51zM75 54.425h8.127v1.827H75v-1.827zM84.256 64.7h4.74v1.826h-4.74V64.7zm30.477 27.4h-4.967v1.826h4.967V92.1zm-30.251 13.699h4.966v1.827h-4.966v-1.827zm12.19 0h4.967v1.827h-4.966v-1.827zm-11.965-27.4h-6.32v1.827h6.32V78.4zm-6.32 13.7h16.48v1.827h-16.48V92.1zm16.48-17.124h-4.741V76.8h4.74v-1.826z" fill="url(#ciratlfkvk)"/></g><path fill="#27425A" d="M90.577 105.799h4.967v1.827h-4.967zM103.671 92.1h4.967v1.827h-4.967zM75 109.224h2.258v1.827H75zM75 64.7h2.258v1.827H75zm3.386 0h4.741v1.827h-4.741zM75 61.275h2.258v1.827H75zm0 13.7h2.258v1.827H75zm0 13.7h2.258v1.827H75zm0 6.85h2.258v1.827H75zm0 6.85h2.258v1.827H75zm3.386-27.4h10.611v1.827H78.386zm0 23.975h9.933v1.827h-9.933zm11.062 0h9.933v1.827h-9.933zM85.836 78.4h9.03v1.827h-9.03zm10.159-3.425h4.741v1.827h-4.741zM75 81.825h2.258v1.827H75zm0-13.7h2.258v1.827H75zm37.024 0h4.064v1.827h-4.064zm-5.192 0h4.064v1.827h-4.064zM84.256 51h8.127v1.827h-8.127zm0 3.425h13.32v1.827h-13.32zM93.512 51h4.064v1.827h-4.064zm12.642 0h9.933v1.827h-9.933zm-3.386 3.425h13.32v1.827h-13.32zm-4.064 0h2.935v1.827h-2.935z"/><path d="M10.973 91.239l28.832-14.991H88.06l45.792 14.991-56.98 43.603L8 117.995l2.973-26.756z" fill="url(#jkza6nkk7l)"/><path opacity=".5" d="M10.499 95.505a8.272 8.272 0 014.235-6.335l23.982-13.19a8.273 8.273 0 014.251-1.02l44.427 1.422a8.27 8.27 0 012.309.407l29.222 9.564c6.327 2.07 7.741 10.386 2.454 14.432l-41.361 31.65a8.272 8.272 0 01-6.993 1.466L15.06 119.722a8.273 8.273 0 01-6.256-8.949L10.5 95.505z" fill="url(#68cw5dc3dm)"/><path opacity=".5" fill-rule="evenodd" clip-rule="evenodd" d="M24.237 96.21l-5.752 2.714 12.183 8.849 6.43-7.788-12.861-3.775z" fill="url(#4qbngzxzln)"/><path opacity=".5" fill-rule="evenodd" clip-rule="evenodd" d="M104.319 96.21l5.752 2.714-12.183 8.849-6.43-7.788 12.861-3.775z" fill="url(#j9ipn3dk5o)"/><path d="M40.134 76.812l24.215 63.932 24.213-63.932H40.134z" fill="#CFD8DC"/><path fill-rule="evenodd" clip-rule="evenodd" d="M50.512 122.424l10.097-32.68-3.18-7.015h13.838l-3.179 7.014 10.097 32.681-13.837 18.321-13.836-18.321z" fill="url(#w55ybln4lp)"/><path d="M64.05 117.617L50.663 97.273l3.471 27.338 9.918 1.271 14.876-2.543-.496-26.066-14.38 20.344z" fill="#233450"/><path d="M67.614 139.389L43.4 78.321c-.417-1.047-1.445-1.812-2.685-1.997-1.238-.177-2.489.242-3.282 1.099L23.593 92.69c-.753.832-.96 1.95-.546 2.951.414 1 1.389 1.738 2.572 1.946l10.958 1.937-5.812 5.123c-1.253 1.111-1.35 2.879-.224 4.092l31.13 33.588c.653.713 1.638 1.126 2.677 1.123a3.903 3.903 0 001.684-.384c1.466-.727 2.132-2.275 1.582-3.677z" fill="url(#3tn7oxm9hq)"/><path opacity=".3" d="M67.614 139.389L43.4 78.321c-.417-1.047-1.445-1.812-2.685-1.997-1.238-.177-2.489.242-3.282 1.099L23.593 92.69c-.753.832-.96 1.95-.546 2.951.414 1 1.389 1.738 2.572 1.946l3.329.588c3.078.544 4.162 4.405 1.817 6.472-1.253 1.111-1.35 2.879-.224 4.092l31.13 33.588c.653.713 1.638 1.126 2.677 1.123a3.903 3.903 0 001.684-.384c1.466-.727 2.132-2.275 1.582-3.677z" fill="url(#csljectzor)"/><path d="M61.083 139.392l24.213-61.069c.42-1.046 1.445-1.812 2.684-2.002 1.24-.179 2.493.24 3.288 1.099l13.836 15.266c.754.834.961 1.953.547 2.955-.414 1.001-1.39 1.74-2.574 1.949l-10.959 1.936 5.805 5.123c1.257 1.109 1.358 2.877.235 4.092l-31.133 33.588c-.653.713-1.638 1.127-2.678 1.124a3.904 3.904 0 01-1.683-.385c-1.466-.726-2.131-2.275-1.581-3.676z" fill="url(#38z3gbiuos)"/><path opacity=".3" d="M61.083 139.392l24.213-61.069c.42-1.046 1.445-1.812 2.684-2.002 1.24-.179 2.493.24 3.288 1.099l13.836 15.266c.754.834.961 1.953.547 2.955-.414 1.001-1.39 1.74-2.574 1.949l-3.335.589c-3.077.544-4.162 4.403-1.82 6.47 1.258 1.109 1.36 2.877.236 4.092l-31.133 33.588c-.653.713-1.638 1.127-2.678 1.124a3.904 3.904 0 01-1.683-.385c-1.466-.726-2.131-2.275-1.581-3.676z" fill="url(#urt3fkye9t)"/><path fill-rule="evenodd" clip-rule="evenodd" d="M60.89 89.755l-7.574 16.263 1.46 4.196 20.55-.942v-3.254l-7.52-16.263H60.89z" fill="url(#7q964ncb2u)"/><path fill-rule="evenodd" clip-rule="evenodd" d="M67.888 125.193l7.592-24.385-1.464-6.292-20.596 1.413v4.879l7.537 24.385h6.93z" fill="url(#85t11603rv)"/><path fill-rule="evenodd" clip-rule="evenodd" d="M64.5 83l-24.366-5.557 7.522 25.942L64.5 83z" fill="url(#6p0ibp0r0w)"/><path d="M49.111 96.756L40.15 76.937h3.446l7.411 16.373-1.896 3.446z" fill="url(#9f834dzyjx)"/><path d="M79.444 96.756l8.961-19.819h-3.447l-7.41 16.373 1.896 3.446z" fill="url(#194l1iydky)"/><path fill-rule="evenodd" clip-rule="evenodd" d="M64 82.5l24.497-5.057-5.855 26.582L64 82.5z" fill="url(#xp9wt29fvz)"/><path d="M43.594 67.462h41.51L64.348 82.73 43.594 67.462z" fill="#B0BEC5"/><path d="M50.662 66.312a5.575 5.575 0 015.576-5.575H74.04a5.575 5.575 0 015.575 5.575V80.3a3.186 3.186 0 01-3.186 3.186H53.848a3.186 3.186 0 01-3.186-3.186V66.312z" fill="url(#ab3hdmp0yA)"/><path d="M51.526 66.202a5.575 5.575 0 015.575-5.576h15.962a5.575 5.575 0 015.575 5.576v14.134a3.186 3.186 0 01-3.185 3.186H54.712a3.186 3.186 0 01-3.186-3.186V66.202z" fill="url(#22jkhs8tfB)"/><g opacity=".65" filter="url(#lt0s272m1C)"><ellipse cx="63.755" cy="63.118" rx="17.779" ry="3.602" fill="url(#ksn84cjivD)"/></g><ellipse opacity=".4" rx="7.599" ry="6.68" transform="matrix(.9981 -.0616 -.07897 -.99688 64.665 72.487)" fill="#3C557B"/><g filter="url(#d68m9xkgpE)" style="mix-blend-mode:luminosity" opacity=".5"><path fill-rule="evenodd" clip-rule="evenodd" d="M70.461 72.171v-1.816l-.762.386-1.053.532v1.816l1.816-.918zm-2.178 3.288v-1.817l-1.036.52-2.958 1.481v1.835l3.994-2.02zm-8.351-6.184v6.183l3.994 2.02v-1.835l-2.087-1.036-.001-.001-.02-.013-.017-.012c-.006-.005-.01-.012-.015-.017l-.014-.016-.01-.02c-.003-.006-.007-.012-.008-.018-.003-.008-.003-.016-.004-.024 0-.006-.003-.011-.003-.017v-4.276l-1.053-.533-.762-.385zm1.997-1.194l-1.815.917 1.815.917 1.814-.917-1.815-.917h.001zm.944 5.726l1.053-.532v-4l-.762.385-1.053.533v4l.762-.386zm5.592-4.642l-1.815.917 1.815.917 1.814-.917-1.814-.917zm-.182 2.108l-1.053-.532-.762-.386v1.816l1.053.532.762.386v-1.816zm-4.176 4.092l2.662-1.334 1.33-.667-1.813-.917-2.088 1.056-1.903.962 1.812.9z" fill="url(#wt6u7jhx2F)"/></g><path d="M85.103 67.462l3.459 9.35-10.378 18.135L64.35 82.729l20.754-15.267zm-41.51 0l-3.459 9.35 10.378 18.135 13.837-12.218-20.756-15.267z" fill="#ECEFF1"/><ellipse cx="63.226" cy="67.571" rx="21.712" ry="6.3" transform="rotate(-1.862 63.226 67.571)" fill="#000" fill-opacity=".2"/><path d="M33.579 26.59c-.634-7.244 4.724-13.63 11.968-14.263L75.345 9.72c7.243-.634 13.629 4.724 14.263 11.968l2.746 31.39c.76 8.692-5.67 16.355-14.362 17.115L53.44 72.34c-8.692.76-16.354-5.67-17.115-14.362L33.58 26.59z" fill="url(#9abf2nq9zG)"/><rect opacity=".829" x="32.431" y="13.474" width="56.243" height="60.474" rx="15.58" transform="rotate(-5 32.431 13.474)" fill="url(#93kutdz1rH)"/><rect x="32.695" y="13.695" width="55.756" height="59.987" rx="13.389" transform="rotate(-5 32.695 13.695)" stroke="url(#k9s99fecgI)" stroke-width=".487"/><path opacity=".405" fill-rule="evenodd" clip-rule="evenodd" d="M35.958 54.77l.286 3.27c.76 8.692 8.423 15.122 17.115 14.362l25.548-2.235c8.693-.76 15.122-8.424 14.362-17.116l-2.942-33.624-.006-.069 2.654 30.34c.76 8.691-5.67 16.354-14.361 17.114l-25.548 2.236c-8.664.758-16.306-5.628-17.108-14.277z" fill="#222" fill-opacity=".468"/><path fill-rule="evenodd" clip-rule="evenodd" d="M39.25 28.077a6.144 6.144 0 015.585-6.656l33.2-2.905a6.144 6.144 0 016.657 5.585l2.401 27.447c.139 1.587-.376 3.16-1.727 4.004-2.626 1.642-8.336 4.148-19.582 5.132-11.085.97-17.766-.395-21.147-1.508-1.81-.595-2.866-2.289-3.032-4.186L39.25 28.077z" fill="#1B283E"/><path d="M39.25 28.077a6.144 6.144 0 015.585-6.656l33.2-2.905a6.144 6.144 0 016.657 5.585l2.401 27.447c.139 1.587-.376 3.16-1.727 4.004-2.626 1.642-8.336 4.148-19.582 5.132-11.085.97-17.766-.395-21.147-1.508-1.81-.595-2.866-2.289-3.032-4.186L39.25 28.077z" fill="url(#omt5rwmogJ)"/><mask id="b" style="mask-type:alpha" maskUnits="userSpaceOnUse" x="39" y="18" width="49" height="44"><path d="M39.25 28.077a6.144 6.144 0 015.585-6.656l33.2-2.905a6.144 6.144 0 016.657 5.585l2.401 27.447c.139 1.587-.376 3.16-1.727 4.004-2.626 1.643-8.336 4.148-19.582 5.132-11.085.97-17.766-.395-21.147-1.507-1.81-.596-2.866-2.29-3.032-4.187L39.25 28.077z" fill="#fff"/></mask><g filter="url(#tst8rj34oL)" mask="url(#b)"><path d="M69.527 54.143c-1.111.234-2.284-.087-3.218-.88-.4-.34-.494-.964-.21-1.393.283-.43.836-.502 1.236-.162.516.438 1.163.615 1.776.486.612-.13 1.131-.552 1.423-1.161.226-.472.761-.63 1.196-.351.435.277.604.885.378 1.356-.529 1.103-1.47 1.87-2.58 2.105z" fill="#BFD8FF"/></g><path opacity=".65" d="M44.876 21.888l33.2-2.905a5.675 5.675 0 016.149 5.159l2.4 27.446c.13 1.475-.352 2.844-1.508 3.567-2.548 1.593-8.182 4.083-19.374 5.062-11.03.965-17.646-.395-20.96-1.486-1.589-.523-2.557-2.023-2.711-3.782l-2.355-26.913a5.675 5.675 0 015.159-6.148z" stroke="url(#wjyb4ydfeM)" stroke-width=".938"/><mask id="c" style="mask-type:alpha" maskUnits="userSpaceOnUse" x="39" y="18" width="49" height="44"><path d="M44.876 21.89l33.2-2.904a5.675 5.675 0 016.149 5.159l2.4 27.446c.13 1.475-.352 2.844-1.508 3.566-2.548 1.594-8.182 4.084-19.374 5.063-11.03.965-17.646-.396-20.96-1.486-1.589-.523-2.557-2.023-2.711-3.782l-2.355-26.913a5.675 5.675 0 015.159-6.148z" fill="#fff" stroke="#fff" stroke-width=".938"/></mask><g mask="url(#c)"><ellipse opacity=".778" cx="52.174" cy="28.456" rx="25.24" ry="25.644" transform="rotate(-5 52.174 28.456)" fill="url(#ltq85ghnjO)"/></g><g filter="url(#tui3uiydlP)"><path d="M42.626 37.392a4.554 4.554 0 014.11-4.894l29.962-2.835a4.554 4.554 0 01.858 9.067l-15.343 1.45-14.619 1.384a4.554 4.554 0 01-4.968-4.173z" fill="#BFD8FF"/></g><path fill-rule="evenodd" clip-rule="evenodd" d="M67.003 16.86l-1.418.124a.713.713 0 01-.765-.656.713.713 0 01.64-.778l1.418-.124c.388-.034.73.26.765.655a.713.713 0 01-.64.779zm2.474-2.202l-1.417.124a.713.713 0 01-.766-.656.713.713 0 01.64-.779l1.418-.124c.388-.034.73.26.765.656a.713.713 0 01-.64.779zm7.406 1.338l-7.764.68a.715.715 0 01-.77-.656.715.715 0 01.644-.779l7.76-.679a.715.715 0 01.771.655.715.715 0 01-.645.78h.004zm2.443-2.2l-7.705.675a.73.73 0 01-.798-.653.73.73 0 01.673-.781l7.704-.675a.73.73 0 01.799.653.73.73 0 01-.673.781z" fill="#243552"/><ellipse opacity=".157" cx="46.182" cy="38.223" rx="13.076" ry="13.019" transform="rotate(-6 46.182 38.223)" fill="url(#yzeo1zkreQ)"/><mask id="d" style="mask-type:alpha" maskUnits="userSpaceOnUse" x="33" y="25" width="27" height="27"><ellipse cx="46.182" cy="38.223" rx="13.076" ry="13.019" transform="rotate(-6 46.182 38.223)" fill="#fff"/></mask><g mask="url(#d)"><path opacity=".2" fill-rule="evenodd" clip-rule="evenodd" d="M44.337 26.729L36.46 46.534l8.331 4.119 7.742-22.122-8.195-1.802z" fill="url(#4oabak76kS)"/></g><ellipse opacity=".157" cx="79.876" cy="34.682" rx="13.076" ry="13.019" transform="rotate(-6 79.876 34.682)" fill="url(#dlwnj82v3T)"/><mask id="e" style="mask-type:alpha" maskUnits="userSpaceOnUse" x="66" y="21" width="27" height="27"><ellipse cx="79.876" cy="34.682" rx="13.076" ry="13.019" transform="rotate(-6 79.876 34.682)" fill="#fff"/></mask><g mask="url(#e)"><path opacity=".2" fill-rule="evenodd" clip-rule="evenodd" d="M77.962 23.195l-7.878 19.806 8.331 4.118 7.742-22.122-8.195-1.802z" fill="url(#2me2i0t5oV)"/></g><path fill-rule="evenodd" clip-rule="evenodd" d="M80.883 46.953c-6.646.699-12.595-4.085-13.289-10.684-.693-6.599 4.132-12.514 10.777-13.213 6.645-.698 12.595 4.085 13.289 10.684.693 6.599-4.132 12.515-10.777 13.213zm-33.6 3.53c-6.645.699-12.595-4.085-13.288-10.684-.694-6.599 4.13-12.515 10.776-13.213 6.646-.699 12.595 4.085 13.289 10.684.693 6.599-4.131 12.515-10.777 13.213zm44.29-24.144c-1.125-1.046-3.19-2.337-4.423-3.07a13.998 13.998 0 00-.978-.57l-.022-.012.001.002a14.007 14.007 0 00-7.978-1.515 14.01 14.01 0 00-9.438 5.105c-1.102 1.261-2.024 2.612-2.984 3.942-1.217 1.685-2.112 1.015-3.49 1.16-1.379.145-2.115.986-3.655-.41-1.216-1.1-2.4-2.23-3.74-3.234a14.112 14.112 0 00-10.335-3.027c-2.861.3-5.6 1.456-7.53 3.145L37 27.853l.023.012c-.29.242-.549.495-.818.758-1.053.973-2.854 2.671-3.738 3.928-1.314 1.868-4.566 2.325-4.566 2.325l.372 3.537s1.941-.32 2.651.355c.42.398 1.043 2.463 1.932 4.598a13.78 13.78 0 001.053 2.183c.383.688.813 1.318 1.282 1.823l.003-.004a14.018 14.018 0 0012.285 4.999 14.01 14.01 0 0011.835-9.46l.01-.016.026-.056c.823-1.79 1.344-6.511 1.722-7.293.381-.79 1.524-.968 1.524-.968s1.155-.063 1.692.63c.532.686 2.024 5.195 3.2 6.775l.039.05.011.013a14.01 14.01 0 0013.543 6.793 14.014 14.014 0 0010.974-7.443l.002.003c.353-.59.635-1.296.867-2.049.253-.76.444-1.545.562-2.352.425-2.273.573-4.42.9-4.896.553-.808 2.456-.892 2.456-.892l-.372-3.536s-3.223.223-4.897-1.33z" fill="#090E17"/><path d="M91.573 26.34l.285-.307-.285.306zm-4.423-3.071l-.224.353.01.006.214-.36zm-.978-.57l-.21.363.015.008.195-.37zm-.022-.012l.21-.362-.598.518.388-.156zm.001.002l-.194.37.582-.526-.388.156zm-17.416 3.59l.315.275.01-.011-.325-.264zm-2.984 3.942l-.34-.245.34.245zm-7.145.75l.28-.31-.28.31zm-3.74-3.234l-.262.325.012.01.25-.335zM37 27.855l-.416.044.692.27-.276-.314zm0-.002l.194-.37-.61.414.416-.044zm.023.012l.267.322-.073-.692-.194.37zm-.818.758l.284.308.009-.009-.293-.299zm-3.738 3.928l-.343-.24.343.24zM27.9 34.877l-.058-.414-.358.458.416-.044zm.372 3.537l-.416.044.484.368-.068-.412zm2.651.355l-.288.303.288-.303zm1.932 4.598l.392-.145-.006-.015-.386.16zm1.053 2.183l.365-.204-.004-.008-.361.212zm1.282 1.823l-.307.285.615-.002-.308-.283zm.003-.004l.322-.267-.63-.016.308.283zm24.12-4.462l-.352-.226-.045.093.397.133zm.01-.015l.351.227.026-.048-.378-.179zm.026-.056l.378.178.002-.004-.38-.174zm1.722-7.293l.377.182-.377-.182zm1.524-.968l-.023-.417-.041.004.064.413zm1.692.63l-.33.256.33-.256zm3.2 6.775l-.335.25.003.004.333-.254zm.039.05l-.333.253.026.032.307-.285zm.011.013l.36-.213-.053-.072-.307.285zm24.517-.65l.393-.144-.763-.05.37.194zm.002.003l-.393.145.752.07-.36-.215zm.867-2.049l-.397-.132-.003.01.4.122zm.562-2.352l-.411-.077-.003.016.414.06zm.9-4.896l.344.237-.345-.237zm2.456-.892l.018.418.398-.462-.416.044zm-.372-3.536l.416-.044-.445-.374.03.418zm-4.897-1.33l.285-.307-.285.306zM80.84 46.536c-6.419.675-12.16-3.945-12.829-10.312l-.832.088c.718 6.831 6.876 11.779 13.749 11.056l-.088-.832zM68.01 36.225c-.669-6.366 3.986-12.078 10.405-12.753l-.088-.832c-6.872.722-11.867 6.841-11.149 13.673l.832-.088zm10.405-12.753c6.418-.675 12.16 3.945 12.829 10.311l.832-.087c-.718-6.831-6.876-11.778-13.749-11.056l.088.832zm12.829 10.311c.669 6.367-3.987 12.08-10.405 12.754l.088.832c6.872-.722 11.867-6.841 11.148-13.673l-.831.087zM47.239 50.067c-6.418.675-12.16-3.945-12.828-10.312l-.832.088c.718 6.831 6.875 11.778 13.748 11.056l-.088-.832zM34.411 39.755c-.67-6.366 3.986-12.079 10.404-12.753l-.087-.832c-6.873.722-11.867 6.841-11.15 13.673l.833-.088zm10.404-12.753c6.419-.675 12.16 3.945 12.829 10.311l.832-.087c-.718-6.831-6.876-11.778-13.748-11.056l.087.832zm12.829 10.311c.669 6.367-3.986 12.08-10.405 12.754l.088.832c6.873-.722 11.867-6.842 11.149-13.673l-.832.087zm34.214-11.28c-1.163-1.081-3.267-2.394-4.494-3.123l-.428.718c1.237.736 3.264 2.006 4.353 3.017l.57-.612zm-4.484-3.117c-.326-.207-.66-.404-1.008-.586l-.389.74c.323.17.638.355.949.552l.448-.706zm-.993-.578l-.021-.013-.419.724.022.013.418-.724zm-.619.505l.001.002.776-.312v-.002l-.777.313zm.583-.525a14.425 14.425 0 00-8.216-1.56l.088.832a13.59 13.59 0 017.74 1.47l.388-.742zm-8.216-1.56a14.429 14.429 0 00-9.718 5.257l.649.528a13.592 13.592 0 019.157-4.953l-.088-.832zm-9.709 5.246c-1.118 1.28-2.057 2.654-3.008 3.972l.678.49c.969-1.342 1.875-2.67 2.96-3.912l-.63-.55zm-3.008 3.972c-.283.392-.531.624-.75.764a1.44 1.44 0 01-.642.223c-.232.026-.474.011-.78-.005a6.25 6.25 0 00-1.023.007l.087.832a5.45 5.45 0 01.89-.004c.286.016.603.036.919.001.328-.037.66-.133.998-.349.333-.212.653-.529.979-.98l-.678-.489zm-3.195.989c-.381.04-.714.128-1.001.206-.297.08-.53.144-.763.167-.22.021-.435.005-.674-.085-.244-.091-.534-.267-.893-.591l-.561.62c.412.373.79.616 1.16.754.377.141.721.166 1.05.134.316-.031.622-.117.899-.192.286-.077.562-.149.87-.181l-.087-.832zm-3.33-.303c-1.206-1.091-2.41-2.24-3.77-3.26l-.501.67c1.32.989 2.482 2.099 3.709 3.21l.561-.62zm-3.758-3.25a14.53 14.53 0 00-10.642-3.118l.088.832a13.693 13.693 0 0110.03 2.936l.524-.65zm-10.642-3.118c-2.938.309-5.76 1.495-7.762 3.246l.55.63c1.86-1.627 4.515-2.752 7.3-3.044l-.088-.832zm-7.07 3.517l-.001-.001-.832.087v.002l.832-.088zm-.611.413l.023.012.388-.741-.023-.012-.388.74zm-.05-.68c-.306.254-.576.519-.843.78l.585.598c.271-.265.517-.506.793-.735l-.535-.643zm-.835.772c-1.044.965-2.882 2.694-3.797 3.995l.685.481c.853-1.213 2.617-2.88 3.68-3.861l-.568-.615zm-3.797 3.995c-.58.825-1.62 1.37-2.573 1.71a10.317 10.317 0 01-1.678.437l-.024.004h-.006l.058.414.059.415h.004l.008-.002.031-.005.113-.019a11.158 11.158 0 001.715-.457c1.001-.356 2.245-.974 2.978-2.016l-.685-.481zm-4.639 2.61l.372 3.535.832-.087-.372-3.536-.832.087zm.788 3.492l.068.413.003-.001.014-.002.056-.008.215-.026c.183-.018.432-.035.7-.033.27.002.546.024.787.08.247.056.42.14.52.235l.576-.606c-.254-.242-.591-.372-.908-.445a4.544 4.544 0 00-.968-.1 7.427 7.427 0 00-1.13.08l.067.413zm2.363.659c.04.037.128.17.262.459.125.269.266.62.425 1.035.316.822.7 1.886 1.147 2.961l.772-.321c-.441-1.061-.814-2.096-1.138-2.94-.16-.417-.31-.79-.447-1.088-.129-.277-.275-.551-.445-.713l-.576.607zm1.828 4.44c.293.792.67 1.542 1.084 2.248l.722-.423a13.26 13.26 0 01-1.022-2.116l-.784.29zm1.08 2.24c.394.708.842 1.368 1.34 1.905l.613-.569c-.439-.473-.85-1.074-1.223-1.743l-.73.407zm1.955 1.903l.003-.004-.616-.566-.003.005.616.565zm-.627-.02a14.437 14.437 0 0012.65 5.148l-.087-.832a13.6 13.6 0 01-11.919-4.85l-.644.534zm12.65 5.148a14.43 14.43 0 0012.188-9.744l-.793-.266a13.593 13.593 0 01-11.482 9.178l.088.832zm12.144-9.65l.009-.015-.704-.453-.01.015.705.452zm.035-.063l.027-.057-.756-.357-.027.057.756.357zm.029-.06c.438-.953.782-2.638 1.06-4.123.14-.758.265-1.468.38-2.046.057-.288.11-.536.159-.733.052-.206.093-.328.12-.384l-.754-.364a3.05 3.05 0 00-.177.545c-.055.217-.111.48-.169.773-.115.583-.243 1.312-.382 2.055-.284 1.519-.612 3.089-.997 3.927l.76.35zm1.719-7.286c.126-.261.396-.45.693-.578a2.59 2.59 0 01.52-.159h-.001l-.065-.413-.064-.413h-.003l-.005.001a1.684 1.684 0 00-.06.011 3.44 3.44 0 00-.652.204c-.37.16-.861.454-1.117.983l.754.364zm1.147-1.15l.023.418h-.001.034a2.589 2.589 0 01.507.048c.317.062.621.191.799.42l.66-.512c-.359-.464-.901-.65-1.296-.729a3.437 3.437 0 00-.746-.062h-.002l.022.417zm1.362.886c.038.05.103.16.197.351.089.183.192.414.308.684.232.541.501 1.21.797 1.922.58 1.395 1.267 2.972 1.893 3.812l.671-.5c-.55-.74-1.198-2.207-1.791-3.633-.29-.699-.567-1.385-.801-1.93a17.72 17.72 0 00-.326-.723 3.04 3.04 0 00-.287-.495l-.661.512zm3.198 6.773l.038.05.665-.507-.038-.05-.665.507zm.064.08l.012.013.613-.57-.012-.012-.613.57zm-.042-.059a14.427 14.427 0 0013.946 6.997l-.087-.832a13.591 13.591 0 01-13.139-6.59l-.72.425zm13.946 6.997a14.432 14.432 0 0011.302-7.665l-.741-.388a13.596 13.596 0 01-10.648 7.221l.087.832zm10.539-7.715l.001.004.785-.289-.001-.003-.785.288zm.753.074c.376-.63.67-1.37.907-2.14l-.8-.247c-.225.735-.495 1.406-.825 1.958l.718.429zm.904-2.132c.26-.782.458-1.591.58-2.424l-.828-.12a13.31 13.31 0 01-.545 2.28l.793.264zm.577-2.407c.214-1.147.36-2.267.49-3.137.064-.44.125-.811.188-1.1.068-.31.126-.456.155-.5l-.69-.472c-.134.195-.217.496-.282.793a18.4 18.4 0 00-.2 1.156c-.132.89-.273 1.98-.483 3.106l.822.154zm.833-4.736c.08-.117.23-.233.452-.34a3.56 3.56 0 01.73-.238 6.205 6.205 0 01.946-.133h.002l-.018-.418-.019-.418h-.008l-.019.002-.068.004a7.048 7.048 0 00-.999.147 4.38 4.38 0 00-.905.3c-.29.137-.587.333-.784.62l.69.474zm2.528-1.173l-.372-3.536-.832.087.372 3.537.832-.088zm-.788-3.492l-.029-.418h-.006l-.023.002a8.496 8.496 0 01-.467.008 10.05 10.05 0 01-1.24-.09c-.988-.134-2.106-.452-2.847-1.14l-.57.613c.934.867 2.264 1.215 3.305 1.357a10.897 10.897 0 001.862.087l.031-.001h.01l.002-.001-.028-.417z" fill="#090E17"/><path fill-rule="evenodd" clip-rule="evenodd" d="M60 108.934c45.799 0 82.927-43.281 82.927-96.671V12A105.573 105.573 0 01145 32.896c0 52.335-38.056 94.761-85 94.761s-85-42.426-85-94.76c0-7.18.716-14.174 2.073-20.897v.263c0 53.39 37.128 96.671 82.927 96.671z" fill="#000" fill-opacity=".1"/></g><path d="M11.5 90L26 62 8.513 52.106 28 23.5" stroke="url(#rok53r8ubW)" stroke-width="1.8" stroke-linejoin="round"/><g style="mix-blend-mode:lighten" opacity=".842" filter="url(#9rvtoa3y3X)"><circle r="8" transform="scale(-1 1) rotate(-20.853 46.495 88.122)" fill="#C42E6C"/></g><g style="mix-blend-mode:lighten" filter="url(#02nql72egY)"><circle r="4" transform="scale(-1 1) rotate(-20.853 46.495 88.122)" fill="#C42E6C"/></g><circle r="2.542" transform="scale(-1 1) rotate(-20.853 46.495 88.122)" fill="url(#l1il8v43sZ)"/><path fill-rule="evenodd" clip-rule="evenodd" d="M29.18 20.364a2.025 2.025 0 00-1.286-.054 2.034 2.034 0 111.647 3.675 2.034 2.034 0 00-.362-3.62z" fill="#fff" fill-opacity=".2"/><circle r="3.445" transform="scale(-1 1) rotate(-20.853 136.541 51.662)" fill="url(#v183qjaz0aa)"/><path fill-rule="evenodd" clip-rule="evenodd" d="M9.98 49.208a3.267 3.267 0 00-2.074-.088 3.281 3.281 0 112.658 5.929 3.281 3.281 0 00-.584-5.84z" fill="#fff" fill-opacity=".2"/><circle r="2.193" transform="scale(-1 1) rotate(-20.853 155.085 101.097)" fill="url(#l8b66t1kxab)"/><path fill-rule="evenodd" clip-rule="evenodd" d="M26.169 60.06c-.44-.168-.9-.177-1.32-.057a2.088 2.088 0 111.691 3.773 2.088 2.088 0 00-.372-3.717z" fill="#fff" fill-opacity=".2"/><defs><linearGradient id="g5g0g9x08b" x1="-24.727" y1="22.708" x2="4.538" y2="134.632" gradientUnits="userSpaceOnUse"><stop stop-color="#FF5E92"/><stop offset="1" stop-color="#ED4653"/></linearGradient><linearGradient id="1poq6z46de" x1="-12.852" y1="8.313" x2="-12.852" y2="110.123" gradientUnits="userSpaceOnUse"><stop stop-color="#fff"/><stop offset="1" stop-color="#C42E6C"/><stop offset="1" stop-color="#C42E6C"/></linearGradient><linearGradient id="gsxgruokig" x1="-12.852" y1="79.313" x2="-12.852" y2="181.123" gradientUnits="userSpaceOnUse"><stop stop-color="#fff"/><stop offset="1" stop-color="#C42E6C"/><stop offset="1" stop-color="#C42E6C"/></linearGradient><linearGradient id="d1gqoms0ki" x1="59.148" y1="8.313" x2="59.148" y2="110.123" gradientUnits="userSpaceOnUse"><stop stop-color="#fff"/><stop offset="1" stop-color="#C42E6C"/><stop offset="1" stop-color="#C42E6C"/></linearGradient><linearGradient id="ciratlfkvk" x1="59.148" y1="79.313" x2="59.148" y2="181.123" gradientUnits="userSpaceOnUse"><stop stop-color="#fff"/><stop offset="1" stop-color="#C42E6C"/><stop offset="1" stop-color="#C42E6C"/></linearGradient><linearGradient id="68cw5dc3dm" x1="-16.379" y1="37.816" x2="-7.974" y2="104.721" gradientUnits="userSpaceOnUse"><stop stop-color="#D12A6F"/><stop offset="1" stop-color="#83234B" stop-opacity=".01"/></linearGradient><linearGradient id="4qbngzxzln" x1="31.441" y1="100.504" x2="28.919" y2="104.015" gradientUnits="userSpaceOnUse"><stop stop-color="#101928" stop-opacity=".383"/><stop offset="1" stop-color="#162236" stop-opacity="0"/></linearGradient><linearGradient id="j9ipn3dk5o" x1="97.115" y1="100.504" x2="99.637" y2="104.015" gradientUnits="userSpaceOnUse"><stop stop-color="#101928" stop-opacity=".383"/><stop offset="1" stop-color="#162236" stop-opacity="0"/></linearGradient><linearGradient id="w55ybln4lp" x1="78.185" y1="109.447" x2="50.512" y2="109.447" gradientUnits="userSpaceOnUse"><stop stop-color="#F44881"/><stop offset="1" stop-color="#EC454F"/></linearGradient><linearGradient id="7q964ncb2u" x1="64.321" y1="86.274" x2="64.321" y2="104.327" gradientUnits="userSpaceOnUse"><stop stop-color="#101928" stop-opacity=".63"/><stop offset="1" stop-color="#162236" stop-opacity="0"/></linearGradient><linearGradient id="85t11603rv" x1="64.45" y1="123.987" x2="64.45" y2="103.343" gradientUnits="userSpaceOnUse"><stop stop-color="#0B1423" stop-opacity=".68"/><stop offset="1" stop-color="#162236" stop-opacity="0"/></linearGradient><linearGradient id="6p0ibp0r0w" x1="53" y1="84" x2="51.966" y2="96.022" gradientUnits="userSpaceOnUse"><stop stop-color="#101928" stop-opacity=".383"/><stop offset="1" stop-color="#162236" stop-opacity="0"/></linearGradient><linearGradient id="9f834dzyjx" x1="45.578" y1="74.355" x2="52.013" y2="99.77" gradientUnits="userSpaceOnUse"><stop stop-color="#101928" stop-opacity=".383"/><stop offset="1" stop-color="#162236" stop-opacity="0"/></linearGradient><linearGradient id="194l1iydky" x1="82.029" y1="83.658" x2="77.899" y2="96.429" gradientUnits="userSpaceOnUse"><stop stop-color="#101928" stop-opacity=".383"/><stop offset="1" stop-color="#162236" stop-opacity="0"/></linearGradient><linearGradient id="xp9wt29fvz" x1="78.91" y1="73.98" x2="76.101" y2="96.25" gradientUnits="userSpaceOnUse"><stop stop-color="#101928" stop-opacity=".383"/><stop offset="1" stop-color="#162236" stop-opacity="0"/></linearGradient><linearGradient id="ab3hdmp0yA" x1="61.175" y1="58.496" x2="60.434" y2="74.458" gradientUnits="userSpaceOnUse"><stop stop-color="#5B79A2"/><stop offset="1" stop-color="#132A51"/></linearGradient><linearGradient id="wt6u7jhx2F" x1="55.731" y1="72.779" x2="55.731" y2="89.674" gradientUnits="userSpaceOnUse"><stop stop-color="#fff"/><stop offset="1" stop-color="#C42E6C"/><stop offset="1" stop-color="#C42E6C"/></linearGradient><linearGradient id="9abf2nq9zG" x1="34.913" y1="14.243" x2="56.403" y2="89.982" gradientUnits="userSpaceOnUse"><stop stop-color="#789FE9"/><stop offset="1" stop-color="#21314C"/></linearGradient><linearGradient id="k9s99fecgI" x1="58.323" y1="25.765" x2="56.211" y2="11.025" gradientUnits="userSpaceOnUse"><stop stop-color="#E0366D" stop-opacity="0"/><stop offset="1" stop-color="#FFC5D7"/></linearGradient><linearGradient id="omt5rwmogJ" x1="21.77" y1="50.177" x2="66.705" y2="92.389" gradientUnits="userSpaceOnUse"><stop stop-color="#233249"/><stop offset="1" stop-color="#0F1723"/></linearGradient><linearGradient id="wjyb4ydfeM" x1="147.444" y1="51.164" x2="89.459" y2="-12.63" gradientUnits="userSpaceOnUse"><stop stop-color="#76E1FF"/><stop offset="1" stop-color="#637BFF" stop-opacity=".01"/></linearGradient><linearGradient id="ltq85ghnjO" x1="8.618" y1="27.393" x2="57.168" y2="76.97" gradientUnits="userSpaceOnUse"><stop stop-color="#587CB9"/><stop offset="1" stop-color="#2E4469" stop-opacity=".01"/></linearGradient><linearGradient id="yzeo1zkreQ" x1="58.929" y1="25.204" x2="33.435" y2="25.204" gradientUnits="userSpaceOnUse"><stop stop-color="#21C8F6"/><stop offset="1" stop-color="#637BFF"/></linearGradient><linearGradient id="4oabak76kS" x1="52.031" y1="25.92" x2="34.71" y2="27.741" gradientUnits="userSpaceOnUse"><stop stop-color="#21C8F6"/><stop offset="1" stop-color="#637BFF"/></linearGradient><linearGradient id="dlwnj82v3T" x1="92.623" y1="21.663" x2="67.129" y2="21.663" gradientUnits="userSpaceOnUse"><stop stop-color="#21C8F6"/><stop offset="1" stop-color="#637BFF"/></linearGradient><linearGradient id="2me2i0t5oV" x1="85.656" y1="22.386" x2="68.335" y2="24.207" gradientUnits="userSpaceOnUse"><stop stop-color="#21C8F6"/><stop offset="1" stop-color="#637BFF"/></linearGradient><linearGradient id="rok53r8ubW" x1="12" y1="96" x2="23.552" y2="48.169" gradientUnits="userSpaceOnUse"><stop stop-color="#F4487D" stop-opacity=".01"/><stop offset="1" stop-color="#FC3A78"/></linearGradient><linearGradient id="l1il8v43sZ" x1="1.835" y1="-2.056" x2="-2.278" y2="2.499" gradientUnits="userSpaceOnUse"><stop stop-color="#FB3B78"/><stop offset="1" stop-color="#EFC7D8"/></linearGradient><linearGradient id="v183qjaz0aa" x1="11.031" y1="-3.541" x2="-8.397" y2="-15.338" gradientUnits="userSpaceOnUse"><stop stop-color="#DD1E5B"/><stop offset="1" stop-color="#EFC7D8"/></linearGradient><linearGradient id="l8b66t1kxab" x1="7.02" y1="-2.254" x2="-5.344" y2="-9.761" gradientUnits="userSpaceOnUse"><stop stop-color="#DD1E5B"/><stop offset="1" stop-color="#EFC7D8"/></linearGradient><filter id="3runurw28d" x="-1.455" y="-24.454" width="48.642" height="65.535" filterUnits="userSpaceOnUse" color-interpolation-filters="sRGB"><feFlood flood-opacity="0" result="BackgroundImageFix"/><feColorMatrix in="SourceAlpha" values="0 0 0 0 0 0 0 0 0 0 0 0 0 0 0 0 0 0 127 0" result="hardAlpha"/><feOffset/><feGaussianBlur stdDeviation="2.227"/><feColorMatrix values="0 0 0 0 0.951002 0 0 0 0 0.370525 0 0 0 0 0.610455 0 0 0 1 0"/><feBlend in2="BackgroundImageFix" result="effect1_dropShadow_510_34348"/><feBlend in="SourceGraphic" in2="effect1_dropShadow_510_34348" result="shape"/></filter><filter id="1lkdkhhnof" x="-1.455" y="46.545" width="48.642" height="65.535" filterUnits="userSpaceOnUse" color-interpolation-filters="sRGB"><feFlood flood-opacity="0" result="BackgroundImageFix"/><feColorMatrix in="SourceAlpha" values="0 0 0 0 0 0 0 0 0 0 0 0 0 0 0 0 0 0 127 0" result="hardAlpha"/><feOffset/><feGaussianBlur stdDeviation="2.227"/><feColorMatrix values="0 0 0 0 0.951002 0 0 0 0 0.370525 0 0 0 0 0.610455 0 0 0 1 0"/><feBlend in2="BackgroundImageFix" result="effect1_dropShadow_510_34348"/><feBlend in="SourceGraphic" in2="effect1_dropShadow_510_34348" result="shape"/></filter><filter id="fmwyqhlqhh" x="70.546" y="-24.454" width="48.642" height="65.535" filterUnits="userSpaceOnUse" color-interpolation-filters="sRGB"><feFlood flood-opacity="0" result="BackgroundImageFix"/><feColorMatrix in="SourceAlpha" values="0 0 0 0 0 0 0 0 0 0 0 0 0 0 0 0 0 0 127 0" result="hardAlpha"/><feOffset/><feGaussianBlur stdDeviation="2.227"/><feColorMatrix values="0 0 0 0 0.951002 0 0 0 0 0.370525 0 0 0 0 0.610455 0 0 0 1 0"/><feBlend in2="BackgroundImageFix" result="effect1_dropShadow_510_34348"/><feBlend in="SourceGraphic" in2="effect1_dropShadow_510_34348" result="shape"/></filter><filter id="noi997ey7j" x="70.546" y="46.545" width="48.642" height="65.535" filterUnits="userSpaceOnUse" color-interpolation-filters="sRGB"><feFlood flood-opacity="0" result="BackgroundImageFix"/><feColorMatrix in="SourceAlpha" values="0 0 0 0 0 0 0 0 0 0 0 0 0 0 0 0 0 0 127 0" result="hardAlpha"/><feOffset/><feGaussianBlur stdDeviation="2.227"/><feColorMatrix values="0 0 0 0 0.951002 0 0 0 0 0.370525 0 0 0 0 0.610455 0 0 0 1 0"/><feBlend in2="BackgroundImageFix" result="effect1_dropShadow_510_34348"/><feBlend in="SourceGraphic" in2="effect1_dropShadow_510_34348" result="shape"/></filter><filter id="lt0s272m1C" x="41.512" y="55.052" width="44.486" height="16.132" filterUnits="userSpaceOnUse" color-interpolation-filters="sRGB"><feFlood flood-opacity="0" result="BackgroundImageFix"/><feBlend in="SourceGraphic" in2="BackgroundImageFix" result="shape"/><feGaussianBlur stdDeviation="2.232" result="effect1_foregroundBlur_510_34348"/></filter><filter id="d68m9xkgpE" x="55.594" y="63.743" width="19.205" height="18.072" filterUnits="userSpaceOnUse" color-interpolation-filters="sRGB"><feFlood flood-opacity="0" result="BackgroundImageFix"/><feColorMatrix in="SourceAlpha" values="0 0 0 0 0 0 0 0 0 0 0 0 0 0 0 0 0 0 127 0" result="hardAlpha"/><feOffset/><feGaussianBlur stdDeviation="2.169"/><feColorMatrix values="0 0 0 0 0.951002 0 0 0 0 0.370525 0 0 0 0 0.610455 0 0 0 1 0"/><feBlend in2="BackgroundImageFix" result="effect1_dropShadow_510_34348"/><feBlend in="SourceGraphic" in2="effect1_dropShadow_510_34348" result="shape"/></filter><filter id="tst8rj34oL" x="61.109" y="45.719" width="15.924" height="13.324" filterUnits="userSpaceOnUse" color-interpolation-filters="sRGB"><feFlood flood-opacity="0" result="BackgroundImageFix"/><feColorMatrix in="SourceAlpha" values="0 0 0 0 0 0 0 0 0 0 0 0 0 0 0 0 0 0 127 0" result="hardAlpha"/><feOffset/><feGaussianBlur stdDeviation="2.413"/><feComposite in2="hardAlpha" operator="out"/><feColorMatrix values="0 0 0 0 0.65974 0 0 0 0 0.780733 0 0 0 0 0.995833 0 0 0 1 0"/><feBlend in2="BackgroundImageFix" result="effect1_dropShadow_510_34348"/><feBlend in="SourceGraphic" in2="effect1_dropShadow_510_34348" result="shape"/></filter><filter id="tui3uiydlP" x="37.786" y="24.817" width="48.72" height="21.594" filterUnits="userSpaceOnUse" color-interpolation-filters="sRGB"><feFlood flood-opacity="0" result="BackgroundImageFix"/><feColorMatrix in="SourceAlpha" values="0 0 0 0 0 0 0 0 0 0 0 0 0 0 0 0 0 0 127 0" result="hardAlpha"/><feOffset/><feGaussianBlur stdDeviation="2.413"/><feComposite in2="hardAlpha" operator="out"/><feColorMatrix values="0 0 0 0 0.65974 0 0 0 0 0.780733 0 0 0 0 0.995833 0 0 0 1 0"/><feBlend in2="BackgroundImageFix" result="effect1_dropShadow_510_34348"/><feBlend in="SourceGraphic" in2="effect1_dropShadow_510_34348" result="shape"/></filter><filter id="9rvtoa3y3X" x="12.769" y="6.769" width="31.109" height="31.109" filterUnits="userSpaceOnUse" color-interpolation-filters="sRGB"><feFlood flood-opacity="0" result="BackgroundImageFix"/><feBlend in="SourceGraphic" in2="BackgroundImageFix" result="shape"/><feGaussianBlur stdDeviation="3.776" result="effect1_foregroundBlur_510_34348"/></filter><filter id="02nql72egY" x="16.77" y="10.771" width="23.107" height="23.107" filterUnits="userSpaceOnUse" color-interpolation-filters="sRGB"><feFlood flood-opacity="0" result="BackgroundImageFix"/><feBlend in="SourceGraphic" in2="BackgroundImageFix" result="shape"/><feGaussianBlur stdDeviation="3.776" result="effect1_foregroundBlur_510_34348"/></filter><radialGradient id="tqad1thcoa" cx="0" cy="0" r="1" gradientUnits="userSpaceOnUse" gradientTransform="translate(60.5) scale(83.7585)"><stop stop-color="#3D5C8D"/><stop offset="1" stop-color="#101A2A"/></radialGradient><radialGradient id="jkza6nkk7l" cx="0" cy="0" r="1" gradientUnits="userSpaceOnUse" gradientTransform="matrix(149.3202 -5.88163 1.65572 42.0347 61.556 70.23)"><stop stop-color="#00CFFF"/><stop offset=".305" stop-color="#54729A"/><stop offset=".526" stop-color="#385076"/><stop offset="1" stop-color="#131E32"/></radialGradient><radialGradient id="3tn7oxm9hq" cx="0" cy="0" r="1" gradientUnits="userSpaceOnUse" gradientTransform="matrix(56.35604 -.17234 .15213 49.74567 48.767 69.871)"><stop stop-color="#6BA0E2"/><stop offset=".305" stop-color="#54729A"/><stop offset=".526" stop-color="#385076"/><stop offset="1" stop-color="#131E32"/></radialGradient><radialGradient id="csljectzor" cx="0" cy="0" r="1" gradientUnits="userSpaceOnUse" gradientTransform="matrix(4.82583 34.46851 -71.801 10.05264 27.224 61.253)"><stop stop-color="#D12A6F"/><stop offset="1" stop-color="#83234B" stop-opacity=".01"/></radialGradient><radialGradient id="38z3gbiuos" cx="0" cy="0" r="1" gradientUnits="userSpaceOnUse" gradientTransform="matrix(57.21773 -6.03199 5.32445 50.50622 78.754 68.32)"><stop stop-color="#6BA0E2"/><stop offset=".305" stop-color="#54729A"/><stop offset=".526" stop-color="#385076"/><stop offset="1" stop-color="#131E32"/></radialGradient><radialGradient id="urt3fkye9t" cx="0" cy="0" r="1" gradientUnits="userSpaceOnUse" gradientTransform="matrix(-4.24541 37.29857 -77.69304 -8.84321 83.407 59.358)"><stop stop-color="#D12A6F"/><stop offset="1" stop-color="#83234B" stop-opacity=".01"/></radialGradient><radialGradient id="22jkhs8tfB" cx="0" cy="0" r="1" gradientUnits="userSpaceOnUse" gradientTransform="matrix(1.2064 19.13 -22.1514 1.39695 62.726 63.15)"><stop stop-color="#5B79A2"/><stop offset="1" stop-color="#132A51"/></radialGradient><radialGradient id="ksn84cjivD" cx="0" cy="0" r="1" gradientUnits="userSpaceOnUse" gradientTransform="matrix(-12.8413 0 0 -.54991 64.621 62.61)"><stop stop-color="#172743"/><stop offset="1" stop-opacity=".01"/></radialGradient><radialGradient id="93kutdz1rH" cx="0" cy="0" r="1" gradientUnits="userSpaceOnUse" gradientTransform="rotate(68.435 32.443 5.102) scale(64.2315 163.801)"><stop stop-color="#D12A6F"/><stop offset="1" stop-color="#83234B" stop-opacity=".01"/></radialGradient></defs></svg>