<svg xmlns="http://www.w3.org/2000/svg" xmlns:xlink="http://www.w3.org/1999/xlink" width="120.216" height="120.001"><defs><filter id="Rectangle" width="18.611" height="14" x="13.145" y="22" filterUnits="userSpaceOnUse"><feOffset/><feGaussianBlur result="blur" stdDeviation="2"/><feFlood flood-color="#fec63b"/><feComposite in2="blur" operator="in"/><feComposite in="SourceGraphic"/></filter><filter id="Rectangle-2" width="13.611" height="14" x="13.145" y="22" filterUnits="userSpaceOnUse"><feOffset/><feGaussianBlur result="blur-2" stdDeviation="2"/><feFlood flood-color="#fec63b"/><feComposite in2="blur-2" operator="in"/><feComposite in="SourceGraphic"/></filter><filter id="Rectangle_Copy_99" width="14.833" height="14" x="20.701" y="22" filterUnits="userSpaceOnUse"><feOffset/><feGaussianBlur result="blur-3" stdDeviation="2"/><feFlood flood-color="#fec63b"/><feComposite in2="blur-3" operator="in"/><feComposite in="SourceGraphic"/></filter><filter id="Rectangle_Copy_99-2" width="14.833" height="14" x="45.682" y="22" filterUnits="userSpaceOnUse"><feOffset/><feGaussianBlur result="blur-4" stdDeviation="2"/><feFlood flood-color="#fec63b"/><feComposite in2="blur-4" operator="in"/><feComposite in="SourceGraphic"/></filter><filter id="Rectangle_Copy_99-3" width="14.833" height="14" x="51.452" y="22" filterUnits="userSpaceOnUse"><feOffset/><feGaussianBlur result="blur-5" stdDeviation="2"/><feFlood flood-color="#fec63b"/><feComposite in2="blur-5" operator="in"/><feComposite in="SourceGraphic"/></filter><filter id="Rectangle_Copy_99-4" width="14.833" height="14" x="57.222" y="22" filterUnits="userSpaceOnUse"><feOffset/><feGaussianBlur result="blur-6" stdDeviation="2"/><feFlood flood-color="#fec63b"/><feComposite in2="blur-6" operator="in"/><feComposite in="SourceGraphic"/></filter><filter id="Rectangle_Copy_99-5" width="17.833" height="14" x="81.843" y="22" filterUnits="userSpaceOnUse"><feOffset/><feGaussianBlur result="blur-7" stdDeviation="2"/><feFlood flood-color="#fec63b"/><feComposite in2="blur-7" operator="in"/><feComposite in="SourceGraphic"/></filter><filter id="Rectangle_Copy_99-6" width="17.833" height="14" x="88.843" y="22" filterUnits="userSpaceOnUse"><feOffset/><feGaussianBlur result="blur-8" stdDeviation="2"/><feFlood flood-color="#fec63b"/><feComposite in2="blur-8" operator="in"/><feComposite in="SourceGraphic"/></filter><filter id="Rectangle_Copy_99-7" width="20.833" height="14" x="64.882" y="22" filterUnits="userSpaceOnUse"><feOffset/><feGaussianBlur result="blur-9" stdDeviation="2"/><feFlood flood-color="#fec63b"/><feComposite in2="blur-9" operator="in"/><feComposite in="SourceGraphic"/></filter><filter id="Rectangle_Copy_99-8" width="14.833" height="14" x="39.912" y="22" filterUnits="userSpaceOnUse"><feOffset/><feGaussianBlur result="blur-10" stdDeviation="2"/><feFlood flood-color="#fec63b"/><feComposite in2="blur-10" operator="in"/><feComposite in="SourceGraphic"/></filter><filter id="Rectangle_Copy_100" width="17.667" height="14" x="29.768" y="22" filterUnits="userSpaceOnUse"><feOffset/><feGaussianBlur result="blur-11" stdDeviation="2"/><feFlood flood-color="#fec63b"/><feComposite in2="blur-11" operator="in"/><feComposite in="SourceGraphic"/></filter><filter id="Rectangle-3" width="18.611" height="14" x="13.145" y="28" filterUnits="userSpaceOnUse"><feOffset/><feGaussianBlur result="blur-12" stdDeviation="2"/><feFlood flood-color="#fec63b"/><feComposite in2="blur-12" operator="in"/><feComposite in="SourceGraphic"/></filter><filter id="Rectangle-4" width="13.611" height="14" x="13.145" y="28" filterUnits="userSpaceOnUse"><feOffset/><feGaussianBlur result="blur-13" stdDeviation="2"/><feFlood flood-color="#fec63b"/><feComposite in2="blur-13" operator="in"/><feComposite in="SourceGraphic"/></filter><filter id="Rectangle_Copy_99-9" width="14.833" height="14" x="20.701" y="28" filterUnits="userSpaceOnUse"><feOffset/><feGaussianBlur result="blur-14" stdDeviation="2"/><feFlood flood-color="#fec63b"/><feComposite in2="blur-14" operator="in"/><feComposite in="SourceGraphic"/></filter><filter id="Rectangle_Copy_99-10" width="17.833" height="14" x="81.843" y="28" filterUnits="userSpaceOnUse"><feOffset/><feGaussianBlur result="blur-15" stdDeviation="2"/><feFlood flood-color="#fec63b"/><feComposite in2="blur-15" operator="in"/><feComposite in="SourceGraphic"/></filter><filter id="Rectangle_Copy_99-11" width="17.833" height="14" x="88.843" y="28" filterUnits="userSpaceOnUse"><feOffset/><feGaussianBlur result="blur-16" stdDeviation="2"/><feFlood flood-color="#fec63b"/><feComposite in2="blur-16" operator="in"/><feComposite in="SourceGraphic"/></filter><filter id="Rectangle_Copy_99-12" width="26.833" height="14" x="39.912" y="28" filterUnits="userSpaceOnUse"><feOffset/><feGaussianBlur result="blur-17" stdDeviation="2"/><feFlood flood-color="#fec63b"/><feComposite in2="blur-17" operator="in"/><feComposite in="SourceGraphic"/></filter><filter id="Rectangle_Copy_99-13" width="21.833" height="14" x="56.912" y="28" filterUnits="userSpaceOnUse"><feOffset/><feGaussianBlur result="blur-18" stdDeviation="2"/><feFlood flood-color="#fec63b"/><feComposite in2="blur-18" operator="in"/><feComposite in="SourceGraphic"/></filter><filter id="Rectangle_Copy_99-14" width="21.833" height="14" x="69.912" y="28" filterUnits="userSpaceOnUse"><feOffset/><feGaussianBlur result="blur-19" stdDeviation="2"/><feFlood flood-color="#fec63b"/><feComposite in2="blur-19" operator="in"/><feComposite in="SourceGraphic"/></filter><filter id="Rectangle_Copy_100-2" width="20.667" height="14" x="26.768" y="28" filterUnits="userSpaceOnUse"><feOffset/><feGaussianBlur result="blur-20" stdDeviation="2"/><feFlood flood-color="#fec63b"/><feComposite in2="blur-20" operator="in"/><feComposite in="SourceGraphic"/></filter><filter id="Rectangle_38" width="17" height="14" x="51.216" y="92" filterUnits="userSpaceOnUse"><feOffset/><feGaussianBlur result="blur-21" stdDeviation="2"/><feFlood flood-color="#fec63b"/><feComposite in2="blur-21" operator="in"/><feComposite in="SourceGraphic"/></filter><filter id="Path_25" width="43.106" height="19.197" x="37.126" y="42.007" filterUnits="userSpaceOnUse"><feOffset/><feGaussianBlur result="blur-22" stdDeviation="2"/><feFlood flood-color="#fec63b"/><feComposite in2="blur-22" operator="in"/><feComposite in="SourceGraphic"/></filter><filter id="Path_26" width="43.106" height="19.197" x="37.126" y="65.007" filterUnits="userSpaceOnUse"><feOffset/><feGaussianBlur result="blur-23" stdDeviation="2"/><feFlood flood-color="#fec63b"/><feComposite in2="blur-23" operator="in"/><feComposite in="SourceGraphic"/></filter><filter id="Path_23" width="35" height="36" x="37.216" y="42" filterUnits="userSpaceOnUse"><feOffset/><feGaussianBlur result="blur-24" stdDeviation="2"/><feFlood flood-color="#fec63b"/><feComposite in2="blur-24" operator="in"/><feComposite in="SourceGraphic"/></filter><filter id="Path_24" width="35" height="36" x="45.216" y="48" filterUnits="userSpaceOnUse"><feOffset/><feGaussianBlur result="blur-25" stdDeviation="2"/><feFlood flood-color="#fec63b"/><feComposite in2="blur-25" operator="in"/><feComposite in="SourceGraphic"/></filter><filter id="Path_25-2" width="38.933" height="18.231" x="9.08" y="46.058" filterUnits="userSpaceOnUse"><feOffset/><feGaussianBlur result="blur-26" stdDeviation="2"/><feFlood flood-color="#fec63b"/><feComposite in2="blur-26" operator="in"/><feComposite in="SourceGraphic"/></filter><filter id="Path_26-2" width="38.933" height="18.231" x="9.08" y="65.972" filterUnits="userSpaceOnUse"><feOffset/><feGaussianBlur result="blur-27" stdDeviation="2"/><feFlood flood-color="#fec63b"/><feComposite in2="blur-27" operator="in"/><feComposite in="SourceGraphic"/></filter><filter id="Path_23-2" width="31.914" height="32.78" x="9.159" y="46.052" filterUnits="userSpaceOnUse"><feOffset/><feGaussianBlur result="blur-28" stdDeviation="2"/><feFlood flood-color="#fec63b"/><feComposite in2="blur-28" operator="in"/><feComposite in="SourceGraphic"/></filter><filter id="Path_24-2" width="31.914" height="32.78" x="16.085" y="51.247" filterUnits="userSpaceOnUse"><feOffset/><feGaussianBlur result="blur-29" stdDeviation="2"/><feFlood flood-color="#fec63b"/><feComposite in2="blur-29" operator="in"/><feComposite in="SourceGraphic"/></filter><filter id="Path_25-3" width="38.933" height="18.231" x="72.299" y="46.058" filterUnits="userSpaceOnUse"><feOffset/><feGaussianBlur result="blur-30" stdDeviation="2"/><feFlood flood-color="#fec63b"/><feComposite in2="blur-30" operator="in"/><feComposite in="SourceGraphic"/></filter><filter id="Path_26-3" width="38.933" height="18.231" x="72.299" y="65.972" filterUnits="userSpaceOnUse"><feOffset/><feGaussianBlur result="blur-31" stdDeviation="2"/><feFlood flood-color="#fec63b"/><feComposite in2="blur-31" operator="in"/><feComposite in="SourceGraphic"/></filter><filter id="Path_23-3" width="31.914" height="32.78" x="72.377" y="46.052" filterUnits="userSpaceOnUse"><feOffset/><feGaussianBlur result="blur-32" stdDeviation="2"/><feFlood flood-color="#fec63b"/><feComposite in2="blur-32" operator="in"/><feComposite in="SourceGraphic"/></filter><filter id="Path_24-3" width="31.914" height="32.78" x="79.304" y="51.247" filterUnits="userSpaceOnUse"><feOffset/><feGaussianBlur result="blur-33" stdDeviation="2"/><feFlood flood-color="#fec63b"/><feComposite in2="blur-33" operator="in"/><feComposite in="SourceGraphic"/></filter><filter id="Oval_Copy_63" width="20.667" height="20.667" x="54.937" y="60.537" filterUnits="userSpaceOnUse"><feOffset/><feGaussianBlur result="blur-34" stdDeviation="2.5"/><feFlood flood-color="#f9b22c"/><feComposite in2="blur-34" operator="in"/><feComposite in="SourceGraphic"/></filter><radialGradient id="radial-gradient" cx=".5" cy=".5" r=".291" gradientTransform="matrix(1 0 0 1.718 0 -.359)" gradientUnits="objectBoundingBox"><stop offset="0" stop-opacity=".608"/><stop offset=".734" stop-opacity=".392"/><stop offset="1" stop-opacity="0"/></radialGradient><radialGradient id="radial-gradient-2" cx=".5" cy=".829" r=".355" gradientTransform="matrix(0 1 -.948 0 1.287 .329)" gradientUnits="objectBoundingBox"><stop offset="0" stop-color="#fac446"/><stop offset="1" stop-color="#233452"/></radialGradient><radialGradient id="radial-gradient-3" cx=".5" cy=".5" r=".5" gradientTransform="matrix(1 0 0 .756 0 .122)" gradientUnits="objectBoundingBox"><stop offset="0" stop-opacity=".608"/><stop offset=".382" stop-opacity=".392"/><stop offset="1" stop-opacity="0"/></radialGradient><radialGradient id="radial-gradient-5" cy=".985" r=".881" gradientTransform="matrix(-.24 .934 -.627 -.358 1.417 .763)" xlink:href="#radial-gradient-2"/><radialGradient id="radial-gradient-7" cx=".5" cy=".5" r=".5" gradientUnits="objectBoundingBox"><stop offset="0" stop-color="#c08d17"/><stop offset="1" stop-color="#60470c" stop-opacity="0"/></radialGradient><radialGradient id="radial-gradient-9" cx=".5" cy=".5" r="1.018" gradientUnits="objectBoundingBox"><stop offset="0" stop-color="#fff"/><stop offset="1" stop-color="#f9b22c"/></radialGradient><linearGradient id="linear-gradient" x1=".304" x2=".5" y2="1" gradientUnits="objectBoundingBox"><stop offset="0" stop-color="#f0b123"/><stop offset="1" stop-color="#1a2536"/></linearGradient><linearGradient id="linear-gradient-2" x1=".909" x2=".149" y1=".795" y2=".148" gradientUnits="objectBoundingBox"><stop offset="0" stop-color="#f19a1a"/><stop offset="1" stop-color="#ffc73c"/></linearGradient><linearGradient id="linear-gradient-3" x1=".5" x2=".5" y1="1.642" gradientUnits="objectBoundingBox"><stop offset="0" stop-color="#5b79a2"/><stop offset="1" stop-color="#182439"/></linearGradient><linearGradient id="linear-gradient-4" y1="-.642" y2="1" xlink:href="#linear-gradient-3"/><linearGradient id="linear-gradient-5" x1=".455" x2=".457" y1=".591" y2="1" gradientUnits="objectBoundingBox"><stop offset="0" stop-color="#1d293e"/><stop offset="1" stop-color="#405984"/></linearGradient><linearGradient id="linear-gradient-6" x2="1" y1=".5" y2=".5" gradientUnits="objectBoundingBox"><stop offset="0" stop-color="#5b79a2"/><stop offset="1" stop-color="#2e4469"/></linearGradient><style>.cls-4{fill:none;stroke-miterlimit:10;stroke:#253857;stroke-width:2.7px}.cls-5{fill:#21324e}.cls-10{opacity:.4;fill:url(#radial-gradient-3)}.cls-14,.cls-15,.cls-18,.cls-19{fill:#fec63b}.cls-14{opacity:.2}.cls-18{opacity:.173}.cls-19{opacity:.348}.cls-20{opacity:.197}.cls-23{opacity:.525;mix-blend-mode:overlay;isolation:isolate;fill:url(#radial-gradient-7)}.cls-25{fill:rgba(255,255,255,.2)}.cls-26{fill:#fac446}</style></defs><g id="languages-default" transform="translate(-379.784 -60)"><g id="Group_223" data-name="Group 223" transform="translate(-2324 1063)"><g id="Color_Crown_Shadow" data-name="Color Crown + Shadow" transform="translate(5160 -613)"><circle id="Shadow" cx="58" cy="58" r="58" fill="url(#linear-gradient)" transform="translate(-2454 -388)"/><g id="Color_Crown" data-name="Color Crown" transform="translate(-2456 -390)"><path id="Ring" fill="url(#linear-gradient-2)" d="M780 826a59.72 59.72 0 01-33.547-10.247 60.176 60.176 0 01-21.739-26.4 59.921 59.921 0 015.532-56.9 60.176 60.176 0 0126.4-21.738 59.92 59.92 0 0156.9 5.532 60.174 60.174 0 0121.738 26.4 59.923 59.923 0 01-5.532 56.9 60.174 60.174 0 01-26.4 21.739A59.623 59.623 0 01780 826zm0-118a57.729 57.729 0 00-32.429 9.905 58.167 58.167 0 00-21.014 25.518 57.924 57.924 0 005.348 55 58.169 58.169 0 0025.518 21.014 57.923 57.923 0 0055-5.348 58.17 58.17 0 0021.014-25.518 57.924 57.924 0 00-5.348-55 58.171 58.171 0 00-25.518-21.013A57.638 57.638 0 00780 708z" transform="translate(-720 -706)"/></g><ellipse id="Oval" cx="56" cy="6.5" fill="url(#radial-gradient)" opacity=".696" rx="56" ry="6.5" transform="translate(-2452 -288.01)"/></g><g id="Group_186_Copy_59" data-name="Group 186 Copy 59" transform="rotate(90 1833.732 879.225)"><path id="Path_52_Copy_3" d="M1.884-1.681c.2 7.666 18.789 5.255 18.577-2.882" class="cls-4" data-name="Path 52 Copy 3" transform="translate(.936 4.463)"/><g id="Group_2" data-name="Group 2" transform="translate(-1.072)"><rect id="Rectangle_Copy_14" width="4.335" height="3.552" class="cls-5" data-name="Rectangle Copy 14" rx="1.223" transform="translate(1.626 1.517)"/><rect id="Rectangle-5" width="7.587" height="3.035" fill="url(#linear-gradient-3)" data-name="Rectangle" rx="1.223"/></g></g><g id="Group_186_Copy_59-2" data-name="Group 186 Copy 59" transform="rotate(90 1888.8 933.223)"><path id="Path_52_Copy_3-2" d="M0 4.649C.2-3.017 18.789-.606 18.577 7.531" class="cls-4" data-name="Path 52 Copy 3" transform="translate(3.84 .324)"/><g id="Group_2-2" data-name="Group 2" transform="translate(0 2.718)"><rect id="Rectangle_Copy_14-2" width="4.335" height="3.552" class="cls-5" data-name="Rectangle Copy 14" rx="1.223" transform="translate(1.626)"/><rect id="Rectangle-6" width="7.587" height="3.035" fill="url(#linear-gradient-4)" data-name="Rectangle" rx="1.223" transform="translate(0 2.035)"/></g></g><path id="Path_22" fill="url(#linear-gradient-5)" d="M30.5 0C47.345 0 61 6.94 61 15.5s-13.655 7.674-30.5 7.674S0 24.06 0 15.5 13.655 0 30.5 0z" data-name="Path 22" transform="translate(2734 -915)"/><path id="Path_27" fill="url(#radial-gradient-2)" d="M30.5 0C47.345 0 61 6.94 61 15.5s-13.655 7.674-30.5 7.674S0 24.06 0 15.5 13.655 0 30.5 0z" data-name="Path 27" opacity=".3" transform="translate(2734 -915)"/><ellipse id="Oval-2" cx="21" cy="4.5" class="cls-10" data-name="Oval" rx="21" ry="4.5" transform="translate(2775 -900.01)"/><ellipse id="Oval-3" cx="21" cy="4.5" class="cls-10" data-name="Oval" rx="21" ry="4.5" transform="translate(2712 -900.01)"/><rect id="Rectangle-7" width="103" height="88" fill="url(#linear-gradient-6)" data-name="Rectangle" rx="12" transform="translate(2712 -987)"/><rect id="Rectangle-8" width="103" height="88" fill="url(#radial-gradient-5)" data-name="Rectangle" opacity=".3" rx="12" transform="translate(2712 -987)"/><path id="Rectangle-9" fill="#1b283e" d="M11.7 0h75.095c6.463 0 11.7 4.843 11.7 10.817V64c0 5.974-5.239 10.817-11.7 10.817H11.7C5.239 74.815 0 69.972 0 64V10.817C0 4.843 5.239 0 11.7 0z" data-name="Rectangle" transform="translate(2714.251 -984.631)"/><g id="Group_190_Copy_2" data-name="Group 190 Copy 2"><g filter="url(#Rectangle)" transform="translate(2703.789 -1003)"><path id="Rectangle-10" d="M0 0h6.611v2H0z" class="cls-14" data-name="Rectangle" transform="translate(19.14 28)"/></g><g filter="url(#Rectangle-2)" transform="translate(2703.789 -1003)"><path id="Rectangle-11" d="M0 0h1.611v2H0z" class="cls-15" data-name="Rectangle" transform="translate(19.14 28)"/></g><g filter="url(#Rectangle_Copy_99)" transform="translate(2703.789 -1003)"><path id="Rectangle_Copy_99-15" d="M0 0h2.833v2H0z" class="cls-15" data-name="Rectangle Copy 99" transform="translate(26.7 28)"/></g><g filter="url(#Rectangle_Copy_99-2)" transform="translate(2703.789 -1003)"><path id="Rectangle_Copy_99-16" d="M0 0h2.833v2H0z" class="cls-15" data-name="Rectangle Copy 99" transform="translate(51.68 28)"/></g><g filter="url(#Rectangle_Copy_99-3)" transform="translate(2703.789 -1003)"><path id="Rectangle_Copy_99-17" d="M0 0h2.833v2H0z" class="cls-15" data-name="Rectangle Copy 99" transform="translate(57.45 28)"/></g><g filter="url(#Rectangle_Copy_99-4)" transform="translate(2703.789 -1003)"><path id="Rectangle_Copy_99-18" d="M0 0h2.833v2H0z" class="cls-14" data-name="Rectangle Copy 99" transform="translate(63.22 28)"/></g><g filter="url(#Rectangle_Copy_99-5)" transform="translate(2703.789 -1003)"><path id="Rectangle_Copy_99-19" d="M0 0h5.833v2H0z" class="cls-14" data-name="Rectangle Copy 99" transform="translate(87.84 28)"/></g><g filter="url(#Rectangle_Copy_99-6)" transform="translate(2703.789 -1003)"><path id="Rectangle_Copy_99-20" d="M0 0h5.833v2H0z" class="cls-15" data-name="Rectangle Copy 99" transform="translate(94.84 28)"/></g><g filter="url(#Rectangle_Copy_99-7)" transform="translate(2703.789 -1003)"><path id="Rectangle_Copy_99-21" d="M0 0h8.833v2H0z" class="cls-15" data-name="Rectangle Copy 99" transform="translate(70.88 28)"/></g><g filter="url(#Rectangle_Copy_99-8)" transform="translate(2703.789 -1003)"><path id="Rectangle_Copy_99-22" d="M0 0h2.833v2H0z" class="cls-14" data-name="Rectangle Copy 99" transform="translate(45.91 28)"/></g><g filter="url(#Rectangle_Copy_100)" transform="translate(2703.789 -1003)"><path id="Rectangle_Copy_100-3" d="M0 0h5.667v2H0z" class="cls-15" data-name="Rectangle Copy 100" transform="translate(35.77 28)"/></g></g><g id="Group_190_Copy_2-2" data-name="Group 190 Copy 2"><g filter="url(#Rectangle-3)" transform="translate(2703.789 -1003)"><path id="Rectangle-12" d="M0 0h6.611v2H0z" class="cls-14" data-name="Rectangle" transform="translate(19.14 34)"/></g><g filter="url(#Rectangle-4)" transform="translate(2703.789 -1003)"><path id="Rectangle-13" d="M0 0h1.611v2H0z" class="cls-15" data-name="Rectangle" transform="translate(19.14 34)"/></g><g filter="url(#Rectangle_Copy_99-9)" transform="translate(2703.789 -1003)"><path id="Rectangle_Copy_99-23" d="M0 0h2.833v2H0z" class="cls-15" data-name="Rectangle Copy 99" transform="translate(26.7 34)"/></g><g filter="url(#Rectangle_Copy_99-10)" transform="translate(2703.789 -1003)"><path id="Rectangle_Copy_99-24" d="M0 0h5.833v2H0z" class="cls-14" data-name="Rectangle Copy 99" transform="translate(87.84 34)"/></g><g filter="url(#Rectangle_Copy_99-11)" transform="translate(2703.789 -1003)"><path id="Rectangle_Copy_99-25" d="M0 0h5.833v2H0z" class="cls-15" data-name="Rectangle Copy 99" transform="translate(94.84 34)"/></g><g filter="url(#Rectangle_Copy_99-12)" transform="translate(2703.789 -1003)"><path id="Rectangle_Copy_99-26" d="M0 0h14.833v2H0z" class="cls-14" data-name="Rectangle Copy 99" transform="translate(45.91 34)"/></g><g filter="url(#Rectangle_Copy_99-13)" transform="translate(2703.789 -1003)"><path id="Rectangle_Copy_99-27" d="M0 0h9.833v2H0z" class="cls-14" data-name="Rectangle Copy 99" transform="translate(62.91 34)"/></g><g filter="url(#Rectangle_Copy_99-14)" transform="translate(2703.789 -1003)"><path id="Rectangle_Copy_99-28" d="M0 0h9.833v2H0z" class="cls-14" data-name="Rectangle Copy 99" transform="translate(75.91 34)"/></g><g filter="url(#Rectangle_Copy_100-2)" transform="translate(2703.789 -1003)"><path id="Rectangle_Copy_100-4" d="M0 0h8.667v2H0z" class="cls-14" data-name="Rectangle Copy 100" transform="translate(32.77 34)"/></g></g><path id="Subtraction_8" fill="#fff" d="M.158 75.184A15.184 15.184 0 010 73V15A15 15 0 0115 0h73a15 15 0 0115 15v5.968a78.414 78.414 0 00-14.641-4.42A81.625 81.625 0 0072.5 15c-18.522 0-36.151 6.212-49.641 17.491a68.182 68.182 0 00-8.844 8.884 63.646 63.646 0 00-6.9 10.231A58.457 58.457 0 00.16 75.184z" data-name="Subtraction 8" opacity=".047" transform="translate(2712 -985)"/><rect id="Rectangle_37" width="13" height="4" fill="#0c1321" data-name="Rectangle 37" rx="2" transform="translate(2757 -906)"/><g filter="url(#Rectangle_38)" transform="translate(2703.78 -1003)"><rect id="Rectangle_38-2" width="5" height="2" class="cls-15" data-name="Rectangle 38" rx="1" transform="translate(57.22 98)"/></g><g id="Group_220" data-name="Group 220"><g filter="url(#Path_25)" transform="translate(2703.78 -1003)"><path id="Path_25-4" d="M2731.176-958.8l-8.266-7.2h22.851l8.256 7.2zm.343-1h19.569l-5.669-5.2h-19.592z" class="cls-18" data-name="Path 25" transform="translate(-2679.78 1014)"/></g><g filter="url(#Path_26)" transform="translate(2703.78 -1003)"><path id="Path_26-4" d="M2731.176-958.8l-8.266-7.2h22.851l8.256 7.2zm.343-1h19.569l-5.669-5.2h-19.592z" class="cls-18" data-name="Path 26" transform="translate(-2679.78 1037)"/></g><g filter="url(#Path_23)" transform="translate(2703.78 -1003)"><path id="Path_23-4" d="M0 0h23v24H0zm22 23V1H1v22z" class="cls-15" data-name="Path 23" transform="translate(43.22 48)"/></g><g filter="url(#Path_24)" transform="translate(2703.78 -1003)"><path id="Path_24-4" d="M0 0h23v24H0zm22 23V1H1v22z" class="cls-19" data-name="Path 24" transform="translate(51.22 54)"/></g></g><g id="Group_221" class="cls-20" data-name="Group 221"><g filter="url(#Path_25-2)" transform="translate(2703.784 -1002.998)"><path id="Path_25-5" d="M2730.066-959.762l-7.157-6.231h19.785l7.148 6.231zm.3-.866h16.944l-4.908-4.5h-16.963z" class="cls-18" data-name="Path 25" transform="translate(-2707.83 1018.05)"/></g><g filter="url(#Path_26-2)" transform="translate(2703.784 -1002.998)"><path id="Path_26-5" d="M2730.066-959.762l-7.157-6.231h19.785l7.148 6.231zm.3-.866h16.944l-4.908-4.5h-16.963z" class="cls-18" data-name="Path 26" transform="translate(-2707.83 1037.97)"/></g><g filter="url(#Path_23-2)" transform="translate(2703.784 -1002.998)"><path id="Path_23-5" d="M0 0h19.914v20.78H0zm19.048 19.914V.866H.866v19.048z" class="cls-15" data-name="Path 23" transform="translate(15.16 52.05)"/></g><g filter="url(#Path_24-2)" transform="translate(2703.784 -1002.998)"><path id="Path_24-5" d="M0 0h19.914v20.78H0zm19.048 19.914V.866H.866v19.048z" class="cls-19" data-name="Path 24" transform="translate(22.09 57.25)"/></g></g><g id="Group_222" class="cls-20" data-name="Group 222"><g filter="url(#Path_25-3)" transform="translate(2703.783 -1002.998)"><path id="Path_25-6" d="M2730.066-959.762l-7.157-6.231h19.785l7.148 6.231zm.3-.866h16.944l-4.908-4.5h-16.963z" class="cls-18" data-name="Path 25" transform="translate(-2644.61 1018.05)"/></g><g filter="url(#Path_26-3)" transform="translate(2703.783 -1002.998)"><path id="Path_26-6" d="M2730.066-959.762l-7.157-6.231h19.785l7.148 6.231zm.3-.866h16.944l-4.908-4.5h-16.963z" class="cls-18" data-name="Path 26" transform="translate(-2644.61 1037.97)"/></g><g filter="url(#Path_23-3)" transform="translate(2703.783 -1002.998)"><path id="Path_23-6" d="M0 0h19.914v20.78H0zm19.048 19.914V.866H.866v19.048z" class="cls-15" data-name="Path 23" transform="translate(78.38 52.05)"/></g><g filter="url(#Path_24-3)" transform="translate(2703.783 -1002.998)"><path id="Path_24-6" d="M0 0h19.914v20.78H0zm19.048 19.914V.866H.866v19.048z" class="cls-19" data-name="Path 24" transform="translate(85.3 57.25)"/></g></g><ellipse id="Oval-4" cx="7" cy="4.5" fill="url(#radial-gradient-3)" data-name="Oval" opacity=".354" rx="7" ry="4.5" transform="rotate(101 1769.165 693.762)"/><g id="Group_176_Copy_4" data-name="Group 176 Copy 4" transform="rotate(61 2208.838 1892.793)"><path id="Path_121" fill="none" stroke="#ffc73c" stroke-miterlimit="10" stroke-width="2" d="M55.224 39.878l-14.638-.885L4.73 8.848 9.408 34.5" data-name="Path 121"/><g id="Group_168" data-name="Group 168" transform="rotate(-158 10.717 20.26)"><g id="Group_32_Copy_17" data-name="Group 32 Copy 17"><circle id="Oval_Copy_124" cx="6" cy="6" r="6" class="cls-23" data-name="Oval Copy 124" transform="translate(.542 .542)"/><circle id="Oval_Copy_124-2" cx="4" cy="4" r="4" class="cls-23" data-name="Oval Copy 124" transform="translate(2.542 2.542)"/><g filter="url(#Oval_Copy_63)" transform="matrix(-.12 .99 -.99 -.12 84.84 -49.6)"><circle id="Oval_Copy_63-2" cx="2.542" cy="2.542" r="2.542" fill="url(#radial-gradient-9)" data-name="Oval Copy 63" transform="matrix(-.12 -.99 .99 -.12 63.06 73.7)"/></g><path id="Combined_Shape" d="M.808 3.657A2.034 2.034 0 012.034 0a2.019 2.019 0 011.627.813 2.016 2.016 0 00-1.22-.406A2.034 2.034 0 00.809 3.655z" class="cls-25" data-name="Combined Shape" transform="translate(4 4)"/></g></g><g id="Group_32_Copy_16" data-name="Group 32 Copy 16" transform="rotate(-158 4.517 5.68)"><circle id="Oval-5" cx="3.445" cy="3.445" r="3.445" class="cls-26" data-name="Oval"/><path id="Combined_Shape-2" d="M1.307 5.9A3.281 3.281 0 013.281 0a3.257 3.257 0 012.626 1.313A3.251 3.251 0 003.938.656 3.281 3.281 0 001.308 5.9z" class="cls-25" data-name="Combined Shape"/></g><g id="Group_32_Copy_20" data-name="Group 32 Copy 20" transform="rotate(-158 24.972 16.83)"><circle id="Oval-6" cx="2.193" cy="2.193" r="2.193" class="cls-26" data-name="Oval"/><path id="Combined_Shape-3" d="M.83 3.754A2.088 2.088 0 012.088 0a2.072 2.072 0 011.67.835A2.069 2.069 0 002.506.418 2.088 2.088 0 00.831 3.753z" class="cls-25" data-name="Combined Shape"/></g></g></g></g></svg>