<svg width="935" height="490" fill="none" xmlns="http://www.w3.org/2000/svg"><g opacity=".1"><circle cx="503.5" cy="131.5" r="6.5" fill="#328AF1"/><circle cx="786.5" cy="131.5" r="6.5" fill="#328AF1"/><circle cx="786.5" cy="321.5" r="6.5" fill="#328AF1"/><circle cx="148.5" cy="111.5" r="6.5" fill="#328AF1"/><circle cx="361.5" cy="111.5" r="6.5" fill="#328AF1"/><circle cx="644.5" cy="111.5" r="6.5" fill="#328AF1"/><circle cx="928.5" cy="111.5" r="6.5" fill="#328AF1"/><circle cx="928.5" cy="211.5" r="6.5" fill="#328AF1"/><circle cx="928.5" cy="341.5" r="6.5" fill="#328AF1"/><circle cx="644.5" cy="328.5" r="6.5" fill="#328AF1"/><circle cx="290.5" cy="326.5" r="6.5" fill="#328AF1"/><circle cx="219.5" cy="324.5" r="6.5" fill="#328AF1"/><circle cx="148.5" cy="216.5" r="6.5" fill="#328AF1"/><circle cx="361.5" cy="216.5" r="6.5" fill="#328AF1"/><circle cx="574.5" cy="169.5" r="6.5" fill="#328AF1"/><circle cx="858.5" cy="169.5" r="6.5" fill="#328AF1"/><circle cx="858.5" cy="249.5" r="6.5" fill="#328AF1"/><circle cx="219.5" cy="169.5" r="6.5" fill="#328AF1"/><circle cx="432.5" cy="169.5" r="6.5" fill="#328AF1"/><circle cx="715.5" cy="169.5" r="6.5" fill="#328AF1"/><circle cx="290.5" cy="138.5" r="6.5" fill="#328AF1"/><circle cx="503.5" cy="207.5" r="6.5" fill="#328AF1"/><circle cx="574.5" cy="267.5" r="6.5" fill="#328AF1"/><path d="M6 362V4" stroke="url(#w3ngx0uvya)" stroke-width="3" stroke-linecap="round"/><circle cx="6.5" cy="131.5" r="6.5" fill="#328AF1"/><circle cx="6.5" cy="207.5" r="6.5" fill="#328AF1"/><circle cx="6.5" cy="328.5" r="6.5" fill="#328AF1"/><circle cx="503.5" cy="328.5" r="6.5" fill="#328AF1"/><path d="M503 422V4" stroke="url(#egyz6qgm4b)" stroke-width="3" stroke-linecap="round"/><circle cx="77.5" cy="169.5" r="6.5" fill="#328AF1"/><circle cx="77.5" cy="267.5" r="6.5" fill="#328AF1"/><path d="M77 488.5V2" stroke="url(#5jzxgzk04c)" stroke-width="3" stroke-linecap="round"/><path d="M574 340V2" stroke="url(#5ziii9zfkd)" stroke-width="3" stroke-linecap="round"/><path d="M148 320V2" stroke="url(#8ptpkcyf2e)" stroke-width="3" stroke-linecap="round"/><path d="M645 362V2" stroke="url(#y3pvrrld8f)" stroke-width="3" stroke-linecap="round"/><path d="M361 306V2" stroke="url(#jxk5xhif8g)" stroke-width="3" stroke-linecap="round"/><path d="M858 320V2" stroke="url(#c1kueou0eh)" stroke-width="3" stroke-linecap="round"/><path d="M219 488.5V2" stroke="url(#f1x0obmv0i)" stroke-width="3" stroke-linecap="round"/><path d="M716 320V2" stroke="url(#igkbym7ykj)" stroke-width="3" stroke-linecap="round"/><path d="M432 362V2" stroke="url(#njmw2phrwk)" stroke-width="3" stroke-linecap="round"/><path d="M929 362V2" stroke="url(#ia0hytcoal)" stroke-width="3" stroke-linecap="round"/><path d="M290 354V2" stroke="url(#i4yylh1c6m)" stroke-width="3" stroke-linecap="round"/><path d="M787 354V2" stroke="url(#23j5mbco3n)" stroke-width="3" stroke-linecap="round"/></g><defs><linearGradient id="w3ngx0uvya" x1="6" y1="362.634" x2="25.29" y2="361.593" gradientUnits="userSpaceOnUse"><stop stop-color="#43A1FB"/><stop offset="1" stop-color="#5C84FF" stop-opacity="0"/></linearGradient><linearGradient id="egyz6qgm4b" x1="503" y1="422.74" x2="522.295" y2="421.849" gradientUnits="userSpaceOnUse"><stop stop-color="#43A1FB"/><stop offset="1" stop-color="#5C84FF" stop-opacity="0"/></linearGradient><linearGradient id="5jzxgzk04c" x1="77" y1="489.361" x2="96.322" y2="488.594" gradientUnits="userSpaceOnUse"><stop stop-color="#43A1FB"/><stop offset="1" stop-color="#5C84FF" stop-opacity="0"/></linearGradient><linearGradient id="5ziii9zfkd" x1="574" y1="340.598" x2="593.212" y2="339.505" gradientUnits="userSpaceOnUse"><stop stop-color="#43A1FB"/><stop offset="1" stop-color="#5C84FF" stop-opacity="0"/></linearGradient><linearGradient id="8ptpkcyf2e" x1="148" y1="320.563" x2="167.265" y2="319.393" gradientUnits="userSpaceOnUse"><stop stop-color="#43A1FB"/><stop offset="1" stop-color="#5C84FF" stop-opacity="0"/></linearGradient><linearGradient id="y3pvrrld8f" x1="645" y1="362.637" x2="664.219" y2="361.61" gradientUnits="userSpaceOnUse"><stop stop-color="#43A1FB"/><stop offset="1" stop-color="#5C84FF" stop-opacity="0"/></linearGradient><linearGradient id="jxk5xhif8g" x1="361" y1="306.538" x2="380.263" y2="305.315" gradientUnits="userSpaceOnUse"><stop stop-color="#43A1FB"/><stop offset="1" stop-color="#5C84FF" stop-opacity="0"/></linearGradient><linearGradient id="c1kueou0eh" x1="858" y1="320.563" x2="877.201" y2="319.401" gradientUnits="userSpaceOnUse"><stop stop-color="#43A1FB"/><stop offset="1" stop-color="#5C84FF" stop-opacity="0"/></linearGradient><linearGradient id="f1x0obmv0i" x1="219" y1="489.361" x2="238.306" y2="488.595" gradientUnits="userSpaceOnUse"><stop stop-color="#43A1FB"/><stop offset="1" stop-color="#5C84FF" stop-opacity="0"/></linearGradient><linearGradient id="igkbym7ykj" x1="716" y1="320.563" x2="735.201" y2="319.401" gradientUnits="userSpaceOnUse"><stop stop-color="#43A1FB"/><stop offset="1" stop-color="#5C84FF" stop-opacity="0"/></linearGradient><linearGradient id="njmw2phrwk" x1="432" y1="362.637" x2="451.283" y2="361.603" gradientUnits="userSpaceOnUse"><stop stop-color="#43A1FB"/><stop offset="1" stop-color="#5C84FF" stop-opacity="0"/></linearGradient><linearGradient id="ia0hytcoal" x1="929" y1="362.637" x2="948.219" y2="361.61" gradientUnits="userSpaceOnUse"><stop stop-color="#43A1FB"/><stop offset="1" stop-color="#5C84FF" stop-opacity="0"/></linearGradient><linearGradient id="i4yylh1c6m" x1="290" y1="354.623" x2="309.281" y2="353.566" gradientUnits="userSpaceOnUse"><stop stop-color="#43A1FB"/><stop offset="1" stop-color="#5C84FF" stop-opacity="0"/></linearGradient><linearGradient id="23j5mbco3n" x1="787" y1="354.623" x2="806.217" y2="353.573" gradientUnits="userSpaceOnUse"><stop stop-color="#43A1FB"/><stop offset="1" stop-color="#5C84FF" stop-opacity="0"/></linearGradient></defs></svg>