<svg width="120" height="120" xmlns="http://www.w3.org/2000/svg" xmlns:xlink="http://www.w3.org/1999/xlink"><defs><linearGradient x1="50%" y1="0%" x2="50%" y2="94.352%" id="c"><stop stop-color="#1A2944" offset="0%"/><stop stop-color="#39577E" offset="100%"/></linearGradient><linearGradient x1="50%" y1="45.171%" x2="50%" y2="106.291%" id="g"><stop stop-color="#F44880" stop-opacity="0" offset="0%"/><stop stop-color="#FFF" offset="100%"/></linearGradient><linearGradient x1="1.288%" y1="50%" x2="97.371%" y2="50%" id="j"><stop stop-color="#F9DCEB" stop-opacity="0" offset="0%"/><stop stop-color="#FFF" offset="100%"/></linearGradient><linearGradient x1="31.211%" y1="35.277%" x2="78.717%" y2="100%" id="k"><stop stop-color="#6BA0E2" offset="0%"/><stop stop-color="#385076" offset="100%"/></linearGradient><linearGradient x1="50%" y1="32.902%" x2="45.71%" y2="97.725%" id="m"><stop stop-color="#1D2E48" offset="0%"/><stop stop-color="#39577E" offset="100%"/></linearGradient><linearGradient x1="50%" y1="27.04%" x2="53.002%" y2="86.803%" id="n"><stop stop-color="#1D2E48" offset="0%"/><stop stop-color="#39577E" offset="100%"/></linearGradient><linearGradient x1="122.037%" y1="-9.341%" x2="28.874%" y2="50%" id="o"><stop stop-color="#F4487D" stop-opacity=".16" offset="0%"/><stop stop-color="#FC3A78" offset="100%"/></linearGradient><linearGradient x1="80.884%" y1="0%" x2="0%" y2="89.582%" id="r"><stop stop-color="#FB3B78" offset="0%"/><stop stop-color="#EFC7D8" offset="100%"/></linearGradient><linearGradient x1="74.488%" y1="89.582%" x2="-207.458%" y2="-81.619%" id="s"><stop stop-color="#DD1E5B" offset="0%"/><stop stop-color="#EFC7D8" offset="100%"/></linearGradient><linearGradient x1="50%" y1="0%" x2="50%" y2="94.352%" id="v"><stop stop-color="#1A2944" offset="0%"/><stop stop-color="#39577E" offset="100%"/></linearGradient><linearGradient x1="64.635%" y1="20.375%" x2="0%" y2="99.248%" id="x"><stop stop-color="#2A3D5B" offset="0%"/><stop stop-color="#0F1723" offset="100%"/></linearGradient><linearGradient x1="50%" y1="42.207%" x2="91.27%" y2="72.521%" id="y"><stop stop-color="#4B71A3" offset="0%"/><stop stop-color="#18263E" offset="100%"/></linearGradient><linearGradient x1="62.833%" y1="19.922%" x2="6.158%" y2="100%" id="A"><stop stop-color="#2A3D5B" offset="0%"/><stop stop-color="#0F1723" offset="100%"/></linearGradient><linearGradient x1="93.04%" y1="-10.187%" x2="0%" y2="99.248%" id="B"><stop stop-color="#2A3D5B" offset="0%"/><stop stop-color="#0F1723" offset="100%"/></linearGradient><linearGradient x1="88.52%" y1="43.991%" x2="0%" y2="39.179%" id="C"><stop stop-color="#18263E" offset="0%"/><stop stop-color="#4B71A3" offset="100%"/></linearGradient><linearGradient x1="11.348%" y1="58.31%" x2="28.587%" y2="62.77%" id="E"><stop stop-color="#FFF" offset="0%"/><stop stop-color="#F44880" stop-opacity="0" offset="100%"/></linearGradient><linearGradient x1="35.28%" y1="15.879%" x2="114.78%" y2="84.121%" id="F"><stop stop-color="#4B71A3" offset="0%"/><stop stop-color="#18263E" offset="100%"/></linearGradient><linearGradient x1="92.711%" y1="50%" x2="44.278%" y2="59.775%" id="I"><stop stop-color="#FFF" offset="0%"/><stop stop-color="#F44880" stop-opacity="0" offset="100%"/></linearGradient><linearGradient x1="50%" y1="60.793%" x2="100%" y2="76.498%" id="J"><stop stop-color="#F44880" stop-opacity="0" offset="0%"/><stop stop-color="#FFF" offset="100%"/></linearGradient><linearGradient x1="64.635%" y1="20.375%" x2="0%" y2="99.248%" id="K"><stop stop-color="#2A3D5B" offset="0%"/><stop stop-color="#0F1723" offset="100%"/></linearGradient><linearGradient x1="35.28%" y1="16.992%" x2="114.78%" y2="83.008%" id="L"><stop stop-color="#4B71A3" offset="0%"/><stop stop-color="#18263E" offset="100%"/></linearGradient><linearGradient x1="11.348%" y1="57.799%" x2="50%" y2="65.528%" id="N"><stop stop-color="#FFF" offset="0%"/><stop stop-color="#F44880" stop-opacity="0" offset="100%"/></linearGradient><linearGradient x1="50%" y1="50%" x2="50%" y2="229.793%" id="Q"><stop stop-color="#FFF" offset="0%"/><stop stop-color="#C42E6C" offset="100%"/></linearGradient><linearGradient x1="42.461%" y1="70.481%" x2="50%" y2="86.054%" id="T"><stop stop-color="#233249" offset="0%"/><stop stop-color="#0F1723" offset="100%"/></linearGradient><linearGradient x1="8.307%" y1="46.648%" x2="120.652%" y2="57.656%" id="U"><stop stop-color="#233249" offset="0%"/><stop stop-color="#0F1723" offset="100%"/></linearGradient><linearGradient x1="48.948%" y1="14.569%" x2="50%" y2="86.054%" id="V"><stop stop-color="#233249" offset="0%"/><stop stop-color="#0F1723" offset="100%"/></linearGradient><linearGradient x1="64.479%" y1="7.974%" x2="38.723%" y2="32.78%" id="X"><stop stop-color="#5B79A2" offset="0%"/><stop stop-color="#2D4265" offset="100%"/></linearGradient><linearGradient x1="50%" y1="-63.118%" x2="100%" y2="99.526%" id="aa"><stop stop-color="#5B79A2" offset="0%"/><stop stop-color="#182439" offset="100%"/></linearGradient><linearGradient x1="50%" y1="163.118%" x2="100%" y2=".474%" id="ab"><stop stop-color="#5B79A2" offset="0%"/><stop stop-color="#182439" offset="100%"/></linearGradient><linearGradient x1=".223%" y1="0%" x2="124.878%" y2="100%" id="ac"><stop stop-color="#5B79A2" offset="0%"/><stop stop-color="#2E4469" offset="100%"/></linearGradient><linearGradient x1="50%" y1="65.665%" x2="100%" y2="88.462%" id="af"><stop stop-color="#F44880" stop-opacity="0" offset="0%"/><stop stop-color="#FFF" offset="100%"/></linearGradient><linearGradient x1="50%" y1="50%" x2="50%" y2="229.793%" id="ai"><stop stop-color="#FFF" offset="0%"/><stop stop-color="#C42E6C" offset="100%"/></linearGradient><linearGradient x1="50%" y1="-63.118%" x2="100%" y2="99.526%" id="aj"><stop stop-color="#5B79A2" offset="0%"/><stop stop-color="#182439" offset="100%"/></linearGradient><linearGradient x1="81.181%" y1="7.974%" x2="25.714%" y2="32.78%" id="ak"><stop stop-color="#5B79A2" offset="0%"/><stop stop-color="#2D4265" offset="100%"/></linearGradient><linearGradient x1="59.473%" y1="103.772%" x2="31.123%" y2="28.394%" id="an"><stop stop-color="#5B79A2" offset="0%"/><stop stop-color="#2E4469" offset="100%"/></linearGradient><linearGradient x1="64.635%" y1="28.274%" x2="0%" y2="86.117%" id="aq"><stop stop-color="#2A3D5B" offset="0%"/><stop stop-color="#0F1723" offset="100%"/></linearGradient><linearGradient x1="59.473%" y1="98.439%" x2="31.123%" y2="30.537%" id="ar"><stop stop-color="#5B79A2" offset="0%"/><stop stop-color="#2E4469" offset="100%"/></linearGradient><linearGradient x1="89.741%" y1="87.512%" x2="44.278%" y2="60.746%" id="at"><stop stop-color="#FFF" offset="0%"/><stop stop-color="#F44880" stop-opacity="0" offset="100%"/></linearGradient><linearGradient x1="56.254%" y1="114.565%" x2="37.537%" y2="24.058%" id="av"><stop stop-color="#5B79A2" offset="0%"/><stop stop-color="#2E4469" offset="100%"/></linearGradient><linearGradient x1="25.613%" y1="6.73%" x2="50%" y2="100%" id="ax"><stop stop-color="#FF5E92" offset="0%"/><stop stop-color="#ED4653" offset="100%"/></linearGradient><radialGradient cx="50%" cy="113.477%" fx="50%" fy="113.477%" r="63.985%" gradientTransform="matrix(0 .73585 -2.37175 0 3.191 .767)" id="d"><stop stop-color="#D12A6F" offset="0%"/><stop stop-color="#83234B" stop-opacity="0" offset="100%"/></radialGradient><radialGradient cx="70.9%" cy="139.575%" fx="70.9%" fy="139.575%" r="111.276%" gradientTransform="matrix(.68334 .5533 -1.59702 1.13277 2.454 -.578)" id="l"><stop stop-color="#D12A6F" offset="0%"/><stop stop-color="#83234B" stop-opacity="0" offset="100%"/></radialGradient><radialGradient cx="51.004%" cy="50%" fx="51.004%" fy="50%" r="202.373%" gradientTransform="matrix(0 1 -.41638 0 .718 -.01)" id="t"><stop stop-color="#D12A6F" offset="0%"/><stop stop-color="#83234B" stop-opacity="0" offset="100%"/></radialGradient><radialGradient cx="50.795%" cy="100%" fx="50.795%" fy="100%" r="100%" gradientTransform="matrix(0 -1 .33466 0 .173 1.508)" id="u"><stop stop-color="#FFF" offset="0%"/><stop stop-color="#F44880" stop-opacity="0" offset="100%"/></radialGradient><radialGradient cx="52.133%" cy="-94.026%" fx="52.133%" fy="-94.026%" r="202.373%" gradientTransform="matrix(0 1 -1.11664 0 -.529 -1.462)" id="w"><stop stop-color="#D12A6F" offset="0%"/><stop stop-color="#83234B" stop-opacity="0" offset="100%"/></radialGradient><radialGradient cx="125.178%" cy="-22.984%" fx="125.178%" fy="-22.984%" r="105.511%" gradientTransform="matrix(.67875 .58743 -.4987 .81916 .288 -.777)" id="z"><stop stop-color="#FFF" offset="0%"/><stop stop-color="#FFF" stop-opacity="0" offset="100%"/></radialGradient><radialGradient cx="-34.045%" cy="60.944%" fx="-34.045%" fy="60.944%" r="105.511%" gradientTransform="matrix(.67875 .58743 -.4987 .81916 .195 .31)" id="D"><stop stop-color="#FFF" offset="0%"/><stop stop-color="#FFF" stop-opacity="0" offset="100%"/></radialGradient><radialGradient cx="87.408%" cy="112.565%" fx="87.408%" fy="112.565%" r="89.576%" gradientTransform="matrix(.66965 .58556 -.48963 .82053 .84 -.31)" id="G"><stop stop-color="#FFF" offset="0%"/><stop stop-color="#FFF" stop-opacity="0" offset="100%"/></radialGradient><radialGradient cx="116.086%" cy="109.425%" fx="116.086%" fy="109.425%" r="111.453%" gradientTransform="matrix(.67175 .58202 -1.14033 1.92865 1.629 -1.692)" id="H"><stop stop-color="#D12A6F" offset="0%"/><stop stop-color="#83234B" stop-opacity="0" offset="100%"/></radialGradient><radialGradient cx="-34.045%" cy="60.944%" fx="-34.045%" fy="60.944%" r="107.752%" gradientTransform="matrix(.66463 .5752 -.47307 .828 .174 .3)" id="M"><stop stop-color="#FFF" offset="0%"/><stop stop-color="#FFF" stop-opacity="0" offset="100%"/></radialGradient><radialGradient cx="50%" cy="0%" fx="50%" fy="0%" r="100%" gradientTransform="matrix(0 -1 .68085 0 .5 .5)" id="R"><stop stop-color="#FFF" offset="0%"/><stop stop-color="#F44880" stop-opacity="0" offset="100%"/></radialGradient><radialGradient cx="56.579%" cy="50%" fx="56.579%" fy="50%" r="104.267%" gradientTransform="matrix(.44868 -.48873 .04636 .16092 .289 .696)" id="S"><stop offset="0%"/><stop stop-opacity=".137" offset="73.4%"/><stop stop-opacity="0" offset="100%"/></radialGradient><radialGradient cx="-108.376%" cy="40.54%" fx="-108.376%" fy="40.54%" r="487.249%" gradientTransform="matrix(.06458 .1585 -.3444 .00354 -.874 .576)" id="W"><stop stop-color="#354C71" offset="0%"/><stop stop-color="#FFF" stop-opacity="0" offset="100%"/></radialGradient><radialGradient cx="208.099%" cy="75.201%" fx="208.099%" fy="75.201%" r="135.626%" gradientTransform="matrix(.52804 .457 -.8596 .28762 1.629 -.415)" id="Y"><stop stop-color="#FFF" offset="0%"/><stop stop-color="#FFF" stop-opacity="0" offset="100%"/></radialGradient><radialGradient cx="50%" cy="50%" fx="50%" fy="50%" r="50%" gradientTransform="matrix(1 0 0 .95678 0 .022)" id="Z"><stop stop-color="#0F1827" offset="0%"/><stop stop-color="#0F1827" stop-opacity="0" offset="100%"/></radialGradient><radialGradient cx="50%" cy="50%" fx="50%" fy="50%" r="56.138%" gradientTransform="matrix(-.11543 .9911 -1.18778 -.13772 1.152 .073)" id="ad"><stop stop-color="#00BAFF" offset="0%"/><stop stop-color="#83234B" stop-opacity="0" offset="100%"/></radialGradient><radialGradient cx="154.762%" cy="50%" fx="154.762%" fy="50%" r="94.802%" gradientTransform="matrix(.75542 .65378 -.66325 .76294 .71 -.893)" id="ae"><stop stop-color="#FFF" offset="0%"/><stop stop-color="#FFF" stop-opacity="0" offset="100%"/></radialGradient><radialGradient cx="129.97%" cy="0%" fx="129.97%" fy="0%" r="140.397%" gradientTransform="matrix(.69214 .56997 -.4533 .34327 .4 -.74)" id="al"><stop stop-color="#FFF" offset="0%"/><stop stop-color="#FFF" stop-opacity="0" offset="100%"/></radialGradient><radialGradient cx="50%" cy="50%" fx="50%" fy="50%" r="50%" gradientTransform="matrix(1 0 0 .4992 0 .25)" id="ao"><stop stop-opacity=".608" offset="0%"/><stop stop-opacity=".392" offset="38.2%"/><stop stop-opacity="0" offset="100%"/></radialGradient><radialGradient cx="87.408%" cy="112.565%" fx="87.408%" fy="112.565%" r="86.875%" gradientTransform="matrix(.69047 .60377 -.52935 .8069 .866 -.31)" id="as"><stop stop-color="#FFF" offset="0%"/><stop stop-color="#FFF" stop-opacity="0" offset="100%"/></radialGradient><radialGradient cx="53.656%" cy="53.448%" fx="53.656%" fy="53.448%" r="36.814%" gradientTransform="matrix(1 0 0 .53658 0 .248)" id="au"><stop stop-opacity=".608" offset="0%"/><stop stop-opacity=".392" offset="38.2%"/><stop stop-opacity="0" offset="100%"/></radialGradient><radialGradient cx="87.408%" cy="112.565%" fx="87.408%" fy="112.565%" r="88.121%" gradientTransform="matrix(.6807 .59523 -.7415 .55985 1.114 -.025)" id="aw"><stop stop-color="#FFF" offset="0%"/><stop stop-color="#FFF" stop-opacity="0" offset="100%"/></radialGradient><filter x="-18.2%" y="-12.1%" width="136.4%" height="124.2%" filterUnits="objectBoundingBox" id="i"><feOffset in="SourceAlpha" result="shadowOffsetOuter1"/><feGaussianBlur stdDeviation="2" in="shadowOffsetOuter1" result="shadowBlurOuter1"/><feColorMatrix values="0 0 0 0 0.952941176 0 0 0 0 0.368627451 0 0 0 0 0.611764706 0 0 0 0.807391827 0" in="shadowBlurOuter1" result="shadowMatrixOuter1"/><feMerge><feMergeNode in="shadowMatrixOuter1"/><feMergeNode in="SourceGraphic"/></feMerge></filter><filter x="-52.1%" y="-52.1%" width="204.2%" height="204.2%" filterUnits="objectBoundingBox" id="p"><feGaussianBlur stdDeviation="2.778" in="SourceGraphic"/></filter><filter x="-104.2%" y="-104.2%" width="308.4%" height="308.4%" filterUnits="objectBoundingBox" id="q"><feGaussianBlur stdDeviation="2.778" in="SourceGraphic"/></filter><filter x="-36.2%" y="-262.5%" width="172.4%" height="625%" filterUnits="objectBoundingBox" id="O"><feOffset in="SourceAlpha" result="shadowOffsetOuter1"/><feGaussianBlur stdDeviation="3.5" in="shadowOffsetOuter1" result="shadowBlurOuter1"/><feColorMatrix values="0 0 0 0 0.951002038 0 0 0 0 0.370524746 0 0 0 0 0.61045536 0 0 0 1 0" in="shadowBlurOuter1"/></filter><filter x="-180%" y="-180.9%" width="460.1%" height="461.8%" filterUnits="objectBoundingBox" id="ag"><feOffset in="SourceAlpha" result="shadowOffsetOuter1"/><feGaussianBlur stdDeviation="2.5" in="shadowOffsetOuter1" result="shadowBlurOuter1"/><feColorMatrix values="0 0 0 0 0.951002038 0 0 0 0 0.370524746 0 0 0 0 0.61045536 0 0 0 1 0" in="shadowBlurOuter1"/></filter><ellipse id="P" cx="60.5" cy="98" rx="14.5" ry="2"/><ellipse id="ah" cx="5.208" cy="5.183" rx="2.083" ry="2.073"/><rect id="e" x="0" y="0" width="50" height="73.737" rx="4"/><rect id="f" x="0" y="0" width="50" height="73.737" rx="4"/><circle id="a" cx="60" cy="60" r="60"/><path d="M5.104 6.343l5.431-3.705 9.945-.011 6.315 8.78-2.714 7.932-2.413.003 1.386-5.457-4.823-5.679-5.146.006-3.583 2.785-2.065 4.615 4.12 6.067 4.377.847-.002 2.422-7.38-.679-6.215-8.651 2.767-9.275z" id="am"/></defs><g fill="none" fill-rule="evenodd"><mask id="b" fill="#fff"><use xlink:href="#a"/></mask><use fill="#121B2A" fill-rule="nonzero" xlink:href="#a"/><g mask="url(#b)"><path fill="url(#c)" d="M0 0h78v106H0z" transform="translate(21 2.191)"/><path fill="url(#d)" fill-rule="nonzero" opacity=".829" d="M0 0h78v106H0z" transform="translate(21 2.191)"/><path fill="#121A27" fill-rule="nonzero" opacity=".168" d="M79.349 54.865L96.444 35.99l-3.054-9.66z"/><g transform="translate(35 12.858)"><use fill="#121A27" fill-rule="nonzero" xlink:href="#e"/><mask id="h" fill="#fff"><use xlink:href="#f"/></mask><use stroke="url(#g)" stroke-width=".4" opacity=".703" stroke-linecap="round" stroke-linejoin="round" xlink:href="#f"/><g mask="url(#h)"><g filter="url(#i)" transform="translate(3 4)"><path d="M18.174 7.174v2.391H9.565V7.174h8.609zM9.565 0v2.391H0V0h9.565zM44 0v2.391h-3.826V0H44zM33.478 18.174H44v1.913H33.478zm-6.695 0h4.783v1.913h-4.783z" fill="#FFF"/><path fill="url(#j)" d="M0 37.304h41v1.913H0z"/><path fill="#FFF" d="M10 64.087h8V66h-8zm-.435-22h3.826V44H9.565zm30.609 0H44V44h-3.826zM20.087 3.826h12.435v1.913H20.087z"/></g><path fill="#27425A" d="M14.478 4h6.696v1.913h-6.696zM3 7.826h18.174v1.913H3zm33.478 9.565H47v1.913H36.478zm0 9.566H47v1.913H36.478zm8.522 4h2v1.913h-2zm0 3.485h2v1.913h-2zm0 3.515h2v1.913h-2zM23.087 4h6.696v1.913h-6.696zM3 11.652h7.652v1.913H3zm20.087 0h4.783v1.913h-4.783zm6.696 0h4.783v1.913h-4.783zm6.695 0h4.783v1.913h-4.783zm6.696 0H47v1.913h-3.826zM3 46.087h7.652V48H3zm0 22h8V70H3zm30 0h14V70H33zm-30-4h7.652V66H3zm0-4h2V62H3zm0-4h2V58H3zm0-3.345h2v1.913H3zm0-3.655h2V51H3zm26.783-3h11.478V48H29.783zM31.696 4h3.826v1.913h-3.826zm5.739 0h3.826v1.913h-3.826zm0 3.826h3.826v1.913h-3.826zm5.739 0H47v1.913h-3.826z"/></g><path d="M50.5 0c-1.333.455-19 24.089-53 70.901L-4.88-2.263C33.373-1.209 51.833-.455 50.5 0z" fill="url(#k)" opacity=".118" mask="url(#h)"/><path d="M50.5 0c-1.333.455-19 24.089-53 70.901L-4.88-2.263C33.373-1.209 51.833-.455 50.5 0z" fill="url(#l)" fill-rule="nonzero" opacity=".829" mask="url(#h)"/></g></g><g mask="url(#b)"><path fill="url(#m)" d="M104 0h19v106h-19z" transform="translate(-1.5 2)"/><path fill="url(#n)" d="M0 0h19v106H0z" transform="translate(-1.5 2)"/></g><g mask="url(#b)"><path stroke="url(#o)" stroke-width="1.8" stroke-linejoin="round" d="M47.672 0l1.89 15.272L4.39 14.66l20.592 23.45" transform="rotate(70 40.029 84.762)"/><g transform="rotate(-88 67.298 -4.844)"><circle fill="#C42E6C" opacity=".173" filter="url(#p)" cx="8" cy="8" r="8"/><circle fill="#C42E6C" style="mix-blend-mode:lighten" filter="url(#q)" cx="8" cy="8" r="4"/><circle fill="url(#r)" cx="8" cy="8" r="2.542"/><path d="M7.491 5.458c.666 0 1.258.32 1.629.814A2.034 2.034 0 006.273 9.12 2.033 2.033 0 017.49 5.458z" fill-opacity=".2" fill="#FFF"/></g><g transform="rotate(-88 61.095 -31.393)"><circle fill="url(#s)" cx="3.445" cy="3.445" r="3.445"/><path d="M3.281 0c1.074 0 2.027.515 2.625 1.312a3.281 3.281 0 00-4.595 4.593A3.281 3.281 0 013.282 0z" fill-opacity=".2" fill="#FFF"/></g><g transform="rotate(-88 90.602 -18.989)"><circle fill="url(#s)" cx="2.193" cy="2.193" r="2.193"/><path d="M2.088 0c.683 0 1.29.328 1.67.835A2.088 2.088 0 00.834 3.758 2.088 2.088 0 012.088 0z" fill-opacity=".2" fill="#FFF"/></g></g><path fill="#121B2A" fill-rule="nonzero" mask="url(#b)" d="M0 92h118v35H0z"/><path fill="#1B283E" fill-rule="nonzero" mask="url(#b)" d="M0 94h118v8H0z"/><path fill="url(#t)" fill-rule="nonzero" opacity=".132" mask="url(#b)" d="M0 94h118v8H0z"/><path stroke="url(#u)" stroke-width=".4" opacity=".703" stroke-linecap="round" stroke-linejoin="round" mask="url(#b)" d="M0 94h118v8H0z"/><g mask="url(#b)"><path fill="url(#v)" d="M0 0h88v20H0z" transform="translate(16 102)"/><path fill="url(#w)" fill-rule="nonzero" opacity=".45" d="M0 0h88v16H0z" transform="translate(16 102)"/></g><g mask="url(#b)"><path d="M16.9 0c-1.299 0-2.5 1.124-5.096 4C10.367 5.592 7.24 9.57 2.42 15.935a1.999 1.999 0 001.592 3.207H16.9C20.083 6.38 20.083 0 16.9 0z" fill="url(#x)" fill-rule="nonzero" transform="translate(-6.4 71.858)"/><path d="M15.316 1.545c1.148-1.871 4.019-1.871 5.167 0l12.512 20.388c1.149 1.87-.286 4.209-2.583 4.209H5.387c-2.296 0-3.732-2.339-2.583-4.21L15.316 1.546z" fill="url(#y)" transform="translate(-6.4 71.858)"/><path d="M15.316 1.545c1.148-1.871 4.019-1.871 5.167 0l12.512 20.388c1.149 1.87-.286 4.209-2.583 4.209H5.387c-2.296 0-3.732-2.339-2.583-4.21L15.316 1.546z" fill="url(#z)" fill-rule="nonzero" opacity=".829" transform="translate(-6.4 71.858)"/><path d="M35.9 7c-1.299 0-2.5 1.124-5.096 4-1.445 1.602-4.26 5.62-8.446 12.054a1.997 1.997 0 001.675 3.088h11.866C39.083 13.38 39.083 7 35.9 7z" fill="url(#A)" fill-rule="nonzero" transform="translate(-6.4 71.858)"/><path d="M30.9 0c-1.299 0-2.5 1.124-5.096 4-1.437 1.592-4.565 5.57-9.384 11.935a1.999 1.999 0 001.592 3.207H30.9C34.083 6.38 34.083 0 30.9 0z" fill="url(#B)" fill-rule="nonzero" transform="matrix(-1 0 0 1 141.287 73)"/><path d="M12.917 1.403c1.148-1.87 4.018-1.87 5.166 0l12.513 20.388C31.744 23.66 30.309 26 28.013 26H2.987C.691 26-.744 23.662.404 21.79L12.917 1.404z" fill="url(#C)" transform="translate(94 73)"/><path d="M12.917 1.403c1.148-1.87 4.018-1.87 5.166 0l12.513 20.388C31.744 23.66 30.309 26 28.013 26H2.987C.691 26-.744 23.662.404 21.79L12.917 1.404z" fill="url(#D)" fill-rule="nonzero" opacity=".496" transform="translate(94 73)"/><path d="M12.917 1.403c1.148-1.87 4.018-1.87 5.166 0l12.513 20.388C31.744 23.66 30.309 26 28.013 26H2.987C.691 26-.744 23.662.404 21.79L12.917 1.404z" stroke="url(#E)" stroke-width=".4" opacity=".703" stroke-linecap="round" stroke-linejoin="round" transform="translate(94 73)"/><g><path d="M9.583 1.025c.852-1.367 2.982-1.367 3.834 0l9.283 14.9C23.552 17.29 22.487 19 20.784 19H2.216C.513 19-.552 17.291.3 15.924L9.583 1.025z" fill="url(#F)" transform="translate(18 79)"/><path d="M9.583 1.025c.852-1.367 2.982-1.367 3.834 0l9.283 14.9C23.552 17.29 22.487 19 20.784 19H2.216C.513 19-.552 17.291.3 15.924L9.583 1.025z" fill="url(#G)" fill-rule="nonzero" opacity=".829" transform="translate(18 79)"/><path d="M9.583 1.025c.852-1.367 2.982-1.367 3.834 0l9.283 14.9C23.552 17.29 22.487 19 20.784 19H2.216C.513 19-.552 17.291.3 15.924L9.583 1.025z" fill="url(#H)" fill-rule="nonzero" opacity=".414" transform="translate(18 79)"/><path d="M9.583 1.025c.852-1.367 2.982-1.367 3.834 0l9.283 14.9C23.552 17.29 22.487 19 20.784 19H2.216C.513 19-.552 17.291.3 15.924L9.583 1.025z" stroke="url(#I)" stroke-width=".4" opacity=".703" stroke-linecap="round" stroke-linejoin="round" transform="translate(18 79)"/><path d="M9.583 1.025c.852-1.367 2.982-1.367 3.834 0l9.283 14.9C23.552 17.29 22.487 19 20.784 19H2.216C.513 19-.552 17.291.3 15.924L9.583 1.025z" stroke="url(#J)" stroke-width=".4" opacity=".703" stroke-linecap="round" stroke-linejoin="round" transform="translate(18 79)"/></g><g><path d="M18.266 0c-.882 0-1.698.764-3.46 2.717-.896.992-2.76 3.35-5.59 7.072A1.998 1.998 0 0010.804 13h7.462c2.162-8.667 2.162-13 0-13z" fill="url(#K)" fill-rule="nonzero" transform="matrix(-1 0 0 1 107.677 87)"/><path d="M6.667.702c.592-.936 2.074-.936 2.666 0l6.458 10.193c.593.936-.148 2.105-1.333 2.105H1.542C.357 13-.384 11.83.209 10.895L6.667.702z" fill="url(#L)" transform="translate(81 87)"/><path d="M6.667.702c.592-.936 2.074-.936 2.666 0l6.458 10.193c.593.936-.148 2.105-1.333 2.105H1.542C.357 13-.384 11.83.209 10.895L6.667.702z" fill="url(#M)" fill-rule="nonzero" opacity=".829" transform="translate(81 87)"/><path d="M6.667.702c.592-.936 2.074-.936 2.666 0l6.458 10.193c.593.936-.148 2.105-1.333 2.105H1.542C.357 13-.384 11.83.209 10.895L6.667.702z" stroke="url(#N)" stroke-width=".4" opacity=".703" stroke-linecap="round" stroke-linejoin="round" transform="translate(81 87)"/></g></g><g mask="url(#b)"><use fill="#000" filter="url(#O)" xlink:href="#P"/><use fill="url(#Q)" xlink:href="#P"/></g><ellipse stroke="url(#R)" stroke-linecap="round" stroke-linejoin="round" mask="url(#b)" cx="60.5" cy="98" rx="14.5" ry="2"/><ellipse fill="url(#S)" fill-rule="nonzero" opacity=".452" mask="url(#b)" transform="rotate(32 37 43)" cx="37" cy="43" rx="35" ry="18"/><g mask="url(#b)"><g fill-rule="nonzero"><path d="M6.749.471a3.147 3.147 0 013.143 3.143l.018 14.46a3.132 3.132 0 01-3.135 3.136 3.147 3.147 0 01-3.144-3.143l-.018-14.46A3.132 3.132 0 016.75.47z" fill="url(#T)" transform="rotate(174 31.565 31.044)"/><path d="M1.84 13.895l7.22-.01a1.591 1.591 0 011.593 1.594 1.6 1.6 0 01-1.597 1.597l-7.22.01a1.591 1.591 0 01-1.594-1.594 1.6 1.6 0 011.597-1.597z" fill="url(#U)" transform="scale(-1 1) rotate(6 -387.902 -578.844)"/></g><g transform="scale(-1 1) rotate(-28 23.797 163.374)"><path d="M33.834 8.676a3.117 3.117 0 013.124 3.124l-.077 33.728a3.145 3.145 0 01-3.138 3.138 3.117 3.117 0 01-3.124-3.124l.077-33.727a3.145 3.145 0 013.138-3.139z" fill="url(#V)" fill-rule="nonzero" transform="scale(1 -1) rotate(53 91.294 0)"/><path d="M33.834 8.676a3.117 3.117 0 013.124 3.124l-.077 33.728a3.145 3.145 0 01-3.138 3.138 3.117 3.117 0 01-3.124-3.124l.077-33.727a3.145 3.145 0 013.138-3.139z" fill="url(#W)" fill-rule="nonzero" opacity=".396" transform="scale(1 -1) rotate(53 91.294 0)"/><path d="M17.858 3.028l3.558-.008a6.272 6.272 0 016.286 6.286l-.04 17.467a6.272 6.272 0 01-6.258 6.258l-3.557.008a6.272 6.272 0 01-6.286-6.287l.04-17.466a6.272 6.272 0 016.257-6.258z" fill="url(#X)" fill-rule="nonzero" transform="scale(-1 1) rotate(54 0 -20.5)"/><path d="M17.858 3.028l3.558-.008a6.272 6.272 0 016.286 6.286l-.04 17.467a6.272 6.272 0 01-6.258 6.258l-3.557.008a6.272 6.272 0 01-6.286-6.287l.04-17.466a6.272 6.272 0 016.257-6.258z" fill="url(#Y)" fill-rule="nonzero" opacity=".829" transform="scale(-1 1) rotate(54 0 -20.5)"/><ellipse fill="url(#Z)" fill-rule="nonzero" opacity=".814" transform="rotate(-55 16.403 16.994)" cx="16.403" cy="16.994" rx="9.184" ry="9.599"/><path d="M21.43 31.736c-2.778 4.256-7.736-2.84-7.147-7.508" stroke="#32445D" stroke-width="1.2"/><g opacity=".85" transform="rotate(-145.011 16.466 12.936)" fill-rule="nonzero"><rect fill="#21324E" x=".679" width="1.81" height="1.891" rx=".804"/><rect fill="url(#aa)" y="1.261" width="3.168" height="1.261" rx=".63"/></g><g fill-rule="nonzero"><path d="M13.713 22.558l.337-.03a1.344 1.344 0 011.456 1.223l.04.471a1.344 1.344 0 01-1.221 1.456l-.336.03a1.344 1.344 0 01-1.456-1.222l-.042-.472a1.344 1.344 0 011.222-1.456z" fill="#21324E"/><path d="M1.054 0H4.24a1.054 1.054 0 110 2.107H1.054a1.054 1.054 0 110-2.107z" fill="url(#ab)" transform="rotate(-4.996 254.564 -116.964)"/></g><ellipse fill="url(#ac)" fill-rule="nonzero" transform="scale(-1 1) rotate(59 0 -9.909)" cx="12.902" cy="12.894" rx="9.389" ry="9.41"/><ellipse fill="url(#ad)" fill-rule="nonzero" opacity=".5" transform="scale(-1 1) rotate(59 0 -9.909)" cx="12.902" cy="12.894" rx="9.389" ry="9.41"/><ellipse fill="url(#ae)" fill-rule="nonzero" opacity=".829" transform="scale(-1 1) rotate(59 0 -9.909)" cx="12.902" cy="12.894" rx="9.389" ry="9.41"/><g transform="translate(7.543 7.727)"><ellipse fill="#1B283E" fill-rule="nonzero" cx="5.208" cy="5.183" rx="5.208" ry="5.183"/><ellipse stroke="url(#af)" stroke-width=".4" opacity=".703" stroke-linecap="round" stroke-linejoin="round" cx="5.208" cy="5.183" rx="5.208" ry="5.183"/><use fill="#000" filter="url(#ag)" xlink:href="#ah"/><use fill="url(#ai)" xlink:href="#ah"/></g></g><path d="M.333 30.206c-1.489-3.578 2.801-6.11 5.628-2.634 2.826 3.477-1.221 8.384-3.548 12.731-2.119 3.96-2.02 7.658-2.49 10.24-.517 2.838 1.452 7.58 6.605 4.908 2.064-1.07 2.87-2.634 2.421-4.694" stroke="#334D72" stroke-width="1.2"/><g transform="scale(-1 1) rotate(10.989 -153.167 .03)" fill-rule="nonzero"><rect fill="#21324E" x="1.134" width="3.025" height="3.16" rx="1.344"/><rect fill="url(#aj)" y="2.107" width="5.293" height="2.107" rx="1.053"/></g><path d="M13.263 4.337l4.706-.01a6.272 6.272 0 016.005 4.42l8.986 29.055c-2.536.082-4.365.08-5.489-.007-4.446-.345-8.155-1.28-11.532-2.346-4.657-1.47-7.05-2.502-7.177-3.095L7.024 11.121a6.272 6.272 0 016.239-6.784z" fill="url(#ak)" fill-rule="nonzero" transform="rotate(86 .314 25.573)"/><path d="M13.263 4.337l4.706-.01a6.272 6.272 0 016.005 4.42l8.986 29.055c-2.536.082-4.365.08-5.489-.007-4.446-.345-8.155-1.28-11.532-2.346-4.657-1.47-7.05-2.502-7.177-3.095L7.024 11.121a6.272 6.272 0 016.239-6.784z" fill="url(#al)" fill-rule="nonzero" opacity=".829" transform="rotate(86 .314 25.573)"/><g transform="scale(-1 1) rotate(-10 271.947 498.458)"><g transform="rotate(-7 30.252 -18.312)"><mask id="ap" fill="#fff"><use xlink:href="#am"/></mask><use fill="url(#an)" fill-rule="nonzero" transform="scale(-1 1) rotate(14 0 -104.841)" xlink:href="#am"/><ellipse fill="url(#ao)" fill-rule="nonzero" opacity=".604" mask="url(#ap)" transform="rotate(-55 6.205 16.13)" cx="6.205" cy="16.13" rx="4.792" ry="9.599"/></g><path d="M14.01 12.768c.944-1.583 3.295-1.588 4.232-.009l11.213 16.798c.937 1.579-.243 3.558-2.125 3.562l-20.504.046c-1.881.004-3.053-1.97-2.109-3.553l9.292-16.844z" fill="url(#aq)" fill-rule="nonzero" transform="rotate(35 17.083 22.371)"/><path d="M14.953 13.378c.944-1.584 3.296-1.589 4.233-.01l10.213 17.21c.938 1.58-.242 3.56-2.124 3.563l-20.504.046c-1.882.004-3.053-1.97-2.109-3.553l10.29-17.256z" fill="url(#ar)" fill-rule="nonzero" transform="rotate(35 17.028 23.187)"/><path d="M14.953 13.378c.944-1.584 3.296-1.589 4.233-.01l10.213 17.21c.938 1.58-.242 3.56-2.124 3.563l-20.504.046c-1.882.004-3.053-1.97-2.109-3.553l10.29-17.256z" fill="url(#as)" fill-rule="nonzero" opacity=".829" transform="rotate(35 17.028 23.187)"/><path d="M14.953 13.378c.944-1.584 3.296-1.589 4.233-.01l10.213 17.21c.938 1.58-.242 3.56-2.124 3.563l-20.504.046c-1.882.004-3.053-1.97-2.109-3.553l10.29-17.256z" stroke="url(#at)" stroke-width=".4" opacity=".703" stroke-linecap="round" stroke-linejoin="round" transform="rotate(35 17.028 23.187)"/><ellipse fill="url(#au)" fill-rule="nonzero" opacity=".604" transform="rotate(41 22.675 22.637)" cx="22.675" cy="22.637" rx="3.198" ry="9.588"/><ellipse fill="url(#au)" fill-rule="nonzero" opacity=".604" transform="rotate(41 22.675 22.637)" cx="22.675" cy="22.637" rx="3.198" ry="9.588"/><path fill="#1C2E49" d="M20.454 24.11l-.238.2.924 2.216.188-.238z"/><path d="M15.238 6.887l5.43-3.709 9.942-.015-2.251 5.582-5.144.008-3.584 2.788-2.066 4.617 4.116 6.067 4.375.846-.004 2.422-7.376-.675-6.21-8.652 2.772-9.279z" fill="url(#av)" fill-rule="nonzero" transform="scale(-1 1) rotate(21 0 -101.883)"/><path d="M15.238 6.887l5.43-3.709 9.942-.015-2.251 5.582-5.144.008-3.584 2.788-2.066 4.617 4.116 6.067 4.375.846-.004 2.422-7.376-.675-6.21-8.652 2.772-9.279z" fill="url(#aw)" fill-rule="nonzero" opacity=".829" transform="scale(-1 1) rotate(21 0 -101.883)"/></g></g><circle stroke="url(#ax)" stroke-width="2" cx="60" cy="60" r="59"/></g></svg>