<svg width="120" height="120" fill="none" xmlns="http://www.w3.org/2000/svg"><circle cx="60" cy="60" r="60" fill="#0C1321"/><mask id="a" style="mask-type:alpha" maskUnits="userSpaceOnUse" x="0" y="0" width="120" height="120"><circle cx="60" cy="60" r="60" fill="#fff"/></mask><g mask="url(#a)"><path d="M59.473 14.883C59.165.977 70.333 13.07 71.743-1" stroke="url(#bi5qa70wvb)" stroke-width="2.16"/><rect width="6.327" height="4.915" rx="1.526" transform="matrix(1 0 0 -1 56.582 16.542)" fill="#21324E"/><rect width="9.49" height="4.096" rx="1.526" transform="matrix(1 0 0 -1 55 19)" fill="url(#8si170dpvc)"/></g><circle cx="60" cy="60" r="59" stroke="url(#qfg3bn069d)" stroke-width="2"/><path d="M11.232 18.628C5.918 8.622 21.545 1.95 27.28 12.421" stroke="#253857" stroke-width="3"/><rect width="5.714" height="4.905" rx="1.59" transform="scale(1 -1) rotate(28 48.634 8.826)" fill="#21324E"/><rect width="10" height="4.191" rx="1.59" transform="scale(1 -1) rotate(28 53.906 5.575)" fill="url(#8kshii319e)"/><rect opacity=".518" width="10" height="4.191" rx="1.59" transform="scale(1 -1) rotate(28 53.906 5.575)" fill="url(#xgnh5oia3f)"/><path d="M108.298 18.628c5.314-10.006-10.313-16.678-16.047-6.207" stroke="#253857" stroke-width="3"/><rect x="109.694" y="21.799" width="5.714" height="4.905" rx="1.59" transform="rotate(-152 109.694 21.8)" fill="#21324E"/><rect x="110.602" y="24.655" width="10" height="4.191" rx="1.59" transform="rotate(-152 110.602 24.655)" fill="url(#stfg29hjwg)"/><rect opacity=".518" x="110.602" y="24.655" width="10" height="4.191" rx="1.59" transform="rotate(-152 110.602 24.655)" fill="url(#qcid6ngt6h)"/><path d="M50 23.966L36.015 10.692" stroke="#6EDCC4" stroke-width="2" stroke-linejoin="round"/><path fill-rule="evenodd" clip-rule="evenodd" d="M15.5 93.186h90l2.185 9.095c1.435 5.974-3.093 11.719-9.237 11.719H22.552c-6.144 0-10.672-5.745-9.237-11.719l2.185-9.095z" fill="#09222D"/><path d="M15.5 90.454h90l1.943 7.544c1.548 6.012-2.992 11.869-9.2 11.869H22.757c-6.209 0-10.748-5.857-9.2-11.869l1.943-7.544z" fill="url(#ms27oa8m1i)"/><mask id="b" style="mask-type:alpha" maskUnits="userSpaceOnUse" x="13" y="90" width="95" height="20"><path d="M15.5 90.454h90l1.943 7.544c1.548 6.012-2.992 11.869-9.2 11.869H22.757c-6.209 0-10.748-5.857-9.2-11.869l1.943-7.544z" fill="#fff"/></mask><g mask="url(#b)"><path opacity=".518" d="M15.5 90.454h90l1.943 7.544c1.548 6.012-2.992 11.869-9.2 11.869H22.757c-6.209 0-10.748-5.857-9.2-11.869l1.943-7.544z" fill="url(#ng7waxylfk)"/><path fill-rule="evenodd" clip-rule="evenodd" d="M13.146 93.463h95.238l2.116 12h-100l2.646-12z" fill="url(#0qn4wfp3vl)"/><path d="M17.5 95.454h86a5 5 0 01-5 5h-76a5 5 0 01-5-5z" fill="#09222D"/></g><rect x="64.486" y="111.398" width="2.199" height="1.502" rx=".751" fill="#2DCDBD"/><rect x="60.657" y="111.398" width="2.199" height="1.502" rx=".751" fill="#103C50"/><rect x="56.829" y="111.398" width="2.199" height="1.502" rx=".751" fill="#2DCDBD"/><rect x="53" y="111.398" width="2.199" height="1.502" rx=".751" fill="#103C50"/><rect x="95.486" y="97.398" width="2.199" height="1.502" rx=".751" fill="#2DCDBD"/><rect x="91.486" y="97.398" width="2.199" height="1.502" rx=".751" fill="#103C50"/><rect x="5" y="17.903" width="110" height="78.301" rx="14" fill="url(#0nqmmqjgbm)"/><rect opacity=".518" x="5" y="17.903" width="110" height="78.301" rx="14" fill="url(#sz9b4fj7ln)"/><rect x="8" y="20.876" width="104" height="72.354" rx="13" fill="#111B2C"/><rect opacity=".222" x="8" y="20.876" width="104" height="72.354" rx="13" fill="url(#0vyww35bvo)"/><mask id="c" style="mask-type:alpha" maskUnits="userSpaceOnUse" x="8" y="20" width="104" height="74"><rect x="8" y="20.876" width="104" height="72.354" rx="13" fill="#fff"/></mask><g mask="url(#c)"><g filter="url(#vjg7sog82q)"><path fill="url(#eq4hpke6lr)" d="M14 28.805h15v3.431H14z"/></g><path opacity=".146" fill="#6EDCC4" d="M32 28.805h75v3.431H32zm-18 5.49h34v3.431H14z"/><g opacity=".164" stroke-width=".55"><path d="M68 66.469v8.309h6.657v5.1h-4v7.959h10.2v5.393" stroke="url(#9qua711g6s)"/><path d="M59.267 66.469V82.81h3.776v2.986h-6.028v7.434" stroke="url(#5e91y9ucut)"/><path d="M86.75 66.469v10.516H96v6.88h5.172v9.365" stroke="url(#ilf4aguqgu)"/><path d="M23.984 66.469v7.067h7.376v6.343h-14V93.23" stroke="url(#dbtdk398nv)"/><path d="M29.491 93.288V87.87h12.437v-5.636h8.757V66.47" stroke="url(#9xae6ixwlw)"/></g><path opacity=".045" fill-rule="evenodd" clip-rule="evenodd" d="M10.344 48.668l-.982 5.06H22.52l-.442 1.775H8.94L7 66.47h5.3l1.043-6.067h6.708s3.416.044 4.779-1.214c1.363-1.259 2.435-3.029 2.722-4.675.287-1.646.517-3.724-2.064-5.28-.794-.478-1.03-.485-2.98-.542l-.745-.023c-2.497-.08-11.419 0-11.419 0zm20.19 0h18.509L48 53.682H29.491l1.043-5.014zm16.032 12.787H28.058l-1.043 5.014h18.508l1.043-5.014zm-17.075-6.121h13.896L42.344 59.7H28.45l1.042-4.366zm17.851 11.135l.933-5.014H61.26l.382-1.755s-9.209-.256-10.514-.905c-1.304-.65-3.128-3.772-.891-6.912 2.236-3.14 5.768-3.215 5.768-3.215H89s0 1.546-1.697 3.215c-1.696 1.668-4.46 1.8-4.46 1.8h-5.19l-2.375 12.786h-5.354l2.423-12.787H54.705v.908h8.252c2.549 0 4.56 1.925 3.674 6.388-.886 4.463-5.71 5.491-5.71 5.491H47.342z" fill="#6EDCC4"/><path opacity=".043" fill-rule="evenodd" clip-rule="evenodd" d="M40.344 48.668l-.982 5.06H52.52l-.442 1.775H38.94L37 66.47h5.3l1.044-6.067h6.707s3.416.044 4.779-1.214c1.363-1.259 2.435-3.029 2.722-4.675.287-1.646.517-3.724-2.064-5.28-.794-.478-1.03-.485-2.98-.542l-.745-.023c-2.497-.08-11.419 0-11.419 0zm20.19 0h18.509L78 53.682H59.491l1.043-5.014zm16.032 12.787H58.058l-1.043 5.014h18.508l1.043-5.014zm-17.075-6.121h13.896L72.344 59.7H58.45l1.042-4.366zm17.851 11.135l.933-5.014H91.26l.382-1.755s-9.209-.256-10.513-.905c-1.305-.65-3.129-3.772-.892-6.912 2.236-3.14 5.768-3.215 5.768-3.215H119s0 1.546-1.697 3.215c-1.696 1.668-4.46 1.8-4.46 1.8h-5.19l-2.375 12.786h-5.354l2.423-12.787H84.705v.908h8.252c2.549 0 4.56 1.925 3.674 6.388-.886 4.463-5.71 5.491-5.71 5.491H77.342z" fill="#6EDCC4"/><path opacity=".109" fill-rule="evenodd" clip-rule="evenodd" d="M30.344 48.668l-.982 5.06H42.52l-.442 1.775H28.94L27 66.47h5.3l1.044-6.067h6.707s3.416.044 4.779-1.214c1.363-1.259 2.435-3.029 2.722-4.675.287-1.646.517-3.724-2.064-5.28-.794-.478-1.03-.485-2.98-.542l-.745-.023c-2.497-.08-11.419 0-11.419 0zm20.19 0h18.509L68 53.682H49.491l1.043-5.014zm16.032 12.787H48.058l-1.043 5.014h18.508l1.043-5.014zm-17.075-6.121h13.896L62.344 59.7H48.45l1.042-4.366zm17.851 11.135l.933-5.014H81.26l.382-1.755s-9.209-.256-10.513-.905c-1.305-.65-3.129-3.772-.892-6.912 2.236-3.14 5.768-3.215 5.768-3.215H109s0 1.546-1.697 3.215c-1.696 1.668-4.46 1.8-4.46 1.8h-5.19l-2.375 12.786h-5.354l2.423-12.787H74.705v.908h8.252c2.549 0 4.56 1.925 3.674 6.388-.886 4.463-5.71 5.491-5.71 5.491H67.342z" fill="#6EDCC4"/><path opacity=".109" fill-rule="evenodd" clip-rule="evenodd" d="M17.344 48.668l-.982 5.06H29.52l-.442 1.775H15.94L14 66.47h5.3l1.043-6.067h6.708s3.416.044 4.779-1.214c1.363-1.259 2.435-3.029 2.722-4.675.287-1.646.517-3.724-2.064-5.28-.794-.478-1.03-.485-2.98-.542l-.745-.023c-2.497-.08-11.419 0-11.419 0zm20.19 0h18.509L55 53.682H36.491l1.043-5.014zm16.032 12.787H35.058l-1.043 5.014h18.508l1.043-5.014zm-17.075-6.121h13.896L49.344 59.7H35.45l1.042-4.366zm17.851 11.135l.933-5.014H68.26l.382-1.755s-9.209-.256-10.513-.905c-1.305-.65-3.129-3.772-.892-6.912 2.236-3.14 5.768-3.215 5.768-3.215H96s0 1.546-1.697 3.215c-1.696 1.668-4.46 1.8-4.46 1.8h-5.19l-2.375 12.786h-5.354l2.423-12.787H61.705v.908h8.252c2.549 0 4.56 1.925 3.674 6.388-.886 4.463-5.71 5.491-5.71 5.491H54.342z" fill="#6EDCC4"/></g><g filter="url(#za4uda01sx)"><path fill-rule="evenodd" clip-rule="evenodd" d="M24.344 48.668l-.982 5.06H36.52l-.442 1.775H22.94L21 66.47h5.3l1.043-6.068h6.708s3.416.045 4.779-1.213c1.363-1.26 2.435-3.03 2.722-4.675.287-1.647.517-3.724-2.064-5.28-.794-.479-1.03-.485-2.98-.543l-.745-.022c-2.497-.08-11.419 0-11.419 0zm20.19 0h18.509L62 53.682H43.491l1.043-5.014zm16.032 12.787H42.058l-1.043 5.014h18.508l1.043-5.014zm-17.075-6.121h13.896l-1.043 4.365H42.45l1.042-4.365zm17.851 11.135l.933-5.014H75.26l.382-1.755s-9.209-.256-10.513-.905c-1.305-.65-3.129-3.773-.892-6.913 2.236-3.14 5.768-3.214 5.768-3.214H103s0 1.546-1.697 3.214c-1.696 1.669-4.46 1.8-4.46 1.8h-5.19L89.278 66.47h-5.354l2.423-12.787H68.705v.908h8.252c2.549 0 4.56 1.925 3.674 6.388-.886 4.463-5.71 5.49-5.71 5.49H61.342z" fill="url(#vi684i2chy)"/></g><path opacity=".186" fill-rule="evenodd" clip-rule="evenodd" d="M21 20.876c-7.18 0-13 5.82-13 13V80.23c0 .372.016.74.046 1.105 5.773-32.59 34.737-57.369 69.6-57.369 12.447 0 24.142 3.16 34.299 8.705-.608-6.615-6.172-11.795-12.945-11.795H21z" fill="url(#6mhin7o7xz)"/><path d="M35.852 10.14l48.32.552-18.785 36.035" stroke="#6EDCC4" stroke-width="2" stroke-linejoin="round"/><ellipse opacity=".173" cx="66.5" cy="47.142" rx="13.5" ry="13.38" fill="url(#0upqnjmydA)"/><ellipse opacity=".29" cx="66.5" cy="47.142" rx="13.5" ry="13.38" fill="url(#dm8wv703vB)"/><ellipse cx="65.621" cy="47.744" rx="3.5" ry="3.469" fill="url(#5u8k67i94C)"/><path d="M62.05 48.415a3.18 3.18 0 01.708-2.608A3.24 3.24 0 0168 46.23a3.243 3.243 0 00-2.21-.399 3.364 3.364 0 00-.564-.048 3.213 3.213 0 00-3.176 2.632z" fill="#fff" fill-opacity=".2"/><ellipse cx="36.024" cy="10.036" rx="2.976" ry="2.911" fill="url(#vxvvyc6cdD)"/><path d="M33.02 10.14a2.813 2.813 0 01-.02-.323c0-1.447 1.121-2.659 2.594-2.803 1.472-.144 2.816.827 3.11 2.245a2.885 2.885 0 00-.477-.42 2.913 2.913 0 00-3.06-1.097c-1.154.289-2.007 1.242-2.147 2.398z" fill="#fff" fill-opacity=".2"/><ellipse cx="83.508" cy="10.469" rx="3.492" ry="3.469" fill="url(#yaaog8wglE)"/><path d="M80.03 10.995a3.32 3.32 0 012.634-3.686 3.342 3.342 0 013.742 1.946 3.332 3.332 0 00-.766-.223 3.354 3.354 0 00-3.411-.727 3.32 3.32 0 00-2.2 2.69z" fill="#fff" fill-opacity=".2"/><path opacity=".137" d="M17.857 98.128c-1.44.644 1.273.524 1.273 2.033s6.16.677 5.23 4.534c-.93 3.857-7.37 1.007-8.44.806-.834-.156-1.6-.911-2.381-1.283" stroke="#121B2A" stroke-width="2"/><path d="M17.857 97.128c-1.44.644-2.83.644-2.092 2.335.738 1.692 9.028 2.764 7.437 5.604-1.59 2.84-7.878-.652-10.073-.652-2.194 0-3.454 4.648.532 3.221" stroke="url(#0tx2qzfk9F)" stroke-width="2.273"/><defs><linearGradient id="bi5qa70wvb" x1="75.713" y1="8.204" x2="61.941" y2="15.197" gradientUnits="userSpaceOnUse"><stop stop-color="#253857" stop-opacity=".01"/><stop offset="1" stop-color="#253857"/></linearGradient><linearGradient id="8si170dpvc" x1="12.536" y1="6.726" x2="12.536" y2="0" gradientUnits="userSpaceOnUse"><stop stop-color="#5B79A2"/><stop offset="1" stop-color="#182439"/></linearGradient><linearGradient id="qfg3bn069d" x1="-25.227" y1="22.708" x2="4.038" y2="134.632" gradientUnits="userSpaceOnUse"><stop stop-color="#6CDBC3"/><stop offset="1" stop-color="#1EAD8E"/></linearGradient><linearGradient id="8kshii319e" x1="13.21" y1="6.882" x2="13.21" y2="0" gradientUnits="userSpaceOnUse"><stop stop-color="#5B79A2"/><stop offset="1" stop-color="#182439"/></linearGradient><linearGradient id="stfg29hjwg" x1="123.812" y1="31.537" x2="123.812" y2="24.655" gradientUnits="userSpaceOnUse"><stop stop-color="#5B79A2"/><stop offset="1" stop-color="#182439"/></linearGradient><linearGradient id="ms27oa8m1i" x1="10.5" y1="109.867" x2="110.5" y2="109.867" gradientUnits="userSpaceOnUse"><stop stop-color="#5B79A2"/><stop offset="1" stop-color="#2E4469"/></linearGradient><linearGradient id="0qn4wfp3vl" x1="10.5" y1="93.463" x2="10.5" y2="105.463" gradientUnits="userSpaceOnUse"><stop stop-color="#111B2C"/><stop offset="1" stop-color="#111B2C" stop-opacity=".01"/></linearGradient><linearGradient id="0nqmmqjgbm" x1="5" y1="96.204" x2="115" y2="96.204" gradientUnits="userSpaceOnUse"><stop stop-color="#5B79A2"/><stop offset="1" stop-color="#2E4469"/></linearGradient><linearGradient id="eq4hpke6lr" x1="14" y1="28.805" x2="14" y2="32.236" gradientUnits="userSpaceOnUse"><stop stop-color="#B4FFF3"/><stop offset=".482" stop-color="#8CE6D4"/><stop offset="1" stop-color="#6EDCC4"/></linearGradient><linearGradient id="9qua711g6s" x1="74.428" y1="106.611" x2="95.32" y2="96.574" gradientUnits="userSpaceOnUse"><stop stop-color="#35BA9D" stop-opacity=".01"/><stop offset="1" stop-color="#6EDCC4"/></linearGradient><linearGradient id="5e91y9ucut" x1="64.028" y1="93.23" x2="64.028" y2="57.72" gradientUnits="userSpaceOnUse"><stop stop-color="#35BA9D" stop-opacity=".01"/><stop offset="1" stop-color="#6EDCC4"/></linearGradient><linearGradient id="ilf4aguqgu" x1="109.313" y1="79.85" x2="85.372" y2="65.284" gradientUnits="userSpaceOnUse"><stop stop-color="#35BA9D" stop-opacity=".01"/><stop offset="1" stop-color="#6EDCC4"/></linearGradient><linearGradient id="dbtdk398nv" x1="24.36" y1="106.611" x2="46.344" y2="95.11" gradientUnits="userSpaceOnUse"><stop stop-color="#35BA9D" stop-opacity=".01"/><stop offset="1" stop-color="#6EDCC4"/></linearGradient><linearGradient id="9xae6ixwlw" x1="40.088" y1="106.698" x2="66.181" y2="86.078" gradientUnits="userSpaceOnUse"><stop stop-color="#35BA9D" stop-opacity=".01"/><stop offset="1" stop-color="#6EDCC4"/></linearGradient><linearGradient id="vi684i2chy" x1="21" y1="48.629" x2="21" y2="66.469" gradientUnits="userSpaceOnUse"><stop stop-color="#B4FFF3"/><stop offset=".482" stop-color="#8CE6D4"/><stop offset="1" stop-color="#6EDCC4"/></linearGradient><linearGradient id="5u8k67i94C" x1="62.121" y1="45.066" x2="62.121" y2="52.004" gradientUnits="userSpaceOnUse"><stop stop-color="#6EDCC4"/><stop offset="1" stop-color="#1AAB8B"/></linearGradient><linearGradient id="vxvvyc6cdD" x1="33.049" y1="7.789" x2="33.049" y2="13.611" gradientUnits="userSpaceOnUse"><stop stop-color="#6EDCC4"/><stop offset="1" stop-color="#1AAB8B"/></linearGradient><linearGradient id="yaaog8wglE" x1="80.016" y1="7.791" x2="80.016" y2="14.729" gradientUnits="userSpaceOnUse"><stop stop-color="#6EDCC4"/><stop offset="1" stop-color="#1AAB8B"/></linearGradient><linearGradient id="0tx2qzfk9F" x1="13.815" y1="102.518" x2="13.815" y2="108.501" gradientUnits="userSpaceOnUse"><stop stop-color="#243754"/><stop offset="1" stop-color="#131E30"/></linearGradient><radialGradient id="xgnh5oia3f" cx="0" cy="0" r="1" gradientUnits="userSpaceOnUse" gradientTransform="matrix(7.35 0 0 3.0805 1.03 .889)"><stop stop-color="#26F9FF" stop-opacity=".827"/><stop offset="1" stop-color="#3CE4C0" stop-opacity=".01"/></radialGradient><radialGradient id="qcid6ngt6h" cx="0" cy="0" r="1" gradientUnits="userSpaceOnUse" gradientTransform="matrix(7.35 0 0 3.0805 111.632 25.543)"><stop stop-color="#26F9FF" stop-opacity=".827"/><stop offset="1" stop-color="#3CE4C0" stop-opacity=".01"/></radialGradient><radialGradient id="ng7waxylfk" cx="0" cy="0" r="1" gradientUnits="userSpaceOnUse" gradientTransform="matrix(73.5 0 0 14.2688 20.8 94.57)"><stop stop-color="#26F9FF" stop-opacity=".827"/><stop offset="1" stop-color="#3CE4C0" stop-opacity=".01"/></radialGradient><radialGradient id="sz9b4fj7ln" cx="0" cy="0" r="1" gradientUnits="userSpaceOnUse" gradientTransform="matrix(80.85 0 0 57.5512 16.33 34.502)"><stop stop-color="#26F9FF" stop-opacity=".827"/><stop offset="1" stop-color="#3CE4C0" stop-opacity=".01"/></radialGradient><radialGradient id="0vyww35bvo" cx="0" cy="0" r="1" gradientUnits="userSpaceOnUse" gradientTransform="matrix(76.44 0 0 53.1802 18.712 36.215)"><stop stop-color="#26F9FF" stop-opacity=".827"/><stop offset="1" stop-color="#3CE4C0" stop-opacity=".01"/></radialGradient><radialGradient id="6mhin7o7xz" cx="0" cy="0" r="1" gradientUnits="userSpaceOnUse" gradientTransform="rotate(45.721 -16.605 56.097) scale(78.7613 87.3788)"><stop stop-color="#26F9FF" stop-opacity=".827"/><stop offset="1" stop-color="#3CE4C0" stop-opacity=".01"/></radialGradient><radialGradient id="0upqnjmydA" cx="0" cy="0" r="1" gradientUnits="userSpaceOnUse" gradientTransform="matrix(10.1647 0 0 10.0747 65.281 48.447)"><stop stop-color="#6EDCC4"/><stop offset="1" stop-color="#00FFC7" stop-opacity=".01"/></radialGradient><radialGradient id="dm8wv703vB" cx="0" cy="0" r="1" gradientUnits="userSpaceOnUse" gradientTransform="matrix(10.1647 0 0 10.0747 65.281 48.447)"><stop stop-color="#6EDCC4"/><stop offset="1" stop-color="#00FFC7" stop-opacity=".01"/></radialGradient><filter id="vjg7sog82q" x="-1" y="13.805" width="45" height="33.431" filterUnits="userSpaceOnUse" color-interpolation-filters="sRGB"><feFlood flood-opacity="0" result="BackgroundImageFix"/><feColorMatrix in="SourceAlpha" values="0 0 0 0 0 0 0 0 0 0 0 0 0 0 0 0 0 0 127 0" result="hardAlpha"/><feOffset/><feGaussianBlur stdDeviation="7.5"/><feColorMatrix values="0 0 0 0 0.403922 0 0 0 0 0.843137 0 0 0 0 0.74902 0 0 0 0.42447 0"/><feBlend in2="BackgroundImageFix" result="effect1_dropShadow_0_4310"/><feBlend in="SourceGraphic" in2="effect1_dropShadow_0_4310" result="shape"/></filter><filter id="za4uda01sx" x="6" y="33.633" width="112" height="47.836" filterUnits="userSpaceOnUse" color-interpolation-filters="sRGB"><feFlood flood-opacity="0" result="BackgroundImageFix"/><feColorMatrix in="SourceAlpha" values="0 0 0 0 0 0 0 0 0 0 0 0 0 0 0 0 0 0 127 0" result="hardAlpha"/><feOffset/><feGaussianBlur stdDeviation="7.5"/><feColorMatrix values="0 0 0 0 0.403922 0 0 0 0 0.843137 0 0 0 0 0.74902 0 0 0 0.42447 0"/><feBlend in2="BackgroundImageFix" result="effect1_dropShadow_0_4310"/><feBlend in="SourceGraphic" in2="effect1_dropShadow_0_4310" result="shape"/></filter></defs></svg>