<svg width="120" height="121" fill="none" xmlns="http://www.w3.org/2000/svg"><mask id="a" style="mask-type:alpha" maskUnits="userSpaceOnUse" x="0" y="0" width="120" height="120"><circle cx="60" cy="60" r="60" fill="url(#3qxv3oq1na)"/></mask><g mask="url(#a)"><path fill="url(#b8rs5lbswc)" d="M-.5 0h122v120H-.5z"/><path opacity=".829" fill="url(#neap64drad)" fill-opacity=".3" d="M-.5 0h122v120H-.5z"/><g opacity=".59"><path fill-rule="evenodd" clip-rule="evenodd" d="M80.361 59.132c0-27.573-9.041-49.925-20.194-49.925-11.153 0-20.194 22.352-20.194 49.925 0 27.572 9.041 49.924 20.194 49.924 11.153 0 20.194-22.352 20.194-49.924zm-36.14 0c0-25.428 8.191-45.676 15.946-45.676 7.755 0 15.945 20.248 15.945 45.676s-8.19 45.676-15.945 45.676c-7.755 0-15.945-20.249-15.945-45.676z" fill="url(#mdog6d5ioe)"/><path fill-rule="evenodd" clip-rule="evenodd" d="M70.264 76.62c23.879-13.786 38.715-32.792 33.139-42.45-5.577-9.659-29.455-6.313-53.333 7.473C26.192 55.43 11.355 74.436 16.931 84.094c5.577 9.659 29.455 6.313 53.333-7.473zm-18.07-31.297c22.021-12.714 43.652-15.745 47.53-9.029C103.6 43.01 90.16 60.227 68.14 72.941 46.119 85.655 24.488 88.686 20.61 81.97c-3.877-6.716 9.563-23.933 31.584-36.647z" fill="url(#hfzesn6jsf)"/><ellipse opacity=".574" cx="88.547" cy="60.434" rx="5.842" ry="4.249" transform="rotate(-140 88.547 60.434)" fill="url(#wdbslh0xtg)"/><ellipse opacity=".574" cx="57.636" cy="80.019" rx="6.904" ry="4.249" transform="rotate(-154 57.636 80.02)" fill="url(#chgvcpyzzh)"/><path fill-rule="evenodd" clip-rule="evenodd" d="M50.07 76.62c23.878 13.787 47.756 17.133 53.333 7.474 5.576-9.658-9.26-28.664-33.139-42.45C46.386 27.856 22.508 24.51 16.931 34.17c-5.576 9.658 9.26 28.664 33.139 42.45zm18.07-31.297c22.02 12.714 35.46 29.93 31.583 36.647-3.877 6.716-25.508 3.685-47.529-9.029-22.02-12.714-35.46-29.93-31.583-36.647 3.877-6.716 25.508-3.685 47.529 9.029z" fill="url(#egdrfcofii)"/><ellipse cx="88.726" cy="28.726" rx="9.8" ry="9.612" transform="rotate(-45 88.726 28.726)" fill="url(#k39ukfr4vj)"/><ellipse opacity=".829" cx="88.726" cy="28.726" rx="9.8" ry="9.612" transform="rotate(-45 88.726 28.726)" fill="url(#s6w5x9ejrk)"/><ellipse opacity=".829" cx="88.726" cy="28.726" rx="9.8" ry="9.612" transform="rotate(-45 88.726 28.726)" stroke="url(#ig2lg3t6wl)" stroke-width=".3"/><circle cx="30.843" cy="57.843" r="7.206" transform="rotate(120 30.843 57.843)" fill="url(#bo8si2hgmm)"/><circle opacity=".829" cx="30.843" cy="57.843" r="6.956" transform="rotate(120 30.843 57.843)" stroke="url(#8o9p1dvd1n)" stroke-width=".5"/><circle opacity=".829" cx="30.843" cy="57.843" r="7.206" transform="rotate(120 30.843 57.843)" fill="url(#q3uodk0zqo)"/><circle cx="84.408" cy="85.908" r="13.908" fill="url(#f83qrdsbcp)"/><circle opacity=".829" cx="84.408" cy="85.908" r="13.908" fill="url(#8juiddm2uq)"/><circle opacity=".829" cx="84.408" cy="85.908" r="13.908" stroke="url(#5c25fij7gr)" stroke-width=".3"/></g><g filter="url(#3v8zchtp9s)"><circle cx="60.5" cy="59" r="6" fill="url(#ixvcnk1tvt)"/></g><circle cx="60" cy="60" r="59" stroke="url(#77oj4bjhiu)" stroke-width="2"/></g><circle cx="26.5" cy="21" r="17" transform="rotate(-180 26.5 21)" fill="url(#y87dlqxqrv)"/><circle opacity=".829" cx="26.5" cy="21" r="17" transform="rotate(-180 26.5 21)" fill="url(#esslxlh0qw)"/><circle opacity=".829" cx="26.5" cy="21" r="17" transform="rotate(-180 26.5 21)" stroke="url(#awkreq8fgx)" stroke-width=".3"/><circle cx="33" cy="105.5" r="14.5" transform="rotate(90 33 105.5)" fill="url(#gm9udlmtpy)"/><circle opacity=".829" cx="33" cy="105.5" r="14.5" transform="rotate(90 33 105.5)" fill="url(#kcygpv62jz)"/><circle opacity=".829" cx="33" cy="105.5" r="14.5" transform="rotate(90 33 105.5)" stroke="url(#1ksrt6wtgA)" stroke-width=".3"/><circle opacity=".829" cx="33" cy="105.5" r="14.5" transform="rotate(90 33 105.5)" fill="url(#ui3m6df2xB)"/><circle cx="16.354" cy="65.354" r="2.193" transform="rotate(-158 16.354 65.354)" fill="url(#ikarjg75lC)"/><path fill-rule="evenodd" clip-rule="evenodd" d="M15.399 66.883a2.079 2.079 0 01-1.005-.857 2.088 2.088 0 103.806-1.615 2.088 2.088 0 01-2.8 2.472z" fill="#fff" fill-opacity=".2"/><path d="M26.5 59l-11 6 48 28.5 31.855-15.944" stroke="url(#lx6girt58D)" stroke-width="1.8" stroke-linejoin="round"/><circle cx="63.577" cy="92.578" r="3.132" transform="rotate(-158 63.577 92.578)" fill="url(#6qwp3q3wrE)"/><path fill-rule="evenodd" clip-rule="evenodd" d="M62.213 94.76a2.97 2.97 0 01-1.436-1.223 2.983 2.983 0 105.437-2.308 2.983 2.983 0 01-4 3.531z" fill="#fff" fill-opacity=".2"/><g style="mix-blend-mode:lighten" filter="url(#1yslml8z1F)"><circle cx="94.227" cy="78.142" r="8" transform="rotate(-158 94.227 78.142)" fill="#C42E6C" fill-opacity=".34"/></g><g style="mix-blend-mode:lighten" filter="url(#vicw2p90zG)"><circle cx="94.227" cy="78.142" r="4" transform="rotate(-158 94.227 78.142)" fill="#C42E6C"/></g><circle cx="94.227" cy="78.142" r="2.542" transform="rotate(-158 94.227 78.142)" fill="url(#o4hgqsq7bH)"/><path fill-rule="evenodd" clip-rule="evenodd" d="M93.521 80.16a2.025 2.025 0 01-.98-.834 2.034 2.034 0 103.707-1.573 2.034 2.034 0 01-2.728 2.408z" fill="#fff" fill-opacity=".2"/><defs><radialGradient id="3qxv3oq1na" cx="0" cy="0" r="1" gradientUnits="userSpaceOnUse" gradientTransform="matrix(0 120 -120 0 60 0)"><stop stop-color="#263A5E"/><stop offset="1" stop-color="#0C1321"/></radialGradient><radialGradient id="b8rs5lbswc" cx="0" cy="0" r="1" gradientUnits="userSpaceOnUse" gradientTransform="rotate(50.906 -32.78 93.554) scale(92.7699 94.316)"><stop stop-color="#2D446D"/><stop offset="1" stop-color="#0C1321"/></radialGradient><radialGradient id="neap64drad" cx="0" cy="0" r="1" gradientUnits="userSpaceOnUse" gradientTransform="matrix(54.50002 1.99999 -1.9581 53.35858 64 60)"><stop stop-color="#D12A6F"/><stop offset="1" stop-color="#83234B" stop-opacity=".01"/></radialGradient><radialGradient id="wdbslh0xtg" cx="0" cy="0" r="1" gradientUnits="userSpaceOnUse" gradientTransform="matrix(6.44858 0 0 3.16858 88.547 60.434)"><stop/><stop offset=".734" stop-opacity=".137"/><stop offset="1" stop-opacity=".01"/></radialGradient><radialGradient id="chgvcpyzzh" cx="0" cy="0" r="1" gradientUnits="userSpaceOnUse" gradientTransform="matrix(7.62105 0 0 3.16858 57.636 80.02)"><stop/><stop offset=".734" stop-opacity=".137"/><stop offset="1" stop-opacity=".01"/></radialGradient><radialGradient id="k39ukfr4vj" cx="0" cy="0" r="1" gradientUnits="userSpaceOnUse" gradientTransform="matrix(20.43326 8.18058 -8.19742 20.47532 76.632 25.454)"><stop stop-color="#F5D8E4"/><stop offset=".351" stop-color="#54729A"/><stop offset=".526" stop-color="#385076"/><stop offset="1" stop-color="#131E32"/></radialGradient><radialGradient id="s6w5x9ejrk" cx="0" cy="0" r="1" gradientUnits="userSpaceOnUse" gradientTransform="matrix(27.092 0 0 63.0272 110.422 29.252)"><stop stop-color="#D12A6F"/><stop offset="1" stop-color="#83234B" stop-opacity=".01"/></radialGradient><radialGradient id="bo8si2hgmm" cx="0" cy="0" r="1" gradientUnits="userSpaceOnUse" gradientTransform="rotate(49.886 -41.62 55.919) scale(13.4206 20.0997)"><stop stop-color="#fff"/><stop offset=".351" stop-color="#54729A"/><stop offset=".526" stop-color="#385076"/><stop offset="1" stop-color="#1C2B46"/></radialGradient><radialGradient id="q3uodk0zqo" cx="0" cy="0" r="1" gradientUnits="userSpaceOnUse" gradientTransform="matrix(18.693 -1.05246 2.49617 44.33509 48.025 59.29)"><stop stop-color="#D12A6F"/><stop offset="1" stop-color="#83234B" stop-opacity=".01"/></radialGradient><radialGradient id="f83qrdsbcp" cx="0" cy="0" r="1" gradientUnits="userSpaceOnUse" gradientTransform="matrix(27.5 24 -24 27.5 70.5 72)"><stop stop-color="#6BA0E2"/><stop offset=".305" stop-color="#54729A"/><stop offset=".526" stop-color="#385076"/><stop offset="1" stop-color="#1B273F"/></radialGradient><radialGradient id="8juiddm2uq" cx="0" cy="0" r="1" gradientUnits="userSpaceOnUse" gradientTransform="matrix(38.4507 0 0 91.1955 115.2 86.668)"><stop stop-color="#D12A6F"/><stop offset="1" stop-color="#83234B" stop-opacity=".01"/></radialGradient><radialGradient id="y87dlqxqrv" cx="0" cy="0" r="1" gradientUnits="userSpaceOnUse" gradientTransform="rotate(49.185 4 8.74) scale(43.6033)"><stop stop-color="#6BA0E2"/><stop offset=".305" stop-color="#54729A"/><stop offset=".526" stop-color="#385076"/><stop offset="1" stop-color="#1B273F"/></radialGradient><radialGradient id="esslxlh0qw" cx="0" cy="0" r="1" gradientUnits="userSpaceOnUse" gradientTransform="matrix(46.9982 0 0 111.468 64.137 21.93)"><stop stop-color="#D12A6F"/><stop offset="1" stop-color="#83234B" stop-opacity=".01"/></radialGradient><radialGradient id="gm9udlmtpy" cx="0" cy="0" r="1" gradientUnits="userSpaceOnUse" gradientTransform="rotate(25.407 -200.132 53.086) scale(34.9614)"><stop stop-color="#6BA0E2"/><stop offset=".305" stop-color="#54729A"/><stop offset=".526" stop-color="#385076"/><stop offset="1" stop-color="#1B273F"/></radialGradient><radialGradient id="kcygpv62jz" cx="0" cy="0" r="1" gradientUnits="userSpaceOnUse" gradientTransform="matrix(40.0867 0 0 95.0756 65.102 106.293)"><stop stop-color="#D12A6F"/><stop offset="1" stop-color="#83234B" stop-opacity=".01"/></radialGradient><radialGradient id="ui3m6df2xB" cx="0" cy="0" r="1" gradientUnits="userSpaceOnUse" gradientTransform="matrix(40.0867 0 0 95.0756 65.102 106.293)"><stop stop-color="#D12A6F"/><stop offset="1" stop-color="#83234B" stop-opacity=".01"/></radialGradient><linearGradient id="mdog6d5ioe" x1="62.744" y1="8.493" x2="15.206" y2="41.413" gradientUnits="userSpaceOnUse"><stop stop-color="#5F80AB"/><stop offset="1" stop-color="#1E2F4B"/></linearGradient><linearGradient id="hfzesn6jsf" x1="33.684" y1="-6.926" x2="-7.986" y2="79.633" gradientUnits="userSpaceOnUse"><stop stop-color="#5F80AB"/><stop offset="1" stop-color="#293F64"/></linearGradient><linearGradient id="egdrfcofii" x1="37.816" y1="15.993" x2="26.792" y2="86.633" gradientUnits="userSpaceOnUse"><stop stop-color="#5F80AB"/><stop offset="1" stop-color="#293F64"/></linearGradient><linearGradient id="ig2lg3t6wl" x1="78.927" y1="25.244" x2="85.334" y2="25.533" gradientUnits="userSpaceOnUse"><stop stop-color="#F4F6FB"/><stop offset="1" stop-color="#724676" stop-opacity="0"/></linearGradient><linearGradient id="8o9p1dvd1n" x1="26.34" y1="52.794" x2="29.943" y2="58.199" gradientUnits="userSpaceOnUse"><stop stop-color="#F4F6FB"/><stop offset="1" stop-color="#724676" stop-opacity="0"/></linearGradient><linearGradient id="5c25fij7gr" x1="72.996" y1="76.279" x2="79.594" y2="81.272" gradientUnits="userSpaceOnUse"><stop stop-color="#F4F6FB"/><stop offset="1" stop-color="#724676" stop-opacity="0"/></linearGradient><linearGradient id="ixvcnk1tvt" x1="49.712" y1="59" x2="49.712" y2="80.575" gradientUnits="userSpaceOnUse"><stop stop-color="#fff"/><stop offset="1" stop-color="#C42E6C"/></linearGradient><linearGradient id="77oj4bjhiu" x1="-25.227" y1="22.708" x2="4.038" y2="134.632" gradientUnits="userSpaceOnUse"><stop stop-color="#FF5E92"/><stop offset="1" stop-color="#ED4653"/></linearGradient><linearGradient id="awkreq8fgx" x1="12.551" y1="9.231" x2="20.615" y2="15.333" gradientUnits="userSpaceOnUse"><stop stop-color="#F4F6FB"/><stop offset="1" stop-color="#724676" stop-opacity="0"/></linearGradient><linearGradient id="1ksrt6wtgA" x1="21.103" y1="95.462" x2="27.981" y2="100.667" gradientUnits="userSpaceOnUse"><stop stop-color="#F4F6FB"/><stop offset="1" stop-color="#724676" stop-opacity="0"/></linearGradient><linearGradient id="ikarjg75lC" x1="21.182" y1="60.908" x2="8.818" y2="53.401" gradientUnits="userSpaceOnUse"><stop stop-color="#DD1E5B"/><stop offset="1" stop-color="#EFC7D8"/></linearGradient><linearGradient id="lx6girt58D" x1="26" y1="60" x2="21.733" y2="77.861" gradientUnits="userSpaceOnUse"><stop stop-color="#F4487D" stop-opacity="0"/><stop offset="1" stop-color="#FC3A78"/></linearGradient><linearGradient id="6qwp3q3wrE" x1="70.474" y1="86.226" x2="52.812" y2="75.501" gradientUnits="userSpaceOnUse"><stop stop-color="#DD1E5B"/><stop offset="1" stop-color="#EFC7D8"/></linearGradient><linearGradient id="o4hgqsq7bH" x1="93.519" y1="73.543" x2="89.407" y2="78.098" gradientUnits="userSpaceOnUse"><stop stop-color="#FB3B78"/><stop offset="1" stop-color="#EFC7D8"/></linearGradient><filter id="3v8zchtp9s" x="47.5" y="46" width="26" height="26" filterUnits="userSpaceOnUse" color-interpolation-filters="sRGB"><feFlood flood-opacity="0" result="BackgroundImageFix"/><feColorMatrix in="SourceAlpha" values="0 0 0 0 0 0 0 0 0 0 0 0 0 0 0 0 0 0 127 0" result="hardAlpha"/><feOffset/><feGaussianBlur stdDeviation="3.5"/><feColorMatrix values="0 0 0 0 0.951002 0 0 0 0 0.370525 0 0 0 0 0.610455 0 0 0 1 0"/><feBlend in2="BackgroundImageFix" result="effect1_dropShadow_42_5621"/><feBlend in="SourceGraphic" in2="effect1_dropShadow_42_5621" result="shape"/></filter><filter id="1yslml8z1F" x="78.672" y="62.587" width="31.109" height="31.109" filterUnits="userSpaceOnUse" color-interpolation-filters="sRGB"><feFlood flood-opacity="0" result="BackgroundImageFix"/><feBlend in="SourceGraphic" in2="BackgroundImageFix" result="shape"/><feGaussianBlur stdDeviation="3.776" result="effect1_foregroundBlur_42_5621"/></filter><filter id="vicw2p90zG" x="82.673" y="66.588" width="23.107" height="23.107" filterUnits="userSpaceOnUse" color-interpolation-filters="sRGB"><feFlood flood-opacity="0" result="BackgroundImageFix"/><feBlend in="SourceGraphic" in2="BackgroundImageFix" result="shape"/><feGaussianBlur stdDeviation="3.776" result="effect1_foregroundBlur_42_5621"/></filter></defs></svg>