<svg width="678" height="457" viewBox="0 0 678 457" fill="none" xmlns="http://www.w3.org/2000/svg">
    <g style="mix-blend-mode:luminosity" opacity=".05">
        <path fill="#328AF1" d="M201.494 42.236h-41.655V.626h41.655zM148.214 42.236h-41.655V.626h41.655zM94.934 42.236H53.28V.626h41.655zM201.494 95.458h-41.655v-41.61h41.655zM201.494 148.679h-41.655v-41.61h41.655z"/>
        <path fill-rule="evenodd" clip-rule="evenodd" d="M426.238.484h41.655v41.61h-41.655V.484zm-159.84 94.974h41.655v-41.61l.001 41.61h-41.656zM636 41.961h42V0h-42v41.962zm0 52.951h42V52.952h-42v41.961zm-.516 11.53v41.61h41.656v-41.61h-41.656zm-315.806-64.35h41.655V.485h-41.655v41.61zM201.494 308.202h-41.655v-41.609h41.655v41.609zM53.28 148.537h41.655v-41.61H53.28v41.61zm0-53.222h41.655v-41.61H53.28v41.61zm201.494-53.079h-41.655V.626h41.655v41.61zm-41.655 53.222h41.655v-41.61h-41.655v41.61zM308.053.626l.001 41.61h-41.656V.626h41.655zM212.15 148.537h41.655v-41.61H212.15v41.61zm94.935 106.443H265.43v-41.61h41.655v41.61zM467.893 95.315h-41.655v-41.61h41.655v41.61zm11.624 0h41.656v-41.61h-41.656v41.61zm.485 52.738v-41.61h41.655v41.61h-41.655zm-53.28-41.61v41.61h41.655v-41.61h-41.655zm-53.28 41.61v-41.61h41.655v41.61h-41.655zm-12.109-41.126h-41.655v41.61h41.655v-41.61zm-41.655-53.221h41.655v41.61h-41.655v-41.61zM41.655 41.61H0V0h41.655v41.61z" fill="url(#9lq0nrreta)" style="mix-blend-mode:luminosity"/>
        <g style="mix-blend-mode:luminosity" opacity=".37" fill="#328AF1">
            <path d="M148.214 349.71h-41.655V308.1h41.655zM148.214 402.932h-41.655v-41.61h41.655zM201.494 402.932h-41.655v-41.61h41.655zM201.494 456.153h-41.655v-41.61h41.655z"/>
        </g>
        <g style="mix-blend-mode:luminosity" opacity=".37" fill="#328AF1">
            <path d="M532.916 95.127V53.51h41.648v41.617zM532.898 41.885V.268h41.648v41.617zM584.521 41.873V.256h41.648v41.617z"/>
        </g>
    </g>
    <defs>
        <linearGradient id="9lq0nrreta" x1="521.657" y1="308.201" x2="521.657" y2="0" gradientUnits="userSpaceOnUse">
            <stop stop-color="#F44881"/>
            <stop offset="1" stop-color="#EC454F"/>
        </linearGradient>
    </defs>
</svg>
