<svg xmlns="http://www.w3.org/2000/svg" xmlns:xlink="http://www.w3.org/1999/xlink" width="120" height="120.001"><defs><filter id="Rectangle" width="15.611" height="11" x="68.489" y="35.5" filterUnits="userSpaceOnUse"><feOffset/><feGaussianBlur result="blur" stdDeviation="1.5"/><feFlood flood-color="#f35e9c"/><feComposite in2="blur" operator="in"/><feComposite in="SourceGraphic"/></filter><filter id="Rectangle-2" width="10.611" height="11" x="73.489" y="35.5" filterUnits="userSpaceOnUse"><feOffset/><feGaussianBlur result="blur-2" stdDeviation="1.5"/><feFlood flood-color="#f35e9c"/><feComposite in2="blur-2" operator="in"/><feComposite in="SourceGraphic"/></filter><filter id="Rectangle_Copy_99" width="11.833" height="11" x="64.711" y="35.5" filterUnits="userSpaceOnUse"><feOffset/><feGaussianBlur result="blur-3" stdDeviation="1.5"/><feFlood flood-color="#f35e9c"/><feComposite in2="blur-3" operator="in"/><feComposite in="SourceGraphic"/></filter><filter id="Rectangle_Copy_99-2" width="23.833" height="11" x="33.5" y="35.5" filterUnits="userSpaceOnUse"><feOffset/><feGaussianBlur result="blur-4" stdDeviation="1.5"/><feFlood flood-color="#f35e9c"/><feComposite in2="blur-4" operator="in"/><feComposite in="SourceGraphic"/></filter><filter id="Rectangle_Copy_99-3" width="18.833" height="11" x="21.5" y="35.5" filterUnits="userSpaceOnUse"><feOffset/><feGaussianBlur result="blur-5" stdDeviation="1.5"/><feFlood flood-color="#f35e9c"/><feComposite in2="blur-5" operator="in"/><feComposite in="SourceGraphic"/></filter><filter id="Rectangle_Copy_99-4" width="19.833" height="11" x="8.5" y="35.5" filterUnits="userSpaceOnUse"><feOffset/><feGaussianBlur result="blur-6" stdDeviation="1.5"/><feFlood flood-color="#f35e9c"/><feComposite in2="blur-6" operator="in"/><feComposite in="SourceGraphic"/></filter><filter id="Rectangle_Copy_100" width="17.667" height="11" x="52.81" y="35.5" filterUnits="userSpaceOnUse"><feOffset/><feGaussianBlur result="blur-7" stdDeviation="1.5"/><feFlood flood-color="#f35e9c"/><feComposite in2="blur-7" operator="in"/><feComposite in="SourceGraphic"/></filter><filter id="Rectangle-3" width="15.611" height="11" x="8.5" y="41.5" filterUnits="userSpaceOnUse"><feOffset/><feGaussianBlur result="blur-8" stdDeviation="1.5"/><feFlood flood-color="#f35e9c"/><feComposite in2="blur-8" operator="in"/><feComposite in="SourceGraphic"/></filter><filter id="Rectangle_Copy_99-5" width="12.681" height="11" x="17.056" y="41.5" filterUnits="userSpaceOnUse"><feOffset/><feGaussianBlur result="blur-9" stdDeviation="1.5"/><feFlood flood-color="#f35e9c"/><feComposite in2="blur-9" operator="in"/><feComposite in="SourceGraphic"/></filter><filter id="Rectangle_Copy_99-6" width="23.833" height="11" x="35.267" y="41.5" filterUnits="userSpaceOnUse"><feOffset/><feGaussianBlur result="blur-10" stdDeviation="1.5"/><feFlood flood-color="#f35e9c"/><feComposite in2="blur-10" operator="in"/><feComposite in="SourceGraphic"/></filter><filter id="Rectangle_Copy_99-7" width="18.833" height="11" x="52.267" y="41.5" filterUnits="userSpaceOnUse"><feOffset/><feGaussianBlur result="blur-11" stdDeviation="1.5"/><feFlood flood-color="#f35e9c"/><feComposite in2="blur-11" operator="in"/><feComposite in="SourceGraphic"/></filter><filter id="Rectangle_Copy_99-8" width="18.833" height="11" x="65.267" y="41.5" filterUnits="userSpaceOnUse"><feOffset/><feGaussianBlur result="blur-12" stdDeviation="1.5"/><feFlood flood-color="#f35e9c"/><feComposite in2="blur-12" operator="in"/><feComposite in="SourceGraphic"/></filter><filter id="Rectangle_Copy_100-2" width="22.667" height="11" x="23.123" y="41.5" filterUnits="userSpaceOnUse"><feOffset/><feGaussianBlur result="blur-13" stdDeviation="1.5"/><feFlood flood-color="#f35e9c"/><feComposite in2="blur-13" operator="in"/><feComposite in="SourceGraphic"/></filter><filter id="Rectangle-4" width="15.611" height="11" x="8.5" y="47.5" filterUnits="userSpaceOnUse"><feOffset/><feGaussianBlur result="blur-14" stdDeviation="1.5"/><feFlood flood-color="#f35e9c"/><feComposite in2="blur-14" operator="in"/><feComposite in="SourceGraphic"/></filter><filter id="Rectangle_Copy_99-9" width="12.681" height="11" x="17.056" y="47.5" filterUnits="userSpaceOnUse"><feOffset/><feGaussianBlur result="blur-15" stdDeviation="1.5"/><feFlood flood-color="#f35e9c"/><feComposite in2="blur-15" operator="in"/><feComposite in="SourceGraphic"/></filter><filter id="Rectangle_Copy_99-10" width="23.833" height="11" x="35.267" y="47.5" filterUnits="userSpaceOnUse"><feOffset/><feGaussianBlur result="blur-16" stdDeviation="1.5"/><feFlood flood-color="#f35e9c"/><feComposite in2="blur-16" operator="in"/><feComposite in="SourceGraphic"/></filter><filter id="Rectangle_Copy_99-11" width="18.833" height="11" x="52.267" y="47.5" filterUnits="userSpaceOnUse"><feOffset/><feGaussianBlur result="blur-17" stdDeviation="1.5"/><feFlood flood-color="#f35e9c"/><feComposite in2="blur-17" operator="in"/><feComposite in="SourceGraphic"/></filter><filter id="Rectangle_Copy_99-12" width="18.833" height="11" x="65.267" y="47.5" filterUnits="userSpaceOnUse"><feOffset/><feGaussianBlur result="blur-18" stdDeviation="1.5"/><feFlood flood-color="#f35e9c"/><feComposite in2="blur-18" operator="in"/><feComposite in="SourceGraphic"/></filter><filter id="Rectangle_Copy_100-3" width="17.667" height="11" x="22.123" y="47.5" filterUnits="userSpaceOnUse"><feOffset/><feGaussianBlur result="blur-19" stdDeviation="1.5"/><feFlood flood-color="#f35e9c"/><feComposite in2="blur-19" operator="in"/><feComposite in="SourceGraphic"/></filter><filter id="Rectangle-5" width="15.611" height="11" x="8.5" y="16.5" filterUnits="userSpaceOnUse"><feOffset/><feGaussianBlur result="blur-20" stdDeviation="1.5"/><feFlood flood-color="#f35e9c"/><feComposite in2="blur-20" operator="in"/><feComposite in="SourceGraphic"/></filter><filter id="Rectangle-6" width="10.611" height="11" x="8.5" y="16.5" filterUnits="userSpaceOnUse"><feOffset/><feGaussianBlur result="blur-21" stdDeviation="1.5"/><feFlood flood-color="#f35e9c"/><feComposite in2="blur-21" operator="in"/><feComposite in="SourceGraphic"/></filter><filter id="Rectangle_Copy_99-13" width="11.833" height="11" x="16.056" y="16.5" filterUnits="userSpaceOnUse"><feOffset/><feGaussianBlur result="blur-22" stdDeviation="1.5"/><feFlood flood-color="#f35e9c"/><feComposite in2="blur-22" operator="in"/><feComposite in="SourceGraphic"/></filter><filter id="Rectangle_Copy_99-14" width="23.833" height="11" x="35.267" y="16.5" filterUnits="userSpaceOnUse"><feOffset/><feGaussianBlur result="blur-23" stdDeviation="1.5"/><feFlood flood-color="#f35e9c"/><feComposite in2="blur-23" operator="in"/><feComposite in="SourceGraphic"/></filter><filter id="Rectangle_Copy_99-15" width="18.833" height="11" x="52.267" y="16.5" filterUnits="userSpaceOnUse"><feOffset/><feGaussianBlur result="blur-24" stdDeviation="1.5"/><feFlood flood-color="#f35e9c"/><feComposite in2="blur-24" operator="in"/><feComposite in="SourceGraphic"/></filter><filter id="Rectangle_Copy_99-16" width="18.833" height="11" x="65.267" y="16.5" filterUnits="userSpaceOnUse"><feOffset/><feGaussianBlur result="blur-25" stdDeviation="1.5"/><feFlood flood-color="#f35e9c"/><feComposite in2="blur-25" operator="in"/><feComposite in="SourceGraphic"/></filter><filter id="Rectangle_Copy_100-4" width="18.667" height="11" x="22.123" y="16.5" filterUnits="userSpaceOnUse"><feOffset/><feGaussianBlur result="blur-26" stdDeviation="1.5"/><feFlood flood-color="#f35e9c"/><feComposite in2="blur-26" operator="in"/><feComposite in="SourceGraphic"/></filter><filter id="Rectangle-7" width="15.611" height="11" x="68.489" y="22.5" filterUnits="userSpaceOnUse"><feOffset/><feGaussianBlur result="blur-27" stdDeviation="1.5"/><feFlood flood-color="#f35e9c"/><feComposite in2="blur-27" operator="in"/><feComposite in="SourceGraphic"/></filter><filter id="Rectangle_Copy_99-17" width="13.401" height="11" x="63.144" y="22.5" filterUnits="userSpaceOnUse"><feOffset/><feGaussianBlur result="blur-28" stdDeviation="1.5"/><feFlood flood-color="#f35e9c"/><feComposite in2="blur-28" operator="in"/><feComposite in="SourceGraphic"/></filter><filter id="Rectangle_Copy_99-18" width="25.833" height="11" x="33.5" y="22.5" filterUnits="userSpaceOnUse"><feOffset/><feGaussianBlur result="blur-29" stdDeviation="1.5"/><feFlood flood-color="#f35e9c"/><feComposite in2="blur-29" operator="in"/><feComposite in="SourceGraphic"/></filter><filter id="Rectangle_Copy_99-19" width="18.833" height="11" x="21.5" y="22.5" filterUnits="userSpaceOnUse"><feOffset/><feGaussianBlur result="blur-30" stdDeviation="1.5"/><feFlood flood-color="#f35e9c"/><feComposite in2="blur-30" operator="in"/><feComposite in="SourceGraphic"/></filter><filter id="Rectangle_Copy_99-20" width="19.76" height="11" x="8.5" y="22.5" filterUnits="userSpaceOnUse"><feOffset/><feGaussianBlur result="blur-31" stdDeviation="1.5"/><feFlood flood-color="#f35e9c"/><feComposite in2="blur-31" operator="in"/><feComposite in="SourceGraphic"/></filter><filter id="Rectangle_Copy_100-5" width="17.667" height="11" x="52.81" y="22.5" filterUnits="userSpaceOnUse"><feOffset/><feGaussianBlur result="blur-32" stdDeviation="1.5"/><feFlood flood-color="#f35e9c"/><feComposite in2="blur-32" operator="in"/><feComposite in="SourceGraphic"/></filter><filter id="Rectangle-8" width="15.611" height="11" x="68.489" y="28.5" filterUnits="userSpaceOnUse"><feOffset/><feGaussianBlur result="blur-33" stdDeviation="1.5"/><feFlood flood-color="#f35e9c"/><feComposite in2="blur-33" operator="in"/><feComposite in="SourceGraphic"/></filter><filter id="Rectangle_Copy_99-21" width="13.401" height="11" x="63.144" y="28.5" filterUnits="userSpaceOnUse"><feOffset/><feGaussianBlur result="blur-34" stdDeviation="1.5"/><feFlood flood-color="#f35e9c"/><feComposite in2="blur-34" operator="in"/><feComposite in="SourceGraphic"/></filter><filter id="Rectangle_Copy_99-22" width="16.833" height="11" x="33.5" y="28.5" filterUnits="userSpaceOnUse"><feOffset/><feGaussianBlur result="blur-35" stdDeviation="1.5"/><feFlood flood-color="#f35e9c"/><feComposite in2="blur-35" operator="in"/><feComposite in="SourceGraphic"/></filter><filter id="Rectangle_Copy_99-23" width="16.833" height="11" x="42.5" y="28.5" filterUnits="userSpaceOnUse"><feOffset/><feGaussianBlur result="blur-36" stdDeviation="1.5"/><feFlood flood-color="#f35e9c"/><feComposite in2="blur-36" operator="in"/><feComposite in="SourceGraphic"/></filter><filter id="Rectangle_Copy_99-24" width="18.833" height="11" x="21.5" y="28.5" filterUnits="userSpaceOnUse"><feOffset/><feGaussianBlur result="blur-37" stdDeviation="1.5"/><feFlood flood-color="#f35e9c"/><feComposite in2="blur-37" operator="in"/><feComposite in="SourceGraphic"/></filter><filter id="Rectangle_Copy_99-25" width="19.76" height="11" x="8.5" y="28.5" filterUnits="userSpaceOnUse"><feOffset/><feGaussianBlur result="blur-38" stdDeviation="1.5"/><feFlood flood-color="#f35e9c"/><feComposite in2="blur-38" operator="in"/><feComposite in="SourceGraphic"/></filter><filter id="Rectangle_Copy_100-6" width="17.667" height="11" x="52.81" y="28.5" filterUnits="userSpaceOnUse"><feOffset/><feGaussianBlur result="blur-39" stdDeviation="1.5"/><feFlood flood-color="#f35e9c"/><feComposite in2="blur-39" operator="in"/><feComposite in="SourceGraphic"/></filter><filter id="Path_38" width="44.476" height="44.476" x="39.762" y="45.762" filterUnits="userSpaceOnUse"><feOffset/><feGaussianBlur result="blur-40" stdDeviation="1.5"/><feFlood flood-color="#f35e9c"/><feComposite in2="blur-40" operator="in"/><feComposite in="SourceGraphic"/></filter><filter id="Oval_5_Copy" width="19.067" height="19.067" x="52.569" y="59.024" filterUnits="userSpaceOnUse"><feOffset/><feGaussianBlur result="blur-41" stdDeviation="1.5"/><feFlood flood-color="#f35e9c"/><feComposite in2="blur-41" operator="in"/><feComposite in="SourceGraphic"/></filter><radialGradient id="radial-gradient" cx=".5" cy="0" r="1" gradientUnits="objectBoundingBox"><stop offset="0" stop-color="#263a5e"/><stop offset="1" stop-color="#0c1321"/></radialGradient><radialGradient id="radial-gradient-2" cx=".5" cy=".116" r="1.057" gradientTransform="rotate(90 .5 .116)" gradientUnits="objectBoundingBox"><stop offset="0" stop-color="#ad6fc3"/><stop offset="1" stop-color="#8d61e9" stop-opacity="0"/></radialGradient><radialGradient id="radial-gradient-3" cx=".5" cy=".5" r=".5" gradientTransform="matrix(1 0 0 .756 0 .122)" gradientUnits="objectBoundingBox"><stop offset="0" stop-opacity=".608"/><stop offset=".382" stop-opacity=".392"/><stop offset="1" stop-opacity="0"/></radialGradient><radialGradient id="radial-gradient-5" cx=".559" cy="-.341" r="1.728" gradientTransform="matrix(-.731 .682 -.702 -.752 .728 -.978)" gradientUnits="objectBoundingBox"><stop offset="0" stop-color="#6ba0e2"/><stop offset=".305" stop-color="#54729a"/><stop offset=".526" stop-color="#385076"/><stop offset="1" stop-color="#131e32"/></radialGradient><radialGradient id="radial-gradient-6" cx=".5" cy=".5" r="3.869" gradientTransform="matrix(-1 0 0 1 1 0)" gradientUnits="objectBoundingBox"><stop offset="0" stop-color="#fff"/><stop offset="1" stop-color="#bf67f0"/></radialGradient><radialGradient id="radial-gradient-13" r="3.869" xlink:href="#radial-gradient-6"/><radialGradient id="radial-gradient-25" cx=".209" cy=".059" r="1.133" gradientTransform="rotate(63.487 .21 .058)" xlink:href="#radial-gradient-5"/><radialGradient id="radial-gradient-46" cx=".046" cy="-.064" r="1.008" gradientTransform="matrix(.532 .847 -.873 .548 .184 -.115)" gradientUnits="objectBoundingBox"><stop offset="0" stop-color="#b071bf"/><stop offset="1" stop-color="#8b60ec" stop-opacity="0"/></radialGradient><radialGradient id="radial-gradient-48" cx=".5" cy=".5" r=".434" gradientTransform="rotate(2.365 .495 .499)" gradientUnits="objectBoundingBox"><stop offset="0" stop-color="#bc5aec"/><stop offset="1" stop-color="#632f7c" stop-opacity="0"/></radialGradient><linearGradient id="linear-gradient" x1=".909" x2=".149" y1=".795" y2=".148" gradientUnits="objectBoundingBox"><stop offset="0" stop-color="#764fd0"/><stop offset="1" stop-color="#c67fdd"/></linearGradient><linearGradient id="linear-gradient-2" x1=".693" x2="0" y1="1.063" y2=".331" gradientUnits="objectBoundingBox"><stop offset="0" stop-color="#4b4d86"/><stop offset="1" stop-color="#8a2ec4"/></linearGradient><linearGradient id="linear-gradient-3" x1=".5" x2=".5" y1="-.642" y2="1" gradientUnits="objectBoundingBox"><stop offset="0" stop-color="#5b79a2"/><stop offset="1" stop-color="#182439"/></linearGradient><linearGradient id="linear-gradient-5" y1="1.642" y2="0" xlink:href="#linear-gradient-3"/><linearGradient id="linear-gradient-8" x1=".5" x2=".5" y1="1" gradientUnits="objectBoundingBox"><stop offset="0" stop-color="#a987f7"/><stop offset="1" stop-color="#b372bd"/></linearGradient><style>.cls-4{opacity:.593;fill:url(#radial-gradient-3)}.cls-6{fill:#1b283e}.cls-7,.cls-8{fill:url(#radial-gradient-6)}.cls-8,.cls-9{opacity:.2}.cls-10,.cls-9{fill:url(#radial-gradient-13)}.cls-14{fill:none;stroke-miterlimit:10;stroke:#253857;stroke-width:2.7px}.cls-15{fill:#21324e}.cls-16{fill:url(#linear-gradient-3)}.cls-17{fill:url(#linear-gradient-5)}.cls-21{fill:url(#linear-gradient-8)}</style></defs><g id="tooling-default" transform="translate(-936 -59)"><g id="Group_236" data-name="Group 236"><g id="Color_Crown_Shadow" data-name="Color Crown + Shadow" transform="translate(3392 449)"><circle id="Shadow" cx="58" cy="58" r="58" fill="url(#radial-gradient)" transform="translate(-2454 -388)"/><circle id="Shadow-2" cx="58" cy="58" r="58" fill="url(#radial-gradient-2)" data-name="Shadow" transform="translate(-2454 -388)"/><g id="Color_Crown" data-name="Color Crown" transform="translate(-2456 -390)"><path id="Ring" fill="url(#linear-gradient)" d="M780 826a59.72 59.72 0 0 1-33.547-10.247 60.176 60.176 0 0 1-21.739-26.4 59.921 59.921 0 0 1 5.532-56.9 60.176 60.176 0 0 1 26.4-21.738 59.92 59.92 0 0 1 56.9 5.532 60.174 60.174 0 0 1 21.738 26.4 59.923 59.923 0 0 1-5.532 56.9 60.174 60.174 0 0 1-26.4 21.739A59.623 59.623 0 0 1 780 826zm0-118a57.729 57.729 0 0 0-32.429 9.905 58.167 58.167 0 0 0-21.014 25.518 57.924 57.924 0 0 0 5.348 55 58.169 58.169 0 0 0 25.518 21.014 57.923 57.923 0 0 0 55-5.348 58.17 58.17 0 0 0 21.014-25.518 57.924 57.924 0 0 0-5.348-55 58.171 58.171 0 0 0-25.518-21.013A57.638 57.638 0 0 0 780 708z" transform="translate(-720 -706)"/></g></g><ellipse id="Oval" cx="21" cy="7.5" class="cls-4" rx="21" ry="7.5" transform="translate(979 149.99)"/><ellipse id="Oval-2" cx="7" cy="4" class="cls-4" data-name="Oval" rx="7" ry="4" transform="translate(968 158.99)"/><rect id="Rectangle_52" width="86" height="70" fill="url(#radial-gradient-5)" data-name="Rectangle 52" rx="14" transform="translate(939 69)"/><rect id="Rectangle_53" width="80" height="64" class="cls-6" data-name="Rectangle 53" rx="12" transform="translate(942 72)"/><g id="Group_234" data-name="Group 234" transform="translate(936 59)"><g id="Group_190_Copy_2" data-name="Group 190 Copy 2"><g filter="url(#Rectangle)"><path id="Rectangle-9" d="M0 0h6.611v2H0z" class="cls-7" data-name="Rectangle" transform="translate(72.99 40)"/></g><g filter="url(#Rectangle-2)"><path id="Rectangle-10" d="M0 0h1.611v2H0z" class="cls-7" data-name="Rectangle" transform="translate(77.99 40)"/></g><g filter="url(#Rectangle_Copy_99)"><path id="Rectangle_Copy_99-26" d="M0 0h2.833v2H0z" class="cls-7" data-name="Rectangle Copy 99" transform="translate(69.21 40)"/></g><g filter="url(#Rectangle_Copy_99-2)"><path id="Rectangle_Copy_99-27" d="M0 0h14.833v2H0z" class="cls-8" data-name="Rectangle Copy 99" transform="translate(38 40)"/></g><g filter="url(#Rectangle_Copy_99-3)"><path id="Rectangle_Copy_99-28" d="M0 0h9.833v2H0z" class="cls-8" data-name="Rectangle Copy 99" transform="translate(26 40)"/></g><g filter="url(#Rectangle_Copy_99-4)"><path id="Rectangle_Copy_99-29" d="M0 0h10.833v2H0z" class="cls-7" data-name="Rectangle Copy 99" transform="translate(13 40)"/></g><g filter="url(#Rectangle_Copy_100)"><path id="Rectangle_Copy_100-7" d="M0 0h8.667v2H0z" class="cls-8" data-name="Rectangle Copy 100" transform="translate(57.31 40)"/></g></g><g id="Group_190_Copy_2-2" data-name="Group 190 Copy 2"><g filter="url(#Rectangle-3)"><path id="Rectangle-11" d="M0 0h6.611v2H0z" class="cls-9" data-name="Rectangle" transform="translate(13 46)"/></g><g filter="url(#Rectangle_Copy_99-5)"><path id="Rectangle_Copy_99-30" d="M0 0h3.681v2H0z" class="cls-10" data-name="Rectangle Copy 99" transform="translate(21.56 46)"/></g><g filter="url(#Rectangle_Copy_99-6)"><path id="Rectangle_Copy_99-31" d="M0 0h14.833v2H0z" class="cls-9" data-name="Rectangle Copy 99" transform="translate(39.77 46)"/></g><g filter="url(#Rectangle_Copy_99-7)"><path id="Rectangle_Copy_99-32" d="M0 0h9.833v2H0z" class="cls-7" data-name="Rectangle Copy 99" transform="translate(56.77 46)"/></g><g filter="url(#Rectangle_Copy_99-8)"><path id="Rectangle_Copy_99-33" d="M0 0h9.833v2H0z" class="cls-9" data-name="Rectangle Copy 99" transform="translate(69.77 46)"/></g><g filter="url(#Rectangle_Copy_100-2)"><path id="Rectangle_Copy_100-8" d="M0 0h13.667v2H0z" class="cls-8" data-name="Rectangle Copy 100" transform="translate(27.62 46)"/></g></g><g id="Group_190_Copy_2-3" data-name="Group 190 Copy 2"><g filter="url(#Rectangle-4)"><path id="Rectangle-12" d="M0 0h6.611v2H0z" class="cls-10" data-name="Rectangle" transform="translate(13 52)"/></g><g filter="url(#Rectangle_Copy_99-9)"><path id="Rectangle_Copy_99-34" d="M0 0h3.681v2H0z" class="cls-8" data-name="Rectangle Copy 99" transform="translate(21.56 52)"/></g><g filter="url(#Rectangle_Copy_99-10)"><path id="Rectangle_Copy_99-35" d="M0 0h14.833v2H0z" class="cls-10" data-name="Rectangle Copy 99" transform="translate(39.77 52)"/></g><g filter="url(#Rectangle_Copy_99-11)"><path id="Rectangle_Copy_99-36" d="M0 0h9.833v2H0z" class="cls-9" data-name="Rectangle Copy 99" transform="translate(56.77 52)"/></g><g filter="url(#Rectangle_Copy_99-12)"><path id="Rectangle_Copy_99-37" d="M0 0h9.833v2H0z" class="cls-9" data-name="Rectangle Copy 99" transform="translate(69.77 52)"/></g><g filter="url(#Rectangle_Copy_100-3)"><path id="Rectangle_Copy_100-9" d="M0 0h8.667v2H0z" class="cls-7" data-name="Rectangle Copy 100" transform="translate(26.62 52)"/></g></g></g><path id="Subtraction_16" fill="url(#linear-gradient-2)" d="M8.295 63.417A12.005 12.005 0 0 1 0 52V12A12 12 0 0 1 12 0h56a12 12 0 0 1 12 12v8.412A44.485 44.485 0 0 0 7.5 55a44.884 44.884 0 0 0 .795 8.415z" data-name="Subtraction 16" opacity=".202" transform="translate(942 72)"/><circle id="Ellipse_47" cx="30.5" cy="30.5" r="30.5" fill="url(#radial-gradient-25)" data-name="Ellipse 47" transform="translate(967 96)"/><g id="Group_190_Copy_2-4" data-name="Group 190 Copy 2"><g filter="url(#Rectangle-5)" transform="translate(936 59)"><path id="Rectangle-13" d="M0 0h6.611v2H0z" class="cls-9" data-name="Rectangle" transform="translate(13 21)"/></g><g filter="url(#Rectangle-6)" transform="translate(936 59)"><path id="Rectangle-14" d="M0 0h1.611v2H0z" class="cls-10" data-name="Rectangle" transform="translate(13 21)"/></g><g filter="url(#Rectangle_Copy_99-13)" transform="translate(936 59)"><path id="Rectangle_Copy_99-38" d="M0 0h2.833v2H0z" class="cls-10" data-name="Rectangle Copy 99" transform="translate(20.56 21)"/></g><g filter="url(#Rectangle_Copy_99-14)" transform="translate(936 59)"><path id="Rectangle_Copy_99-39" d="M0 0h14.833v2H0z" class="cls-10" data-name="Rectangle Copy 99" transform="translate(39.77 21)"/></g><g filter="url(#Rectangle_Copy_99-15)" transform="translate(936 59)"><path id="Rectangle_Copy_99-40" d="M0 0h9.833v2H0z" class="cls-9" data-name="Rectangle Copy 99" transform="translate(56.77 21)"/></g><g filter="url(#Rectangle_Copy_99-16)" transform="translate(936 59)"><path id="Rectangle_Copy_99-41" d="M0 0h9.833v2H0z" class="cls-9" data-name="Rectangle Copy 99" transform="translate(69.77 21)"/></g><g filter="url(#Rectangle_Copy_100-4)" transform="translate(936 59)"><path id="Rectangle_Copy_100-10" d="M0 0h9.667v2H0z" class="cls-9" data-name="Rectangle Copy 100" transform="translate(26.62 21)"/></g></g><g id="Group_190_Copy_2-5" data-name="Group 190 Copy 2"><g filter="url(#Rectangle-7)" transform="translate(936 59)"><path id="Rectangle-15" d="M0 0h6.611v2H0z" class="cls-8" data-name="Rectangle" transform="translate(72.99 27)"/></g><g filter="url(#Rectangle_Copy_99-17)" transform="translate(936 59)"><path id="Rectangle_Copy_99-42" d="M0 0h4.401v2H0z" class="cls-8" data-name="Rectangle Copy 99" transform="translate(67.64 27)"/></g><g filter="url(#Rectangle_Copy_99-18)" transform="translate(936 59)"><path id="Rectangle_Copy_99-43" d="M0 0h16.833v2H0z" class="cls-8" data-name="Rectangle Copy 99" transform="translate(38 27)"/></g><g filter="url(#Rectangle_Copy_99-19)" transform="translate(936 59)"><path id="Rectangle_Copy_99-44" d="M0 0h9.833v2H0z" class="cls-10" data-name="Rectangle Copy 99" transform="translate(26 27)"/></g><g filter="url(#Rectangle_Copy_99-20)" transform="translate(936 59)"><path id="Rectangle_Copy_99-45" d="M0 0h10.76v2H0z" class="cls-8" data-name="Rectangle Copy 99" transform="translate(13 27)"/></g><g filter="url(#Rectangle_Copy_100-5)" transform="translate(936 59)"><path id="Rectangle_Copy_100-11" d="M0 0h8.667v2H0z" class="cls-10" data-name="Rectangle Copy 100" transform="translate(57.31 27)"/></g></g><g id="Group_190_Copy_2-6" data-name="Group 190 Copy 2"><g filter="url(#Rectangle-8)" transform="translate(936 59)"><path id="Rectangle-16" d="M0 0h6.611v2H0z" class="cls-8" data-name="Rectangle" transform="translate(72.99 33)"/></g><g filter="url(#Rectangle_Copy_99-21)" transform="translate(936 59)"><path id="Rectangle_Copy_99-46" d="M0 0h4.401v2H0z" class="cls-7" data-name="Rectangle Copy 99" transform="translate(67.64 33)"/></g><g filter="url(#Rectangle_Copy_99-22)" transform="translate(936 59)"><path id="Rectangle_Copy_99-47" d="M0 0h7.833v2H0z" class="cls-7" data-name="Rectangle Copy 99" transform="translate(38 33)"/></g><g filter="url(#Rectangle_Copy_99-23)" transform="translate(936 59)"><path id="Rectangle_Copy_99-48" d="M0 0h7.833v2H0z" class="cls-8" data-name="Rectangle Copy 99" transform="translate(47 33)"/></g><g filter="url(#Rectangle_Copy_99-24)" transform="translate(936 59)"><path id="Rectangle_Copy_99-49" d="M0 0h9.833v2H0z" class="cls-8" data-name="Rectangle Copy 99" transform="translate(26 33)"/></g><g filter="url(#Rectangle_Copy_99-25)" transform="translate(936 59)"><path id="Rectangle_Copy_99-50" d="M0 0h10.76v2H0z" class="cls-8" data-name="Rectangle Copy 99" transform="translate(13 33)"/></g><g filter="url(#Rectangle_Copy_100-6)" transform="translate(936 59)"><path id="Rectangle_Copy_100-12" d="M0 0h8.667v2H0z" class="cls-10" data-name="Rectangle Copy 100" transform="translate(57.31 33)"/></g></g><circle id="Ellipse_48" cx="30.5" cy="30.5" r="30.5" fill="url(#radial-gradient-46)" data-name="Ellipse 48" opacity=".829" transform="translate(967 96)"/><circle id="Ellipse_49" cx="20" cy="20" r="20" class="cls-6" data-name="Ellipse 49" transform="translate(978 107)"/><g id="Group_186_Copy_59" data-name="Group 186 Copy 59" transform="rotate(180 493.958 81.137)"><path id="Path_52_Copy_3" d="m19.423 17.21-.023 1.247C19.552 9.348 9.727-8.191 0 4.391" class="cls-14" data-name="Path 52 Copy 3" transform="translate(5.286 .339)"/><g id="Group_2" data-name="Group 2" transform="translate(21.131 17.711)"><rect id="Rectangle_Copy_14" width="4.323" height="3.542" class="cls-15" data-name="Rectangle Copy 14" rx="1.223" transform="translate(1.621)"/><rect id="Rectangle-17" width="7.565" height="3.026" class="cls-16" data-name="Rectangle" rx="1.223" transform="translate(0 2.029)"/></g><g id="Group_2-2" data-name="Group 2" transform="rotate(25 -4.913 6.143)"><rect id="Rectangle_Copy_14-2" width="4.323" height="3.542" class="cls-15" data-name="Rectangle Copy 14" rx="1.223" transform="translate(1.621)"/><rect id="Rectangle-18" width="7.565" height="3.026" class="cls-16" data-name="Rectangle" rx="1.223" transform="translate(0 2.029)"/></g></g><g id="Group_186_Copy_59-2" data-name="Group 186 Copy 59" transform="rotate(-90 571.712 -452.474)"><path id="Path_52_Copy_3-2" d="M19.423 1.247 19.4 0c.152 9.109-15.917 16.584-23.738 2.494" class="cls-14" data-name="Path 52 Copy 3" transform="translate(5.608 3.972)"/><g id="Group_2-3" data-name="Group 2" transform="translate(21.131)"><rect id="Rectangle_Copy_14-3" width="4.323" height="3.542" class="cls-15" data-name="Rectangle Copy 14" rx="1.223" transform="translate(1.621 1.513)"/><rect id="Rectangle-19" width="7.565" height="3.026" class="cls-17" data-name="Rectangle" rx="1.223"/></g><g id="Group_2-4" data-name="Group 2" transform="rotate(-19.01 7.198 13.178)"><rect id="Rectangle_Copy_14-4" width="4.323" height="3.542" class="cls-15" data-name="Rectangle Copy 14" rx="1.223" transform="translate(1.621 1.513)"/><rect id="Rectangle-20" width="7.565" height="3.026" class="cls-17" data-name="Rectangle" rx="1.223"/></g></g><path id="Subtraction_17" fill="url(#linear-gradient-2)" d="M8.156 36a20.294 20.294 0 0 1-5.933-6.913A19.694 19.694 0 0 1 1.6 12.216a19.919 19.919 0 0 1 4.377-6.357 20.365 20.365 0 0 1 6.486-4.287 20.7 20.7 0 0 1 20.3 2.51A20.256 20.256 0 0 1 37.2 8.643 19.718 19.718 0 0 1 40 14.4a20.459 20.459 0 0 0-5.68-2.945 20.874 20.874 0 0 0-14.511.513 20.365 20.365 0 0 0-6.486 4.287 19.919 19.919 0 0 0-4.373 6.358A19.722 19.722 0 0 0 8.155 36z" data-name="Subtraction 17" opacity=".45" transform="translate(978 107)"/><g filter="url(#Path_38)" transform="translate(936 59)"><path id="Path_38-2" d="M34.476 16.738A17.738 17.738 0 1 1 16.738-1a17.738 17.738 0 0 1 17.738 17.738zm-1.613 0a16.126 16.126 0 1 0-16.125 16.126 16.126 16.126 0 0 0 16.126-16.126z" class="cls-10" data-name="Path 38" transform="translate(45.26 51.26)"/></g><g id="Group_235" data-name="Group 235" transform="rotate(-53 1216.189 1311.087)"><g id="Group_203" data-name="Group 203" transform="translate(1839 410.333)"><circle id="Oval_Copy_7" cx="10.35" cy="10.35" r="10.35" fill="url(#radial-gradient-48)" data-name="Oval Copy 7" transform="translate(181.598 3.288)" style="mix-blend-mode:soft-light;isolation:isolate"/><g id="Group_20" data-name="Group 20" transform="rotate(165.02 104.255 43.305)"><g filter="url(#Oval_5_Copy)" transform="rotate(-111.7 30.72 75.599)"><circle id="Oval_5_Copy-2" cx="3.867" cy="3.867" r="3.867" class="cls-10" data-name="Oval 5 Copy" transform="rotate(111.7 11.019 55.962)"/></g><path id="Path_14_Copy_4" fill="none" stroke="#8b60ed" stroke-miterlimit="10" stroke-width="2" d="m32.263 2.743-7.529 12.885-22.083-4.242 8.531 33.84" data-name="Path 14 Copy 4"/><g id="Group_32_Copy_12" data-name="Group 32 Copy 12" transform="translate(21.267 12.63)"><circle id="Oval-3" cx="2.9" cy="2.9" r="2.9" class="cls-21" data-name="Oval"/></g><g id="Group_32_Copy_15" data-name="Group 32 Copy 15" transform="translate(0 8.763)"><circle id="Oval-4" cx="3.383" cy="3.383" r="3.383" class="cls-21" data-name="Oval"/></g></g></g></g></g></g></svg>