<svg width="120" height="120" xmlns="http://www.w3.org/2000/svg" xmlns:xlink="http://www.w3.org/1999/xlink"><defs><linearGradient x1="22.4%" y1="5.3%" x2="82.5%" y2="95.5%" id="a"><stop stop-color="#FF5F94" offset="0%"/><stop stop-color="#EC454F" offset="100%"/></linearGradient><linearGradient x1="28.839%" y1="-4.261%" x2="64.845%" y2="68.57%" id="e"><stop stop-color="#B9437C" offset="0%"/><stop stop-color="#1A2536" stop-opacity="0" offset="100%"/></linearGradient><linearGradient x1="-14.852%" y1="46.918%" x2="100%" y2="45.369%" id="f"><stop stop-color="#2B436F" stop-opacity="0" offset="0%"/><stop stop-color="#0C1627" offset="100%"/></linearGradient><linearGradient x1="25.613%" y1="6.73%" x2="50%" y2="100%" id="i"><stop stop-color="#FF5E92" offset="0%"/><stop stop-color="#ED4653" offset="100%"/></linearGradient><linearGradient x1="50%" y1="164.2%" x2="50%" y2="0%" id="l"><stop stop-color="#5B79A2" offset="0%"/><stop stop-color="#182439" offset="100%"/></linearGradient><linearGradient x1="17.285%" y1="46.233%" x2="100%" y2="62.793%" id="m"><stop stop-color="#6BA0E2" offset="0%"/><stop stop-color="#385076" offset="100%"/></linearGradient><linearGradient x1="46.975%" y1="29.451%" x2="51.941%" y2="59.975%" id="o"><stop stop-color="#2B436F" offset="0%"/><stop stop-color="#18263E" offset="100%"/></linearGradient><linearGradient x1="65.304%" y1="53.169%" x2="43.311%" y2="37.875%" id="s"><stop stop-color="#FFF" offset="0%"/><stop stop-color="#F44880" stop-opacity="0" offset="100%"/></linearGradient><linearGradient x1="58.195%" y1="0%" x2="40.826%" y2="100%" id="t"><stop stop-color="#FFF" offset="0%"/><stop stop-color="#C42E6C" stop-opacity="0" offset="100%"/></linearGradient><linearGradient x1="50%" y1="50%" x2="50%" y2="229.793%" id="x"><stop stop-color="#FFF" offset="0%"/><stop stop-color="#C42E6C" offset="100%"/></linearGradient><linearGradient x1="44.98%" y1="35.277%" x2="57.672%" y2="100%" id="y"><stop stop-color="#6BA0E2" offset="0%"/><stop stop-color="#385076" offset="100%"/></linearGradient><linearGradient x1="47.512%" y1="4.045%" x2="50.512%" y2="93.718%" id="z"><stop stop-color="#6980BA" offset="0%"/><stop stop-color="#2F4566" offset="100%"/></linearGradient><linearGradient x1="-14.852%" y1="37.934%" x2="100%" y2="68.665%" id="D"><stop stop-color="#2B436F" offset="0%"/><stop stop-color="#142035" offset="100%"/></linearGradient><linearGradient x1="-14.852%" y1="37.934%" x2="100%" y2="31.867%" id="E"><stop stop-color="#2B436F" stop-opacity="0" offset="0%"/><stop stop-color="#142035" offset="100%"/></linearGradient><linearGradient x1="87.243%" y1="23.502%" x2="14.279%" y2="84.373%" id="G"><stop stop-color="#18263E" offset="0%"/><stop stop-color="#1F2F4B" offset="53.18%"/><stop stop-color="#1D2C44" offset="100%"/></linearGradient><linearGradient x1="33.312%" y1="-9.15%" x2="70.529%" y2="104.012%" id="H"><stop stop-color="#4B71A3" offset="0%"/><stop stop-color="#18263E" offset="100%"/></linearGradient><linearGradient x1="15.386%" y1="-17.334%" x2="15.386%" y2="70.547%" id="J"><stop stop-color="#FFF" offset="0%"/><stop stop-color="#F44880" stop-opacity="0" offset="100%"/></linearGradient><linearGradient x1="17.285%" y1="46.265%" x2="100%" y2="62.685%" id="L"><stop stop-color="#6BA0E2" offset="0%"/><stop stop-color="#385076" offset="100%"/></linearGradient><linearGradient x1="42.86%" y1="37.315%" x2="84.756%" y2="59.897%" id="N"><stop stop-color="#365A8A" offset="0%"/><stop stop-color="#213351" offset="100%"/></linearGradient><linearGradient x1="39.349%" y1="100%" x2="39.349%" y2="-15.423%" id="O"><stop stop-color="#FFF" offset="0%"/><stop stop-color="#F44880" stop-opacity="0" offset="100%"/></linearGradient><linearGradient x1="50%" y1="50%" x2="50%" y2="229.793%" id="R"><stop stop-color="#FFF" offset="0%"/><stop stop-color="#C42E6C" offset="100%"/></linearGradient><linearGradient x1="50%" y1="50%" x2="50%" y2="229.793%" id="U"><stop stop-color="#FFF" offset="0%"/><stop stop-color="#C42E6C" offset="100%"/></linearGradient><linearGradient x1="43.313%" y1="36.955%" x2="88.376%" y2="62.725%" id="Z"><stop stop-color="#365A8A" offset="0%"/><stop stop-color="#141F32" offset="100%"/></linearGradient><linearGradient x1="38.603%" y1="10.965%" x2="44.278%" y2="55.375%" id="ab"><stop stop-color="#FFF" offset="0%"/><stop stop-color="#F44880" stop-opacity="0" offset="100%"/></linearGradient><linearGradient x1="13.344%" y1="38.812%" x2="86.581%" y2="60.992%" id="ac"><stop stop-color="#25395A" offset="0%"/><stop stop-color="#1B2940" offset="100%"/></linearGradient><linearGradient x1="42.86%" y1="34.034%" x2="84.756%" y2="62.456%" id="ad"><stop stop-color="#365A8A" offset="0%"/><stop stop-color="#213351" offset="100%"/></linearGradient><linearGradient x1="26.896%" y1="21.1%" x2="44.278%" y2="55.375%" id="ae"><stop stop-color="#FFF" offset="0%"/><stop stop-color="#F44880" stop-opacity="0" offset="100%"/></linearGradient><linearGradient x1="33.1%" y1="6.318%" x2="64.496%" y2="76.283%" id="af"><stop stop-color="#2B436F" offset="0%"/><stop stop-color="#142036" offset="100%"/></linearGradient><linearGradient x1="41.563%" y1="21.386%" x2="57.01%" y2="88.922%" id="ah"><stop stop-color="#405A80" offset="0%"/><stop stop-color="#1F314C" offset="100%"/></linearGradient><linearGradient x1="117.801%" y1="84.597%" x2="38.067%" y2="66.478%" id="al"><stop stop-color="#FFF" offset="0%"/><stop stop-color="#F44880" stop-opacity="0" offset="100%"/></linearGradient><linearGradient x1="17.285%" y1="37.124%" x2="100%" y2="93.727%" id="an"><stop stop-color="#6BA0E2" offset="0%"/><stop stop-color="#385076" offset="100%"/></linearGradient><linearGradient x1="0%" y1="54.968%" x2="44.278%" y2="53.979%" id="ao"><stop stop-color="#FFF" offset="0%"/><stop stop-color="#F44880" stop-opacity="0" offset="100%"/></linearGradient><linearGradient x1="94.73%" y1="63.048%" x2="21.963%" y2="45.398%" id="ap"><stop stop-color="#FFF" offset="0%"/><stop stop-color="#F44880" stop-opacity="0" offset="100%"/></linearGradient><linearGradient x1="100%" y1="68.448%" x2="100%" y2="-19.03%" id="aq"><stop stop-color="#F44880" stop-opacity="0" offset="0%"/><stop stop-color="#FFF" offset="100%"/></linearGradient><linearGradient x1="0%" y1="62.184%" x2="78.617%" y2="43.28%" id="ar"><stop stop-color="#FFF" offset="0%"/><stop stop-color="#F44880" stop-opacity="0" offset="100%"/></linearGradient><linearGradient x1="41.82%" y1="0%" x2="63.745%" y2="82.451%" id="as"><stop offset="0%"/><stop stop-opacity="0" offset="100%"/></linearGradient><linearGradient x1="94.73%" y1="62.312%" x2="21.963%" y2="45.657%" id="at"><stop stop-color="#FFF" offset="0%"/><stop stop-color="#F44880" stop-opacity="0" offset="100%"/></linearGradient><linearGradient x1="50.177%" y1="119.868%" x2="50.042%" y2="0%" id="au"><stop stop-color="#F44880" stop-opacity="0" offset="0%"/><stop stop-color="#FFF" offset="100%"/></linearGradient><linearGradient x1="33.564%" y1="8.008%" x2="66.09%" y2="86.499%" id="ax"><stop stop-color="#6BA0E2" offset="0%"/><stop stop-color="#304668" offset="100%"/></linearGradient><linearGradient x1="24.49%" y1="67.886%" x2="47.081%" y2="64.324%" id="aA"><stop stop-color="#FFF" offset="0%"/><stop stop-color="#F44880" stop-opacity="0" offset="100%"/></linearGradient><linearGradient x1="80.9%" y1="0%" x2="0%" y2="89.6%" id="aC"><stop stop-color="#FB3B78" offset="0%"/><stop stop-color="#EFC7D8" offset="100%"/></linearGradient><linearGradient x1="74.5%" y1="89.6%" x2="-207.5%" y2="-81.6%" id="aD"><stop stop-color="#DD1E5B" offset="0%"/><stop stop-color="#EFC7D8" offset="100%"/></linearGradient><linearGradient x1="0%" y1="54.963%" x2="44.278%" y2="53.974%" id="aE"><stop stop-color="#FFF" offset="0%"/><stop stop-color="#F44880" stop-opacity="0" offset="100%"/></linearGradient><linearGradient x1="94.73%" y1="62.992%" x2="21.963%" y2="45.417%" id="aF"><stop stop-color="#FFF" offset="0%"/><stop stop-color="#F44880" stop-opacity="0" offset="100%"/></linearGradient><linearGradient x1="29.231%" y1="87.73%" x2="59.034%" y2="61.977%" id="aH"><stop stop-color="#FFF" offset="0%"/><stop stop-color="#F44880" stop-opacity="0" offset="100%"/></linearGradient><linearGradient x1="42.86%" y1="25.823%" x2="87.312%" y2="74.177%" id="aI"><stop stop-color="#365A8A" offset="0%"/><stop stop-color="#2E4469" offset="100%"/></linearGradient><linearGradient x1="27.88%" y1="86.081%" x2="59.875%" y2="50%" id="aK"><stop stop-color="#FFF" offset="0%"/><stop stop-color="#F44880" stop-opacity="0" offset="100%"/></linearGradient><radialGradient cx="50%" cy="0%" fx="50%" fy="0%" r="100%" id="b"><stop stop-color="#263A5E" offset="0%"/><stop stop-color="#0C1321" offset="100%"/></radialGradient><radialGradient cx="56.579%" cy="50%" fx="56.579%" fy="50%" r="104.267%" gradientTransform="matrix(.44868 -.48873 .04636 .16092 .289 .696)" id="h"><stop offset="0%"/><stop stop-opacity=".137" offset="73.4%"/><stop stop-opacity="0" offset="100%"/></radialGradient><radialGradient cx="50%" cy="50%" fx="50%" fy="50%" r="106.708%" gradientTransform="matrix(.5182 .38837 -.04028 .16997 .261 .22)" id="k"><stop offset="0%"/><stop stop-opacity=".137" offset="73.4%"/><stop stop-opacity="0" offset="100%"/></radialGradient><radialGradient cx="109.72%" cy="27.124%" fx="109.72%" fy="27.124%" r="129.67%" gradientTransform="matrix(.4626 .4045 -.2071 .9257 .646 -.424)" id="n"><stop stop-color="#FFF" offset="0%"/><stop stop-color="#FFF" stop-opacity="0" offset="100%"/></radialGradient><radialGradient cx="115.348%" cy="43.411%" fx="115.348%" fy="43.411%" r="87.1%" gradientTransform="matrix(1 0 0 .66224 0 .147)" id="p"><stop stop-color="#D12A6F" offset="0%"/><stop stop-color="#83234B" stop-opacity="0" offset="100%"/></radialGradient><radialGradient cx="160.697%" cy="52.733%" fx="160.697%" fy="52.733%" r="138.23%" gradientTransform="matrix(1 0 0 .58095 0 .221)" id="A"><stop stop-color="#D12A6F" offset="0%"/><stop stop-color="#83234B" stop-opacity="0" offset="100%"/></radialGradient><radialGradient cx="-2.037%" cy="100%" fx="-2.037%" fy="100%" r="75.632%" gradientTransform="matrix(-.18288 -.93409 1.04487 -.77973 -1.069 1.76)" id="B"><stop stop-color="#6BA0E2" offset="0%"/><stop stop-color="#131E32" offset="100%"/></radialGradient><radialGradient cx="25.311%" cy="11.453%" fx="25.311%" fy="11.453%" r="76.967%" gradientTransform="matrix(.46965 .3991 -.55035 2.4685 .197 -.27)" id="C"><stop stop-color="#D12A6F" offset="0%"/><stop stop-color="#83234B" stop-opacity="0" offset="100%"/></radialGradient><radialGradient cx="25.311%" cy="11.453%" fx="25.311%" fy="11.453%" r="43.416%" gradientTransform="matrix(.56866 .78785 -1.95845 1.65804 .333 -.275)" id="F"><stop stop-color="#D12A6F" offset="0%"/><stop stop-color="#83234B" stop-opacity="0" offset="100%"/></radialGradient><radialGradient cx="34.129%" cy="-22.719%" fx="34.129%" fy="-22.719%" r="120.123%" gradientTransform="matrix(-.19496 .56663 -1.86957 -.2147 -.017 -.47)" id="I"><stop stop-color="#D12A6F" offset="0%"/><stop stop-color="#83234B" stop-opacity="0" offset="100%"/></radialGradient><radialGradient cx="46.035%" cy="50%" fx="46.035%" fy="50%" r="82.548%" gradientTransform="matrix(.49675 .1654 -.07816 .92525 .27 -.039)" id="M"><stop stop-color="#FFF" offset="0%"/><stop stop-color="#83234B" stop-opacity="0" offset="100%"/></radialGradient><radialGradient cx="50%" cy="-52.593%" fx="50%" fy="-52.593%" r="146.832%" gradientTransform="matrix(.26703 .8813 -1.34073 1.2722 -.339 -.297)" id="aa"><stop stop-color="#D12A6F" offset="0%"/><stop stop-color="#83234B" stop-opacity="0" offset="100%"/></radialGradient><radialGradient cx="16.07%" cy="-13.513%" fx="16.07%" fy="-13.513%" r="115.577%" gradientTransform="matrix(.44237 .5214 -2.41444 .6924 -.237 -.125)" id="ag"><stop stop-color="#D12A6F" offset="0%"/><stop stop-color="#83234B" stop-opacity="0" offset="100%"/></radialGradient><radialGradient cx="10.537%" cy="-35.55%" fx="10.537%" fy="-35.55%" r="213.657%" gradientTransform="matrix(.2962 .55294 -1.57347 .2825 -.485 -.313)" id="ai"><stop stop-color="#D12A6F" offset="0%"/><stop stop-color="#83234B" stop-opacity="0" offset="100%"/></radialGradient><radialGradient cx="50%" cy="50%" fx="50%" fy="50%" r="282.353%" gradientTransform="matrix(.17708 0 0 .18445 .411 .408)" id="av"><stop offset="0%"/><stop stop-opacity=".137" offset="73.4%"/><stop stop-opacity="0" offset="100%"/></radialGradient><radialGradient cx="50%" cy="50%" fx="50%" fy="50%" r="185.714%" gradientTransform="matrix(.26923 0 0 .2991 .365 .35)" id="aw"><stop offset="0%"/><stop stop-opacity=".137" offset="73.4%"/><stop stop-opacity="0" offset="100%"/></radialGradient><radialGradient cx="93.589%" cy="-7.009%" fx="93.589%" fy="-7.009%" r="94.818%" gradientTransform="matrix(.63262 .55319 -.73817 .4307 .292 -.558)" id="ay"><stop stop-color="#FFF" offset="0%"/><stop stop-color="#FFF" stop-opacity="0" offset="100%"/></radialGradient><radialGradient cx="-34.408%" cy="76.131%" fx="-34.408%" fy="76.131%" r="101.402%" gradientTransform="matrix(.95365 -.21495 .3765 .85225 -.303 .039)" id="az"><stop stop-color="#D12A6F" offset="0%"/><stop stop-color="#83234B" stop-opacity="0" offset="100%"/></radialGradient><radialGradient cx="50%" cy="50%" fx="50%" fy="50%" r="50%" id="aB"><stop stop-color="#C42E6C" offset="0%"/><stop stop-color="#621736" stop-opacity="0" offset="100%"/></radialGradient><radialGradient cx="100%" cy="172.457%" fx="100%" fy="172.457%" r="151.16%" gradientTransform="matrix(.41868 .78155 -.8641 1.02771 2.072 -.83)" id="aG"><stop stop-color="#D12A6F" offset="0%"/><stop stop-color="#83234B" stop-opacity="0" offset="100%"/></radialGradient><radialGradient cx="100%" cy="172.457%" fx="100%" fy="172.457%" r="149.131%" gradientTransform="matrix(.42437 .79219 -.9075 1.00537 2.14 -.801)" id="aJ"><stop stop-color="#D12A6F" offset="0%"/><stop stop-color="#83234B" stop-opacity="0" offset="100%"/></radialGradient><path d="M0 10.392v37.179a1 1 0 001.46.888l15.456-7.987a2 2 0 001.082-1.78l-.071-37.06a1 1 0 00-1.455-.89L1.089 8.613A2 2 0 000 10.391z" id="q"/><path d="M0 10.392v37.179a1 1 0 001.46.888l15.456-7.987a2 2 0 001.082-1.78l-.071-37.06a1 1 0 00-1.455-.89L1.089 8.613A2 2 0 000 10.391z" id="r"/><path d="M6.629 18.341c.177 0 .341.055.476.148l7.996 4.625a.833.833 0 01.42.727.837.837 0 01-.42.728L7.32 28.217a.835.835 0 01-1.132-.29l-.006-.01a.825.825 0 01-.11-.448l-.21-2.791H4.319a.837.837 0 01-.844-.83c0-.459.378-.83.844-.83h4.62c.465 0 .843.371.843.83 0 .458-.378.83-.843.83H7.52l.117 1.563 5.277-2.474-5.457-3.157v.735c0 .45-.37.815-.828.815a.822.822 0 01-.83-.815l-.001-2.108a.824.824 0 01.086-.44l.016-.029a.065.065 0 01.006-.013l.026-.041a.817.817 0 01.022-.032l-.048.073a.816.816 0 01.163-.2l.02-.018a.604.604 0 01.059-.045l.026-.017a.643.643 0 01.14-.073.83.83 0 01.315-.061zM2.06 23.017c.466 0 .844.372.844.83 0 .46-.378.831-.844.831h-.695a.837.837 0 01-.843-.83c0-.459.378-.83.843-.83h.695z" id="w"/><path d="M49.429 14.107l3.253-1.65a2 2 0 011.8-.006l3.313 1.658a1 1 0 01.002 1.787l-3.277 1.651a2 2 0 01-1.8 0l-3.288-1.655a1 1 0 01-.003-1.785z" id="Q"/><path d="M45.458 10.11l7.198-3.654a2 2 0 011.8-.005l7.31 3.658a1 1 0 01.002 1.787l-7.248 3.651a2 2 0 01-1.8 0l-7.259-3.653a1 1 0 01-.003-1.785z" id="T"/><path d="M45.458 7.11l7.198-3.654a2 2 0 011.8-.005l7.31 3.658a1 1 0 01.002 1.787l-7.248 3.651a2 2 0 01-1.8 0l-7.259-3.653a1 1 0 01-.003-1.785z" id="W"/><path d="M45.458 4.11L52.656.455a2 2 0 011.8-.005l7.31 3.658a1 1 0 01.002 1.787L54.52 9.547a2 2 0 01-1.8 0l-7.259-3.653a1 1 0 01-.003-1.785z" id="Y"/><path d="M0 0l.067 12.572 16.583 8.013a.5.5 0 00.718-.45V9.082a1 1 0 00-.563-.9L0 0z" id="aj"/><path d="M0 0l.067 12.572 16.583 8.013a.5.5 0 00.718-.45V9.082a1 1 0 00-.563-.9L0 0z" id="ak"/><filter x="-18.6%" y="-13.3%" width="137.1%" height="126.5%" filterUnits="objectBoundingBox" id="j"><feOffset in="SourceAlpha" result="shadowOffsetOuter1"/><feGaussianBlur stdDeviation="2" in="shadowOffsetOuter1" result="shadowBlurOuter1"/><feColorMatrix values="0 0 0 0 0.963937953 0 0 0 0 0.68456493 0 0 0 0 0.802522428 0 0 0 1 0" in="shadowBlurOuter1" result="shadowMatrixOuter1"/><feMerge><feMergeNode in="shadowMatrixOuter1"/><feMergeNode in="SourceGraphic"/></feMerge></filter><filter x="-30%" y="-45.1%" width="160%" height="190.1%" filterUnits="objectBoundingBox" id="v"><feOffset in="SourceAlpha" result="shadowOffsetOuter1"/><feGaussianBlur stdDeviation="1.5" in="shadowOffsetOuter1" result="shadowBlurOuter1"/><feColorMatrix values="0 0 0 0 0.951002038 0 0 0 0 0.370524746 0 0 0 0 0.61045536 0 0 0 1 0" in="shadowBlurOuter1"/></filter><filter x="-68.1%" y="-43.6%" width="236.3%" height="187.2%" filterUnits="objectBoundingBox" id="K"><feOffset in="SourceAlpha" result="shadowOffsetOuter1"/><feGaussianBlur stdDeviation="2" in="shadowOffsetOuter1" result="shadowBlurOuter1"/><feColorMatrix values="0 0 0 0 0.956862745 0 0 0 0 0.282352941 0 0 0 0 0.505882353 0 0 0 1 0" in="shadowBlurOuter1" result="shadowMatrixOuter1"/><feMerge><feMergeNode in="shadowMatrixOuter1"/><feMergeNode in="SourceGraphic"/></feMerge></filter><filter x="-77.9%" y="-171%" width="255.8%" height="442%" filterUnits="objectBoundingBox" id="P"><feOffset in="SourceAlpha" result="shadowOffsetOuter1"/><feGaussianBlur stdDeviation="3.5" in="shadowOffsetOuter1" result="shadowBlurOuter1"/><feColorMatrix values="0 0 0 0 0.951002038 0 0 0 0 0.370524746 0 0 0 0 0.61045536 0 0 0 1 0" in="shadowBlurOuter1"/></filter><filter x="-46.8%" y="-102.6%" width="193.5%" height="305.2%" filterUnits="objectBoundingBox" id="S"><feOffset in="SourceAlpha" result="shadowOffsetOuter1"/><feGaussianBlur stdDeviation="3.5" in="shadowOffsetOuter1" result="shadowBlurOuter1"/><feColorMatrix values="0 0 0 0 0.951002038 0 0 0 0 0.370524746 0 0 0 0 0.61045536 0 0 0 1 0" in="shadowBlurOuter1"/></filter><filter x="-46.8%" y="-102.6%" width="193.5%" height="305.2%" filterUnits="objectBoundingBox" id="V"><feOffset in="SourceAlpha" result="shadowOffsetOuter1"/><feGaussianBlur stdDeviation="3.5" in="shadowOffsetOuter1" result="shadowBlurOuter1"/><feColorMatrix values="0 0 0 0 0.951002038 0 0 0 0 0.370524746 0 0 0 0 0.61045536 0 0 0 1 0" in="shadowBlurOuter1"/></filter><filter x="-46.8%" y="-102.6%" width="193.5%" height="305.2%" filterUnits="objectBoundingBox" id="X"><feOffset in="SourceAlpha" result="shadowOffsetOuter1"/><feGaussianBlur stdDeviation="3.5" in="shadowOffsetOuter1" result="shadowBlurOuter1"/><feColorMatrix values="0 0 0 0 0.951002038 0 0 0 0 0.370524746 0 0 0 0 0.61045536 0 0 0 1 0" in="shadowBlurOuter1"/></filter><circle id="c" cx="60" cy="60" r="60"/><circle id="d" cx="60" cy="60" r="60"/></defs><g fill="none" fill-rule="evenodd"><circle fill-opacity=".15" fill="#000" cx="59.5" cy="59.5" r="58.5"/><path d="M59.529 119.032a59.227 59.227 0 01-33.27-10.162 59.679 59.679 0 01-21.56-26.182 59.426 59.426 0 015.487-56.43A59.679 59.679 0 0136.368 4.7a59.425 59.425 0 0156.43 5.486 59.677 59.677 0 0121.558 26.182 59.428 59.428 0 01-5.487 56.43 59.677 59.677 0 01-26.181 21.559 59.132 59.132 0 01-23.16 4.675zm0-117.025a57.253 57.253 0 00-32.161 9.823 57.686 57.686 0 00-20.84 25.307 57.445 57.445 0 005.303 54.546 57.688 57.688 0 0025.307 20.84 57.444 57.444 0 0054.546-5.304 57.69 57.69 0 0020.84-25.307 57.445 57.445 0 00-5.304-54.545 57.69 57.69 0 00-25.307-20.84 57.163 57.163 0 00-22.384-4.52z" fill="url(#a)" fill-rule="nonzero"/><use fill="url(#b)" xlink:href="#c"/><mask id="g" fill="#fff"><use xlink:href="#d"/></mask><use fill="url(#e)" fill-rule="nonzero" xlink:href="#d"/><path d="M60 119c33.69 0 67.124-33.53 67.124-49.547C127.124 53.437 93.689 61 60 61 26.31 61-1 73.984-1 90s27.31 29 61 29z" fill="url(#f)" mask="url(#g)"/><ellipse fill="url(#h)" fill-rule="nonzero" opacity=".696" mask="url(#g)" cx="70.603" cy="95.43" rx="35" ry="18"/><circle stroke="url(#i)" stroke-width="2" cx="60" cy="60" r="59"/><path stroke="#F44881" stroke-width="2" stroke-linejoin="round" d="M61.96 9l14.643 37.949"/><path d="M59.529 119.032a59.227 59.227 0 01-33.27-10.162 59.679 59.679 0 01-21.56-26.182 59.426 59.426 0 015.487-56.43A59.679 59.679 0 0136.368 4.7a59.425 59.425 0 0156.43 5.486 59.677 59.677 0 0121.558 26.182 59.428 59.428 0 01-5.487 56.43 59.677 59.677 0 01-26.181 21.559 59.132 59.132 0 01-23.16 4.675zm0-117.025a57.253 57.253 0 00-32.161 9.823 57.686 57.686 0 00-20.84 25.307 57.445 57.445 0 005.303 54.546 57.688 57.688 0 0025.307 20.84 57.444 57.444 0 0054.546-5.304 57.69 57.69 0 0020.84-25.307 57.445 57.445 0 00-5.304-54.545 57.69 57.69 0 00-25.307-20.84 57.163 57.163 0 00-22.384-4.52z" fill="url(#a)" fill-rule="nonzero"/><path fill="url(#k)" fill-rule="nonzero" opacity=".75" d="M2.667 87l47 9.43v17l-47-9.43z"/><path d="M7.84 61.423C-1 61.49 1.941 79.963 10.588 79.9" stroke="#2B4671" stroke-width="2"/><g transform="rotate(90 -23.353 34.186)" fill-rule="nonzero"><rect fill="#21324E" x="1.613" y="1.504" width="4.299" height="3.523" rx="1.223"/><rect fill="url(#l)" width="7.524" height="3.01" rx="1.223"/></g><path fill="url(#m)" d="M.086 10.251L20.199 0l20.382 10.242-20.248 10.241z" transform="translate(9 9)"/><path fill="url(#n)" fill-rule="nonzero" opacity=".829" d="M.086 10.251L20.199 0l20.382 10.242-20.248 10.241z" transform="translate(9 9)"/><path fill="url(#o)" d="M20.334 20.483v72.419l20.333-10.39-.086-72.27z" transform="translate(9 9)"/><path fill="url(#p)" fill-rule="nonzero" opacity=".829" d="M20.334 20.483v72.419l20.333-10.39-.086-72.27z" transform="translate(9 9)"/><g transform="translate(30.5 23.572)"><use fill="#162032" fill-rule="nonzero" xlink:href="#q"/><mask id="u" fill="#fff"><use xlink:href="#r"/></mask><use stroke="url(#s)" stroke-width=".2" opacity=".321" stroke-linecap="round" stroke-linejoin="round" xlink:href="#r"/><path fill="url(#t)" opacity=".096" mask="url(#u)" d="M3.346 23.578l-7.68 25.25 10.049 2.827 6.123-25.751z"/><g mask="url(#u)" transform="rotate(-71 8.022 23.335)"><use fill="#000" filter="url(#v)" xlink:href="#w"/><use fill="url(#x)" xlink:href="#w"/></g><path fill="url(#y)" opacity=".059" mask="url(#u)" d="M18 0L0 49.213-1.278 7.917z"/></g><path fill="url(#z)" d="M.086 10.242l.078 72.535 20.17 10.125V20.483z" transform="translate(9 9)"/><path fill="url(#A)" fill-rule="nonzero" opacity=".829" d="M.086 10.242l.078 72.535 20.17 10.125V20.483z" transform="translate(9 9)"/><path fill="#1B2B47" opacity=".195" d="M15.985 56.188l7.909 3.669v-7.375l-6.5-.307z"/><g opacity=".699" stroke="#0C1321" stroke-linecap="round" stroke-linejoin="round"><path stroke-width="2" d="M24.669 52.601L13.055 47.5"/><path d="M13.488 88.899l9.06 4.209m-9.06-6.209l9.06 4.209m-9.06-6.209l9.06 4.209"/></g><path fill="url(#B)" d="M29.333 76.76l62.284-32.066 20.297 9.497-62.333 32.801z"/><path fill="url(#C)" fill-rule="nonzero" opacity=".829" d="M29.333 76.76l62.284-32.066 20.297 9.497-62.333 32.801z"/><path fill="url(#D)" d="M49.392 87.12V112L112 78.924l-.086-24.733z"/><path fill="url(#E)" d="M49.392 87.12V112L112 78.924l-.086-24.733z"/><path fill="url(#F)" fill-rule="nonzero" opacity=".829" d="M49.392 87.12V112L112 78.924l-.086-24.733z"/><path d="M59.044 105.968c1.82 2.864 3.62 4.461 5.4 4.793 5.062.942 12.84-1.745 19.16-4.793 4.386-2.114 3.963-3.976 4.553-5.207 1.36-2.836-4.028-3.163-6.184-1.511-3.093 2.37.164 10.193 9.621 6.718 9.457-3.474 3.806-12.097 10.014-16.648 2.43-1.782 4.969-1.29 6.747-2.82 2.764-2.38 4.233-7.6 4.78-18.047.9-17.17 3.276-17.82 0-18.377" stroke="#000" stroke-width="1.5" opacity=".164"/><path fill="#0F1622" fill-rule="nonzero" d="M56.678 108.16v-2.069l4.722-2.335v2.095z"/><path d="M60.416 107.364c2.595 4.767 8.617 5.994 22.716-1.738 14.1-7.732 2.69-9.507-.275-6.978-2.965 2.528-.77 10.457 8.492 6.493 9.262-3.965 3.661-12.525 9.622-17.395 5.96-4.87 10.552-2.434 10.552-19.626 0-17.193 2.338-17.967-.962-18.352" stroke="url(#G)" stroke-width="1.5" transform="rotate(3 86.371 80.476)"/><path fill="url(#H)" d="M29.333 76.76l-.11 25.115L49.391 112l.189-24.998z"/><path fill="url(#I)" fill-rule="nonzero" opacity=".829" d="M29.333 76.76l-.11 25.115L49.391 112l.189-24.998z"/><path d="M30.816 82.617l-.075 16.904a2 2 0 001.103 1.796l13.19 6.62a2 2 0 002.897-1.771l.127-16.827a2 2 0 00-1.097-1.8l-13.242-6.698a2 2 0 00-2.903 1.776z" fill="#162032" fill-rule="nonzero"/><path d="M.08 3.237L.005 20.14a2 2 0 001.103 1.796l13.19 6.62a2 2 0 002.897-1.772l.127-16.826a2 2 0 00-1.097-1.8L2.983 1.461A2 2 0 00.08 3.237z" stroke="url(#J)" stroke-width=".2" stroke-linecap="round" stroke-linejoin="round" transform="translate(30.736 79.38)"/><g filter="url(#K)" transform="translate(32.934 83.722)" stroke="#F7E2EB" stroke-linecap="round" stroke-linejoin="round"><path d="M0 0l12.476 6.493M0 4l10.075 5M0 13l12.476 6.493"/></g><path stroke="#0C1321" stroke-linecap="round" stroke-linejoin="round" d="M32.934 92.721l6.468 3.247"/><path d="M30.816 82.617l-.078 17.55a.3.3 0 00.477.243L47.54 88.484a.4.4 0 00-.056-.68L33.72 80.841a2 2 0 00-2.903 1.776z" fill="#60A0EF" fill-rule="nonzero" opacity=".138"/><path fill="#1B2B47" opacity=".268" d="M29.334 76.887l62.575-12.184L71.85 54.19z"/><g><path fill="url(#L)" d="M33.647 15.01l19.84-10.07L73.595 15 53.62 25.06z" transform="translate(38.288 15.201)"/><path fill="url(#M)" fill-rule="nonzero" opacity=".829" d="M33.647 15.01l19.84-10.07L73.595 15 53.62 25.06z" transform="translate(38.288 15.201)"/><path d="M45.458 14.11l7.198-3.654a2 2 0 011.8-.005l7.31 3.658a1 1 0 01.002 1.787l-7.248 3.651a2 2 0 01-1.8 0l-7.259-3.653a1 1 0 01-.003-1.785z" fill="url(#N)" fill-rule="nonzero" transform="translate(38.288 15.201)"/><path d="M45.458 14.11l7.198-3.654a2 2 0 011.8-.005l7.31 3.658a1 1 0 01.002 1.787l-7.248 3.651a2 2 0 01-1.8 0l-7.259-3.653a1 1 0 01-.003-1.785z" stroke="url(#O)" stroke-width=".2" stroke-linecap="round" stroke-linejoin="round" transform="translate(38.288 15.201)"/><g transform="translate(38.288 15.201)"><use fill="#000" filter="url(#P)" xlink:href="#Q"/><use fill="url(#R)" xlink:href="#Q"/></g><g transform="translate(38.288 15.201)"><use fill="#000" filter="url(#S)" xlink:href="#T"/><use fill="url(#U)" xlink:href="#T"/></g><g opacity=".239" transform="translate(38.288 15.201)"><use fill="#000" filter="url(#V)" xlink:href="#W"/><use fill="url(#U)" xlink:href="#W"/></g><g opacity=".123" transform="translate(38.288 15.201)"><use fill="#000" filter="url(#X)" xlink:href="#Y"/><use fill="url(#U)" xlink:href="#Y"/></g><path fill="#1B2B47" opacity=".268" d="M41.28 82.347l8.19 4.153 8.8-4.54-1.71-7.31-15.589 3.96z"/><path d="M40.978 78.226l7.86-5.286 8.369 3.29v.99a1 1 0 01-.396.797l-6.84 5.192a2 2 0 01-2.116.189l-6.773-3.451a1 1 0 01-.104-1.72z" fill="#25395A" fill-rule="nonzero"/><path d="M2.976 4.476l8.863-.92a1 1 0 01.899.388l4.86 6.373a1 1 0 01-.653 1.596l-8.387 1.21a2 2 0 01-1.924-.833L2.26 6.044a1 1 0 01.715-1.568z" fill="url(#Z)" fill-rule="nonzero" transform="rotate(-28 167.87 -35.357)"/><path d="M2.976 4.476l8.863-.92a1 1 0 01.899.388l4.86 6.373a1 1 0 01-.653 1.596l-8.387 1.21a2 2 0 01-1.924-.833L2.26 6.044a1 1 0 01.715-1.568z" fill="url(#aa)" fill-rule="nonzero" opacity=".57" transform="rotate(-28 167.87 -35.357)"/><path d="M11.834 3.506l-8.863.92a1.05 1.05 0 00-.751 1.647l4.373 6.246a2.05 2.05 0 001.972.853l8.387-1.21a1.05 1.05 0 00.685-1.676l-4.86-6.372a1.05 1.05 0 00-.943-.408zm.01.1a.95.95 0 01.854.368l4.86 6.373a.95.95 0 01-.62 1.516l-8.388 1.21a1.95 1.95 0 01-1.875-.812L2.3 6.015a.95.95 0 01.68-1.49l8.863-.92z" fill="url(#ab)" fill-rule="nonzero" transform="rotate(-28 167.854 -35.409)"/><path stroke="#192439" stroke-width="1.5" stroke-linecap="round" stroke-linejoin="round" d="M43.346 77.717l5.854 2.892"/><path stroke="#F7E2EB" stroke-width=".5" stroke-linecap="round" stroke-linejoin="round" d="M43.346 77.717l5.854 2.892"/><path d="M3 5.567l9.42-.979 5.845 6.834-.465.876a1 1 0 01-.723.517L8.6 14.188a2 2 0 01-1.958-.827l-4.36-6.226A1 1 0 013 5.567z" fill="url(#ac)" fill-rule="nonzero" transform="rotate(-23 193.924 -52.797)"/><path d="M2.976 4.476l8.863-.92a1 1 0 01.899.388l4.86 6.373a1 1 0 01-.653 1.596l-8.387 1.21a2 2 0 01-1.924-.833L2.26 6.044a1 1 0 01.715-1.568z" fill="url(#ad)" fill-rule="nonzero" transform="rotate(-23 194.189 -54.11)"/><path d="M2.976 4.476l8.863-.92a1 1 0 01.899.388l4.86 6.373a1 1 0 01-.653 1.596l-8.387 1.21a2 2 0 01-1.924-.833L2.26 6.044a1 1 0 01.715-1.568z" fill="url(#aa)" fill-rule="nonzero" opacity=".57" transform="rotate(-23 194.189 -54.11)"/><path d="M11.834 3.506l-8.863.92a1.05 1.05 0 00-.751 1.647l4.373 6.246a2.05 2.05 0 001.972.853l8.387-1.21a1.05 1.05 0 00.685-1.676l-4.86-6.372a1.05 1.05 0 00-.943-.408zm.01.1a.95.95 0 01.854.368l4.86 6.373a.95.95 0 01-.62 1.516l-8.388 1.21a1.95 1.95 0 01-1.875-.812L2.3 6.015a.95.95 0 01.68-1.49l8.863-.92z" fill="url(#ae)" fill-rule="nonzero" transform="rotate(-23 194.171 -54.174)"/><path stroke="#192439" stroke-width="1.5" stroke-linecap="round" stroke-linejoin="round" d="M43.384 75.226l5.58 3.391"/><path fill="url(#af)" d="M53.62 25.06v24.442l20.06-10.207L73.594 15z" transform="translate(38.288 15.201)"/><path fill="url(#ag)" fill-rule="nonzero" opacity=".829" d="M53.62 25.06v24.442l20.06-10.207L73.594 15z" transform="translate(38.288 15.201)"/><path fill="url(#ah)" d="M33.647 15l.076 24.556 19.897 9.946V25.06z" transform="translate(38.288 15.201)"/><path fill="url(#ai)" fill-rule="nonzero" opacity=".829" d="M33.647 15l.076 24.556 19.897 9.946V25.06z" transform="translate(38.288 15.201)"/><g transform="translate(73.238 33.452)"><use fill="#162032" fill-rule="nonzero" xlink:href="#aj"/><mask id="am" fill="#fff"><use xlink:href="#ak"/></mask><use stroke="url(#al)" stroke-width=".2" stroke-linecap="round" stroke-linejoin="round" xlink:href="#ak"/><g mask="url(#am)"><path fill="#27425A" d="M14.077 8.204l1.685.781v1.509l-1.685-.782z"/><path fill="#FFF" d="M14.077 10.717l1.685.782v1.508l-1.685-.782z"/><path fill="#27425A" d="M14.077 13.23l1.685.783v1.508l-1.685-.782z"/><path fill="#FFF" d="M14.077 15.744l1.685.782v1.508l-1.685-.781z"/><path fill="#27425A" d="M14.077 18.258l1.685.782v1.508l-1.685-.782z"/><path fill="#FFF" d="M11.614 7.073l1.685.781v1.509l-1.685-.782zm0 2.513l1.685.782v1.508l-1.685-.782zm0 2.514l1.685.782v1.508l-1.685-.782zm0 2.513l1.685.782v1.508l-1.685-.781z"/><path fill="#27425A" d="M11.614 17.127l1.685.782v1.508l-1.685-.782zM9.15 5.941l1.686.782v1.508L9.151 7.45z"/><path fill="#FFF" d="M9.15 8.455l1.686.782v1.508l-1.685-.782z"/><path fill="#27425A" d="M9.15 10.969l1.686.781v1.509l-1.685-.782zm0 2.513l1.686.782v1.508l-1.685-.782z"/><path fill="#FFF" d="M9.15 15.996l1.686.782v1.508l-1.685-.782zM6.688 4.81l1.685.782V7.1l-1.685-.782z"/><path fill="#27425A" d="M6.688 7.324l1.685.782v1.508l-1.685-.782z"/><path fill="#FFF" d="M6.688 9.838l1.685.781v1.508l-1.685-.781z"/><path fill="#27425A" d="M6.688 12.351l1.685.782v1.508l-1.685-.782z"/><path fill="#FFF" d="M6.688 14.865l1.685.782v1.508l-1.685-.782zM4.225 3.68l1.685.781v1.508l-1.685-.782zm0 2.513l1.685.782v1.508L4.225 7.7zm0 2.513l1.685.782v1.508l-1.685-.781zm0 2.514l1.685.782v1.508l-1.685-.782zm0 2.514l1.685.781v1.509l-1.685-.782zM1.762 2.548l1.685.782v1.508l-1.685-.782z"/></g><path fill="url(#an)" opacity=".338" mask="url(#am)" d="M17.368 8.483L3.365 14.879l.86-13.095z"/></g><g opacity=".7" stroke="#0C1321" stroke-linecap="round" stroke-linejoin="round"><path d="M87.351 58l-10.748-5.233M87.351 56l-10.748-5.233"/></g></g><g fill-rule="nonzero"><path d="M61.866-.178a.2.2 0 01.235.318l-.051.038-19.43 10.05a.2.2 0 01-.235-.316l.051-.039 19.43-10.05z" fill="url(#ao)" transform="translate(49.38 30.21)"/><path d="M22.29-.09a.2.2 0 01.218-.106l.051.017L42.618 9.872a.2.2 0 01-.129.375l-.05-.017L22.379.179a.2.2 0 01-.088-.269z" fill="url(#ap)" transform="translate(49.38 30.21)"/><path d="M42.528 9.851a.2.2 0 01.193.147l.007.053v24.441a.2.2 0 01-.393.053l-.007-.053v-24.44a.2.2 0 01.2-.2zM.2 56.557a.2.2 0 01.193.147l.007.053V81.2a.2.2 0 01-.393.053L0 81.199V56.757c0-.11.09-.2.2-.2z" fill="url(#aq)" transform="translate(49.38 30.21)"/></g><g><path d="M40.295.022a.2.2 0 01.226.326l-.045.03L20.291 10.62a.2.2 0 01-.226-.326l.045-.03L40.295.021z" fill="url(#ar)" fill-rule="nonzero" opacity=".6" transform="translate(9.28 19.041)"/><path fill="url(#as)" opacity=".392" d="M23.653 9.907v10.536l6.292-2.686-5.703-9.314z" transform="translate(9.28 19.041)"/><path d="M.02.631A.2.2 0 01.237.522l.05.017 20 9.723a.2.2 0 01-.123.376l-.051-.017L.113.9A.2.2 0 01.02.63z" fill="url(#at)" fill-rule="nonzero" opacity=".6" transform="translate(9.28 19.041)"/><path d="M20.22 10.259a.2.2 0 01.192.146l.007.054v34.1a.2.2 0 01-.392.054l-.008-.053V10.459c0-.11.09-.2.2-.2z" fill="url(#au)" fill-rule="nonzero" opacity=".6" transform="translate(9.28 19.041)"/></g><g transform="translate(47.662 31.489)" fill-rule="nonzero"><ellipse fill="url(#av)" opacity=".598" cx="16.941" cy="36.941" rx="16.941" ry="3"/><ellipse fill="url(#aw)" transform="rotate(90 32.441 13)" cx="32.441" cy="13" rx="13" ry="3.5"/></g><g><path d="M63.139 54.605c.072 1.09.328 1.93.77 2.518.442.587.622.925 1.508 1.018 1.365.143 2.333-.455 2.903-1.796.57-1.34 1.158-3.413 1.48-6.479-.773.965-1.818 1.676-3.135 2.135-1.316.46-2.91.476-4.497.31-3.506-.37-6.212-1.774-8.12-4.215-1.907-2.44-2.642-5.748-2.203-9.921.291-2.77 1.126-5.119 2.503-7.046 1.378-1.928 3.205-3.332 5.48-4.213 2.275-.881 3.834-.94 6.712-.638 5.83.613 9.719 2.526 11.627 6.2 1.909 3.672 3.197 8.67 2.53 15.022-.77 7.313-2.238 12.68-4.854 16.101-2.617 3.422-6.457 4.87-11.734 4.316-2.915-.306-5.36-1.18-7.336-2.62-1.975-1.44-3.422-3.206-4.34-5.3a14.747 14.747 0 01-1.237-6.6l11.943 1.208zm3.063-11.392c.997.104 1.82-.09 2.468-.581.648-.492 1.025-1.237 1.13-2.234.116-1.108-.083-1.96-.599-2.555-.516-.596-1.29-.948-2.323-1.057-1.034-.108-1.864.075-2.493.55-.628.476-1 1.268-1.117 2.376-.105.997.11 1.803.641 2.42.533.615 1.297.976 2.293 1.08z" fill="#1E3150" fill-rule="nonzero"/><path d="M14.58 30.363c.186 1.077.53 1.884 1.03 2.423.501.538 1.197.807 2.087.807 1.373 0 2.273-.696 2.7-2.088.427-1.393.64-3.63.64-6.713-.668 1.04-1.633 1.857-2.894 2.451-1.262.595-2.69.892-4.286.892-3.525 0-6.364-1.114-8.516-3.343-2.152-2.228-3.228-5.44-3.228-9.636 0-2.785.584-5.208 1.753-7.27 1.169-2.06 2.839-3.648 5.01-4.762 2.17-1.114 4.703-1.671 7.597-1.671 5.863 0 9.935 1.727 12.217 5.18 2.282 3.454 3.423 8.374 3.423 14.762 0 7.352-1.123 12.867-3.367 16.543-2.245 3.677-6.02 5.515-11.327 5.515-2.931 0-5.454-.613-7.57-1.838-2.115-1.226-3.738-2.832-4.87-4.819a14.747 14.747 0 01-1.92-6.433H14.58zm2.338-11.698c1.002 0 1.8-.278 2.393-.835.594-.557.891-1.337.891-2.34 0-1.114-.288-1.94-.863-2.479-.575-.538-1.382-.807-2.42-.807-1.04 0-1.847.269-2.422.807-.575.539-.863 1.365-.863 2.479 0 1.003.297 1.783.89 2.34.594.557 1.392.835 2.394.835z" fill="url(#ax)" transform="rotate(6 -193.137 491.596)"/><path d="M14.58 30.363c.186 1.077.53 1.884 1.03 2.423.501.538 1.197.807 2.087.807 1.373 0 2.273-.696 2.7-2.088.427-1.393.64-3.63.64-6.713-.668 1.04-1.633 1.857-2.894 2.451-1.262.595-2.69.892-4.286.892-3.525 0-6.364-1.114-8.516-3.343-2.152-2.228-3.228-5.44-3.228-9.636 0-2.785.584-5.208 1.753-7.27 1.169-2.06 2.839-3.648 5.01-4.762 2.17-1.114 4.703-1.671 7.597-1.671 5.863 0 9.935 1.727 12.217 5.18 2.282 3.454 3.423 8.374 3.423 14.762 0 7.352-1.123 12.867-3.367 16.543-2.245 3.677-6.02 5.515-11.327 5.515-2.931 0-5.454-.613-7.57-1.838-2.115-1.226-3.738-2.832-4.87-4.819a14.747 14.747 0 01-1.92-6.433H14.58zm2.338-11.698c1.002 0 1.8-.278 2.393-.835.594-.557.891-1.337.891-2.34 0-1.114-.288-1.94-.863-2.479-.575-.538-1.382-.807-2.42-.807-1.04 0-1.847.269-2.422.807-.575.539-.863 1.365-.863 2.479 0 1.003.297 1.783.89 2.34.594.557 1.392.835 2.394.835z" fill="url(#ay)" fill-rule="nonzero" opacity=".503" transform="rotate(6 -193.137 491.596)"/><path d="M14.58 30.363c.186 1.077.53 1.884 1.03 2.423.501.538 1.197.807 2.087.807 1.373 0 2.273-.696 2.7-2.088.427-1.393.64-3.63.64-6.713-.668 1.04-1.633 1.857-2.894 2.451-1.262.595-2.69.892-4.286.892-3.525 0-6.364-1.114-8.516-3.343-2.152-2.228-3.228-5.44-3.228-9.636 0-2.785.584-5.208 1.753-7.27 1.169-2.06 2.839-3.648 5.01-4.762 2.17-1.114 4.703-1.671 7.597-1.671 5.863 0 9.935 1.727 12.217 5.18 2.282 3.454 3.423 8.374 3.423 14.762 0 7.352-1.123 12.867-3.367 16.543-2.245 3.677-6.02 5.515-11.327 5.515-2.931 0-5.454-.613-7.57-1.838-2.115-1.226-3.738-2.832-4.87-4.819a14.747 14.747 0 01-1.92-6.433H14.58zm2.338-11.698c1.002 0 1.8-.278 2.393-.835.594-.557.891-1.337.891-2.34 0-1.114-.288-1.94-.863-2.479-.575-.538-1.382-.807-2.42-.807-1.04 0-1.847.269-2.422.807-.575.539-.863 1.365-.863 2.479 0 1.003.297 1.783.89 2.34.594.557 1.392.835 2.394.835z" fill="url(#az)" fill-rule="nonzero" opacity=".829" transform="rotate(6 -193.137 491.596)"/><path d="M14.58 30.363c.186 1.077.53 1.884 1.03 2.423.501.538 1.197.807 2.087.807 1.373 0 2.273-.696 2.7-2.088.427-1.393.64-3.63.64-6.713-.668 1.04-1.633 1.857-2.894 2.451-1.262.595-2.69.892-4.286.892-3.525 0-6.364-1.114-8.516-3.343-2.152-2.228-3.228-5.44-3.228-9.636 0-2.785.584-5.208 1.753-7.27 1.169-2.06 2.839-3.648 5.01-4.762 2.17-1.114 4.703-1.671 7.597-1.671 5.863 0 9.935 1.727 12.217 5.18 2.282 3.454 3.423 8.374 3.423 14.762 0 7.352-1.123 12.867-3.367 16.543-2.245 3.677-6.02 5.515-11.327 5.515-2.931 0-5.454-.613-7.57-1.838-2.115-1.226-3.738-2.832-4.87-4.819a14.747 14.747 0 01-1.92-6.433H14.58zm2.338-11.698c1.002 0 1.8-.278 2.393-.835.594-.557.891-1.337.891-2.34 0-1.114-.288-1.94-.863-2.479-.575-.538-1.382-.807-2.42-.807-1.04 0-1.847.269-2.422.807-.575.539-.863 1.365-.863 2.479 0 1.003.297 1.783.89 2.34.594.557 1.392.835 2.394.835z" stroke="url(#aA)" stroke-width=".4" opacity=".703" stroke-linecap="round" stroke-linejoin="round" transform="rotate(6 -193.137 491.596)"/></g><g><path stroke="#F44881" stroke-width="2" stroke-linejoin="round" d="M62.783 9L29.481 20.14l20.186 33.856"/><g transform="rotate(90 12.824 51.612)" fill-rule="nonzero"><circle fill="url(#aB)" style="mix-blend-mode:lighten" cx="14.878" cy="14.878" r="7.935"/><circle fill="url(#aB)" opacity=".284" cx="14.878" cy="14.878" r="14.878"/><circle fill="url(#aC)" cx="14.878" cy="14.878" r="2.521"/></g><circle cx="2.863" cy="2.863" r="2.863" transform="rotate(112 10.24 20.337)" fill="url(#aD)" fill-rule="nonzero"/><circle cx="2.599" cy="2.599" r="2.599" transform="rotate(112 30.207 25.686)" fill="url(#aD)" fill-rule="nonzero"/></g><path d="M91.816 64.526a.2.2 0 01.237.316L92 64.88 49.673 86.987a.2.2 0 01-.236-.316l.051-.039 42.328-22.106z" fill="url(#aE)" fill-rule="nonzero"/><path d="M29.302 76.67a.2.2 0 01.217-.106l.051.017 20.1 10.05a.2.2 0 01-.128.375l-.05-.017-20.1-10.05a.2.2 0 01-.09-.268z" fill="url(#aF)" fill-rule="nonzero"/><g><path d="M10.1 51.113l4.256-2.587 9.34 3.29v1l-4.738 3.329a2 2 0 01-2.058.145l-6.735-3.431a1 1 0 01-.065-1.746z" fill="#25395A" fill-rule="nonzero"/><path d="M3.123 3.698l4.973-.287 6.701 7.29-.47.883-5.745.715a2 2 0 01-1.885-.838L2.362 5.27a1 1 0 01.761-1.572z" fill="url(#aG)" fill-rule="nonzero" opacity=".829" transform="rotate(-28 101.698 13.415)"/><path d="M3.123 3.698l4.973-.287h0l6.701 7.29-.47.883-5.745.715a2 2 0 01-1.885-.838L2.362 5.27a1 1 0 01.761-1.572z" stroke="url(#aH)" stroke-width=".1" opacity=".7" stroke-linecap="round" stroke-linejoin="round" transform="rotate(-28 101.698 13.415)"/><path d="M3.15 2.808l4.973-.287 6.232 8.173-5.745.715a2 2 0 01-1.886-.838L2.39 4.38a1 1 0 01.762-1.572z" fill="url(#aI)" fill-rule="nonzero" transform="rotate(-28 101.49 12.525)"/><path d="M3.15 2.808l4.973-.287 6.232 8.173-5.745.715a2 2 0 01-1.886-.838L2.39 4.38a1 1 0 01.762-1.572z" fill="url(#aJ)" fill-rule="nonzero" opacity=".829" transform="rotate(-28 101.49 12.525)"/><path d="M3.15 2.808l4.973-.287h0l6.232 8.173-5.745.715a2 2 0 01-1.886-.838L2.39 4.38a1 1 0 01.762-1.572z" stroke="url(#aK)" stroke-width=".2" opacity=".7" stroke-linecap="round" stroke-linejoin="round" transform="rotate(-28 101.49 12.525)"/><path stroke="#192439" stroke-width="1.5" stroke-linecap="round" stroke-linejoin="round" d="M12.346 50.587l5.855 2.892"/><path stroke="#F7E2EB" stroke-width=".5" stroke-linecap="round" stroke-linejoin="round" d="M12.346 50.587l5.855 2.892"/></g><g stroke="#0C1321" stroke-linecap="round" stroke-linejoin="round"><path d="M107.5 62v12m-2-10.399v12m-2-10.504v12"/></g></g></svg>