<svg width="120" height="120" fill="none" xmlns="http://www.w3.org/2000/svg"><circle cx="60" cy="60" r="60" fill="url(#7iolkj7uia)"/><circle cx="60" cy="60" r="59" stroke="url(#h0i958uepb)" stroke-width="2"/><mask id="a" style="mask-type:alpha" maskUnits="userSpaceOnUse" x="29" y="0" width="63" height="74"><path fill-rule="evenodd" clip-rule="evenodd" d="M60.211 5.627c-1.903 0-3.69.117-5.368.342-2.802.375-5.667-1.582-6.71-4.209-1.03-2.597-3.866-2.133-5.29.27-3.396 5.731-7.915 14.458-9.662 20.604C29.15 32.18 29 43.666 29 51.266c0 15.123 14.299 21.789 31.211 21.789s31.211-6.666 31.211-21.79c0-6.838-.12-16.823-3.083-25.711-.142-.426-.25-.86-.339-1.3-1.245-6.099-6.668-15.979-10.553-22.262-1.467-2.373-4.308-2.834-5.338-.24-1.037 2.609-3.877 4.562-6.661 4.2a40.575 40.575 0 00-5.237-.325z" fill="url(#tk2h3r35ec)"/></mask><g mask="url(#a)"><rect x="27.233" y="-4.711" width="66.545" height="83.034" rx="7.508" fill="url(#rckuafig7e)"/><path fill-rule="evenodd" clip-rule="evenodd" d="M59.917 8.833c6.992 0 12.66-2.9 12.66-6.477 0-3.578-5.668-6.478-12.66-6.478-6.993 0-12.661 2.9-12.661 6.478 0 3.577 5.668 6.477 12.66 6.477zm5.08-3.777c.826-.009 2.444-.665 2.444-1.35 0-1.64-3.259-5.05-7.552-5.05-4.294 0-7.553 2.87-7.553 4.51 0 .809 1.333 1.651 2.444 1.889.719.153 1.476.053 2.379-.066.723-.096 1.54-.204 2.508-.204 1.454 0 2.631.095 3.587.173.688.056 1.262.103 1.744.098z" fill="#111B2C" fill-opacity=".21"/></g><rect x="11" y="14" width="100" height="100" rx="19.656" fill="url(#120jmv3xzf)"/><mask id="b" style="mask-type:alpha" maskUnits="userSpaceOnUse" x="5" y="24" width="7" height="77"><path d="M5 27.448a3.448 3.448 0 116.897 0v62.617c0 2.505-.478 4.987-1.407 7.313l-1.129 2.825c-.33.824-1.496.824-1.825 0l-1.129-2.825A19.707 19.707 0 015 90.065V27.448z" fill="url(#izliops32g)"/></mask><g mask="url(#b)"><rect x="3.851" y="22.925" width="9.196" height="78.486" rx="4.598" fill="url(#n8g18xjkui)"/><path fill="#111B2C" fill-opacity=".1" d="M7 28h8v65H7z"/><path fill="#111B2C" fill-opacity=".15" d="M9 28h6v65H9z"/><path fill="#1D2B46" d="M3.851 17.549h9.196v10.752H3.851z"/><path fill="#121B2D" d="M3.851 92.81h9.196v10.752H3.851z"/></g><path d="M11 29.706C11 18.823 19.823 10 30.706 10h60.588C102.177 10 111 18.823 111 29.706v61.588C111 102.177 102.177 111 91.294 111H30.706C19.823 111 11 102.177 11 91.294V29.706z" fill="url(#e4m1gxxkzj)"/><path d="M33 13c-2.8.8-8.5-1.333-8.5-2l3.5-1h2.5c.167.333 5.3 2.2 2.5 3z" fill="#000" fill-opacity=".12"/><rect x="14" y="13" width="94" height="96" rx="15.725" fill="url(#xrxv7oyidk)"/><path d="M45 24v75m55-22H25m75-32H25m53-21v75" stroke="#496E9E" stroke-opacity=".2" stroke-linejoin="round"/><rect x="49" y="49" width="25" height="24" rx="6" fill="url(#zqyvok188l)" fill-opacity=".3"/><path d="M30.552 35.405h4.403V38h-7.764V24.201h3.361v11.204z" fill="#496E9E"/><g filter="url(#psulgyjqzm)"><path d="M32.693 68.002l-2.87-5.208h-.806v5.208h-3.361V54.204h5.641c1.088 0 2.012.19 2.772.57.773.38 1.35.904 1.73 1.572.38.656.57 1.39.57 2.202 0 .917-.263 1.736-.787 2.457-.51.72-1.27 1.232-2.28 1.533l3.184 5.464h-3.793zm-3.676-7.587h2.084c.616 0 1.074-.15 1.376-.452.314-.301.471-.727.471-1.278 0-.524-.157-.937-.471-1.238-.302-.301-.76-.452-1.376-.452h-2.084v3.42z" fill="#FEC63B"/></g><g filter="url(#nh02jtkt4n)"><path d="M30.726 98.985c-1.297 0-2.49-.301-3.578-.904a6.874 6.874 0 01-2.574-2.516c-.63-1.088-.944-2.306-.944-3.656s.315-2.562.944-3.636a6.874 6.874 0 012.574-2.516c1.088-.603 2.28-.904 3.578-.904 1.297 0 2.483.3 3.558.904a6.55 6.55 0 012.555 2.516c.629 1.074.943 2.286.943 3.636s-.314 2.568-.943 3.656a6.728 6.728 0 01-2.555 2.516c-1.075.603-2.26.904-3.558.904zm0-3.066c1.1 0 1.979-.367 2.634-1.1.668-.735 1.002-1.704 1.002-2.91 0-1.219-.334-2.188-1.002-2.91-.655-.733-1.533-1.1-2.634-1.1-1.114 0-2.005.36-2.673 1.081-.655.721-.983 1.697-.983 2.929 0 1.219.328 2.195.983 2.929.668.72 1.56 1.08 2.673 1.08z" fill="#FEC63B"/></g><path d="M67.672 67.38h-3.36l-5.622-8.51v8.51h-3.361V53.583h3.36l5.622 8.55v-8.55h3.361v13.799z" fill="#496E9E"/><g filter="url(#6hdxzy49go)"><path d="M84.666 61.084c0-1.363.295-2.575.885-3.637a6.255 6.255 0 012.457-2.496c1.061-.603 2.26-.904 3.597-.904 1.638 0 3.04.432 4.206 1.297 1.166.865 1.946 2.044 2.34 3.538h-3.696a2.967 2.967 0 00-1.18-1.317c-.498-.301-1.068-.452-1.71-.452-1.035 0-1.874.36-2.516 1.081-.642.72-.963 1.684-.963 2.89 0 1.205.321 2.168.963 2.889.642.72 1.481 1.081 2.516 1.081.642 0 1.212-.15 1.71-.452.511-.302.905-.74 1.18-1.317h3.695c-.393 1.494-1.173 2.673-2.339 3.538-1.166.852-2.568 1.278-4.206 1.278-1.337 0-2.536-.295-3.597-.885a6.426 6.426 0 01-2.457-2.496c-.59-1.062-.885-2.274-.885-3.636z" fill="#FEC63B"/></g><path d="M60.361 26.43v2.791h4.501v2.595h-4.5v3.027h5.09v2.693H57V23.737h8.452v2.693h-5.09zm.387 58.62c1.454 0 2.725.287 3.813.864a6.098 6.098 0 012.516 2.437c.603 1.035.904 2.234.904 3.597 0 1.35-.301 2.55-.904 3.597-.59 1.049-1.435 1.861-2.536 2.438-1.087.576-2.352.865-3.793.865h-5.17V85.049h5.17zm-.217 10.889c1.271 0 2.26-.348 2.968-1.042.708-.695 1.062-1.678 1.062-2.949 0-1.27-.354-2.26-1.062-2.968-.707-.707-1.697-1.061-2.968-1.061H58.94v8.02h1.592z" fill="#496E9E"/><g filter="url(#yz7ib40n6p)"><path d="M90.934 88.403v2.791h4.5v2.595h-4.5v3.027h5.09v2.692h-8.452V85.71h8.453v2.693h-5.091z" fill="#FEC63B"/></g><path d="M94.686 35.563h-5.15L88.711 38h-3.519l4.993-13.799h3.892L99.069 38h-3.557l-.826-2.437zm-.865-2.595l-1.71-5.052-1.69 5.052h3.4z" fill="#496E9E"/><path d="M117.548 54.243l-12.668 4.202-31.067-19.927L37.5 54.243" stroke="url(#7hbwv6wd4q)" stroke-width="1.971" stroke-linecap="round" stroke-linejoin="round"/><ellipse cx="37.169" cy="54.169" rx="2.411" ry="2.412" transform="rotate(55 37.17 54.17)" fill="#FAC446"/><path fill-rule="evenodd" clip-rule="evenodd" d="M38.966 53.333a2.3 2.3 0 01.415 1.393 2.297 2.297 0 10-4.478-.792 2.297 2.297 0 014.063-.6z" fill="#fff" fill-opacity=".2"/><g style="mix-blend-mode:hard-light" opacity=".587" filter="url(#ko1j9glzer)"><circle cx="36.759" cy="53.759" r="13.759" fill="url(#ktfjpfcgks)"/></g><g style="mix-blend-mode:hard-light" opacity=".587" filter="url(#ost0s6jest)"><circle cx="36.759" cy="53.759" r="8.845" fill="url(#2gwc6qnuhu)"/></g><ellipse cx="73.194" cy="38.883" rx="3.792" ry="3.787" transform="rotate(55 73.194 38.883)" fill="#FAC446"/><path fill-rule="evenodd" clip-rule="evenodd" d="M76.015 37.568c.467.666.677 1.434.653 2.189a3.607 3.607 0 00-.476-3.194 3.609 3.609 0 00-5.026-.89 3.6 3.6 0 00-1.535 2.838 3.609 3.609 0 016.384-.943z" fill="#fff" fill-opacity=".2"/><ellipse cx="104.621" cy="58.516" rx="2.364" ry="2.361" transform="rotate(55 104.621 58.516)" fill="#FAC446"/><path fill-rule="evenodd" clip-rule="evenodd" d="M106.348 57.628c.282.404.41.87.395 1.327a2.188 2.188 0 10-4.265-.755 2.187 2.187 0 013.87-.572z" fill="#fff" fill-opacity=".2"/><path fill-rule="evenodd" clip-rule="evenodd" d="M29.999 15c-7.732 0-14 6.268-14 14v64.404c0 5.4 3.056 10.084 7.533 12.42a62.24 62.24 0 01-2.642-18.005c0-33.56 26.499-60.766 59.187-60.766A57.685 57.685 0 01106 33.177V29c0-7.732-6.268-14-14-14H30z" fill="url(#vu09ejqg6v)" fill-opacity=".3"/><ellipse opacity=".593" cx="38" cy="13.5" rx="8" ry="5.5" fill="url(#0lf73uqnww)" fill-opacity=".57"/><path fill-rule="evenodd" clip-rule="evenodd" d="M29 10.095c.009-.032 0 0-.294.059l-4.206.948c-.313-1.568.188-2.98.948-3.866.784-.916 1.861-1.652 3.007-2.167 2.242-1.007 5.398-1.441 8.126.053 1.964 1.075 3.044 2.763 3.365 4.562.306 1.72-.092 3.44-.854 4.767-.723 1.26-2.06 2.611-3.937 2.757-2.1.163-3.687-1.234-4.648-3.07a2.25 2.25 0 013.986-2.086c.158.3.286.478.378.58.081-.075.194-.203.319-.421.294-.512.427-1.168.326-1.737-.088-.49-.356-1-1.097-1.406-1.099-.601-2.693-.535-4.119.106-.688.31-1.041.619-1.3.921-.102.119.014-.03 0 0zm6.028 2.663c0 .004-.017-.001-.048-.024.033.01.048.021.048.024z" fill="url(#76bn5ycxgx)"/><ellipse opacity=".593" cx="60.5" cy="117" rx="38.5" ry="3" fill="url(#bz2qlc8xjy)"/><ellipse cx="6.604" cy="111.631" rx=".275" ry=".55" transform="rotate(-33.69 6.604 111.631)" fill="#121B2D"/><ellipse cx="10.182" cy="111.631" rx=".275" ry=".55" transform="rotate(32.756 10.182 111.631)" fill="#121B2D"/><ellipse cx="8.668" cy="104.477" rx=".413" ry="2.477" fill="#121B2D"/><path fill-rule="evenodd" clip-rule="evenodd" d="M9.407 112.331c-.172-.28-.38-.62-.38-1.046 0-1.025-.243-1.855-.544-1.855-.252 0-.465.584-.526 1.377-.293.028-.527.571-.527 1.237 0 .684.246 1.238.55 1.238.04 0 .08-.009.117-.027.322.053.766.017 1.002-.002.07-.006.122-.01.147-.01.572-.241.402-.519.161-.912z" fill="#121B2D"/><ellipse cx="8.668" cy="113.42" rx="3.99" ry=".963" fill="#121B2D"/><ellipse cx="2.339" cy="114.933" rx="2.339" ry=".55" fill="#121B2D"/><ellipse cx="15.823" cy="115.209" rx="1.238" ry=".275" fill="#121B2D"/><defs><linearGradient id="7iolkj7uia" x1="-21.686" y1="40.877" x2="50.409" y2="137.261" gradientUnits="userSpaceOnUse"><stop stop-color="#1C2B45"/><stop offset="1" stop-color="#0C1321"/></linearGradient><linearGradient id="h0i958uepb" x1="-25.227" y1="22.708" x2="4.038" y2="134.632" gradientUnits="userSpaceOnUse"><stop stop-color="#FFC63B"/><stop offset="1" stop-color="#F29D1C"/></linearGradient><linearGradient id="tk2h3r35ec" x1="12.853" y1="-36.174" x2="89.365" y2="61.491" gradientUnits="userSpaceOnUse"><stop stop-color="#6BA0E2"/><stop offset="1" stop-color="#131E32"/></linearGradient><linearGradient id="rckuafig7e" x1="10.02" y1="-45.827" x2="98.156" y2="59.691" gradientUnits="userSpaceOnUse"><stop stop-color="#6BA0E2"/><stop offset="1" stop-color="#131E32"/></linearGradient><linearGradient id="120jmv3xzf" x1="53.925" y1="18.717" x2="61" y2="115.415" gradientUnits="userSpaceOnUse"><stop stop-color="#1C2B45"/><stop offset="1" stop-color="#18263C"/></linearGradient><linearGradient id="n8g18xjkui" x1="4" y1="27.5" x2="20.482" y2="28.927" gradientUnits="userSpaceOnUse"><stop stop-color="#6BA0E2"/><stop offset="1" stop-color="#131E32"/></linearGradient><linearGradient id="e4m1gxxkzj" x1="21.761" y1="10" x2="121.565" y2="109.92" gradientUnits="userSpaceOnUse"><stop stop-color="#6BA0E2"/><stop offset="1" stop-color="#131E32"/></linearGradient><linearGradient id="xrxv7oyidk" x1="28.815" y1="23.956" x2="69.002" y2="108.352" gradientUnits="userSpaceOnUse"><stop stop-color="#1C2B45"/><stop offset="1" stop-color="#0C1321"/></linearGradient><linearGradient id="7hbwv6wd4q" x1="93.5" y1="45.5" x2="122" y2="52" gradientUnits="userSpaceOnUse"><stop stop-color="#EEB20D"/><stop offset="1" stop-color="#F8BA0F" stop-opacity="0"/></linearGradient><linearGradient id="vu09ejqg6v" x1="22.845" y1="21.087" x2="75.643" y2="72.851" gradientUnits="userSpaceOnUse"><stop stop-color="#587CB9"/><stop offset="1" stop-color="#2E4469" stop-opacity=".01"/></linearGradient><radialGradient id="izliops32g" cx="0" cy="0" r="1" gradientUnits="userSpaceOnUse" gradientTransform="matrix(7.9561 82.48539 -15.83401 1.52726 5 29.667)"><stop stop-color="#6BA0E2"/><stop offset="1" stop-color="#131E32"/></radialGradient><radialGradient id="zqyvok188l" cx="0" cy="0" r="1" gradientUnits="userSpaceOnUse" gradientTransform="matrix(23 40.00001 -39.8158 22.89408 45.667 31.333)"><stop stop-color="#6BA0E2"/><stop offset="1" stop-color="#131E32"/></radialGradient><radialGradient id="ktfjpfcgks" cx="0" cy="0" r="1" gradientUnits="userSpaceOnUse" gradientTransform="rotate(72.35 -18.38 52.015) scale(14.4389)"><stop stop-color="#FFD26C"/><stop offset="1" stop-color="#FFD26C" stop-opacity="0"/></radialGradient><radialGradient id="2gwc6qnuhu" cx="0" cy="0" r="1" gradientUnits="userSpaceOnUse" gradientTransform="rotate(72.35 -18.38 52.015) scale(9.28215)"><stop stop-color="#FFD26C"/><stop offset="1" stop-color="#FFD26C" stop-opacity="0"/></radialGradient><radialGradient id="0lf73uqnww" cx="0" cy="0" r="1" gradientUnits="userSpaceOnUse" gradientTransform="matrix(8 0 0 5.5 38 13.5)"><stop/><stop offset="1" stop-opacity=".01"/></radialGradient><radialGradient id="76bn5ycxgx" cx="0" cy="0" r="1" gradientUnits="userSpaceOnUse" gradientTransform="matrix(11 16.49997 -24.01538 16.01027 28.5 2.5)"><stop stop-color="#608FCB"/><stop offset="1" stop-color="#1F2F45"/></radialGradient><radialGradient id="bz2qlc8xjy" cx="0" cy="0" r="1" gradientUnits="userSpaceOnUse" gradientTransform="matrix(38.5 0 0 3 60.5 117)"><stop/><stop offset="1" stop-opacity=".01"/></radialGradient><filter id="psulgyjqzm" x="21.725" y="50.273" width="18.693" height="21.661" filterUnits="userSpaceOnUse" color-interpolation-filters="sRGB"><feFlood flood-opacity="0" result="BackgroundImageFix"/><feColorMatrix in="SourceAlpha" values="0 0 0 0 0 0 0 0 0 0 0 0 0 0 0 0 0 0 127 0" result="hardAlpha"/><feOffset/><feGaussianBlur stdDeviation="1.966"/><feColorMatrix values="0 0 0 0 0.964706 0 0 0 0 0.670588 0 0 0 0 0.14902 0 0 0 0.420892 0"/><feBlend in2="BackgroundImageFix" result="effect1_dropShadow_34_3512"/><feBlend in="SourceGraphic" in2="effect1_dropShadow_34_3512" result="shape"/></filter><filter id="nh02jtkt4n" x="19.699" y="80.921" width="22.015" height="21.995" filterUnits="userSpaceOnUse" color-interpolation-filters="sRGB"><feFlood flood-opacity="0" result="BackgroundImageFix"/><feColorMatrix in="SourceAlpha" values="0 0 0 0 0 0 0 0 0 0 0 0 0 0 0 0 0 0 127 0" result="hardAlpha"/><feOffset/><feGaussianBlur stdDeviation="1.966"/><feColorMatrix values="0 0 0 0 0.964706 0 0 0 0 0.670588 0 0 0 0 0.14902 0 0 0 0.420892 0"/><feBlend in2="BackgroundImageFix" result="effect1_dropShadow_34_3512"/><feBlend in="SourceGraphic" in2="effect1_dropShadow_34_3512" result="shape"/></filter><filter id="6hdxzy49go" x="80.735" y="50.115" width="21.346" height="21.916" filterUnits="userSpaceOnUse" color-interpolation-filters="sRGB"><feFlood flood-opacity="0" result="BackgroundImageFix"/><feColorMatrix in="SourceAlpha" values="0 0 0 0 0 0 0 0 0 0 0 0 0 0 0 0 0 0 127 0" result="hardAlpha"/><feOffset/><feGaussianBlur stdDeviation="1.966"/><feColorMatrix values="0 0 0 0 0.964706 0 0 0 0 0.670588 0 0 0 0 0.14902 0 0 0 0.420892 0"/><feBlend in2="BackgroundImageFix" result="effect1_dropShadow_34_3512"/><feBlend in="SourceGraphic" in2="effect1_dropShadow_34_3512" result="shape"/></filter><filter id="yz7ib40n6p" x="83.641" y="81.779" width="16.314" height="21.661" filterUnits="userSpaceOnUse" color-interpolation-filters="sRGB"><feFlood flood-opacity="0" result="BackgroundImageFix"/><feColorMatrix in="SourceAlpha" values="0 0 0 0 0 0 0 0 0 0 0 0 0 0 0 0 0 0 127 0" result="hardAlpha"/><feOffset/><feGaussianBlur stdDeviation="1.966"/><feColorMatrix values="0 0 0 0 0.964706 0 0 0 0 0.670588 0 0 0 0 0.14902 0 0 0 0.420892 0"/><feBlend in2="BackgroundImageFix" result="effect1_dropShadow_34_3512"/><feBlend in="SourceGraphic" in2="effect1_dropShadow_34_3512" result="shape"/></filter><filter id="ko1j9glzer" x="17.221" y="34.221" width="39.077" height="39.077" filterUnits="userSpaceOnUse" color-interpolation-filters="sRGB"><feFlood flood-opacity="0" result="BackgroundImageFix"/><feBlend in="SourceGraphic" in2="BackgroundImageFix" result="shape"/><feGaussianBlur stdDeviation="2.89" result="effect1_foregroundBlur_34_3512"/></filter><filter id="ost0s6jest" x="22.135" y="39.135" width="29.248" height="29.248" filterUnits="userSpaceOnUse" color-interpolation-filters="sRGB"><feFlood flood-opacity="0" result="BackgroundImageFix"/><feBlend in="SourceGraphic" in2="BackgroundImageFix" result="shape"/><feGaussianBlur stdDeviation="2.89" result="effect1_foregroundBlur_34_3512"/></filter></defs></svg>