<svg width="50" height="50" xmlns="http://www.w3.org/2000/svg"><defs><linearGradient x1="69.705%" y1="20.586%" x2="32.242%" y2="64.859%" id="a"><stop stop-color="#2E4469" offset="0%"/><stop stop-color="#6F90BC" offset="100%"/></linearGradient></defs><g transform="translate(8 11)" fill="none" fill-rule="evenodd"><path d="M26.42 0A2.58 2.58 0 0129 2.58l-.001 10.259h2.42A2.58 2.58 0 0134 15.42v10.84a2.58 2.58 0 01-2.58 2.58H2.58A2.58 2.58 0 010 26.26V15.42a2.58 2.58 0 012.58-2.58H5V2.58A2.58 2.58 0 017.58 0h18.84z" fill="url(#a)"/><rect fill="#22385D" transform="rotate(90 17 16.34)" x="7.5" y="2.339" width="19" height="28" rx="2.58"/><path d="M18.273 11.84l-2.958 1.225 3.341 8.801c.18.475.558.859 1.034 1.051.934.378 1.996-.062 2.367-.98a1.793 1.793 0 00-.006-1.415l-3.778-8.682zm1.224-6.257c-1.779-.719-3.011-.209-3.747.096l-3.67 1.518a.347.347 0 00-.188.19l-.13.322-.328-.132a.357.357 0 00-.27 0l-1.836.76a.344.344 0 00-.192.435l1.256 3.508a.352.352 0 00.191.205l.012.005a.36.36 0 00.27 0l2.293-.95a.347.347 0 00.189-.19l.178-.441c.399.122 1.04.91 1.464 1.53l2.997-1.24c-.146-.37-.331-1.056-.053-1.746.336-.831 1.089-1.812 3.738-.741a.354.354 0 00.383-.077c.1-.1.128-.25.072-.38-.36-.825-.852-1.954-2.63-2.672z" fill="#53B5FF"/></g></svg>